<?xml version="1.0" encoding="utf-8"?>
<!-- Generator: Adobe Illustrator 19.1.0, SVG Export Plug-In . SVG Version: 6.00 Build 0)  -->
<svg version="1.1" id="Layer_1" xmlns="http://www.w3.org/2000/svg" xmlns:xlink="http://www.w3.org/1999/xlink" x="0px" y="0px"
	 viewBox="0 0 1200 1200" enable-background="new 0 0 1200 1200" xml:space="preserve">
<g>
	<circle fill="#FC523A" cx="602.718" cy="600" r="513.457"/>
	<path fill="#7FE2FF" d="M160.692,290.014c-2.734-4.635,394.622,78.924,873.55,1.793c-50.225,139.911-77.131,477.134,8.969,597.314
		c-331.841-44.843-690.588-39.462-871.756,1.794C236.029,774.323,243.204,429.926,160.692,290.014z"/>
	<circle fill="#FCD290" cx="724.445" cy="484.722" r="52.637"/>
	<path fill="#FC523A" d="M374.636,711.064c0,0,40.872,45.682,113.001-10.819c72.129-56.5,115.406-48.085,115.406-48.085
		l-75.735-78.139L374.636,711.064z"/>
	<path fill="#FCD290" d="M627.086,655.766l96.172-84.15l56.5,46.883c0,0-52.894,0-69.724,13.223
		C693.204,644.946,679.98,678.607,627.086,655.766z"/>
	<g>
		<path opacity="0.62" fill="#FFFFFF" d="M992.25,876.14c-1.393,0-2.794-0.114-4.19-0.35
			c-116.434-19.782-235.367-28.195-353.467-24.92c-13.889,0.708-25.314-10.505-25.697-24.325
			c-0.378-13.812,10.509-25.311,24.321-25.693c109.239-2.989,219.102,3.681,327.195,19.854
			c-30.355-157.597-32.781-323.124-6.859-481.095c2.234-13.64,15.049-22.924,28.739-20.636c13.632,2.232,22.87,15.098,20.636,28.73
			c-26.874,163.778-22.118,335.984,13.751,498.01c1.799,8.127-0.563,16.621-6.304,22.656
			C1005.61,873.371,999.042,876.14,992.25,876.14z"/>
		<path opacity="0.62" fill="#FFFFFF" d="M733.852,520.238c-6.45,0-12.896-2.476-17.786-7.427
			c-9.717-9.822-9.63-25.661,0.194-35.377c2.981-2.948,4.743-7.834,4.72-13.062c-0.028-5.22-1.841-10.082-4.849-12.997
			c-9.924-9.618-10.172-25.458-0.554-35.377c9.617-9.919,25.449-10.163,35.376-0.554c12.655,12.264,19.964,30.001,20.062,48.675
			c0.093,18.674-7.04,36.492-19.573,48.886C746.568,517.827,740.207,520.238,733.852,520.238z"/>
		<g>
			<g>
				<path fill="#2A1540" d="M687.619,280.548c-3.2,0-6.4-1.221-8.843-3.665l-78.778-78.781l-78.777,78.781
					c-4.886,4.887-12.802,4.887-17.688,0c-4.886-4.886-4.886-12.801,0-17.688l87.622-87.625c4.69-4.691,12.997-4.691,17.688,0
					l87.621,87.625c4.886,4.887,4.886,12.803,0,17.688C694.02,279.327,690.82,280.548,687.619,280.548z"/>
				<path fill="#2A1540" d="M599.998,1016.474c-3.318,0-6.499-1.319-8.843-3.665l-87.622-87.625c-4.886-4.886-4.886-12.803,0-17.688
					c4.886-4.886,12.802-4.886,17.688,0l78.777,78.782l78.778-78.782c4.886-4.886,12.801-4.886,17.688,0
					c4.886,4.886,4.886,12.802,0,17.688l-87.621,87.625C606.496,1015.155,603.317,1016.474,599.998,1016.474z"/>
			</g>
			<g>
				<path fill="#2A1540" d="M1049.871,692.324c-3.201,0-6.402-1.222-8.846-3.665c-4.885-4.886-4.885-12.801,0-17.688l78.778-78.781
					l-78.778-78.773c-4.885-4.887-4.885-12.803,0-17.688c4.887-4.887,12.803-4.887,17.688,0l87.622,87.617
					c2.346,2.346,3.665,5.53,3.665,8.845c0,3.314-1.318,6.498-3.665,8.843l-87.622,87.626
					C1056.271,691.102,1053.071,692.324,1049.871,692.324z"/>
				<path fill="#2A1540" d="M150.13,692.324c-3.2,0-6.401-1.222-8.843-3.665l-87.621-87.626c-2.346-2.345-3.665-5.53-3.665-8.843
					c0-3.315,1.319-6.499,3.665-8.845l87.621-87.617c4.886-4.887,12.801-4.887,17.688,0c4.885,4.886,4.885,12.801,0,17.688
					L80.197,592.19l78.778,78.781c4.885,4.887,4.885,12.802,0,17.688C156.531,691.102,153.33,692.324,150.13,692.324z"/>
			</g>
			<g>
				<path fill="#2A1540" d="M1004.739,722.511c-0.469-3.096-5.234-40.926-5.51-43.68c-12.609-125.304,2.111-250.948,44.227-375.455
					c1.478-4.367,0.566-9.185-2.405-12.712c-2.968-3.526-7.552-5.26-12.115-4.53c-284.62,44.504-573.252,44.504-857.872,0
					c-4.56-0.73-9.15,1.01-12.117,4.53c-2.97,3.528-3.881,8.346-2.404,12.712c42.057,124.333,56.795,249.8,44.28,374.932
					c-0.293,2.929-5.094,41.107-5.563,44.205c-8.019,52.959-20.903,105.829-38.717,158.493c-1.477,4.367-0.566,9.187,2.404,12.713
					c2.968,3.525,7.577,5.256,12.117,4.53c284.614-44.513,573.246-44.513,857.872,0c0.679,0.107,1.361,0.159,2.038,0.159
					c3.851,0,7.552-1.693,10.077-4.688c2.971-3.527,3.883-8.346,2.405-12.713C1025.641,828.34,1012.758,775.472,1004.739,722.511z
					 M600.001,838.505c-137.557,0-275.117,10.153-411.803,30.469c15.315-48.692,26.558-97.541,33.757-146.465
					c0.357-2.426,4.805-38.498,5.058-41.01c12.308-122.149-0.605-244.615-38.816-366.092c273.366,40.621,550.228,40.621,823.603,0
					c-37.986,120.763-50.971,242.501-39.029,363.935c0.318,3.23,5.179,42.578,5.682,45.921
					c7.212,48.004,18.32,95.932,33.348,143.711C875.116,848.659,737.555,838.505,600.001,838.505z"/>
				<path fill="#2A1540" d="M731.699,561.466c-5.055-4.392-12.6-4.299-17.54,0.216l-84.311,77.062l-83.12-73.793
					c-5.007-4.453-12.547-4.443-17.538,0.031L378.831,699.509c-5.424,4.854-5.888,13.184-1.034,18.611
					c4.852,5.422,13.184,5.885,18.611,1.035l141.604-126.697l142.75,126.727c2.511,2.229,5.633,3.326,8.745,3.326
					c3.638,0,7.256-1.498,9.862-4.427c4.831-5.448,4.337-13.778-1.108-18.606l-48.59-43.138l73.599-67.276l86.14,74.91
					c2.497,2.167,5.576,3.234,8.644,3.234c3.681,0,7.343-1.534,9.952-4.53c4.775-5.494,4.193-13.819-1.297-18.597L731.699,561.466z"
					/>
				<path fill="#2A1540" d="M725.36,525.802c33.173,0,60.164-26.988,60.164-60.164c0-33.177-26.991-60.165-60.164-60.165
					c-33.174,0-60.165,26.988-60.165,60.165C665.195,498.814,692.187,525.802,725.36,525.802z M725.36,431.834
					c18.639,0,33.804,15.162,33.804,33.805c0,18.642-15.165,33.803-33.804,33.803c-18.64,0-33.805-15.162-33.805-33.803
					C691.555,446.996,706.72,431.834,725.36,431.834z"/>
			</g>
		</g>
	</g>
</g>
</svg>
