<?xml version="1.0" encoding="utf-8"?>
<!-- Generator: Adobe Illustrator 19.1.0, SVG Export Plug-In . SVG Version: 6.00 Build 0)  -->
<svg version="1.1" id="Layer_1" xmlns="http://www.w3.org/2000/svg" xmlns:xlink="http://www.w3.org/1999/xlink" x="0px" y="0px"
	 viewBox="0 0 1200 1200" enable-background="new 0 0 1200 1200" xml:space="preserve">
<g>
	<circle fill="#2A1540" cx="600" cy="600" r="550"/>
	<g>
		<g>
			<path fill="#C4E9FB" d="M620.709,807.396h-75.528c-4.689,0-8.489,3.77-8.489,8.423c0,4.652,3.8,8.422,8.489,8.422h75.528
				c4.689,0,8.489-3.77,8.489-8.422C629.198,811.166,625.398,807.396,620.709,807.396z"/>
			<path fill="#C4E9FB" d="M723.606,436.695v-77.43c0-15.828-12.978-28.705-28.932-28.705h-223.46
				c-15.953,0-28.931,12.877-28.931,28.705v127.172c-97.657,45.009-152.494,109.389-139.971,164.934
				c0.413,1.836,1.416,3.38,2.75,4.521c-0.487,1.678-0.48,3.51,0.184,5.271c3.821,10.126,9.949,19.611,18.205,28.185
				c1.668,1.731,3.904,2.602,6.138,2.602c2.109,0,4.221-0.772,5.867-2.332c3.388-3.215,3.511-8.547,0.272-11.91
				c-6.665-6.915-11.569-14.469-14.583-22.454c-0.519-1.373-1.384-2.501-2.43-3.394c0.385-1.317,0.487-2.733,0.164-4.166
				c-10.422-46.24,37.737-101.444,123.405-142.621v216.017c-0.216-0.029-0.436-0.05-0.65-0.08
				c-10.154-1.392-19.99-3.205-29.231-5.386c-4.586-1.092-9.142,1.717-10.224,6.241c-1.087,4.527,1.731,9.067,6.291,10.143
				c9.772,2.31,20.144,4.221,30.834,5.688c0.981,0.134,1.993,0.226,2.979,0.352v103.973c0,15.828,12.978,28.705,28.931,28.705
				h223.46c15.953,0,28.932-12.877,28.932-28.705V701.637l14.366-10.769c2.918-2.188,4.094-5.981,2.927-9.416
				c-1.167-3.425-4.404-5.729-8.044-5.729h-0.034l-9.216,0.038V453.638c75.077,7.962,124.734,35.545,133.545,74.62
				c9.185,40.762-27.151,88.95-97.205,128.907c-4.065,2.316-5.465,7.465-3.127,11.498c1.568,2.712,4.426,4.225,7.364,4.225
				c1.436,0,2.893-0.359,4.225-1.122c76.838-43.822,116.205-98.844,105.309-147.187
				C863.175,477.798,807.295,445.229,723.606,436.695z M694.675,853.883h-223.46c-6.592,0-11.955-5.32-11.955-11.86v-59.414h247.369
				v59.414C706.629,848.563,701.266,853.883,694.675,853.883z M459.26,765.764v-25.913c12.419,1.065,25.151,1.653,38.203,1.653
				c38.831,0,80.141-4.698,122.005-13.989c13.032-2.891,25.859-6.239,38.473-9.915l4.551,15.534c0.779,2.658,2.829,4.77,5.478,5.642
				c0.872,0.287,1.775,0.428,2.673,0.428c1.824,0,3.624-0.582,5.116-1.701l30.868-23.141v51.401H459.26z M657.036,676.03
				c-2.666,0.01-5.17,1.264-6.765,3.379c-1.599,2.119-2.099,4.856-1.353,7.396l4.285,14.622
				c-12.272,3.578-24.755,6.836-37.441,9.652c-54.814,12.162-108.501,16.204-156.501,11.901V403.772h247.369v272.059L657.036,676.03
				z M471.215,347.404h223.46c6.592,0,11.954,5.32,11.954,11.861v27.662H459.26v-27.662
				C459.26,352.724,464.622,347.404,471.215,347.404z"/>
			<path fill="#C4E9FB" d="M384.178,707.177c-9.66-3.596-18.484-7.735-26.226-12.304c-4.032-2.376-9.243-1.07-11.636,2.931
				c-2.397,4-1.075,9.169,2.955,11.545c8.605,5.079,18.344,9.653,28.945,13.601c0.981,0.366,1.989,0.539,2.98,0.539
				c3.436,0,6.668-2.086,7.949-5.467C390.793,713.668,388.568,708.811,384.178,707.177z"/>
		</g>
	</g>
</g>
</svg>
