<?xml version="1.0" encoding="utf-8"?>
<!-- Generator: Adobe Illustrator 19.1.0, SVG Export Plug-In . SVG Version: 6.00 Build 0)  -->
<svg version="1.1" id="Layer_1" xmlns="http://www.w3.org/2000/svg" xmlns:xlink="http://www.w3.org/1999/xlink" x="0px" y="0px"
	 viewBox="0 0 1200 1200" enable-background="new 0 0 1200 1200" xml:space="preserve">
<g>
	<circle fill="#2A1540" cx="600" cy="600" r="550"/>
	<g>
		<path fill="#C4E9FB" d="M260.5,892.139c0.149,3.422,2.371,6.416,5.624,7.567c19.09,6.774,36.204,15.137,54.322,23.991
			c41.059,20.059,83.504,40.796,148.467,40.796c0.922,0,1.84-0.007,2.769-0.014c0.924,0.007,1.847,0.014,2.762,0.014
			c64.824,0,107.258-20.737,148.32-40.796c18.118-8.853,35.232-17.217,54.322-23.991c3.253-1.151,5.475-4.146,5.624-7.567
			c0.146-3.425-1.811-6.596-4.95-8.021c-38.347-17.404-88.129-47.119-107.514-89.827c-3.986-8.782-6.807-18.479-8.522-29.02
			c23.966,7.966,48.25,14.327,65.995,14.327c1.436,0,2.825-0.039,4.174-0.125c12.634-0.806,24.787-8.045,35.14-20.941
			c0.222-0.276,0.428-0.566,0.613-0.868c16.159-26.331,32.179-117.274,33.428-212.013c17.811-27.059,16.577-60.89,16.508-62.512
			c-0.199-4.518-3.953-8.054-8.476-8.054c-0.1,0-0.199,0-0.298,0.006l-9.763,0.331c-0.698-9.275-1.556-18.451-2.636-27.44
			c-0.022-0.198-0.052-0.392-0.092-0.589l-10.005-51.807C665.787,289.31,560.286,219.728,451.174,240.467
			C342.046,261.21,269.956,364.549,290.475,470.828l8.739,45.253c-1.242,2.335-2.344,4.777-3.281,7.324
			c-4.059,11.042-5.077,23.016-2.944,34.638c3.206,17.465,13.075,32.649,27.792,42.753c1.435,0.984,2.899,1.907,4.389,2.771
			c12.519,26.333,28.458,47.875,47.386,66.003c8.909,39.763,4.675,82.686-12.163,119.788
			c-18.771,41.355-53.377,75.896-94.942,94.761C262.31,885.543,260.353,888.714,260.5,892.139z M289.517,890.718
			c37.617-21.579,68.538-55.192,86.355-94.445c15.41-33.949,21.129-72.385,16.803-109.488c28.001,21.437,61.09,37.606,98.228,51.847
			c3.836,1.47,8.406,3.28,13.532,5.306c11.256,4.455,24.93,9.857,39.372,15.098c1.622,15.501,5.249,29.594,10.958,42.172
			c18.576,40.923,60.809,70.457,98.368,89.747c-13.138,5.543-25.649,11.657-37.871,17.628
			c-41.098,20.082-79.958,39.065-140.912,39.065c-0.888,0-1.77-0.003-2.669-0.013c-0.896,0.01-1.788,0.013-2.673,0.013
			c-61.111,0-99.96-18.983-141.062-39.065C315.547,902.525,302.857,896.327,289.517,890.718z M630.804,762.662
			c-28.663,1.862-88.126-21.724-120.078-34.367c-5.19-2.056-9.819-3.886-13.702-5.376
			c-66.014-25.312-116.679-55.462-148.565-111.104c3.395,0.528,6.835,0.805,10.299,0.805c4.033,0,8.094-0.362,12.147-1.092
			c4.612-0.836,7.67-5.221,6.831-9.798c-0.842-4.577-5.26-7.609-9.875-6.777c-13.151,2.388-26.438-0.471-37.42-8.011
			c-10.986-7.54-18.354-18.878-20.745-31.916c-1.594-8.678-0.835-17.618,2.189-25.849c5.409-14.71,18.334-24.605,33.734-25.829
			c14.749-1.184,27.874,5.856,35.166,18.805c6.644,11.795,7.842,26.705,3.557,44.309c-1.098,4.523,1.704,9.074,6.26,10.166
			c4.559,1.073,9.146-1.691,10.247-6.211c5.315-21.862,3.555-40.865-5.243-56.483c-2.316-4.112-5.106-7.8-8.242-11.075
			l313.007-10.624c-0.895,12.577-4.702,36.607-20.274,52.699c-10.773,11.127-25.732,16.769-44.46,16.769
			c-37.624,0-70.862-41.875-71.194-42.299c-1.671-2.133-4.297-3.373-6.996-3.254l-35.81,1.211c-4.685,0.161-8.356,4.057-8.196,8.706
			c0.159,4.552,3.926,8.136,8.479,8.136c0.099,0,0.198,0,0.295-0.006l31.63-1.07c9.643,11.163,42.448,45.421,81.792,45.421
			c19.069,0,35.158-4.935,48.098-14.526c-2.932,86.425-17.911,163.468-30.324,184.444
			C649.135,753.684,640.802,762.027,630.804,762.662z M669.637,398.758l9.948,51.511c1.014,8.484,1.832,17.08,2.501,25.73
			l-325.1,11.039c-4.136-0.637-8.394-0.827-12.723-0.484c-11.73,0.932-22.43,5.376-31.061,12.451l-6.054-31.348
			C288.39,370.5,354.434,276.005,454.371,257.009C554.308,238.023,650.875,301.605,669.637,398.758z"/>
		<path fill="#C4E9FB" d="M941.763,278.838c4.689,0,8.489,3.77,8.489,8.422v462.519c0,4.652-3.8,8.422-8.489,8.422
			c-4.689,0-8.489-3.771-8.489-8.422V287.26C933.274,282.608,937.074,278.838,941.763,278.838z"/>
		<path fill="#C4E9FB" d="M752.778,458.23c4.689,0,8.489,3.771,8.489,8.422v103.733c0,4.653-3.8,8.423-8.489,8.423
			c-4.689,0-8.489-3.77-8.489-8.423V466.653C744.289,462.001,748.089,458.23,752.778,458.23z"/>
		<path fill="#C4E9FB" d="M815.772,412.362c4.689,0,8.489,3.77,8.489,8.422v195.471c0,4.652-3.8,8.422-8.489,8.422
			c-4.689,0-8.489-3.771-8.489-8.422V420.784C807.283,416.132,811.083,412.362,815.772,412.362z"/>
		<path fill="#C4E9FB" d="M878.769,359.758c4.689,0,8.489,3.771,8.489,8.422v300.682c0,4.652-3.8,8.422-8.489,8.422
			c-4.689,0-8.489-3.77-8.489-8.422V368.18C870.28,363.529,874.08,359.758,878.769,359.758z"/>
	</g>
</g>
</svg>
