<?xml version="1.0" encoding="utf-8"?>
<!-- Generator: Adobe Illustrator 19.1.0, SVG Export Plug-In . SVG Version: 6.00 Build 0)  -->
<svg version="1.1" id="Layer_1" xmlns="http://www.w3.org/2000/svg" xmlns:xlink="http://www.w3.org/1999/xlink" x="0px" y="0px"
	 viewBox="0 0 1200 1200" enable-background="new 0 0 1200 1200" xml:space="preserve">
<g>
	<circle fill="#2A4978" cx="600" cy="615.601" r="534.399"/>
	<g>
		<path fill="#FCAC6F" d="M458.339,698.759c0,0,30.131,224.097-154.419,325.787c97.925,60.261,212.798,105.457,310.722,96.042
			c97.924-9.416,199.615-58.378,222.213-67.794c22.598-9.416,52.728-22.598,52.728-22.598S703.15,958.635,708.8,811.749
			C588.277,775.969,488.47,740.188,458.339,698.759z"/>
		<path fill="#FCD290" d="M331.539,406.241c0,0-8.788-190.828,82.859-257.366C506.045,82.337,617.78,28.353,724.493,87.358
			c106.713,59.006,165.718,116.756,178.273,253.6c12.554,136.843,23.854,268.665,2.511,345.246
			c-21.342,76.582-21.342,140.609-66.538,156.931c-45.196,16.32-258.621-65.283-306.328-92.903
			c-47.706-27.62-121.778-102.946-146.887-165.719c-26.364-7.532-56.495-77.837-38.918-110.478
			C364.181,441.393,331.539,406.241,331.539,406.241z"/>
		<path fill="#278EB3" d="M656.96,463.637c4.307-4.037,110.862-95.356,110.862-95.356s13.18-13.955,49.617-14.73
			s136.446,4.651,136.446,4.651s31.01,20.932,35.662,47.292c4.651,26.358,28.685,159.703-24.033,220.173
			c-60.471,12.405-68.224,10.854-106.986,13.18c-38.763,2.326-61.246-8.528-79.852-16.281
			c-18.606-7.753-115.514-101.559-115.514-101.559S632.151,486.895,656.96,463.637z"/>
		<path fill="#FC523A" d="M873.099,364.816c-11.59,0-21.738-8.475-23.504-20.281c-9.374-62.685-39.485-121.618-84.778-165.948
			c-45.296-44.331-104.866-73.162-167.738-81.181c-13.037-1.665-22.256-13.58-20.59-26.616
			c1.665-13.042,13.611-22.249,26.616-20.598c73.09,9.322,142.345,42.843,195.007,94.381
			c52.653,51.535,87.66,120.049,98.552,192.922c1.944,12.999-7.019,25.115-20.018,27.055
			C875.454,364.726,874.268,364.816,873.099,364.816z"/>
		<path fill="#FC523A" d="M800.054,845.422c-15.555,0-29.917-5.322-40.81-15.203c-9.729-8.835-10.458-23.883-1.626-33.616
			c8.831-9.735,23.867-10.474,33.62-1.632c2.339,2.127,5.771,3.064,10.07,2.82c7.7-0.452,16.392-4.795,21.636-10.81
			c12.403-14.23,16.701-37.009,20.497-57.104l16.616-88.044c2.448-12.918,14.851-21.439,27.803-18.971
			c12.913,2.436,21.404,14.88,18.971,27.795l-16.617,88.048c-4.679,24.765-10.497,55.578-31.389,79.55
			c-13.712,15.733-34.177,25.846-54.737,27.05C802.742,845.383,801.394,845.422,800.054,845.422z"/>
		<path fill="#FC523A" d="M826.968,1070.761c-3.595,0-7.242-0.813-10.674-2.537c-90.372-45.426-154.886-135.914-168.358-236.155
			c-1.751-13.026,7.39-25.002,20.421-26.753c13.083-1.797,24.997,7.395,26.756,20.417c11.403,84.879,66.032,161.501,142.561,199.963
			c11.736,5.903,16.476,20.207,10.574,31.95C844.064,1065.962,835.675,1070.761,826.968,1070.761z"/>
		<path fill="#63EFFF" d="M947.22,627.132c-3.091,0-6.22-0.604-9.249-1.882c-12.108-5.108-17.779-19.068-12.666-31.175
			c28.028-66.408,18.391-146.726-24.557-204.624c-7.831-10.555-5.623-25.459,4.935-33.291c10.543-7.836,25.464-5.625,33.288,4.938
			c52.785,71.153,64.63,169.864,30.18,251.483C965.316,621.667,956.501,627.132,947.22,627.132z"/>
		<g>
			<g>
				<path fill="#2A1540" d="M286.636,1039.864c28.195,10.084,53.47,22.531,80.234,35.708
					c60.644,29.865,123.322,60.728,219.066,60.728c1.346,0,2.708-0.005,4.065-0.017c1.365,0.013,2.718,0.017,4.074,0.017
					c95.949,0,158.637-30.866,219.281-60.728c26.764-13.177,52.041-25.624,80.235-35.708c4.804-1.715,8.085-6.173,8.306-11.269
					c0.214-5.095-2.674-9.813-7.313-11.937c-56.638-25.915-130.163-70.15-158.788-133.716
					c-5.887-13.073-10.052-27.505-12.586-43.196c35.391,11.856,71.251,21.324,97.458,21.324c2.119,0,4.188-0.061,6.175-0.192
					c18.66-1.195,36.609-11.971,51.898-31.167c0.327-0.411,0.632-0.842,0.901-1.29c15.731-25.832,31.365-93.486,40.736-176.957
					h12.548c22.861,0,43.405-12.486,53.611-32.585c45.224-89.067,21.515-187.737,3.356-238.629
					c-8.498-23.806-31.299-39.8-56.747-39.8h-16.158l-9.774-51.014C876.905,131.231,721.084,27.662,559.94,58.528
					c-78.03,14.952-145.692,58.823-190.518,123.535c-44.389,64.077-61.086,140.992-47.231,216.857
					c-1.351,0.932-2.617,1.99-3.652,3.296c-3.278,4.124-4.414,9.618-3.042,14.709l16.245,60.114
					c-0.358,0.892-0.747,1.76-1.079,2.668c-5.995,16.434-7.498,34.262-4.349,51.56c5.381,29.526,23.434,53.589,47.509,67.663
					c18.495,39.24,42.042,71.33,70,98.332c13.162,59.2,6.911,123.107-17.961,178.335c-27.723,61.556-78.833,112.974-140.222,141.063
					c-4.637,2.123-7.527,6.842-7.311,11.937C278.55,1033.691,281.832,1038.149,286.636,1039.864z M473.541,722.9
					c41.356,31.923,90.227,55.99,145.075,77.189c5.667,2.189,12.42,4.883,19.986,7.902c16.626,6.632,36.822,14.673,58.151,22.474
					c2.395,23.074,7.752,44.051,16.183,62.773c27.429,60.913,89.808,104.88,145.28,133.599
					c-19.403,8.254-37.881,17.351-55.938,26.242c-61.58,30.319-119.898,58.923-212.277,58.129
					c-92.361,0.727-150.474-27.807-212.054-58.129c-18.311-9.017-37.058-18.247-56.76-26.596
					c55.566-32.129,101.224-82.162,127.537-140.592C471.486,835.354,479.932,778.137,473.541,722.9z M423.617,612.491
					c5.858,0,11.808-0.524,17.772-1.61c6.812-1.242,11.329-7.768,10.089-14.58c-1.244-6.812-7.767-11.35-14.584-10.088
					c-40.07,7.285-78.609-19.367-85.904-59.438c-2.356-12.919-1.234-26.224,3.231-38.479c7.988-21.893,27.078-36.631,49.822-38.451
					c21.817-1.705,41.172,8.724,51.936,27.995c9.815,17.559,11.584,39.752,5.256,65.964c-1.621,6.729,2.517,13.503,9.246,15.127
					c6.744,1.644,13.508-2.515,15.133-9.246c1.399-5.801,2.347-11.416,3.082-16.943l201.141,34.777l87.803,70.621
					c10.682,8.592,24.115,13.326,37.827,13.326h79.689c-9.161,79.233-23.762,141.51-36.532,163.254
					c-6.313,7.775-18.614,20.193-33.386,21.14c-42.42,2.669-130.148-32.33-177.344-51.158c-7.665-3.06-14.496-5.784-20.236-8.002
					c-97.506-37.685-172.339-82.57-219.444-165.49C413.263,612.013,418.401,612.491,423.617,612.491z M390.03,196.34
					C431.1,137.06,493.115,96.862,564.662,83.156c17.601-3.374,35.119-4.995,52.392-4.995c127.573,0,241.133,88.621,265.538,215.992
					l8.869,46.298h-91.906c-15.349,0-29.977,5.771-41.191,16.247l-59.609,55.675l-351.554-15.837
					C333.848,326.583,349.055,255.493,390.03,196.34z M966.278,388.68c16.803,47.094,38.875,138.151-2.102,218.847
					c-5.818,11.458-18.086,18.862-31.25,18.862h-117.46c-8.012,0-15.867-2.764-22.112-7.789l-118.027-94.928
					c-7.974-6.414-12.763-15.955-13.14-26.184c-0.382-10.228,3.693-20.101,11.171-27.088l102.12-95.38
					c6.553-6.124,15.103-9.495,24.076-9.495h133.591C948.019,365.526,961.336,374.831,966.278,388.68z"/>
				<path fill="#2A1540" d="M923.327,398.62l-26.578-19.357c-5.603-4.073-13.438-2.845-17.514,2.755
					c-4.08,5.597-2.845,13.439,2.753,17.516l26.579,19.357c2.227,1.62,4.809,2.402,7.37,2.402c3.873,0,7.689-1.788,10.142-5.158
					C930.16,410.538,928.925,402.697,923.327,398.62z"/>
				<path fill="#2A1540" d="M926.079,575.781c-4.075-5.595-11.91-6.822-17.512-2.755l-26.579,19.358
					c-5.598,4.076-6.833,11.917-2.753,17.516c2.455,3.368,6.269,5.156,10.143,5.156c2.561,0,5.143-0.781,7.371-2.402l26.578-19.356
					C928.925,589.219,930.16,581.378,926.079,575.781z"/>
			</g>
		</g>
	</g>
</g>
</svg>
