<?xml version="1.0" encoding="utf-8"?>
<!-- Generator: Adobe Illustrator 19.1.0, SVG Export Plug-In . SVG Version: 6.00 Build 0)  -->
<svg version="1.1" id="Layer_1" xmlns="http://www.w3.org/2000/svg" xmlns:xlink="http://www.w3.org/1999/xlink" x="0px" y="0px"
	 viewBox="0 0 1200 1200" enable-background="new 0 0 1200 1200" xml:space="preserve">
<g>
	<circle fill="#2A1540" cx="600" cy="600" r="550"/>
	<g>
		<path fill="#C4E9FB" d="M555.904,945.183c-5.568,0-11.828-0.916-16.372-5.293c-5.429-5.225-5.99-12.922-5.872-19.036
			c0.477-24.896,0.432-50.266,0.387-74.798c-0.031-19.182-0.068-39.019,0.147-58.555c0.07-6.432-0.865-7.837-6.675-9.997
			c-25.673-9.544-38.117-28.258-36.992-55.621c0.947-23.043,0.729-46.623,0.52-69.426c-0.095-10.211-0.189-20.416-0.184-30.621
			c0.019-44.511,18.909-68.449,59.184-74.454c-19.024-18.261-24.442-37.74-17.068-60.236c7.679-23.429,31.017-40.243,55.693-40.243
			c0.27,0,0.538,0,0.808,0.005c25.206,0.38,48.573,17.85,55.564,41.539c6.518,22.091,0.955,41.065-17.492,58.556
			c16.808,2.596,30.333,10.397,40.981,23.547c10.897,13.453,16.131,27.686,16.003,43.506c-0.189,22.819-0.157,45.645-0.128,68.465
			c0.018,14.014,0.037,28.029,0.005,42.038c-0.06,27.15-12.834,45.259-37.967,53.831c-5.573,1.894-6.402,3.185-6.336,9.851
			c0.21,21.836,0.194,43.677,0.175,65.519c-0.015,22.257-0.033,45.28,0.202,67.897c0.065,6.328-0.569,13.473-5.793,18.453
			c-5.258,5.012-12.607,5.261-17.684,5.001c-19.103-0.947-38.643-0.958-58.092-0.005
			C557.947,945.151,556.938,945.183,555.904,945.183z M588.687,462.888c-17.605,0-34.898,12.464-40.385,29.2
			c-4.789,14.618-5.345,32.593,26.868,55.038c2.801,1.952,4.054,5.454,3.121,8.723c-0.937,3.267-3.852,5.594-7.27,5.797
			l-7.181,0.426c-40.374,2.165-56.847,19.484-56.862,59.774c-0.006,10.147,0.089,20.306,0.183,30.464
			c0.212,22.997,0.43,46.784-0.535,70.229c-0.842,20.52,7.345,32.854,26.548,39.998c12.15,4.517,17.274,12.037,17.133,25.136
			c-0.213,19.436-0.179,39.222-0.148,58.358c0.045,24.609,0.09,50.062-0.393,75.125c-0.116,6.13,0.978,7.254,0.989,7.265
			c0.01,0.015,1.135,1.009,7.377,0.718c19.974-0.968,40.057-0.974,59.685,0.005c4.569,0.203,5.712-0.557,5.72-0.573
			c0.021-0.026,0.896-1.118,0.836-6.749c-0.236-22.705-0.217-45.775-0.202-68.079c0.018-21.784,0.035-43.568-0.175-65.347
			c-0.092-9.497,1.883-19.91,17.218-25.13c18.685-6.37,27.038-18.319,27.085-38.739c0.032-13.994,0.013-27.993-0.005-41.987
			c-0.029-22.872-0.06-45.743,0.128-68.615c0.1-12.151-3.858-22.751-12.449-33.363c-11.708-14.456-27.691-20.212-50.277-18.146
			c-3.646,0.379-7.115-1.842-8.343-5.303c-1.225-3.456,0.073-7.296,3.155-9.321c33.406-21.93,33.442-40.035,29.074-54.855
			c-4.975-16.857-22.32-29.772-40.343-30.043C589.056,462.888,588.871,462.888,588.687,462.888z"/>
		<g>
			<path fill="#C4E9FB" d="M587.836,258.905c-0.116,0-0.224,0.029-0.339,0.034c-0.115-0.005-0.222-0.034-0.338-0.034
				c-138.773,0-345.231,19.107-345.231,71.751v313.338c0,1.535,0.452,2.955,1.19,4.183c7.931,35.404,115.55,52.515,180.71,59.659
				c0.299,0.032,0.601,0.048,0.898,0.049l0.011,0.001l0.003-0.001l0.005,0.001c0.547,0,1.08-0.059,1.598-0.161
				c0.183-0.036,0.353-0.103,0.531-0.15c0.327-0.087,0.653-0.172,0.965-0.297c0.207-0.083,0.396-0.193,0.595-0.292
				c0.264-0.131,0.526-0.258,0.773-0.416c0.192-0.123,0.366-0.265,0.546-0.402c0.23-0.174,0.456-0.348,0.666-0.544
				c0.163-0.154,0.309-0.319,0.459-0.485c0.195-0.215,0.384-0.433,0.555-0.668c0.132-0.181,0.249-0.37,0.366-0.561
				c0.151-0.248,0.292-0.499,0.417-0.763c0.099-0.209,0.185-0.424,0.267-0.641c0.1-0.269,0.185-0.541,0.257-0.824
				c0.06-0.234,0.109-0.468,0.149-0.71c0.022-0.136,0.068-0.264,0.083-0.404c0.018-0.159-0.004-0.31,0.005-0.468
				c0.007-0.147,0.044-0.285,0.044-0.434V595.848c22.571-2.219,46.471-3.929,71.104-5.131c2.384-6.475,5.735-12.434,10.802-16.935
				c-28.419,1.187-56.007,3.035-81.906,5.548V386.326c0-0.136-0.034-0.265-0.041-0.399c-0.013-0.283-0.041-0.559-0.084-0.836
				c-0.041-0.271-0.093-0.535-0.16-0.797c-0.065-0.252-0.143-0.496-0.231-0.739c-0.097-0.266-0.202-0.524-0.324-0.777
				c-0.108-0.22-0.225-0.432-0.351-0.64c-0.148-0.246-0.303-0.484-0.476-0.712c-0.145-0.191-0.299-0.373-0.459-0.553
				c-0.192-0.213-0.39-0.414-0.602-0.608c-0.179-0.162-0.367-0.312-0.561-0.459c-0.23-0.174-0.466-0.336-0.715-0.487
				c-0.205-0.123-0.414-0.234-0.631-0.339c-0.271-0.134-0.546-0.252-0.834-0.356c-0.22-0.079-0.441-0.145-0.668-0.206
				c-0.308-0.081-0.619-0.146-0.939-0.193c-0.117-0.018-0.226-0.06-0.346-0.072c-121.736-12.653-167.103-35.85-167.103-47.5
				c0-7.247,19.366-23.161,91.952-36.847c63.147-11.906,147.211-18.464,236.709-18.464c0.116,0,0.223-0.029,0.338-0.034
				c0.115,0.005,0.222,0.034,0.339,0.034c89.498,0,173.561,6.557,236.708,18.464c72.585,13.686,91.951,29.6,91.951,36.847
				c0,11.649-45.365,34.848-167.102,47.5c-0.12,0.012-0.227,0.053-0.346,0.072c-0.32,0.047-0.632,0.111-0.939,0.193
				c-0.228,0.061-0.45,0.127-0.669,0.206c-0.287,0.104-0.562,0.222-0.833,0.356c-0.217,0.105-0.427,0.216-0.632,0.339
				c-0.249,0.151-0.484,0.313-0.715,0.487c-0.194,0.146-0.381,0.296-0.561,0.459c-0.213,0.194-0.41,0.395-0.602,0.608
				c-0.161,0.18-0.314,0.361-0.459,0.553c-0.172,0.229-0.327,0.466-0.475,0.712c-0.126,0.209-0.244,0.42-0.351,0.641
				c-0.122,0.253-0.227,0.51-0.323,0.775c-0.089,0.243-0.166,0.488-0.232,0.74c-0.067,0.263-0.119,0.526-0.16,0.797
				c-0.043,0.276-0.071,0.553-0.085,0.836c-0.007,0.135-0.04,0.263-0.04,0.399v193.003c-24.753-2.401-51.04-4.203-78.127-5.395
				c2.181,5.647,4.678,11.159,6.891,16.776c24.681,1.201,48.625,2.914,71.236,5.137v103.819c0,0.149,0.035,0.287,0.043,0.434
				c0.008,0.158-0.013,0.309,0.005,0.468c0.015,0.139,0.061,0.268,0.084,0.404c0.039,0.242,0.088,0.476,0.148,0.71
				c0.072,0.283,0.158,0.557,0.258,0.826c0.081,0.217,0.166,0.43,0.266,0.638c0.125,0.265,0.266,0.516,0.418,0.764
				c0.117,0.191,0.233,0.379,0.365,0.561c0.172,0.235,0.361,0.453,0.556,0.668c0.15,0.166,0.296,0.331,0.459,0.485
				c0.211,0.197,0.436,0.371,0.666,0.544c0.18,0.137,0.354,0.28,0.546,0.402c0.248,0.158,0.511,0.286,0.775,0.417
				c0.198,0.099,0.387,0.208,0.593,0.291c0.312,0.125,0.639,0.211,0.966,0.298c0.178,0.048,0.347,0.114,0.53,0.15
				c0.519,0.102,1.052,0.161,1.598,0.161c0,0,0.003-0.001,0.006-0.001l0.004,0.001l0.007-0.001c0.301-0.001,0.602-0.017,0.902-0.049
				c65.16-7.144,172.778-24.255,180.71-59.659c0.738-1.229,1.189-2.648,1.189-4.183V330.656
				C933.066,278.012,726.608,258.905,587.836,258.905z M416.451,393.709v296.736c-108.375-12.772-157.276-34.637-157.276-46.451
				c0-1.154-0.244-2.25-0.677-3.247V354.604C290.987,376.346,364.489,387.978,416.451,393.709z M916.495,640.748
				c-0.433,0.996-0.676,2.092-0.676,3.246c0,11.814-48.901,33.679-157.276,46.451V393.709
				c51.962-5.73,125.464-17.362,157.952-39.104V640.748z"/>
		</g>
		<path fill="#C4E9FB" d="M633.307,511.52h-91.619c-4.45,0-8.057-3.58-8.057-7.994s3.606-7.994,8.057-7.994h91.619
			c4.45,0,8.057,3.58,8.057,7.994S637.757,511.52,633.307,511.52z"/>
		<path fill="#C4E9FB" d="M818.529,945.183H356.465c-4.451,0-8.057-3.58-8.057-7.994c0-4.413,3.606-7.993,8.057-7.993h462.064
			c4.451,0,8.057,3.58,8.057,7.993C826.586,941.602,822.98,945.183,818.529,945.183z"/>
	</g>
</g>
</svg>
