<?xml version="1.0" encoding="utf-8"?>
<!-- Generator: Adobe Illustrator 19.1.0, SVG Export Plug-In . SVG Version: 6.00 Build 0)  -->
<svg version="1.1" id="Layer_1" xmlns="http://www.w3.org/2000/svg" xmlns:xlink="http://www.w3.org/1999/xlink" x="0px" y="0px"
	 viewBox="0 0 1200 1200" enable-background="new 0 0 1200 1200" xml:space="preserve">
<g>
	<circle fill="#FC523A" cx="599.814" cy="600.834" r="484.196"/>
	<path fill="#278EB3" d="M99.776,320.656v-57.555c0,0,4.17-20.507,46.655-19.179c42.486,1.328,289.631,1.328,289.631,1.328
		s29.308,11.949,29.308,29.209s5.36,651.89,5.36,651.89s5.335,57.09-41.134,58.418c-46.468,1.328-300.043-1.328-300.043-1.328
		s-40.219-3.983-41.547-34.52C86.679,918.381,99.776,320.656,99.776,320.656z"/>
	<rect x="99.03" y="326.237" fill="#FCD290" width="366.439" height="537.709"/>
	<circle fill="#63EFFF" cx="766.834" cy="131.199" r="71.463"/>
	<circle fill="#FCD290" cx="1032.108" cy="396.473" r="71.463"/>
	<circle fill="#63EFFF" cx="1020.05" cy="794.385" r="71.463"/>
	<circle fill="#FCD290" cx="766.834" cy="1065.689" r="71.463"/>
	<path fill="#63EFFF" d="M422.964,852.437c-1.885,18.734-5.529,36.85-13.348,53.046c-11.077,22.938-36.665,44.983-62.18,40.831
		c-13.141-2.221-25.729,6.785-27.904,20.028c-2.174,13.237,6.793,25.731,20.029,27.904c4.989,0.823,9.907,1.209,14.739,1.209
		c45.1,0,91.799-8.927,108.602-43.726c12.559-25.991,12.758-65.078,11.801-99.292H422.964z"/>
	<path fill="#63EFFF" d="M399.914,295.54c0.261-0.009,0.522-0.016,0.783-0.009c11.923,0,23.309,12.383,28.022,24.149
		c1.234,3.08,2.16,6.327,2.96,9.639h49.508c-1.436-9.234-3.694-18.524-7.366-27.698c-11.086-27.69-38.388-54.922-74.349-54.652
		c-13.411,0.244-24.085,11.322-23.832,24.733C375.885,284.961,386.709,295.54,399.914,295.54z"/>
	<path opacity="0.62" fill="#FFFFFF" d="M425.208,807.017c-0.418,18.979-0.933,38.283-3.655,56.722h53.397
		c-0.34-20.845-1.506-40.67-1.177-55.655l-3.895-417.756c0.346-15.714,0.125-42.423-2.596-59.711l-35.67-1.583
		c3.701,15.078,3.387,32.264,3.021,49.022L425.208,807.017z"/>
	<path fill="#FFFFFF" d="M802.798,203.945c-4.293,0-8.643-1.138-12.581-3.525c-11.464-6.959-15.117-21.903-8.159-33.368
		c12.493-20.59,5.283-52.565-14.841-65.794c-11.204-7.37-14.319-22.433-6.951-33.645c7.37-11.196,22.433-14.326,33.645-6.95
		c41.71,27.429,55.579,88.922,29.675,131.596C819.015,199.786,811.005,203.945,802.798,203.945z"/>
	<path opacity="0.62" fill="#FFFFFF" d="M1066.74,467.58c-4.08,0-8.216-1.036-12.019-3.202
		c-11.647-6.651-15.703-21.484-9.054-33.139c12.161-21.301,7.558-52.352-10.256-69.202c-9.749-9.22-10.175-24.599-0.956-34.339
		c9.227-9.742,24.59-10.17,34.34-0.958c34.222,32.38,42.42,87.657,19.063,128.584C1083.376,463.175,1075.177,467.58,1066.74,467.58z
		"/>
	<path fill="#FFFFFF" d="M1034.1,855.258c-11.331,0-21.467-7.977-23.792-19.514c-2.641-13.15,5.874-25.951,19.031-28.6
		c7.204-1.448,13.806-7.354,16.044-14.359c2.238-6.99,0.293-15.625-4.729-20.985c-9.18-9.789-8.682-25.16,1.106-34.332
		c9.798-9.18,25.16-8.674,34.333,1.106c17.047,18.178,23.151,45.267,15.561,69.012c-7.607,23.76-28.307,42.279-52.748,47.188
		C1037.295,855.1,1035.681,855.258,1034.1,855.258z"/>
	<path opacity="0.62" fill="#FFFFFF" d="M783.394,1148.661c-7.061,0-14.051-3.06-18.857-8.958
		c-8.468-10.407-6.895-25.705,3.511-34.174c7.914-6.437,12.635-17.585,12.643-29.817c0-12.232-4.729-23.388-12.643-29.833
		c-10.398-8.468-11.963-23.768-3.496-34.173c8.468-10.39,23.776-11.964,34.173-3.495c19.412,15.806,30.546,40.42,30.546,67.509
		c-0.008,27.089-11.142,51.688-30.56,67.495C794.202,1146.874,788.779,1148.661,783.394,1148.661z"/>
	<g>
		<g>
			<path fill="#2A1540" d="M431.067,995.435H134.382c-26.576,0-48.2-21.618-48.2-48.193V282.258c0-26.575,21.625-48.2,48.2-48.2
				h296.685c26.576,0,48.201,21.625,48.201,48.2v664.984C479.268,973.817,457.643,995.435,431.067,995.435z M134.382,258.349
				c-13.181,0-23.91,10.729-23.91,23.91v664.984c0,13.181,10.729,23.902,23.91,23.902h296.685c13.181,0,23.911-10.722,23.911-23.902
				V282.258c0-13.181-10.73-23.91-23.911-23.91H134.382z"/>
			<path fill="#2A1540" d="M462.711,870.632H102.739c-6.705,0-12.145-5.44-12.145-12.145c0-6.705,5.44-12.145,12.145-12.145h359.972
				c6.705,0,12.145,5.44,12.145,12.145C474.856,865.192,469.416,870.632,462.711,870.632z"/>
			<path fill="#2A1540" d="M462.711,338.857H102.739c-6.705,0-12.145-5.44-12.145-12.144c0-6.707,5.44-12.146,12.145-12.146h359.972
				c6.705,0,12.145,5.439,12.145,12.146C474.856,333.417,469.416,338.857,462.711,338.857z"/>
			<path fill="#2A1540" d="M353.903,933.974H211.547c-6.705,0-12.145-5.439-12.145-12.145c0-6.705,5.44-12.145,12.145-12.145
				h142.356c6.706,0,12.145,5.44,12.145,12.145C366.048,928.535,360.609,933.974,353.903,933.974z"/>
		</g>
		<g>
			<path fill="#2A1540" d="M531.81,744.136c-6.705,0-12.145-5.441-12.145-12.145c0-6.705,5.44-12.145,12.145-12.145
				c52.921,0,95.975-43.053,95.975-95.975c0-52.921-43.053-95.975-95.975-95.975c-6.705,0-12.145-5.439-12.145-12.145
				c0-6.705,5.44-12.145,12.145-12.145c66.315,0,120.265,53.95,120.265,120.265C652.075,690.187,598.125,744.136,531.81,744.136z"/>
			<path fill="#2A1540" d="M762.1,220.197c-46.919,0-85.095-38.175-85.095-85.095C677.005,88.174,715.181,50,762.1,50
				c46.928,0,85.102,38.174,85.102,85.103C847.202,182.022,809.028,220.197,762.1,220.197z M762.1,74.29
				c-33.525,0-60.805,27.279-60.805,60.812c0,33.525,27.28,60.805,60.805,60.805c33.534,0,60.812-27.279,60.812-60.805
				C822.912,101.569,795.634,74.29,762.1,74.29z"/>
			<path fill="#2A1540" d="M1028.723,478.091c-46.92,0-85.095-38.175-85.095-85.095s38.175-85.095,85.095-85.095
				c46.92,0,85.095,38.175,85.095,85.095S1075.643,478.091,1028.723,478.091z M1028.723,332.191
				c-33.526,0-60.805,27.279-60.805,60.805s27.279,60.805,60.805,60.805c33.525,0,60.804-27.279,60.804-60.805
				S1062.249,332.191,1028.723,332.191z"/>
			<path fill="#2A1540" d="M1024.358,883.378c-46.92,0-85.095-38.175-85.095-85.095c0-46.92,38.175-85.095,85.095-85.095
				c46.928,0,85.103,38.175,85.103,85.095C1109.461,845.203,1071.287,883.378,1024.358,883.378z M1024.358,737.479
				c-33.525,0-60.805,27.279-60.805,60.805c0,33.525,27.279,60.804,60.805,60.804c33.534,0,60.813-27.279,60.813-60.804
				C1085.171,764.758,1057.892,737.479,1024.358,737.479z"/>
			<path fill="#2A1540" d="M766.465,1150c-46.92,0-85.094-38.174-85.094-85.095c0-46.928,38.174-85.102,85.094-85.102
				c46.92,0,85.095,38.175,85.095,85.102C851.56,1111.826,813.385,1150,766.465,1150z M766.465,1004.093
				c-33.525,0-60.804,27.279-60.804,60.812c0,33.526,27.279,60.805,60.804,60.805c33.525,0,60.804-27.278,60.804-60.805
				C827.269,1031.372,799.99,1004.093,766.465,1004.093z"/>
			<path fill="#2A1540" d="M531.81,866.307c-6.705,0-12.145-5.44-12.145-12.146c0-6.704,5.44-12.144,12.145-12.144
				c120.288,0,218.146-97.857,218.146-218.146c0-120.288-97.858-218.144-218.146-218.144c-6.705,0-12.145-5.441-12.145-12.145
				c0-6.707,5.44-12.146,12.145-12.146c133.682,0,242.436,108.752,242.436,242.435C774.246,757.554,665.492,866.307,531.81,866.307z
				"/>
			<path fill="#2A1540" d="M619.562,405.727c-2.064,0-4.151-0.523-6.065-1.63c-5.812-3.353-7.797-10.777-4.444-16.588
				l111.227-192.662c3.353-5.811,10.794-7.796,16.589-4.443c5.811,3.353,7.797,10.777,4.443,16.588L630.086,399.654
				C627.841,403.552,623.753,405.727,619.562,405.727z"/>
			<path fill="#2A1540" d="M747.378,540.112c-4.578,0-8.966-2.601-11.022-7.029c-2.823-6.08-0.189-13.299,5.898-16.13
				l208.404-96.852c6.065-2.824,13.307-0.19,16.13,5.898c2.823,6.08,0.191,13.299-5.899,16.13l-208.403,96.853
				C750.834,539.75,749.093,540.112,747.378,540.112z"/>
			<path fill="#2A1540" d="M955.766,785.774c-1.565,0-3.163-0.3-4.697-0.948l-193.673-81.378c-6.183-2.602-9.093-9.718-6.491-15.9
				c2.593-6.184,9.71-9.11,15.9-6.493l193.674,81.378c6.183,2.602,9.093,9.718,6.491,15.901
				C965.016,782.983,960.51,785.774,955.766,785.774z"/>
			<path fill="#2A1540" d="M730.804,1013.448c-4.38,0-8.61-2.373-10.776-6.524l-90.867-174.088
				c-3.099-5.945-0.799-13.284,5.148-16.391c5.946-3.077,13.291-0.799,16.391,5.148l90.867,174.086
				c3.099,5.947,0.798,13.285-5.148,16.393C734.624,1013.004,732.703,1013.448,730.804,1013.448z"/>
		</g>
	</g>
</g>
</svg>
