<?xml version="1.0" encoding="utf-8"?>
<!-- Generator: Adobe Illustrator 19.1.0, SVG Export Plug-In . SVG Version: 6.00 Build 0)  -->
<svg version="1.1" id="Layer_1" xmlns="http://www.w3.org/2000/svg" xmlns:xlink="http://www.w3.org/1999/xlink" x="0px" y="0px"
	 viewBox="0 0 1200 1200" enable-background="new 0 0 1200 1200" xml:space="preserve">
<g>
	<circle fill="#FC523A" cx="597.091" cy="600" r="541.701"/>
	<g>
		<path fill="#278EB3" d="M74.725,342.595c0,0,187.413-98.087,518.637-83.872c331.224,14.216,537.233,19.902,541.498,102.353
			c0,19.902-43.416,419.36-43.416,419.36s-534.659-55.441-806.177,0C157.327,750.584,74.725,604.162,74.725,604.162V342.595z"/>
		<path fill="#7FE2FF" d="M350.654,451.199l-7.568,498.341c0,0-215.006-7.642-274.271-70.199
			c-11.524-27.986-7.581-104.771-7.581-104.771V368.178C61.235,368.178,117.483,440.613,350.654,451.199z"/>
		<path fill="#7FE2FF" d="M867.254,448.615c0,0,202.487-16.462,269.983-75.727c1.646,115.237,1.646,497.164,1.646,497.164
			s-16.462,42.802-273.275,82.312C860.669,820.665,867.254,448.615,867.254,448.615z"/>
		<path fill="#FFFFFF" d="M1117.921,895.996c-13.823,0-25.031-11.208-25.031-25.031V382.874c0-13.823,11.208-25.031,25.031-25.031
			c13.823,0,25.03,11.207,25.03,25.031v488.092C1142.951,884.788,1131.743,895.996,1117.921,895.996z"/>
		<path fill="#FFFFFF" d="M316.948,959.037c-13.823,0-25.031-11.208-25.031-25.031V466.308c0-13.823,11.208-25.031,25.031-25.031
			c13.823,0,25.03,11.208,25.03,25.031v467.698C341.978,947.829,330.771,959.037,316.948,959.037z"/>
		<path fill="#63EFFF" d="M1092.164,400.533c12.14-5.963,24.254-11.983,36.018-18.682c2.943-1.676,5.865-2.954,8.758-3.969
			c-5.93-11.099-13.528-21.04-21.908-29.099c-26.012-25.01-59.508-37.085-88.865-46.435
			c-102.598-32.688-209.206-50.284-316.859-52.289c-13.88-0.362-25.234,10.735-25.491,24.563
			c-0.257,13.818,10.739,25.234,24.563,25.491c102.805,1.915,204.614,18.715,302.592,49.934c23.984,7.643,51.1,17.262,69.359,34.824
			C1084.87,389.235,1088.918,394.661,1092.164,400.533z"/>
		<path fill="#63EFFF" d="M845.878,770.872c-13.424,0-24.529-10.641-24.998-24.163l-8.694-250.291
			c-0.481-13.815,10.327-25.401,24.147-25.883c13.566-0.595,25.4,10.327,25.881,24.147l8.694,250.291
			c0.481,13.815-10.331,25.405-24.146,25.883C846.468,770.868,846.171,770.872,845.878,770.872z"/>
		<path fill="#FCD290" d="M722.233,483.04c-0.631,0-1.267-0.025-1.906-0.069c-13.787-1.039-24.118-13.054-23.083-26.84
			c1.512-20.044-5.83-40.732-19.632-55.344c-9.496-10.051-9.044-25.891,1.006-35.382c10.054-9.489,25.898-9.04,35.382,1.006
			c23.315,24.68,35.712,59.625,33.166,93.476C746.176,473.035,735.201,483.04,722.233,483.04z"/>
		<path fill="#FCD290" d="M452.954,583.423L590.208,700.09c0,0,50.613,36.029,74.632-22.304
			C506.14,537.1,503.566,536.242,503.566,536.242L452.954,583.423z"/>
		<path fill="#FCD290" d="M669.129,567.982l67.769,62.623c0,0,27.451,33.456,72.916-11.152
			c-104.656-84.068-110.661-89.215-110.661-89.215L669.129,567.982z"/>
		<g>
			<g>
				<path fill="#2A1540" d="M339.507,963.904c0.478,0.053,0.956,0.077,1.429,0.078c0.007,0,0.013,0.002,0.013,0.002
					c0.008,0,0.009-0.001,0.009-0.001l0.009,0.001c0.871,0,1.719-0.095,2.546-0.258c0.291-0.057,0.56-0.165,0.844-0.241
					c0.521-0.14,1.041-0.276,1.536-0.478c0.33-0.134,0.631-0.31,0.948-0.468c0.419-0.211,0.838-0.415,1.231-0.668
					c0.306-0.197,0.582-0.425,0.868-0.645c0.366-0.279,0.725-0.557,1.06-0.873c0.26-0.246,0.492-0.512,0.732-0.779
					c0.31-0.344,0.61-0.693,0.884-1.07c0.21-0.291,0.396-0.592,0.583-0.898c0.24-0.397,0.465-0.799,0.663-1.224
					c0.158-0.336,0.295-0.678,0.425-1.029c0.159-0.431,0.295-0.869,0.409-1.321c0.095-0.376,0.173-0.752,0.236-1.139
					c0.035-0.219,0.109-0.424,0.134-0.648c0.028-0.254-0.007-0.497,0.007-0.75c0.013-0.236,0.071-0.458,0.071-0.697v-166.54
					c75.473-7.48,160.103-11.473,245.859-11.488c85.753,0.016,170.385,4.008,245.859,11.487v166.542c0,0.239,0.058,0.461,0.07,0.697
					c0.013,0.253-0.021,0.496,0.007,0.75c0.025,0.225,0.098,0.429,0.134,0.648c0.062,0.387,0.14,0.764,0.235,1.138
					c0.115,0.454,0.252,0.893,0.411,1.325c0.13,0.349,0.265,0.69,0.422,1.025c0.2,0.424,0.424,0.828,0.665,1.225
					c0.186,0.307,0.371,0.609,0.581,0.898c0.274,0.378,0.573,0.726,0.884,1.07c0.239,0.267,0.472,0.533,0.732,0.779
					c0.334,0.316,0.693,0.595,1.059,0.873c0.287,0.221,0.564,0.449,0.869,0.645c0.393,0.254,0.813,0.459,1.233,0.669
					c0.314,0.159,0.616,0.335,0.944,0.467c0.496,0.202,1.016,0.338,1.537,0.478c0.285,0.076,0.552,0.183,0.843,0.24
					c0.827,0.163,1.675,0.258,2.542,0.258l0.01-0.001l0.006,0.001c0,0,0.011-0.002,0.018-0.002c0.472-0.001,0.951-0.026,1.429-0.078
					c103.707-11.46,274.989-38.908,287.614-95.702c1.174-1.972,1.893-4.249,1.893-6.711V358.847
					c0-84.447-328.594-115.099-549.462-115.099c-0.184,0-0.355,0.047-0.538,0.054c-0.183-0.007-0.354-0.054-0.538-0.054
					C378.593,243.748,50,274.399,50,358.847V861.49c0,2.462,0.718,4.739,1.893,6.711
					C64.517,924.994,235.801,952.443,339.507,963.904z M77.45,861.49c0-1.852-0.387-3.609-1.076-5.209V397.265
					c51.708,34.878,168.691,53.538,251.394,62.73v476.009C155.281,915.516,77.45,880.442,77.45,861.49z M872.233,936.004V459.995
					c82.703-9.191,199.686-27.851,251.394-62.729v459.016c-0.688,1.599-1.077,3.356-1.077,5.208
					C1122.549,880.442,1044.72,915.516,872.233,936.004z M222.721,299.74c100.504-19.1,234.298-29.619,376.741-29.619
					c0.184,0,0.356-0.047,0.538-0.054c0.183,0.007,0.353,0.054,0.538,0.054c142.444,0,276.238,10.519,376.741,29.619
					c115.524,21.954,146.348,47.483,146.348,59.106c0,18.688-72.203,55.902-265.956,76.198c-0.19,0.02-0.362,0.086-0.55,0.114
					c-0.511,0.076-1.006,0.179-1.494,0.311c-0.364,0.097-0.716,0.203-1.065,0.329c-0.456,0.166-0.894,0.356-1.325,0.569
					c-0.345,0.17-0.679,0.348-1.006,0.546c-0.395,0.24-0.77,0.501-1.137,0.781c-0.31,0.235-0.606,0.475-0.892,0.736
					c-0.339,0.308-0.654,0.634-0.959,0.975c-0.256,0.287-0.5,0.578-0.731,0.887c-0.274,0.366-0.521,0.747-0.756,1.141
					c-0.201,0.336-0.388,0.674-0.559,1.029c-0.194,0.405-0.362,0.817-0.515,1.243c-0.141,0.391-0.264,0.782-0.369,1.187
					c-0.107,0.421-0.188,0.844-0.254,1.279c-0.067,0.442-0.113,0.886-0.135,1.34c-0.011,0.217-0.065,0.421-0.065,0.641v309.606
					c-75.493-7.382-159.834-11.325-245.252-11.359c-0.024,0-0.046-0.007-0.069-0.007c-0.179,0-0.358,0.003-0.538,0.003
					c-0.179,0-0.359-0.003-0.538-0.003c-0.024,0-0.045,0.007-0.069,0.007c-85.414,0.034-169.758,3.978-245.252,11.36v-76.57
					l147.506-131.975l152.854,135.701c2.514,2.23,5.64,3.325,8.752,3.325c3.637,0,7.263-1.497,9.864-4.433
					c4.837-5.447,4.343-13.781-1.102-18.616l-52.56-46.661l79.799-72.934l92.478,80.413c2.498,2.171,5.579,3.235,8.648,3.235
					c3.683,0,7.35-1.534,9.957-4.533c4.781-5.496,4.198-13.825-1.298-18.605l-101.347-88.128c-5.049-4.389-12.604-4.306-17.55,0.219
					l-90.517,82.729l-89.256-79.237c-5.012-4.45-12.559-4.427-17.55,0.033L354.142,645.797V448.151c0-0.22-0.055-0.424-0.065-0.641
					c-0.023-0.454-0.068-0.897-0.135-1.34c-0.067-0.434-0.148-0.859-0.255-1.279c-0.103-0.404-0.227-0.796-0.368-1.186
					c-0.154-0.426-0.321-0.841-0.516-1.246c-0.171-0.353-0.357-0.691-0.558-1.026c-0.235-0.395-0.482-0.775-0.757-1.141
					c-0.23-0.309-0.474-0.6-0.73-0.887c-0.306-0.341-0.62-0.667-0.958-0.975c-0.285-0.26-0.583-0.501-0.892-0.736
					c-0.367-0.28-0.741-0.541-1.137-0.781c-0.325-0.198-0.659-0.376-1.004-0.545c-0.432-0.214-0.871-0.404-1.328-0.57
					c-0.349-0.126-0.701-0.232-1.064-0.329c-0.49-0.132-0.985-0.235-1.494-0.311c-0.188-0.028-0.36-0.094-0.55-0.114
					c-193.754-20.298-265.956-57.51-265.956-76.198C76.374,347.224,107.195,321.694,222.721,299.74z"/>
				<path fill="#2A1540" d="M701.5,478.4c34.909,0,63.307-28.397,63.307-63.304s-28.398-63.307-63.307-63.307
					c-34.909,0-63.307,28.401-63.307,63.307S666.591,478.4,701.5,478.4z M701.5,378.163c20.367,0,36.934,16.568,36.934,36.934
					c0,20.365-16.566,36.931-36.934,36.931s-36.933-16.566-36.933-36.931C664.567,394.731,681.133,378.163,701.5,378.163z"/>
			</g>
		</g>
	</g>
</g>
</svg>
