<?xml version="1.0" encoding="utf-8"?>
<!-- Generator: Adobe Illustrator 19.1.0, SVG Export Plug-In . SVG Version: 6.00 Build 0)  -->
<svg version="1.1" id="Layer_1" xmlns="http://www.w3.org/2000/svg" xmlns:xlink="http://www.w3.org/1999/xlink" x="0px" y="0px"
	 viewBox="0 0 1200 1200" enable-background="new 0 0 1200 1200" xml:space="preserve">
<g>
	<circle fill="#2A1540" cx="600" cy="600" r="550"/>
	<path fill="#C4E9FB" d="M424.01,839.606c0.308,0.033,0.615,0.049,0.92,0.05c0.004,0,0.008,0.001,0.008,0.001
		c0.005,0,0.006-0.001,0.006-0.001l0.006,0.001c0.561,0,1.106-0.06,1.639-0.164c0.187-0.037,0.361-0.105,0.544-0.154
		c0.335-0.089,0.67-0.177,0.989-0.304c0.212-0.085,0.406-0.198,0.61-0.299c0.27-0.135,0.54-0.265,0.793-0.427
		c0.197-0.125,0.374-0.271,0.559-0.412c0.236-0.178,0.467-0.356,0.682-0.558c0.167-0.157,0.318-0.327,0.472-0.497
		c0.199-0.22,0.392-0.442,0.568-0.684c0.135-0.185,0.254-0.378,0.375-0.574c0.155-0.253,0.299-0.511,0.427-0.781
		c0.101-0.214,0.189-0.433,0.273-0.657c0.103-0.276,0.19-0.555,0.264-0.844c0.061-0.24,0.112-0.48,0.152-0.727
		c0.022-0.14,0.07-0.271,0.086-0.414c0.018-0.162-0.005-0.318,0.004-0.48c0.009-0.15,0.046-0.292,0.046-0.445V724.866
		c48.585-4.778,103.066-7.328,158.269-7.337c55.203,0.01,109.685,2.56,158.27,7.337v106.369c0,0.152,0.037,0.295,0.045,0.445
		c0.009,0.162-0.013,0.318,0.005,0.48c0.016,0.143,0.063,0.273,0.086,0.414c0.04,0.247,0.091,0.488,0.152,0.727
		c0.074,0.289,0.162,0.57,0.264,0.846c0.084,0.223,0.171,0.441,0.272,0.654c0.129,0.271,0.273,0.529,0.429,0.782
		c0.12,0.196,0.238,0.389,0.374,0.574c0.177,0.242,0.369,0.464,0.569,0.684c0.154,0.17,0.304,0.34,0.472,0.497
		c0.214,0.202,0.446,0.38,0.681,0.558c0.185,0.141,0.363,0.287,0.56,0.412c0.253,0.162,0.524,0.293,0.794,0.428
		c0.203,0.101,0.397,0.213,0.607,0.299c0.319,0.128,0.655,0.216,0.989,0.305c0.183,0.049,0.356,0.117,0.543,0.154
		c0.532,0.104,1.079,0.164,1.636,0.164l0.007-0.001l0.003,0.001c0,0,0.008-0.001,0.013-0.001c0.304-0.001,0.612-0.017,0.92-0.05
		c66.76-7.32,177.022-24.85,185.148-61.124c0.756-1.26,1.219-2.714,1.219-4.287V453.159c0-53.937-211.53-73.513-353.711-73.513
		c-0.119,0-0.229,0.03-0.347,0.034c-0.118-0.005-0.228-0.034-0.347-0.034c-142.182,0-353.711,19.577-353.711,73.513v321.035
		c0,1.573,0.463,3.027,1.219,4.287C246.988,814.755,357.25,832.286,424.01,839.606z M255.313,774.195
		c0-1.182-0.249-2.305-0.693-3.326V477.697c33.287,22.276,108.595,34.195,161.834,40.064v304.025
		C305.417,808.701,255.313,786.299,255.313,774.195z M766.948,821.786V517.761c53.24-5.87,128.546-17.788,161.833-40.064v293.172
		c-0.444,1.021-0.694,2.144-0.694,3.326C928.087,786.299,877.985,808.701,766.948,821.786z M348.83,415.407
		c64.698-12.199,150.828-18.917,242.523-18.917c0.119,0,0.229-0.03,0.347-0.035c0.117,0.005,0.228,0.035,0.347,0.035
		c91.697,0,177.825,6.718,242.524,18.917c74.367,14.022,94.21,30.328,94.21,37.752c0,11.936-46.48,35.704-171.207,48.667
		c-0.123,0.013-0.233,0.054-0.354,0.073c-0.328,0.048-0.646,0.113-0.962,0.198c-0.233,0.062-0.46,0.13-0.685,0.21
		c-0.293,0.107-0.575,0.228-0.853,0.363c-0.222,0.109-0.437,0.222-0.647,0.348c-0.255,0.154-0.496,0.32-0.732,0.499
		c-0.199,0.151-0.39,0.304-0.575,0.471c-0.218,0.197-0.421,0.405-0.617,0.623c-0.165,0.183-0.322,0.369-0.47,0.566
		c-0.177,0.234-0.335,0.477-0.487,0.728c-0.13,0.215-0.249,0.43-0.36,0.657c-0.125,0.258-0.233,0.522-0.331,0.794
		c-0.091,0.249-0.17,0.5-0.237,0.758c-0.069,0.268-0.122,0.539-0.164,0.817c-0.044,0.283-0.073,0.566-0.087,0.856
		c-0.007,0.138-0.042,0.269-0.042,0.409v197.744c-48.598-4.714-102.892-7.232-157.878-7.255c-0.016,0-0.03-0.005-0.045-0.005
		c-0.116,0-0.231,0.002-0.347,0.002c-0.116,0-0.231-0.002-0.347-0.002c-0.014,0-0.029,0.005-0.044,0.005
		c-54.985,0.022-109.281,2.541-157.879,7.255v-48.906l94.956-84.291l98.398,86.671c1.618,1.424,3.631,2.124,5.634,2.124
		c2.341,0,4.675-0.957,6.35-2.832c3.113-3.479,2.795-8.802-0.71-11.89l-33.835-29.802l51.37-46.583l59.532,51.36
		c1.608,1.386,3.591,2.066,5.568,2.066c2.371,0,4.732-0.98,6.409-2.896c3.078-3.51,2.703-8.83-0.836-11.883l-65.241-56.287
		c-3.25-2.803-8.115-2.75-11.298,0.14l-58.27,52.839l-57.458-50.609c-3.226-2.843-8.084-2.827-11.297,0.021l-89.273,79.247V510.197
		c0-0.14-0.036-0.271-0.042-0.409c-0.014-0.29-0.044-0.573-0.087-0.856c-0.043-0.277-0.095-0.549-0.164-0.817
		c-0.067-0.258-0.146-0.508-0.237-0.757c-0.099-0.273-0.207-0.538-0.332-0.796c-0.109-0.226-0.23-0.441-0.359-0.656
		c-0.152-0.252-0.311-0.495-0.487-0.729c-0.148-0.197-0.306-0.383-0.471-0.566c-0.197-0.218-0.399-0.426-0.617-0.623
		c-0.184-0.166-0.375-0.32-0.575-0.471c-0.236-0.178-0.477-0.345-0.731-0.499c-0.21-0.126-0.425-0.24-0.647-0.348
		c-0.279-0.136-0.561-0.257-0.855-0.364c-0.224-0.08-0.452-0.148-0.685-0.21c-0.315-0.085-0.633-0.151-0.961-0.198
		c-0.121-0.018-0.232-0.06-0.355-0.073C301.1,488.862,254.62,465.095,254.62,453.159C254.62,445.735,274.461,429.429,348.83,415.407
		z"/>
	<path fill="#C4E9FB" d="M657.04,529.517c22.472,0,40.754-18.138,40.754-40.432s-18.281-40.434-40.754-40.434
		c-22.473,0-40.753,18.14-40.753,40.434S634.567,529.517,657.04,529.517z M657.04,465.496c13.111,0,23.776,10.582,23.776,23.589
		c0,13.007-10.664,23.588-23.776,23.588s-23.776-10.58-23.776-23.588C633.265,476.078,643.929,465.496,657.04,465.496z"/>
</g>
</svg>
