<?xml version="1.0" encoding="utf-8"?>
<!-- Generator: Adobe Illustrator 19.1.0, SVG Export Plug-In . SVG Version: 6.00 Build 0)  -->
<svg version="1.1" id="Layer_1" xmlns="http://www.w3.org/2000/svg" xmlns:xlink="http://www.w3.org/1999/xlink" x="0px" y="0px"
	 viewBox="0 0 1200 1200" enable-background="new 0 0 1200 1200" xml:space="preserve">
<g>
	<path fill="#FC523A" d="M398.262,1099.523L64.618,540.102c-29.266-49.07-13.211-112.574,35.859-141.84L659.898,64.618
		c49.07-29.266,112.574-13.211,141.84,35.859l333.644,559.421c29.266,49.07,13.211,112.574-35.859,141.84l-559.421,333.644
		C491.032,1164.647,427.528,1148.593,398.262,1099.523z"/>
	<path fill="#50BAC9" d="M133.4,553.203c0,0,16.558-344.72,413.965-419.987c-61.718,36.128-132.469,158.06-150.532,258.917
		C289.953,405.681,169.527,473.42,133.4,553.203z"/>
	<path fill="#50BAC9" d="M1056.287,553.203c0,0-16.559-344.72-413.965-419.987c61.719,36.128,132.469,158.06,150.533,258.917
		C899.733,405.681,1020.159,473.42,1056.287,553.203z"/>
	<path fill="#278EB3" d="M396.832,392.133c0,0,45.159-239.347,186.661-261.927c31.612-1.505,146.017,12.043,210.745,267.949
		C696.392,371.058,630.158,352.994,396.832,392.133z"/>
	<path fill="#FCD290" d="M133.4,631.866c0,0,16.558,344.72,413.965,419.986c-61.718-36.127-132.469-158.059-150.532-258.916
		C289.953,779.388,169.527,711.648,133.4,631.866z"/>
	<path fill="#FCD290" d="M1056.287,631.866c0,0-16.559,344.72-413.965,419.986c61.719-36.127,132.469-158.059,150.533-258.916
		C899.733,779.388,1020.159,711.648,1056.287,631.866z"/>
	<path fill="#FCAC6F" d="M396.832,792.936c0,0,45.159,239.347,186.661,261.927c31.612,1.506,146.017-12.042,210.745-267.948
		C696.392,814.011,630.158,832.074,396.832,792.936z"/>
	<ellipse fill="#63EFFF" cx="600.96" cy="593.047" rx="456.838" ry="219.66"/>
	<path fill="#63EFFF" d="M778.87,403.832c-10.094,0-19.131-7.076-21.232-17.348c-37.315-182.287-153.771-225.253-154.942-225.665
		c-11.301-3.983-17.236-16.368-13.257-27.67c3.983-11.307,16.356-17.228,27.67-13.263c5.732,2.022,140.85,51.804,183.035,257.893
		c2.403,11.738-5.163,23.202-16.903,25.605C781.775,403.687,780.311,403.832,778.87,403.832z"/>
	<path fill="#FFFFFF" d="M764.049,820.466c-2.246,0-4.531-0.351-6.783-1.09c-11.377-3.747-17.566-15.999-13.834-27.379
		c0.684-2.101,52.687-165.895,12.463-392.408c-2.094-11.798,5.772-23.063,17.57-25.157c11.81-2.07,23.06,5.775,25.154,17.567
		c42.309,238.261-11.646,406.499-13.965,413.546C781.651,814.673,773.165,820.466,764.049,820.466z"/>
	<path fill="#FC523A" d="M594.422,1070.356c-10.454,0-19.664-7.578-21.389-18.238c-1.895-11.707,5.966-22.742,17.599-24.819
		c2.352-0.52,93.326-22.53,152.569-227.941c3.32-11.507,3.937-5.456,15.447-2.163c11.513,3.323,36.055-7.662,32.734,3.851
		c-68.323,236.894-188.656,268.245-193.469,269.025C596.74,1070.259,595.575,1070.356,594.422,1070.356z"/>
	<g>
		<path fill="#2A1540" d="M1040.361,433.471c-0.041-0.123-0.05-0.246-0.095-0.368c-4.78-13.029-10.197-25.985-16.094-38.508
			c-2.663-5.656-9.397-8.088-15.065-5.419c-5.656,2.665-8.08,9.408-5.417,15.064c5.615,11.923,10.771,24.26,15.325,36.664
			c0.044,0.12,0.108,0.224,0.156,0.34c0.035,0.108,0.043,0.219,0.083,0.327c8.603,23.566,15.121,47.727,19.665,72.301
			c-23.98-31.366-61.773-59.912-111.926-83.839c-36.72-17.52-78.447-31.734-123.54-42.457
			c-10.722-45.093-24.936-86.82-42.454-123.541c-23.963-50.23-52.56-88.061-83.983-112.033
			c36.153,6.66,71.303,17.728,105.115,33.178c12.01,5.488,23.914,11.576,35.374,18.098c1.77,1.004,3.693,1.481,5.59,1.481
			c3.935,0,7.764-2.059,9.847-5.726c3.091-5.435,1.194-12.346-4.24-15.437c-12.045-6.847-24.545-13.244-37.162-19.01
			c-62.045-28.348-128.354-42.723-197.091-42.723c-261.761,0-474.718,212.958-474.718,474.719
			c0,261.758,212.957,474.716,474.718,474.716c261.761,0,474.718-212.958,474.718-474.716c0-55.933-9.64-110.7-28.645-162.775
			C1040.479,433.686,1040.408,433.588,1040.361,433.471z M740.566,273.781c15.47,32.429,28.315,68.926,38.324,108.351
			c-57.597-11.751-120.035-17.961-184.442-17.961c-64.408,0-126.846,6.21-184.443,17.961
			c10.008-39.425,22.853-75.924,38.324-108.351c39.775-83.366,91.669-129.279,146.119-129.279
			C648.898,144.502,700.788,190.415,740.566,273.781z M511.735,152.111c-31.365,23.979-59.911,61.771-83.838,111.922
			c-17.52,36.721-31.733,78.449-42.457,123.542c-45.091,10.723-86.817,24.937-123.536,42.457
			c-50.154,23.927-87.947,52.471-111.925,83.836C183.971,330.782,328.648,186.104,511.735,152.111z M149.936,679.068
			c3.941,5.166,8.194,10.268,12.858,15.255c2.228,2.383,5.244,3.586,8.269,3.586c2.77,0,5.547-1.014,7.731-3.051
			c4.565-4.272,4.804-11.436,0.533-16.003c-9.222-9.861-16.841-20.097-22.642-30.427c-2.439-4.346-7.32-6.409-11.959-5.533
			c-0.749-7.327-1.313-14.707-1.706-22.132c0.975-2.062,1.358-4.426,0.919-6.841c-1.041-5.729-1.57-11.564-1.57-17.34
			c0-54.45,45.914-106.341,129.28-146.118c32.427-15.47,68.925-28.315,108.349-38.323c-11.75,57.597-17.959,120.033-17.959,184.441
			c0,64.387,6.204,126.805,17.947,184.388c-23.328-5.939-45.738-12.866-66.989-20.802l-0.009-0.002
			c-12.772-4.768-25.153-9.926-36.806-15.328c-5.687-2.636-12.4-0.163-15.03,5.506c-2.631,5.673-0.168,12.403,5.505,15.029
			c12.176,5.648,25.094,11.031,38.401,15.995c0,0,0.01,0.005,0.015,0.007c25.349,9.468,52.256,17.557,80.379,24.261
			c10.721,45.074,24.932,86.786,42.445,123.493c23.928,50.151,52.473,87.942,83.839,111.92
			C328.574,1007.042,183.851,862.261,149.936,679.068z M677.16,1041.048c31.366-23.979,59.911-61.771,83.839-111.924l0.003-0.011
			c1.536-3.232,3.057-6.503,4.552-9.819c2.569-5.695,0.03-12.398-5.669-14.971c-5.682-2.569-12.403-0.035-14.972,5.668
			c-1.429,3.166-2.875,6.289-4.344,9.377l-0.005,0.007c-39.776,83.374-91.666,129.284-146.115,129.284
			c-54.45,0-106.344-45.91-146.119-129.278c-15.467-32.421-28.31-68.911-38.317-108.325
			c57.696,11.801,119.968,17.934,184.437,17.934c47.822,0,95.002-3.422,140.229-10.174c6.181-0.925,10.448-6.686,9.523-12.868
			c-0.924-6.182-6.703-10.435-12.867-9.524c-44.125,6.588-90.178,9.927-136.885,9.927c-66.815,0-131.119-6.73-190.129-19.64
			c-12.837-58.849-19.641-123.347-19.641-190.127c0-66.78,6.804-131.279,19.641-190.128c58.849-12.838,123.35-19.642,190.129-19.642
			s131.28,6.805,190.128,19.642c12.838,58.849,19.641,123.349,19.641,190.128c0,13.444-0.278,26.993-0.83,40.271
			c-0.257,6.244,4.594,11.519,10.842,11.78c0.159,0.003,0.318,0.008,0.478,0.008c6.036,0,11.049-4.762,11.302-10.851
			c0.561-13.587,0.849-27.453,0.849-41.208c0-64.408-6.209-126.844-17.96-184.441c39.423,10.008,75.92,22.853,108.347,38.323
			c83.372,39.777,129.283,91.668,129.283,146.118c0,69.792-75.749,135.03-202.628,174.512c-5.97,1.857-9.3,8.203-7.443,14.172
			c1.509,4.847,5.979,7.959,10.803,7.959c1.115,0,2.246-0.167,3.371-0.516c87.912-27.357,153.014-67.411,188.366-113.821
			C1005.143,862.164,860.384,1007.03,677.16,1041.048z"/>
		<path fill="#2A1540" d="M966.382,319.888c-5.103,3.614-6.31,10.679-2.698,15.781c7.645,10.797,14.879,22.034,21.508,33.404
			c2.104,3.608,5.894,5.62,9.79,5.62c1.936,0,3.9-0.498,5.691-1.543c5.403-3.148,7.23-10.079,4.081-15.48
			c-6.965-11.943-14.565-23.747-22.595-35.084C978.542,317.482,971.476,316.28,966.382,319.888z"/>
		<path fill="#2A1540" d="M912.211,259.105c-4.395,4.446-4.356,11.614,0.089,16.01c9.392,9.284,18.478,19.093,27.013,29.155
			c2.237,2.64,5.426,3.997,8.635,3.997c2.587,0,5.192-0.882,7.319-2.685c4.767-4.045,5.354-11.188,1.31-15.957
			c-8.959-10.563-18.501-20.862-28.358-30.61C923.774,254.617,916.603,254.662,912.211,259.105z"/>
		<path fill="#2A1540" d="M848.294,208.669c-3.555,5.142-2.267,12.193,2.874,15.749c10.86,7.506,21.517,15.584,31.678,24.01
			c2.114,1.753,4.673,2.606,7.221,2.606c3.25,0,6.478-1.395,8.715-4.092c3.993-4.813,3.33-11.949-1.484-15.94
			c-10.662-8.843-21.853-17.326-33.253-25.208C858.893,202.238,851.849,203.524,848.294,208.669z"/>
		<path fill="#2A1540" d="M240.993,726.526c-11.837-6.92-22.855-14.251-32.754-21.79c-4.977-3.793-12.081-2.835-15.863,2.14
			c-3.79,4.975-2.831,12.075,2.142,15.866c10.627,8.1,22.423,15.949,35.058,23.329c1.796,1.052,3.759,1.547,5.7,1.547
			c3.891,0,7.676-2.007,9.781-5.61C248.213,736.613,246.392,729.678,240.993,726.526z"/>
		<path fill="#2A1540" d="M813.087,666.712c-6.194-0.521-11.704,4.099-12.23,10.33c-1.132,13.394-2.569,26.854-4.28,40.013
			c-0.805,6.199,3.569,11.881,9.768,12.687c0.495,0.062,0.986,0.094,1.472,0.094c5.602,0,10.471-4.157,11.214-9.862
			c1.751-13.495,3.228-27.3,4.386-41.029C823.943,672.713,819.317,667.239,813.087,666.712z"/>
		<path fill="#2A1540" d="M786.327,827.272c-5.988-1.75-12.284,1.693-14.034,7.694c-3.82,13.088-7.999,25.884-12.413,38.04
			c-2.136,5.876,0.898,12.372,6.775,14.503c1.278,0.464,2.582,0.686,3.864,0.686c4.625,0,8.967-2.861,10.638-7.46
			c4.581-12.611,8.91-25.876,12.863-39.429C795.777,835.307,792.333,829.023,786.327,827.272z"/>
		<path fill="#2A1540" d="M803.599,747.648c-6.159-1.079-12.031,3.007-13.128,9.158c-2.365,13.279-5.077,26.518-8.048,39.354
			c-1.411,6.094,2.383,12.174,8.472,13.584c0.862,0.199,1.72,0.296,2.564,0.296c5.152,0,9.808-3.538,11.019-8.769
			c3.061-13.212,5.846-26.835,8.278-40.494C813.853,754.622,809.754,748.746,803.599,747.648z"/>
		<path fill="#2A1540" d="M514.98,548.251c0.527-0.951,0.814-2.094,0.814-3.275c0-4.185-3.277-7.464-7.464-7.464h-53.185
			c-4.186,0-7.464,3.279-7.464,7.464s3.277,7.464,7.464,7.464h35.552l-22.675,23.323c-2.923,2.941-2.923,7.718,0.009,10.649
			l1.158,0.998h0.049c1.335,1.061,2.932,1.631,4.613,1.631c7.313,0,14.074,2.813,19.106,7.986
			c5.103,4.963,7.914,11.722,7.914,19.034c0,7.274-2.825,14.106-7.919,19.204c-5.183,5.041-12.024,7.818-19.266,7.818
			c-7.133,0-13.916-2.778-19.062-7.783c-1.464-1.468-3.494-2.409-5.51-2.22c-1.99,0.054-3.807,0.885-4.992,2.216
			c-1.459,1.459-2.269,3.467-2.211,5.501c0.048,1.989,0.885,3.802,2.184,4.966c7.831,8.004,18.341,12.412,29.591,12.412
			c11.019,0,21.857-4.516,29.706-12.359c7.999-7.827,12.403-18.395,12.403-29.754c0-11.292-4.338-21.85-12.213-29.726
			c-4.364-4.364-9.649-7.674-15.504-9.743l25.44-26.147C514.131,549.827,514.649,549.047,514.98,548.251z"/>
		<path fill="#2A1540" d="M567.851,576.225c-7.906,0-15.569,2.326-22.113,6.575c1.401-4.245,3.077-8.041,5.013-11.344
			c7.495-12.436,17.162-18.481,30.533-19.025c3.95-0.302,7.045-3.648,7.035-7.882c-0.154-1.992-1.114-3.88-2.63-5.175
			c-1.438-1.229-3.256-1.851-4.94-1.692c-18.249,0.626-33.411,10.013-42.688,26.432c-9.269,16.037-11.373,34.34-11.506,46.908
			c0,2.707,0,5.264,0.322,7.59c0.721,22.185,18.718,39.562,40.972,39.562c22.684,0,41.137-18.382,41.137-40.973
			C608.987,594.606,590.535,576.225,567.851,576.225z M541.864,619.134c-0.146-0.585-0.221-0.907-0.221-1.282v-0.651
			c0-14.453,11.757-26.21,26.207-26.21c14.637,0,26.54,11.757,26.54,26.21c0,14.45-11.904,26.207-26.54,26.207
			c-12.885,0-23.931-9.445-25.972-22.077c0.092-0.518,0.092-0.978,0.092-1.362L541.864,619.134z"/>
		<path fill="#2A1540" d="M660.881,537.512c-11.868,0-22.971,6.585-31.306,18.604c-7.388,11.179-11.461,25.998-11.461,41.73
			c0,15.789,4.077,30.556,11.493,41.601c8.243,12.076,19.349,18.727,31.275,18.727c11.917,0,23.024-6.651,31.302-18.78
			c7.491-11.418,11.617-26.173,11.617-41.549c0-15.312-4.121-30.12-11.666-41.79C683.844,544.097,672.741,537.512,660.881,537.512z
			 M689.04,597.846c0,12.478-3.353,24.653-9.154,33.346c-5.496,7.88-12.248,12.217-19.005,12.217
			c-6.813,0-13.733-4.438-18.974-12.155c-5.739-8.596-9.029-20.774-9.029-33.408c0-12.633,3.29-24.813,9.047-33.442
			c5.116-7.818,11.851-12.126,18.956-12.126c7.063,0,13.619,4.206,18.966,12.15C685.687,573.19,689.04,585.37,689.04,597.846z"/>
		<path fill="#2A1540" d="M777.953,563.685c0-14.462-13.063-27.145-27.955-27.145s-27.959,12.683-27.959,27.145v0.325
			c0,14.46,13.067,27.143,27.959,27.143S777.953,578.47,777.953,563.685z M763.034,563.685v0.325
			c0,6.372-5.241,13.195-13.036,13.195c-7.796,0-13.031-6.823-13.031-13.52c0-6.371,5.235-13.194,13.031-13.194
			C757.793,550.491,763.034,557.313,763.034,563.685z"/>
	</g>
</g>
</svg>
