<?xml version="1.0" encoding="utf-8"?>
<!-- Generator: Adobe Illustrator 19.1.0, SVG Export Plug-In . SVG Version: 6.00 Build 0)  -->
<svg version="1.1" id="Layer_1" xmlns="http://www.w3.org/2000/svg" xmlns:xlink="http://www.w3.org/1999/xlink" x="0px" y="0px"
	 viewBox="0 0 1200 1200" enable-background="new 0 0 1200 1200" xml:space="preserve">
<g>
	<circle fill="#2A1540" cx="600" cy="600" r="550"/>
	<g>
		<g>
			<path fill="#C4E9FB" d="M394.687,910.8c17.104,6.067,32.459,13.567,48.713,21.509c37.495,18.319,76.235,37.177,136.085,36.723
				c0.833,0.007,1.658,0.01,2.484,0.01c58.558,0,96.779-18.67,133.752-36.733c16.255-7.942,31.61-15.443,48.713-21.509
				c3.252-1.154,5.475-4.149,5.623-7.57c0.149-3.425-1.809-6.597-4.949-8.022c-34.316-15.577-78.852-42.151-96.151-80.265
				c-7.817-17.222-10.705-38.327-8.727-63.054c3.877-0.229,7.774-0.487,11.711-0.795c3.677-0.287,8.078-0.586,13.011-0.918
				c34.361-2.322,91.87-6.208,117.52-20.5c10.136-5.646,17.284-16.388,20.671-31.067c0.08-0.342,0.136-0.691,0.173-1.043
				c1.823-18.141-7.339-58.852-24.058-106.542l6.203-2.954c12.83-6.114,20.995-18.559,21.308-32.482
				c1.358-60.586-37.782-108.281-61.234-131.319v-0.002c-11.186-10.988-28.295-13.794-42.573-6.995l-8.216,3.913l-18.364-24.63
				c-58.545-78.527-171.772-94.266-252.403-35.094c-39.034,28.647-64.704,70.382-72.286,117.516
				c-7.477,46.486,3.556,92.718,31.005,130.471c-0.413,0.805-0.741,1.654-0.944,2.548c-0.765,3.366,0.134,6.929,2.397,9.528
				l24.544,28.244c0.034,0.491,0.045,0.978,0.093,1.47c1.053,10.656,4.977,20.895,11.349,29.61
				c9.577,13.091,23.719,21.701,39.824,24.24c1.478,0.233,2.956,0.395,4.432,0.522c2.269,1.827,4.552,3.581,6.843,5.282
				c5.889,33.401,1.641,68.761-12.359,99.613c-16.777,36.96-47.709,67.833-84.861,84.7c-3.14,1.425-5.098,4.597-4.948,8.022
				C389.213,906.651,391.436,909.646,394.687,910.8z M509.973,723.308c37.504,21.992,78.001,29.458,122.561,29.458
				c3.523,0,7.076-0.056,10.651-0.146c-1.875,26.775,1.535,49.948,10.293,69.238c16.513,36.388,53.676,62.78,87.137,80.194
				c-11.213,4.796-21.92,10.027-32.394,15.147c-37.359,18.249-72.626,35.443-128.735,34.989c-0.796,0.007-1.585,0.009-2.371,0.009
				c-54.566,0-89.384-17.008-126.213-34.998c-10.659-5.208-21.562-10.535-32.992-15.404c33.278-19.506,60.602-49.467,76.447-84.371
				C507.612,788.216,512.89,755.33,509.973,723.308z M388.457,481.634c6.877-42.753,30.18-80.621,65.618-106.629
				c29.902-21.946,64.735-32.545,99.089-32.545c49.63,0,98.261,22.124,129.568,64.115l16.429,22.036l-49.447,23.554
				c-8.613,4.103-15.269,11.226-18.744,20.059l-17.896,45.523l-195.949,82.79C391.823,566.252,381.633,524.063,388.457,481.634z
				 M730.309,432.461c2.858-1.362,5.919-2.023,8.951-2.023c5.272,0,10.459,2,14.33,5.803v-0.002
				c21.512,21.135,57.423,64.693,56.204,118.976c-0.167,7.432-4.754,14.369-11.682,17.671l-64.407,30.678
				c-4.213,2.009-9.048,2.53-13.601,1.476l-89.704-20.815c-5.817-1.35-10.75-5.134-13.534-10.38
				c-2.782-5.244-3.134-11.42-0.964-16.941l30.883-78.558c1.903-4.842,5.553-8.747,10.275-10.996L730.309,432.461z M453.877,670.957
				c-4.601-6.293-7.434-13.68-8.192-21.362c-1.354-13.66,5.073-26.343,16.769-33.103c11.173-6.456,24.224-5.848,34.917,1.621
				c9.818,6.86,16.513,18.296,19.897,33.992c0.982,4.55,5.502,7.455,10.078,6.471c4.585-0.97,7.506-5.448,6.526-9.998
				c-0.699-3.239-1.566-6.293-2.509-9.262l118.361-33.31l66.515,15.434c2.807,0.652,5.672,0.974,8.532,0.974
				c5.606,0,11.191-1.238,16.285-3.666l42.841-20.407c15.567,44.888,23.811,82.004,22.571,97.041
				c-1.39,5.744-4.771,15.41-12.309,19.608c-22.311,12.43-79.588,16.302-110.361,18.381c-5.002,0.335-9.465,0.638-13.194,0.931
				c-62.492,4.892-114.703,0.191-161.792-31.546c5.855-1.939,11.444-4.764,16.582-8.463c3.796-2.734,4.64-7.998,1.885-11.765
				c-2.755-3.767-8.062-4.593-11.856-1.868c-9.525,6.859-21.172,9.622-32.799,7.793C471,686.621,460.79,680.407,453.877,670.957z"/>
			<path fill="#C4E9FB" d="M733.42,451.413l-19.668-3.59c-4.595-0.83-9.037,2.184-9.885,6.761c-0.848,4.575,2.204,8.965,6.815,9.807
				l19.668,3.59c0.519,0.093,1.035,0.139,1.546,0.139c4.015,0,7.587-2.841,8.339-6.901
				C741.083,456.645,738.032,452.255,733.42,451.413z"/>
			<path fill="#C4E9FB" d="M781.819,547.158c-4.123-2.201-9.275-0.673-11.498,3.426l-9.477,17.473
				c-2.221,4.096-0.675,9.204,3.454,11.408c1.28,0.683,2.656,1.006,4.016,1.006c3.022,0,5.949-1.607,7.482-4.433l9.477-17.473
				C787.494,554.469,785.947,549.362,781.819,547.158z"/>
			<path fill="#C4E9FB" d="M395.33,829.88c2.845-3.698,2.129-8.982-1.596-11.805c-3.931-2.974-7.837-6.08-11.616-9.228
				c-3.591-2.984-8.943-2.527-11.959,1.037c-3.014,3.563-2.549,8.872,1.042,11.866c3.978,3.313,8.093,6.58,12.23,9.715
				c1.539,1.165,3.349,1.727,5.145,1.727C391.133,833.193,393.66,832.052,395.33,829.88z"/>
			<path fill="#C4E9FB" d="M483.165,265.562c0.896,0,1.804-0.142,2.7-0.437c9.263-3.081,18.793-5.769,28.325-7.99
				c4.564-1.063,7.396-5.596,6.323-10.123c-1.071-4.529-5.64-7.345-10.203-6.274c-10.043,2.339-20.082,5.17-29.841,8.414
				c-4.445,1.479-6.841,6.252-5.352,10.663C476.308,263.338,479.618,265.562,483.165,265.562z"/>
			<path fill="#C4E9FB" d="M879.183,715.313c-4.114-2.247-9.273-0.763-11.531,3.313c-4.721,8.498-9.898,16.884-15.391,24.929
				c-2.632,3.849-1.617,9.087,2.265,11.695c1.458,0.98,3.115,1.451,4.753,1.451c2.721,0,5.395-1.293,7.035-3.698
				c5.785-8.469,11.237-17.303,16.207-26.251C884.783,722.679,883.287,717.557,879.183,715.313z"/>
			<path fill="#C4E9FB" d="M383.514,321.727c7.539-6.208,15.448-12.135,23.506-17.613c3.869-2.63,4.855-7.873,2.205-11.709
				c-2.653-3.839-7.935-4.816-11.802-2.187c-8.488,5.77-16.816,12.01-24.753,18.547c-3.608,2.971-4.105,8.281-1.111,11.86
				c1.68,2.007,4.099,3.043,6.538,3.043C380.007,323.667,381.929,323.031,383.514,321.727z"/>
			<path fill="#C4E9FB" d="M906.707,549.768c0.268,5.329,0.405,10.746,0.405,16.098c0,4.371-0.092,8.795-0.271,13.147
				c-0.191,4.649,3.452,8.568,8.135,8.76c0.117,0.005,0.236,0.006,0.354,0.006c4.528,0,8.288-3.548,8.476-8.078
				c0.187-4.582,0.284-9.236,0.284-13.835c0-5.632-0.143-11.33-0.425-16.936c-0.234-4.646-4.198-8.211-8.902-7.994
				C910.081,541.168,906.473,545.122,906.707,549.768z"/>
			<path fill="#C4E9FB" d="M427.932,289.784c1.398,0,2.817-0.344,4.127-1.068c8.546-4.729,17.413-9.115,26.355-13.038
				c4.289-1.882,6.227-6.854,4.332-11.109c-1.893-4.25-6.9-6.175-11.196-4.299c-9.421,4.132-18.761,8.754-27.761,13.732
				c-4.094,2.267-5.563,7.396-3.28,11.459C422.062,288.226,424.953,289.784,427.932,289.784z"/>
			<path fill="#C4E9FB" d="M904.677,481.83c-4.56,1.08-7.375,5.622-6.286,10.148c2.27,9.434,4.12,19.09,5.499,28.702
				c0.604,4.203,4.237,7.237,8.395,7.237c0.398,0,0.8-0.028,1.206-0.086c4.642-0.656,7.869-4.922,7.208-9.526
				c-1.454-10.125-3.404-20.3-5.795-30.238C913.817,483.542,909.248,480.757,904.677,481.83z"/>
			<path fill="#C4E9FB" d="M879.487,436.709c3.991,8.867,7.607,18.018,10.743,27.195c1.201,3.509,4.501,5.718,8.041,5.718
				c0.903,0,1.823-0.143,2.726-0.447c4.44-1.496,6.818-6.278,5.312-10.683c-3.308-9.67-7.116-19.31-11.321-28.653
				c-1.912-4.247-6.929-6.152-11.213-4.255C879.495,427.481,877.576,432.462,879.487,436.709z"/>
			<path fill="#C4E9FB" d="M846.571,765.814c-3.619-2.955-8.97-2.431-11.948,1.161c-5.157,6.232-10.654,12.268-16.293,18.112
				l-11.221-10.163c-1.983-1.793-4.706-2.544-7.345-2.047c-2.638,0.511-4.876,2.227-6.035,4.633l-28.329,58.719
				c-1.536,3.185-0.908,6.982,1.574,9.511c1.632,1.666,3.839,2.547,6.085,2.547c1.166,0,2.343-0.237,3.455-0.73l62.592-27.689
				c2.615-1.158,4.467-3.543,4.923-6.349c0.457-2.804-0.542-5.649-2.657-7.564l-10.504-9.514
				c5.836-6.064,11.531-12.317,16.876-18.774C850.72,774.073,850.196,768.765,846.571,765.814z"/>
			<path fill="#C4E9FB" d="M866.25,410.61c1.559,2.747,4.439,4.293,7.407,4.293c1.409,0,2.838-0.348,4.154-1.083
				c4.085-2.282,5.534-7.416,3.235-11.471c-5.047-8.898-10.578-17.678-16.439-26.098c-2.664-3.828-7.948-4.787-11.81-2.143
				c-3.858,2.645-4.824,7.891-2.16,11.717C856.205,393.821,861.457,402.16,866.25,410.61z"/>
			<path fill="#C4E9FB" d="M915.606,640.683c2.297-9.955,4.152-20.152,5.517-30.305c0.62-4.61-2.647-8.847-7.294-9.46
				c-4.638-0.614-8.915,2.626-9.535,7.235c-1.295,9.642-3.057,19.321-5.237,28.773c-1.047,4.534,1.809,9.051,6.381,10.087
				c0.637,0.145,1.273,0.218,1.902,0.218C911.21,647.231,914.707,644.585,915.606,640.683z"/>
			<path fill="#C4E9FB" d="M901.873,659.718c-4.46-1.444-9.251,0.949-10.717,5.37c-3.058,9.212-6.591,18.401-10.501,27.311
				c-1.871,4.263,0.095,9.225,4.394,11.084c1.103,0.477,2.254,0.704,3.384,0.704c3.277,0,6.396-1.893,7.788-5.064
				c4.119-9.382,7.841-19.062,11.06-28.771C908.747,665.934,906.326,661.173,901.873,659.718z"/>
			<path fill="#C4E9FB" d="M278.991,699.62c1.394,3.165,4.51,5.05,7.78,5.05c1.137,0,2.291-0.23,3.399-0.71
				c4.294-1.866,6.252-6.831,4.372-11.091c-3.921-8.893-7.467-18.072-10.541-27.287c-1.474-4.415-6.275-6.813-10.727-5.346
				c-4.451,1.46-6.865,6.224-5.392,10.643C271.123,680.584,274.86,690.253,278.991,699.62z"/>
			<path fill="#C4E9FB" d="M316.008,757.132c1.643,0,3.304-0.471,4.765-1.457c3.877-2.616,4.883-7.857,2.247-11.703
				c-5.51-8.037-10.701-16.413-15.43-24.901c-2.266-4.067-7.429-5.547-11.536-3.293c-4.103,2.25-5.591,7.373-3.323,11.445
				c4.981,8.936,10.447,17.759,16.248,26.225C310.622,755.843,313.29,757.132,316.008,757.132z"/>
			<path fill="#C4E9FB" d="M631.275,251.711c0.392,0.053,0.781,0.079,1.163,0.079c4.177,0,7.818-3.059,8.401-7.279
				c0.637-4.609-2.612-8.857-7.257-9.489c-10.169-1.384-20.56-2.316-30.887-2.772c-4.753-0.21-8.65,3.392-8.858,8.038
				c-0.209,4.648,3.419,8.583,8.103,8.79C611.749,249.509,621.619,250.396,631.275,251.711z"/>
			<path fill="#C4E9FB" d="M276.056,637.449c-2.195-9.449-3.974-19.118-5.284-28.744c-0.628-4.61-4.895-7.828-9.549-7.22
				c-4.647,0.623-7.903,4.864-7.277,9.473c1.381,10.14,3.253,20.326,5.566,30.275c0.905,3.899,4.398,6.534,8.263,6.534
				c0.632,0,1.275-0.072,1.917-0.217C274.261,646.503,277.112,641.979,276.056,637.449z"/>
			<path fill="#C4E9FB" d="M348.388,800.908c1.66,1.662,3.845,2.494,6.031,2.494c2.16,0,4.319-0.813,5.975-2.438
				c3.329-3.273,3.354-8.606,0.055-11.913c-6.889-6.899-13.538-14.195-19.758-21.69c-2.984-3.586-8.331-4.106-11.949-1.145
				c-3.619,2.957-4.136,8.264-1.155,11.857C334.136,785.962,341.135,793.645,348.388,800.908z"/>
			<path fill="#C4E9FB" d="M296.918,414.32c1.313,0.728,2.737,1.076,4.141,1.076c2.973,0,5.857-1.551,7.415-4.307
				c4.785-8.473,10.024-16.822,15.57-24.813c2.659-3.831,1.684-9.075-2.177-11.714c-3.865-2.642-9.148-1.673-11.807,2.16
				c-5.841,8.416-11.358,17.208-16.399,26.132C291.37,406.912,292.827,412.044,296.918,414.32z"/>
			<path fill="#C4E9FB" d="M742.448,288.45c1.304,0.719,2.718,1.061,4.113,1.061c2.984,0,5.878-1.563,7.429-4.334
				c2.277-4.067,0.799-9.194-3.3-11.452c-9.014-4.968-18.365-9.574-27.794-13.688c-4.284-1.87-9.299,0.063-11.188,4.32
				c-1.887,4.257,0.061,9.226,4.354,11.099C725.011,279.361,733.89,283.734,742.448,288.45z"/>
			<path fill="#C4E9FB" d="M541.965,251.865c0.387,0,0.781-0.026,1.177-0.082c9.655-1.329,19.523-2.232,29.333-2.686
				c4.682-0.215,8.303-4.157,8.084-8.804c-0.217-4.647-4.167-8.294-8.874-8.021c-10.323,0.475-20.713,1.427-30.878,2.828
				c-4.644,0.64-7.885,4.892-7.24,9.499C534.156,248.814,537.793,251.865,541.965,251.865z"/>
			<path fill="#C4E9FB" d="M767.519,303.804c8.073,5.469,15.993,11.383,23.54,17.576c1.584,1.298,3.5,1.932,5.405,1.932
				c2.444,0,4.868-1.041,6.548-3.055c2.987-3.584,2.48-8.895-1.133-11.859c-7.947-6.519-16.286-12.746-24.787-18.504
				c-3.868-2.624-9.153-1.633-11.796,2.206C762.65,295.941,763.645,301.181,767.519,303.804z"/>
			<path fill="#C4E9FB" d="M259.688,588.363c0.123,0,0.245-0.002,0.369-0.009c4.683-0.198,8.319-4.126,8.118-8.773
				c-0.195-4.551-0.293-9.164-0.291-13.716c0-5.158,0.126-10.381,0.375-15.521c0.225-4.646-3.39-8.593-8.071-8.817
				c-4.727-0.228-8.665,3.364-8.887,8.008c-0.262,5.408-0.395,10.901-0.395,16.326c-0.002,4.789,0.102,9.645,0.308,14.437
				C251.407,584.824,255.166,588.363,259.688,588.363z"/>
			<path fill="#C4E9FB" d="M335.32,366.015c2.432,0,4.848-1.032,6.526-3.031c6.262-7.454,12.951-14.714,19.879-21.575
				c3.318-3.286,3.322-8.62,0.011-11.912c-3.311-3.292-8.688-3.293-12.006-0.011c-7.295,7.224-14.334,14.866-20.927,22.715
				c-3.001,3.572-2.516,8.884,1.085,11.862C331.476,365.375,333.404,366.015,335.32,366.015z"/>
			<path fill="#C4E9FB" d="M812.848,329.114c-3.306,3.298-3.293,8.632,0.031,11.911c6.943,6.852,13.644,14.099,19.919,21.543
				c1.678,1.993,4.089,3.019,6.516,3.019c1.92,0,3.852-0.643,5.441-1.961c3.597-2.985,4.074-8.297,1.067-11.865
				c-6.607-7.835-13.661-15.466-20.969-22.677C821.531,325.801,816.154,325.816,812.848,329.114z"/>
			<path fill="#C4E9FB" d="M273.818,469.737c0.898,0.301,1.814,0.445,2.714,0.445c3.541,0,6.847-2.218,8.041-5.733
				c3.125-9.189,6.724-18.35,10.702-27.229c1.903-4.25-0.026-9.229-4.311-11.117c-4.285-1.89-9.299,0.028-11.205,4.277
				c-4.19,9.353-7.982,19.004-11.273,28.686C266.989,463.473,269.375,468.252,273.818,469.737z"/>
			<path fill="#C4E9FB" d="M261.43,528.418c0.401,0.056,0.8,0.084,1.194,0.084c4.162,0,7.798-3.041,8.395-7.248
				c1.365-9.621,3.198-19.282,5.448-28.716c1.081-4.524-1.743-9.064-6.305-10.134c-4.568-1.077-9.137,1.729-10.216,6.256
				c-2.371,9.938-4.301,20.113-5.739,30.245C253.554,523.509,256.787,527.77,261.43,528.418z"/>
			<path fill="#C4E9FB" d="M688.579,264.942c0.888,0.293,1.792,0.432,2.682,0.432c3.555,0,6.867-2.234,8.053-5.764
				c1.481-4.414-0.925-9.183-5.373-10.651c-9.778-3.23-19.823-6.043-29.854-8.361c-4.571-1.062-9.129,1.764-10.193,6.294
				c-1.063,4.531,1.778,9.058,6.344,10.114C669.76,259.205,679.295,261.875,688.579,264.942z"/>
		</g>
	</g>
</g>
</svg>
