<?xml version="1.0" encoding="utf-8"?>
<!-- Generator: Adobe Illustrator 19.1.0, SVG Export Plug-In . SVG Version: 6.00 Build 0)  -->
<svg version="1.1" id="Layer_1" xmlns="http://www.w3.org/2000/svg" xmlns:xlink="http://www.w3.org/1999/xlink" x="0px" y="0px"
	 viewBox="0 0 1200 1200" enable-background="new 0 0 1200 1200" xml:space="preserve">
<g>
	<circle fill="#2A1540" cx="600" cy="600" r="550"/>
	<g>
		<g>
			<path fill="#C4E9FB" d="M605.369,968.457c-94.617,0-189.23-35.73-261.262-107.197c-34.896-34.619-62.021-75.008-80.623-120.028
				c-1.06-2.57-0.765-5.494,0.793-7.804c1.564-2.305,4.176-3.689,6.976-3.689h668.233c2.799,0,5.412,1.384,6.975,3.689
				c1.558,2.305,1.854,5.234,0.792,7.799c-18.596,45.026-45.72,85.41-80.617,120.033
				C794.605,932.727,699.987,968.457,605.369,968.457z M284.01,746.4c17.488,38.372,41.654,73.001,71.971,103.08
				c137.508,136.429,361.263,136.429,498.781,0c30.317-30.079,54.489-64.708,71.965-103.08H284.01z"/>
			<path fill="#C4E9FB" d="M937.021,468.716H273.723c-2.826,0-5.46-1.41-7.013-3.748c-1.551-2.342-1.815-5.299-0.699-7.876
				c18.564-42.823,44.84-81.266,78.097-114.262c144.062-142.932,378.467-142.932,522.528,0
				c33.246,32.986,59.523,71.433,78.098,114.262c1.115,2.577,0.853,5.533-0.7,7.876
				C942.482,467.306,939.847,468.716,937.021,468.716z M286.728,452.054h637.289c-17.301-36.24-40.555-68.971-69.254-97.444
				c-137.513-136.436-361.269-136.436-498.781,0C327.272,383.094,304.018,415.825,286.728,452.054z"/>
			<path fill="#C4E9FB" d="M869.872,468.716H549.284c-3.498,0-6.631-2.153-7.861-5.401c-1.231-3.255-0.3-6.921,2.34-9.205
				C678.313,337.52,814.11,290.715,866.636,342.83c24.522,24.336,28.408,65.848,11.244,120.049
				C876.782,466.35,873.54,468.716,869.872,468.716z M572.123,452.054h291.511c12.94-44.402,9.845-78.869-8.872-97.444
				C811.48,311.688,692.126,353.552,572.123,452.054z"/>
			<path fill="#C4E9FB" d="M404.835,882.662c-25.332,0-46.142-6.931-60.727-21.402c-25.439-25.241-28.664-68.754-9.319-125.842
				c1.148-3.396,4.351-5.679,7.959-5.679h325.184c3.483,0,6.61,2.137,7.845,5.364c1.24,3.233,0.344,6.888-2.257,9.188
				C573.604,832.581,472.914,882.662,404.835,882.662z M348.848,746.4c-14.902,47.207-12.419,83.68,7.133,103.08
				c44.507,44.137,166.84-0.146,289.473-103.08H348.848z"/>
			<path fill="#C4E9FB" d="M805.909,882.662c-68.079,0-168.764-50.07-268.684-138.37c-2.601-2.3-3.499-5.955-2.257-9.188
				c1.236-3.227,4.363-5.364,7.844-5.364h325.18c3.608,0,6.811,2.283,7.959,5.674c19.346,57.088,16.126,100.606-9.314,125.847
				C852.051,875.731,831.236,882.662,805.909,882.662z M565.29,746.4c122.639,102.934,244.976,147.217,289.473,103.08
				c19.554-19.4,22.034-55.873,7.127-103.08H565.29z"/>
			<path fill="#C4E9FB" d="M661.454,468.716H340.872c-3.668,0-6.91-2.359-8.008-5.83c-17.17-54.204-13.284-95.715,11.243-120.056
				c52.511-52.098,188.308-5.315,322.868,111.28c2.641,2.284,3.569,5.95,2.34,9.205
				C668.085,466.562,664.953,468.716,661.454,468.716z M347.11,452.054h291.506c-119.998-98.496-239.373-140.377-282.634-97.444
				C337.259,373.191,334.165,407.651,347.11,452.054z"/>
		</g>
		<path fill="#C4E9FB" d="M990.285,746.4H220.458c-4.635,0-8.396-3.731-8.396-8.33V460.386c0-4.599,3.761-8.332,8.396-8.332h769.827
			c4.636,0,8.396,3.732,8.396,8.332V738.07C998.682,742.669,994.921,746.4,990.285,746.4z M228.855,729.739h753.034V468.716H228.855
			V729.739z"/>
		<g>
			<path fill="#C4E9FB" d="M691.868,597.544c-3.394-2.925-8.458-2.863-11.775,0.144L623.5,649.01l-55.793-49.144
				c-3.361-2.966-8.422-2.959-11.772,0.021l-100.928,89.593c-3.641,3.233-3.952,8.781-0.695,12.395
				c3.257,3.61,8.85,3.919,12.492,0.689l95.051-84.378l95.821,84.398c1.684,1.484,3.78,2.215,5.87,2.215
				c2.442,0,4.87-0.998,6.619-2.948c3.243-3.627,2.911-9.175-0.743-12.392l-32.616-28.729l49.402-44.804l57.821,49.888
				c1.676,1.443,3.743,2.154,5.802,2.154c2.471,0,4.93-1.021,6.68-3.017c3.205-3.659,2.815-9.203-0.87-12.386L691.868,597.544z"/>
			<path fill="#C4E9FB" d="M687.612,573.793c22.268,0,40.385-17.974,40.385-40.069c0-22.095-18.117-40.068-40.385-40.068
				c-22.268,0-40.385,17.973-40.385,40.068C647.227,555.819,665.344,573.793,687.612,573.793z M687.612,511.212
				c12.512,0,22.691,10.098,22.691,22.513c0,12.415-10.179,22.514-22.691,22.514c-12.511,0-22.691-10.098-22.691-22.514
				C664.921,521.31,675.101,511.212,687.612,511.212z"/>
		</g>
		<g>
			<path fill="#C4E9FB" d="M898.445,650.544c-2.148,0-4.296-0.813-5.936-2.44c-3.281-3.254-3.281-8.526,0-11.78l37.389-37.098
				l-37.389-37.102c-3.281-3.254-3.281-8.525,0-11.78c3.28-3.254,8.593-3.254,11.872,0l43.327,42.993c3.28,3.254,3.28,8.526,0,11.78
				l-43.327,42.987C902.741,649.731,900.593,650.544,898.445,650.544z"/>
			<path fill="#C4E9FB" d="M312.299,650.55c-2.148,0-4.296-0.813-5.936-2.44l-43.332-42.992c-1.574-1.562-2.46-3.683-2.46-5.891
				c0-2.208,0.886-4.327,2.46-5.889l43.332-42.988c3.28-3.254,8.593-3.254,11.873,0c3.28,3.254,3.28,8.526,0,11.78l-37.396,37.097
				l37.396,37.103c3.28,3.254,3.28,8.525,0,11.78C316.596,649.737,314.448,650.55,312.299,650.55z"/>
		</g>
	</g>
</g>
</svg>
