<?xml version="1.0" encoding="utf-8"?>
<!-- Generator: Adobe Illustrator 19.1.0, SVG Export Plug-In . SVG Version: 6.00 Build 0)  -->
<svg version="1.1" id="Layer_1" xmlns="http://www.w3.org/2000/svg" xmlns:xlink="http://www.w3.org/1999/xlink" x="0px" y="0px"
	 viewBox="0 0 1200 1200" enable-background="new 0 0 1200 1200" xml:space="preserve">
<g>
	<circle fill="#2A1540" cx="600" cy="600" r="550"/>
	<path fill="#C4E9FB" d="M594.792,941.158c183.163,0,332.352-146.992,334.084-328.322l13.51-1.261
		c2.745-0.256,5.197-1.822,6.569-4.197c1.373-2.375,1.496-5.264,0.328-7.745l-28.985-61.717c-1.519-3.229-4.937-5.188-8.489-4.828
		c-3.575,0.334-6.552,2.864-7.435,6.317l-16.845,65.995c-0.677,2.653-0.01,5.467,1.784,7.547c1.621,1.877,3.979,2.943,6.446,2.943
		c0.262,0,0.531-0.011,0.796-0.037l15.322-1.432c-2.583,171.312-143.818,309.891-317.085,309.891
		c-174.878,0-317.149-141.156-317.149-314.661c0-173.506,142.271-314.662,317.149-314.662c9.915,0,19.919,0.458,29.734,1.363
		c0.269,0.025,0.534,0.036,0.796,0.036c4.335,0,8.034-3.277,8.443-7.642c0.434-4.632-2.998-8.735-7.667-9.166
		c-10.339-0.952-20.87-1.436-31.306-1.436c-184.239,0-334.127,148.714-334.127,331.507S410.554,941.158,594.792,941.158z"/>
	<path fill="#C4E9FB" d="M881.157,474.246c4.254,8.837,8.138,17.99,11.536,27.2c1.26,3.412,4.51,5.527,7.972,5.527
		c0.971,0,1.957-0.166,2.921-0.515c4.401-1.6,6.662-6.438,5.05-10.805c-3.585-9.707-7.677-19.352-12.159-28.668
		c-2.02-4.194-7.09-5.976-11.318-3.969C880.928,465.02,879.138,470.048,881.157,474.246z"/>
	<path fill="#C4E9FB" d="M764.09,343.52c8.346,5.238,16.543,10.934,24.369,16.932c1.545,1.185,3.372,1.757,5.183,1.757
		c2.54,0,5.05-1.126,6.724-3.274c2.865-3.68,2.183-8.97-1.528-11.814c-8.244-6.317-16.882-12.32-25.676-17.836
		c-3.956-2.484-9.201-1.317-11.712,2.615C758.947,335.831,760.127,341.035,764.09,343.52z"/>
	<path fill="#C4E9FB" d="M867.084,448.237c1.592,2.637,4.406,4.099,7.292,4.099c1.485,0,2.988-0.386,4.35-1.196
		c4.026-2.389,5.336-7.56,2.928-11.553c-5.335-8.843-11.172-17.559-17.342-25.903c-2.776-3.748-8.091-4.554-11.868-1.804
		c-3.78,2.752-4.593,8.025-1.821,11.773C856.486,431.573,862.024,439.844,867.084,448.237z"/>
	<path fill="#C4E9FB" d="M653.993,300.461c9.71,1.819,19.444,4.121,28.942,6.838c0.786,0.226,1.578,0.332,2.357,0.332
		c3.688,0,7.08-2.4,8.155-6.09c1.299-4.469-1.3-9.138-5.803-10.426c-10.008-2.865-20.271-5.29-30.501-7.207
		c-4.569-0.865-9.042,2.141-9.918,6.713C646.356,295.192,649.387,299.598,653.993,300.461z"/>
	<path fill="#C4E9FB" d="M711.09,316.817c5.15,2.015,10.32,4.197,15.364,6.483c3.959,1.797,7.918,3.69,11.764,5.631
		c1.234,0.622,2.546,0.916,3.841,0.916c3.093,0,6.075-1.684,7.573-4.607c2.126-4.147,0.458-9.217-3.721-11.324
		c-4.056-2.047-8.226-4.042-12.398-5.935c-5.319-2.41-10.767-4.71-16.189-6.834c-4.383-1.709-9.294,0.418-11.012,4.744
		C704.591,310.218,706.73,315.11,711.09,316.817z"/>
	<path fill="#C4E9FB" d="M831.918,400.697c1.678,1.872,4.009,2.828,6.35,2.828c2.006,0,4.019-0.7,5.634-2.127
		c3.504-3.089,3.822-8.413,0.709-11.89c-6.913-7.72-14.278-15.208-21.889-22.253c-3.432-3.173-8.801-2.987-12,0.411
		c-3.197,3.4-3.011,8.73,0.415,11.903C818.362,386.259,825.355,393.367,831.918,400.697z"/>
	<g>
		<path fill="#C4E9FB" d="M501.571,540.757c0.557-0.953,0.859-2.129,0.859-3.351c0-4.276-3.376-7.626-7.687-7.626h-67.204
			c-4.311,0-7.686,3.349-7.686,7.626c0,4.278,3.375,7.628,7.686,7.628h49.052l-31.538,32.186c-3.027,3.012-3.027,7.908,0.003,10.913
			l0.786,0.61c1.495,1.41,3.352,2.174,5.328,2.174c9.716,0,18.706,3.711,25.361,10.5c6.791,6.553,10.531,15.468,10.531,25.103
			c0,9.578-3.75,18.577-10.531,25.313c-6.883,6.634-15.963,10.289-25.566,10.289c-9.467,0-18.471-3.655-25.324-10.262
			c-1.506-1.499-3.621-2.366-5.67-2.275c-2.033,0.053-3.886,0.895-5.127,2.272c-1.509,1.495-2.341,3.547-2.285,5.625
			c0.054,2.011,0.899,3.848,2.265,5.06c9.567,9.695,22.4,15.035,36.141,15.035c13.466,0,26.71-5.473,36.313-14.996
			c9.769-9.488,15.151-22.296,15.151-36.063c0-13.693-5.299-26.493-14.926-36.042c-5.972-5.925-13.357-10.247-21.556-12.651
			l34.108-34.775C500.702,542.404,501.243,541.583,501.571,540.757z"/>
		<path fill="#C4E9FB" d="M586.788,545.027c4.085-0.311,7.289-3.747,7.281-8.016c-0.159-2.044-1.15-3.979-2.716-5.308
			c-1.466-1.245-3.289-1.848-5.053-1.709c-22.426,0.765-41.062,12.222-52.479,32.263c-8.993,15.436-14.072,36.004-14.308,57.946
			c0,3.335,0,6.485,0.408,9.462c0.879,26.868,22.851,47.916,50.021,47.916c27.699,0,50.234-22.263,50.234-49.629
			c0-27.37-22.535-49.637-50.234-49.637c-11.357,0-22.307,3.901-31.093,10.911c2.068-7.466,4.747-14.012,8.001-19.514
			C556.649,553.576,569.313,545.734,586.788,545.027z M535.423,630.808c-0.178-0.711-0.331-1.325-0.331-2.046v-0.812
			c0-19.072,15.635-34.587,34.85-34.587c19.452,0,35.279,15.515,35.279,34.587c0,19.072-15.827,34.587-35.279,34.587
			c-17.242,0-32.009-12.623-34.588-29.46c0.146-0.595,0.146-1.151,0.146-1.659L535.423,630.808z"/>
		<path fill="#C4E9FB" d="M687.487,677.58c14.471,0,27.99-8.069,38.097-22.759c9.282-14.036,14.392-32.197,14.392-51.137
			c0-18.857-5.107-37.086-14.428-51.399c-10.143-14.513-23.662-22.504-38.061-22.504c-14.401,0-27.92,7.991-38.097,22.55
			c-9.149,13.729-14.189,31.967-14.189,51.353c0,19.462,5.043,37.632,14.212,51.177C659.494,669.51,673.016,677.58,687.487,677.58z
			 M650.362,603.684c0-16.16,4.264-31.78,11.716-42.869c6.801-10.308,15.827-15.984,25.41-15.984c9.531,0,18.321,5.537,25.42,16.003
			c7.564,11.263,11.904,26.881,11.904,42.85c0,15.973-4.337,31.589-11.874,42.799c-7.285,10.354-16.324,16.055-25.45,16.055
			c-9.324,0-18.357-5.693-25.423-16.01C654.626,635.465,650.362,619.849,650.362,603.684z"/>
		<path fill="#C4E9FB" d="M800.091,528.561c-17.89,0-33.584,15.093-33.584,32.3v0.406c0,17.207,15.694,32.3,33.584,32.3
			c17.886,0,33.578-15.093,33.578-32.3v-0.406C833.669,543.654,817.977,528.561,800.091,528.561z M800.091,579.539
			c-10.893,0-18.211-9.448-18.211-18.272v-0.406c0-8.825,7.318-18.273,18.211-18.273c10.893,0,18.211,9.448,18.211,18.273v0.406
			C818.302,570.091,810.984,579.539,800.091,579.539z"/>
	</g>
</g>
</svg>
