<?xml version="1.0" encoding="utf-8"?>
<!-- Generator: Adobe Illustrator 19.1.0, SVG Export Plug-In . SVG Version: 6.00 Build 0)  -->
<svg version="1.1" id="Layer_1" xmlns="http://www.w3.org/2000/svg" xmlns:xlink="http://www.w3.org/1999/xlink" x="0px" y="0px"
	 viewBox="0 0 1200 1200" enable-background="new 0 0 1200 1200" xml:space="preserve">
<g>
	<circle fill="#7FE2FF" cx="600" cy="600" r="550"/>
	<circle fill="#278EB3" cx="599.775" cy="600.194" r="408.435"/>
	<path fill="#63EFFF" d="M624.49,1005.704c-17.161,0-34.341-1.261-51.433-3.844c-10.913-1.652-18.423-11.839-16.774-22.749
		c1.653-10.909,11.856-18.443,22.746-16.77c118.531,17.922,242.667-35.785,316.237-136.811
		c74.007-101.631,92.011-244.166,45.865-363.134c-45.953-118.473-152.517-205.493-271.488-221.691
		c-10.935-1.49-18.595-11.559-17.107-22.502c1.493-10.935,11.602-18.54,22.5-17.102c133.154,18.137,252.229,115.025,303.357,246.841
		c50.939,131.326,30.991,288.772-50.815,401.11C855.887,947.496,740.957,1005.698,624.49,1005.704z"/>
	<path fill="#FC523A" d="M867.2,299.368c0,0-137.878-31.372-259.87,86.923C485.339,504.586,226.57,709.753,315.291,881.65
		c60.995,79.479,242.135-35.119,293.888-79.479c51.754-44.361,288.343-234.741,304.978-432.515
		C917.854,316.054,885.684,306.762,867.2,299.368z"/>
	<path fill="#FCD290" d="M298.415,322.681c0,0-24.029,153.413,94.266,275.404s323.462,380.761,495.358,292.04
		c79.479-60.995-35.119-242.134-79.479-293.888C764.2,544.483,573.82,307.894,376.046,291.259
		C322.443,287.562,305.809,304.197,298.415,322.681z"/>
	<path opacity="0.62" fill="#FFFFFF" d="M880.579,897.703c-6.755,0-13.155-4.026-15.86-10.667
		c-3.06-7.504-0.405-15.924,5.935-20.418c1.471-2.561,7.547-16.151,2.07-58.907c-7.4-57.682-92.67-259.18-301.812-398.019
		c-153.097-101.642-215.458-85.537-226.567-70.751c0.298-0.394,0.415-0.635,0.415-0.635l-29.233-17.83
		c1.806-2.963,12.209-18.044,39.763-24.164c53.084-11.804,131.991,16.753,234.562,84.849
		c202.912,134.706,306.479,341.447,316.832,422.196c9.018,70.336-8.44,88.507-19.652,93.074
		C884.919,897.294,882.729,897.703,880.579,897.703z"/>
	<g>
		<path fill="#2A1540" d="M599.999,1016.577c-106.725,0-213.449-40.625-294.699-121.875c-162.5-162.5-162.5-426.904,0-589.404
			c162.5-162.507,426.901-162.494,589.401,0c162.501,162.5,162.501,426.904,0,589.404
			C813.451,975.952,706.726,1016.577,599.999,1016.577z M599.999,203.401c-101.609,0-203.216,38.674-280.569,116.027
			c-154.707,154.706-154.707,406.438,0,561.145c154.713,154.713,406.441,154.707,561.142,0
			c154.707-154.707,154.707-406.439,0-561.145C803.217,242.075,701.609,203.401,599.999,203.401z"/>
		<path fill="#2A1540" d="M374.336,919.331c-28.675,0-52.342-7.929-69.037-24.629c-67.707-67.713,8.704-250.198,173.955-415.449
			C644.507,314.002,826.995,237.585,894.7,305.298c67.706,67.712-8.704,250.196-173.955,415.449
			C596.242,845.25,461.948,919.331,374.336,919.331z M826.038,300.549c-80.694,0-214.301,74.485-332.654,192.834
			C341.303,645.468,261.64,822.78,319.429,880.573c57.808,57.799,235.104-21.877,387.186-173.955
			c152.082-152.085,231.745-329.392,173.955-387.19C867.753,306.611,849.034,300.549,826.038,300.549z"/>
		<path fill="#2A1540" d="M825.664,919.331c-87.613,0-221.896-74.069-346.41-198.584C314.003,555.495,237.593,373.011,305.3,305.298
			c67.716-67.706,250.197,8.704,415.445,173.955C885.997,644.505,962.406,826.989,894.7,894.702
			C878.008,911.395,854.329,919.331,825.664,919.331z M373.965,300.549c-23.009,0-41.715,6.057-54.536,18.879
			c-57.79,57.791,21.874,235.105,173.955,387.19c152.089,152.084,329.388,231.735,387.186,173.955
			c57.79-57.798-21.873-235.105-173.955-387.19C588.273,375.04,454.656,300.549,373.965,300.549z"/>
	</g>
</g>
</svg>
