<?xml version="1.0" encoding="utf-8"?>
<!-- Generator: Adobe Illustrator 19.1.0, SVG Export Plug-In . SVG Version: 6.00 Build 0)  -->
<svg version="1.1" id="Layer_1" xmlns="http://www.w3.org/2000/svg" xmlns:xlink="http://www.w3.org/1999/xlink" x="0px" y="0px"
	 viewBox="0 0 1200 1200" enable-background="new 0 0 1200 1200" xml:space="preserve">
<g>
	<circle fill="#278EB3" cx="600" cy="600" r="550"/>
	<path fill="#FCD290" d="M67.619,865.659l63.717-45.512c0,0,24.273-83.439,86.473-130.468
		c62.199-47.029,77.37-80.405,150.189-24.273c53.098-19.722,226.043-106.195,226.043-106.195s33.376-13.654,50.063,22.756
		c16.688,36.409-18.205,53.097-28.825,57.648c-10.619,4.551-130.468,66.751-130.468,66.751s51.58,19.722,34.893,80.405
		c21.239,18.205,30.341,56.131,16.688,89.506c28.824,22.756,24.273,56.131,3.034,66.751
		c-21.239,10.619-133.502,84.955-133.502,84.955s-63.717,16.688-112.263,15.171s-57.648,1.517-72.819,9.102
		c-15.171,7.585-40.961,25.79-40.961,25.79S82.79,906.619,67.619,865.659z"/>
	<g>
		<path fill="#FC523A" d="M412.958,729.296c-10.08,0-19.46-6.43-22.737-16.541c-4.078-12.563,2.802-26.052,15.366-30.123
			c62.542-20.285,138.824-62.94,198.291-97.843c11.403-6.678,26.044-2.872,32.731,8.523c6.678,11.395,2.864,26.045-8.524,32.732
			c-61.561,36.116-140.809,80.368-207.742,102.076C417.892,728.915,415.401,729.296,412.958,729.296z"/>
		<path fill="#FC523A" d="M436.776,816.419c-11.404,0-21.5-8.188-23.523-19.808c-2.274-13.008,6.436-25.399,19.444-27.664
			c6.733-1.175,16.533-4.421,25.998-7.565c7.356-2.436,14.875-4.927,22.083-6.858c0.802-0.903,1.565-1.712,2.249-2.429
			c0.054-0.062,0.117-0.124,0.172-0.186c4.047-9.403,13.909-15.419,24.565-14.307c13.131,1.44,22.605,13.248,21.173,26.371
			c-1.137,10.376-7.419,17.015-11.163,20.978c-0.062,0.062-0.124,0.125-0.187,0.194c-3.137,7.255-9.753,12.657-17.84,14.067
			c-6.733,1.174-16.526,4.42-25.999,7.565c-11.115,3.689-22.612,7.495-32.832,9.278
			C439.523,816.295,438.145,816.413,436.776,816.419z"/>
		<path fill="#FC523A" d="M477.618,926.21c-8.445,0-16.634-4.484-20.985-12.408c-6.353-11.582-2.125-26.114,9.449-32.474
			c17.46-9.582,42.678-29.383,49.045-40.546c6.546-11.481,21.141-15.467,32.614-8.935c11.475,6.538,15.476,21.148,8.936,32.614
			c-13.107,22.993-48.407,48.26-67.57,58.792C485.456,925.252,481.509,926.21,477.618,926.21z"/>
		<path fill="#FC523A" d="M177.817,1071.098c-6.997,0-13.932-3.059-18.657-8.936c-8.274-10.298-6.632-25.345,3.667-33.618
			c47.698-38.312,110.607-43.27,166.114-47.645l8.616-0.685c65.034-5.23,142.676-25.313,169.523-58.37
			c8.314-10.244,23.359-11.816,33.642-3.488c10.251,8.328,11.808,23.391,3.488,33.642c-49.272,60.659-177.595,73.852-202.823,75.884
			l-8.687,0.693c-50.991,4.016-103.718,8.173-139.921,37.253C188.364,1069.377,183.071,1071.098,177.817,1071.098z"/>
		<path fill="#63EFFF" d="M549.654,244.412"/>
		<g>
			<g>
				<path fill="#2A1540" d="M186.838,1082.768c-4.351,0-8.547-2.382-10.663-6.53c-2.997-5.877-0.654-13.077,5.23-16.082
					c18.72-9.543,37.627-19.467,56.191-29.509c8.928-4.833,18.487-6.678,29.049-5.58c12.711,1.268,25.446,2.436,38.195,3.386
					c42.266,3.137,77.387-3.604,107.338-20.627c9.006-5.114,18.051-10.165,27.088-15.217c14.619-8.165,29.236-16.331,43.698-24.776
					c15.109-8.811,30.232-18.37,44.859-27.617l6.258-3.955c3.355-2.117,7.549-5.674,8.445-10.555
					c0.879-4.756-1.665-9.386-3.962-12.438c-3.682-4.904-7.644-9.605-11.606-14.314c-1.931-2.296-3.861-4.585-5.768-6.904
					c-3.215-3.915-3.611-9.442-0.988-13.779c27.126-44.857,13.652-61.172-9.995-80.942c-4.017-3.355-5.379-8.928-3.372-13.762
					l3.067-7.324c7.091-17,5.838-29.819-4.064-41.566c-4.67-5.55-9.364-11.069-14.307-16.875l-7.939-9.34
					c-2.281-2.686-3.261-6.242-2.678-9.723c0.584-3.47,2.669-6.514,5.705-8.305l3.628-2.187c2.678-1.635,5.198-3.161,7.806-4.53
					l30.886-16.269c31.953-16.829,52.962-27.889,93.787-49.217c10.407-5.44,14.587-12.422,13.972-23.343
					c-0.514-9.325-10.119-21.957-19.024-25.024c-9.69-3.355-19.155-1.969-31.673,4.608c-58.074,30.551-96.362,50.672-145.664,76.57
					l-48.922,25.663c-1.619,0.824-3.246,1.658-4.842,2.529c-6.305,3.441-15.91,5.464-25.974-4.429
					c-7.737-7.621-15.342-14.906-23.491-20.44c-14.579-9.893-27.983-11.901-40.981-6.18c-9.746,4.288-19.483,10.017-28.956,17.031
					c-26.823,19.871-51.669,45.037-78.196,79.199c-14.213,18.316-29.898,40.001-35.946,65.578
					c-2.553,10.805-8.539,19.04-18.292,25.173c-18.409,11.552-37.977,23.865-57.063,36.273c-5.526,3.596-12.944,2.031-16.541-3.51
					c-3.595-5.534-2.024-12.945,3.512-16.541c19.233-12.501,38.887-24.869,57.374-36.468c4.514-2.84,6.616-5.666,7.737-10.43
					c7.161-30.248,24.574-54.44,40.336-74.74c27.896-35.931,54.221-62.543,82.85-83.746c10.897-8.072,22.184-14.703,33.548-19.708
					c20.565-9.045,42.694-6.196,64.044,8.281c9.629,6.539,17.981,14.463,26.356,22.713c1.253-0.661,2.46-1.276,3.666-1.891
					l3.082-1.588l45.573-23.935c49.303-25.905,87.591-46.018,145.658-76.561c11.591-6.102,29.463-13.372,50.604-6.055
					c18.283,6.304,34.03,27.071,35.105,46.296c1.128,20.262-8.134,36.126-26.784,45.87c-40.794,21.305-61.781,32.366-93.717,49.178
					l-28.994,15.273c4.475,5.269,8.773,10.321,13.045,15.396c15.6,18.51,18.325,40.569,8.088,65.563
					c26.76,24.675,37.992,52.167,12.734,98.363c0.094,0.118,0.195,0.242,0.296,0.358c4.141,4.92,8.423,10.002,12.439,15.358
					c7.402,9.853,10.29,20.618,8.359,31.12c-1.953,10.601-8.593,19.74-19.203,26.448l-6.242,3.947
					c-14.805,9.355-30.116,19.038-45.59,28.06c-14.587,8.515-29.337,16.751-44.087,24.994c-8.99,5.028-17.98,10.049-26.931,15.14
					c-34.218,19.435-73.713,27.188-120.929,23.677c-12.953-0.964-25.89-2.148-38.811-3.448c-5.877-0.583-10.578,0.28-15.279,2.826
					c-18.736,10.135-37.822,20.152-56.721,29.789C190.521,1082.348,188.667,1082.768,186.838,1082.768z"/>
				<path fill="#2A1540" d="M438.637,741.099c-4.298,0-8.454-2.327-10.594-6.397c-3.067-5.839-0.818-13.069,5.028-16.144
					l54.082-28.419c5.815-3.082,13.061-0.826,16.144,5.029c3.067,5.837,0.817,13.068-5.029,16.144l-54.081,28.418
					C442.419,740.663,440.512,741.099,438.637,741.099z"/>
				<path fill="#2A1540" d="M326.254,708.182c-4.296,0-8.453-2.328-10.594-6.398c-3.066-5.846-0.817-13.07,5.028-16.143
					l54.082-28.412c5.83-3.082,13.069-0.824,16.144,5.029c3.066,5.845,0.817,13.068-5.028,16.144l-54.082,28.409
					C330.03,707.746,328.13,708.182,326.254,708.182z"/>
				<path fill="#2A1540" d="M457.278,832.309c-4.296,0-8.453-2.326-10.594-6.397c-3.066-5.838-0.817-13.069,5.029-16.144
					l62.247-32.708c5.83-3.075,13.069-0.817,16.144,5.029c3.066,5.837,0.817,13.068-5.029,16.143l-62.247,32.707
					C461.054,831.874,459.154,832.309,457.278,832.309z"/>
				<path fill="#2A1540" d="M475.703,926.936c-4.297,0-8.453-2.327-10.593-6.398c-3.067-5.846-0.818-13.069,5.028-16.144
					l54.082-28.411c5.829-3.082,13.069-0.825,16.144,5.028c3.065,5.846,0.816,13.069-5.029,16.144l-54.082,28.41
					C479.477,926.5,477.579,926.936,475.703,926.936z"/>
			</g>
			<path fill="#2A1540" d="M499.264,574.651"/>
			<path fill="#63EFFF" d="M598.577,709.006c-7.347,0-14.703-0.707-21.965-2.148c-6.476-1.292-10.687-7.581-9.403-14.057
				c1.292-6.476,7.659-10.648,14.058-9.403c20.3,4.025,40.732,1.067,59.102-8.584c21.187-11.131,36.77-29.851,43.885-52.704
				c7.107-22.862,4.896-47.115-6.242-68.311c-11.131-21.187-29.85-36.77-52.713-43.885c-22.861-7.108-47.115-4.904-68.31,6.242
				c-18.347,9.645-32.381,24.776-40.577,43.776c-2.615,6.063-9.659,8.858-15.707,6.242c-6.064-2.615-8.859-9.644-6.243-15.707
				c10.236-23.741,28.496-43.442,51.412-55.483c26.83-14.104,57.576-16.913,86.532-7.901c28.955,9.006,52.672,28.753,66.777,55.6
				c14.104,26.839,16.906,57.569,7.901,86.524c-9.006,28.956-28.753,52.674-55.6,66.777
				C635.122,704.578,616.892,709.006,598.577,709.006z"/>
			<path fill="#63EFFF" d="M599.534,1036.968c-23.537,0-47.2-1.891-70.848-5.713c-6.515-1.051-10.951-7.185-9.893-13.707
				c1.043-6.507,7.177-10.975,13.707-9.892c89.654,14.461,179.682-0.273,260.345-42.656
				c203.748-107.058,282.412-359.922,175.344-563.678C861.124,197.573,608.276,118.902,404.52,225.977
				c-153.629,80.726-240.262,244.278-220.702,416.681c0.748,6.561-3.969,12.485-10.531,13.224
				c-6.57,0.763-12.478-3.97-13.225-10.532c-20.683-182.272,70.91-355.197,233.343-440.546
				C608.82,91.621,876.17,174.791,989.362,390.206c113.192,215.417,30.022,482.766-185.401,595.966
				C739.962,1019.798,670.359,1036.968,599.534,1036.968z"/>
			<path fill="#2A1540" d="M280.091,590.525"/>
			<path fill="#2A4978" d="M604.758,926.018c-6.5,0-11.823-5.207-11.948-11.738c-0.117-6.6,5.137-12.048,11.737-12.173
				c47.964-0.88,93.973-12.718,136.753-35.199c72.498-38.094,125.825-102.139,150.149-180.342
				c24.332-78.203,16.751-161.194-21.351-233.7c-38.093-72.498-102.139-125.825-180.342-150.149
				c-78.211-24.348-161.203-16.751-233.7,21.351c-99.313,52.183-162.16,154.361-164.012,266.649
				c-0.109,6.538-5.442,11.761-11.949,11.761c-0.069,0-0.139,0-0.202,0c-6.608-0.11-11.87-5.55-11.762-12.15
				c2.001-121.047,69.75-231.178,176.809-287.432c78.149-41.059,167.631-49.232,251.915-23.016
				c84.306,26.223,153.348,83.714,194.416,161.87c41.066,78.149,49.239,167.616,23.015,251.915
				c-26.223,84.306-83.714,153.348-161.87,194.415c-46.103,24.223-95.711,36.988-147.433,37.938
				C604.913,926.018,604.836,926.018,604.758,926.018z"/>
			<path fill="#2A1540" d="M396.362,612.541"/>
			<path fill="#2A4978" d="M598.858,810.468c-7.263,0-14.532-0.374-21.819-1.113c-6.569-0.67-11.349-6.539-10.679-13.109
				c0.67-6.569,6.546-11.255,13.108-10.679c37.315,3.83,74.701-3.448,108.07-20.976c93.241-49,129.242-164.722,80.243-257.963
				c-48.983-93.226-164.675-129.241-257.962-80.243c-68.116,35.789-107.969,108.467-101.539,185.16
				c0.552,6.578-4.335,12.361-10.92,12.914c-6.438,0.436-12.353-4.344-12.914-10.92c-7.231-86.283,37.619-168.06,114.258-208.325
				c104.909-55.126,235.116-14.618,290.248,90.3c55.126,104.909,14.618,235.116-90.292,290.249
				C667.627,802.061,633.495,810.468,598.858,810.468z"/>
		</g>
	</g>
</g>
</svg>
