<?xml version="1.0" encoding="utf-8"?>
<!-- Generator: Adobe Illustrator 19.1.0, SVG Export Plug-In . SVG Version: 6.00 Build 0)  -->
<svg version="1.1" id="Layer_1" xmlns="http://www.w3.org/2000/svg" xmlns:xlink="http://www.w3.org/1999/xlink" x="0px" y="0px"
	 viewBox="0 0 1200 1200" enable-background="new 0 0 1200 1200" xml:space="preserve">
<g>
	<circle fill="#2A1540" cx="600" cy="600" r="550"/>
	<g>
		<path fill="#C4E9FB" d="M606.792,954.802c-86.052,0-172.104-32.499-237.616-97.497c-131.024-129.997-131.024-341.514,0-471.511
			c131.024-130.002,344.21-129.992,475.234,0c131.024,129.997,131.024,341.514,0,471.511
			C778.898,922.302,692.846,954.802,606.792,954.802z M606.792,304.277c-81.927,0-163.853,30.938-226.223,92.82
			c-124.741,123.762-124.741,325.143,0,448.904c124.745,123.768,327.714,123.762,452.449,0
			c124.741-123.762,124.741-325.143,0-448.904C770.647,335.215,688.721,304.277,606.792,304.277z"/>
		<path fill="#C4E9FB" d="M424.84,877.006c-23.121,0-42.203-6.343-55.665-19.702c-54.592-54.169,7.018-200.153,140.26-332.351
			c133.243-132.198,280.383-193.329,334.974-139.16c54.592,54.169-7.018,200.152-140.26,332.35
			C603.763,817.743,495.482,877.006,424.84,877.006z M789.048,381.993c-65.063,0-172.792,59.587-268.219,154.263
			c-122.623,121.665-186.855,263.512-140.26,309.744c46.611,46.238,189.565-17.501,312.189-139.161
			c122.624-121.665,186.856-263.507,140.26-309.743C822.682,386.843,807.589,381.993,789.048,381.993z"/>
		<path fill="#C4E9FB" d="M788.746,877.006c-70.642,0-178.916-59.254-279.31-158.863
			c-133.243-132.198-194.852-278.182-140.26-332.35c54.599-54.163,201.734,6.963,334.974,139.16
			c133.242,132.198,194.852,278.182,140.26,332.351C830.951,870.658,811.859,877.006,788.746,877.006z M424.541,381.993
			c-18.552,0-33.635,4.845-43.973,15.103c-46.596,46.232,17.636,188.078,140.26,309.743
			c122.63,121.665,265.586,185.383,312.189,139.161c46.596-46.237-17.636-188.079-140.26-309.744
			C597.337,441.585,489.602,381.993,424.541,381.993z"/>
	</g>
</g>
</svg>
