<?xml version="1.0" encoding="utf-8"?>
<!-- Generator: Adobe Illustrator 19.1.0, SVG Export Plug-In . SVG Version: 6.00 Build 0)  -->
<svg version="1.1" id="Layer_1" xmlns="http://www.w3.org/2000/svg" xmlns:xlink="http://www.w3.org/1999/xlink" x="0px" y="0px"
	 viewBox="0 0 1200 1200" enable-background="new 0 0 1200 1200" xml:space="preserve">
<g>
	<circle fill="#2A1540" cx="600" cy="600" r="550"/>
	<g>
		<path fill="#C4E9FB" d="M920.52,522.395c-3.179-0.464-6.458-0.79-9.944-0.843c-2.737-0.041-5.474-0.166-8.209-0.266
			c-4.068-0.184-8.132-0.409-12.2-0.571c-11.128-0.652-22.253-1.519-33.382-2.174c-42.985,0-85.97,0-128.955,0
			c-2.571,0.345-5.139,0.7-7.71,1.041c-0.844,0.099-1.687,0.23-2.534,0.289c-11.024,0.77-21.789,2.226-32.166,4.766
			c-8.782,1.85-17.138,4.908-25.113,9.018c-3.315,1.602-6.568,3.383-9.759,5.341c-9.714,5.559-19.535,10.951-28.977,16.931
			c-10.466,6.629-21.022,10.036-31.672,10.613c-0.801,0.021-1.602,0.101-2.401,0.09c-0.799,0.011-1.601-0.069-2.401-0.09
			c-10.65-0.577-21.207-3.984-31.673-10.613c-9.443-5.98-19.264-11.372-28.979-16.932c-3.191-1.958-6.443-3.738-9.757-5.339
			c-7.975-4.109-16.331-7.168-25.113-9.018c-10.377-2.54-21.141-3.996-32.166-4.766c-0.848-0.06-1.69-0.191-2.534-0.289
			c-2.571-0.341-5.14-0.696-7.71-1.041c-42.986,0-85.97,0-128.955,0c-11.129,0.655-22.254,1.522-33.382,2.174
			c-4.068,0.163-8.132,0.387-12.199,0.571c-2.737,0.1-5.473,0.225-8.21,0.266c-3.486,0.052-6.765,0.378-9.944,0.843
			c-18.235,2.107-30.573,12.162-36.774,30.013c0,6.899,0,13.798,0,20.696c0,0.628,0,1.256,0,1.883
			c0.227,0.816,0.489,1.625,0.735,2.438c2.134,12.466,4.244,24.935,6.365,37.401c5.707,34.721,11.435,69.438,17.028,104.175
			c0.044,0.273,0.134,0.505,0.181,0.775c0.114,0.663,0.213,1.328,0.328,1.992c3.884,22.388,19.964,36.246,42.962,37.758
			c11.589,0.762,23.204,1.166,34.807,1.731c42.984,0,85.969,0,128.954,0c10.008-1.052,20.018-2.082,30.022-3.164
			c8.155-0.882,16.343-1.572,24.448-2.795c0.532-0.08,1.001-0.229,1.522-0.323c0.114-0.013,0.228-0.023,0.342-0.037
			c7.55-0.886,13.491-3.816,18.197-8.234c4.771-4.109,8.194-9.61,10.203-16.48c0.892-2.568,1.623-5.209,2.08-7.873
			c1.831-10.667,3.672-21.334,5.508-32.001c2.906-16.483,5.753-32.977,8.648-49.463c0.596-3.39,1.436-6.815,1.426-10.223
			c-0.002-0.649,0.02-1.157,0.027-1.744c0.053-0.354,0.118-0.706,0.172-1.06c1.034-6.835,3.6-9.958,10.019-11.297
			c2.716-0.567,5.439-0.91,8.16-1.283c2.199-0.282,4.398-0.562,6.605-0.747c1.413-0.117,2.826-0.183,4.24-0.253
			c2.271-0.122,4.544-0.198,6.818-0.204c2.274,0.006,4.547,0.083,6.818,0.204c1.414,0.069,2.827,0.136,4.241,0.253
			c2.205,0.185,4.405,0.465,6.604,0.747c2.722,0.373,5.446,0.716,8.162,1.283c6.419,1.339,8.985,4.461,10.018,11.297
			c0.054,0.354,0.119,0.707,0.172,1.06c0.007,0.587,0.029,1.095,0.027,1.744c-0.01,3.408,0.829,6.832,1.425,10.223
			c2.896,16.485,5.742,32.98,8.649,49.463c1.838,10.667,3.677,21.333,5.508,32.001c0.457,2.664,1.188,5.305,2.08,7.873
			c2.009,6.872,5.433,12.372,10.204,16.481c4.707,4.418,10.647,7.348,18.197,8.234c0.114,0.014,0.227,0.023,0.34,0.037
			c0.521,0.095,0.99,0.244,1.522,0.323c8.105,1.223,16.293,1.913,24.448,2.795c10.004,1.082,20.014,2.112,30.021,3.164
			c42.985,0,85.97,0,128.955,0c11.603-0.566,23.217-0.97,34.807-1.731c22.998-1.512,39.078-15.37,42.962-37.758
			c0.115-0.664,0.213-1.329,0.327-1.992c0.047-0.271,0.138-0.502,0.181-0.775c5.593-34.737,11.322-69.454,17.029-104.175
			c2.121-12.467,4.232-24.936,6.365-37.401c0.246-0.812,0.508-1.622,0.735-2.438c0-0.627,0-1.255,0-1.883c0-6.898,0-13.797,0-20.696
			C951.093,534.557,938.755,524.502,920.52,522.395z M897.599,728.529c-0.081,0.049-0.18,0.078-0.263,0.125
			c-1.694,0.914-3.752,1.534-6.251,1.938c-0.863,0.117-1.724,0.236-2.69,0.283c-41.492,2.036-82.991,3.843-124.508,3.12
			c-25.747-0.627-51.454-2.215-77.112-4.996c-1.657-0.186-3.317-0.352-4.974-0.541c-8.484-1.014-11.784-2.156-13.722-7.458
			c-0.539-1.637-0.989-3.638-1.471-6.208c-0.371-1.981-0.738-3.962-1.11-5.941c-4.967-28.677-9.961-57.356-14.164-86.145
			c-0.295-2.024-0.473-4.073-0.644-6.123c-0.103-1.366-0.194-2.734-0.271-4.104c-0.347-7.203-0.123-14.487,0.375-21.652
			c0.105-1.525,0.308-3.002,0.568-4.448c0.271-1.347,0.577-2.669,0.951-3.943c0.083-0.284,0.131-0.587,0.219-0.867
			c0.497-1.574,1.118-3.061,1.78-4.52c3.239-6.821,8.587-12.451,15.819-16.802c2.319-1.394,4.713-2.568,7.134-3.656
			c6.495-2.502,13.334-4.608,20.232-5.892c2.038-0.331,4.079-0.646,6.139-0.859c0.299-0.032,0.596-0.08,0.894-0.108
			c1.565-0.152,3.133-0.251,4.697-0.396c24.136-1.589,48.304-2.682,72.475-3.745c10.721-0.048,21.448,0.083,32.186,0.586
			c7.567,0.355,15.145,0.476,22.714,0.805c26.478,1.149,52.966,2.146,79.426,3.608c2.672,0.147,4.876,0.561,6.722,1.211
			c0.238,0.099,0.518,0.176,0.741,0.283c0.144,0.059,0.255,0.142,0.393,0.205c4.873,2.501,6.316,6.883,5.118,14.352
			c-4.76,29.676-9.522,59.351-14.321,89.021c-3.15,19.479-6.294,38.958-9.579,58.414c-1.173,6.954-3.178,11.293-6.686,13.844
			C898.137,728.112,897.905,728.356,897.599,728.529z M524.303,616.584c-0.171,2.05-0.349,4.099-0.644,6.123
			c-4.203,28.792-9.197,57.472-14.165,86.15c-0.371,1.979-0.738,3.957-1.108,5.936c-0.481,2.57-0.931,4.57-1.471,6.208
			c-1.937,5.302-5.239,6.443-13.721,7.458c-1.658,0.189-3.317,0.355-4.975,0.541c-25.658,2.781-51.365,4.369-77.112,4.996
			c-41.517,0.723-83.016-1.084-124.508-3.12c-0.965-0.048-1.826-0.166-2.69-0.283c-2.499-0.405-4.556-1.025-6.25-1.938
			c-0.083-0.048-0.183-0.076-0.264-0.125c-0.305-0.173-0.536-0.416-0.818-0.608c-3.51-2.552-5.514-6.891-6.689-13.846
			c-3.285-19.456-6.429-38.935-9.579-58.414c-4.799-29.67-9.561-59.345-14.321-89.021c-1.198-7.469,0.245-11.851,5.118-14.352
			c0.138-0.063,0.249-0.146,0.393-0.205c0.224-0.107,0.504-0.184,0.741-0.283c1.846-0.65,4.05-1.064,6.722-1.211
			c26.461-1.462,52.948-2.459,79.426-3.608c7.569-0.328,15.147-0.45,22.714-0.805c10.738-0.503,21.465-0.634,32.186-0.586
			c24.172,1.063,48.34,2.157,72.475,3.745c1.565,0.145,3.133,0.244,4.698,0.396c0.298,0.028,0.595,0.076,0.894,0.108
			c2.06,0.213,4.101,0.528,6.139,0.859c6.898,1.284,13.737,3.391,20.232,5.892c2.421,1.088,4.815,2.262,7.134,3.656
			c7.231,4.351,12.579,9.981,15.819,16.802c0.661,1.459,1.283,2.947,1.78,4.52c0.089,0.28,0.137,0.583,0.22,0.867
			c0.374,1.274,0.681,2.596,0.951,3.943c0.26,1.447,0.463,2.923,0.568,4.448c0.498,7.165,0.723,14.449,0.375,21.652
			C524.497,613.85,524.406,615.218,524.303,616.584z"/>
		<path fill="#C4E9FB" d="M398.948,630.939h-153.36c-4.45,0-8.057-3.58-8.057-7.994c0-4.413,3.607-7.993,8.057-7.993h153.36
			c10.486,0,19.017-8.467,19.017-18.87v-59.097c0-4.413,3.606-7.994,8.056-7.994c4.451,0,8.057,3.58,8.057,7.994v59.097
			C434.078,615.301,418.319,630.939,398.948,630.939z"/>
		<path fill="#C4E9FB" d="M379.093,595.119c-8.423,0-15.276-6.796-15.276-15.154c0-8.357,6.853-15.158,15.276-15.158
			c8.424,0,15.277,6.802,15.277,15.158C394.37,588.323,387.517,595.119,379.093,595.119z M379.093,579.133
			c-0.461,0-0.836,0.375-0.836,0.832c0,0.916,1.673,0.916,1.673,0C379.93,579.507,379.555,579.133,379.093,579.133z"/>
		<path fill="#C4E9FB" d="M324.042,587.958h-33.393c-4.45,0-8.056-3.58-8.056-7.994c0-4.413,3.606-7.993,8.056-7.993h33.393
			c4.45,0,8.057,3.58,8.057,7.993C332.099,584.378,328.492,587.958,324.042,587.958z"/>
		<path fill="#C4E9FB" d="M925.055,552.409c-3.503,0-7.033-1.129-9.994-3.455L732.779,405.682
			c-6.048-4.756-12.085-2.69-14.398-1.577c-2.313,1.108-7.696,4.518-7.696,12.172c0,8.831-7.214,15.987-16.113,15.987
			c-8.898,0-16.113-7.156-16.113-15.987c0-17.6,9.922-33.295,25.893-40.956c15.969-7.671,34.532-5.631,48.437,5.298l182.282,143.273
			c6.976,5.485,8.151,15.539,2.626,22.46C934.515,550.333,929.808,552.409,925.055,552.409z"/>
		<path fill="#C4E9FB" d="M250.943,552.409c-4.752,0-9.46-2.076-12.641-6.057c-5.526-6.921-4.351-16.975,2.625-22.46L423.21,380.619
			c13.905-10.928,32.47-12.963,48.436-5.298c15.972,7.661,25.893,23.356,25.893,40.956c0,8.831-7.215,15.987-16.113,15.987
			c-8.899,0-16.113-7.156-16.113-15.987c0-7.655-5.381-11.064-7.694-12.172c-2.316-1.113-8.356-3.179-14.398,1.577L260.938,548.954
			C257.977,551.28,254.447,552.409,250.943,552.409z"/>
	</g>
</g>
</svg>
