<?xml version="1.0" encoding="utf-8"?>
<!-- Generator: Adobe Illustrator 19.1.0, SVG Export Plug-In . SVG Version: 6.00 Build 0)  -->
<svg version="1.1" id="Layer_1" xmlns="http://www.w3.org/2000/svg" xmlns:xlink="http://www.w3.org/1999/xlink" x="0px" y="0px"
	 viewBox="0 0 1200 1200" enable-background="new 0 0 1200 1200" xml:space="preserve">
<g>
	<circle fill="#FCD290" cx="600" cy="600" r="550"/>
	<path fill="#7FE2FF" d="M130.243,579.992c0,0,143.999-216.646,469.616-232.213c325.618-15.567,459.238,241.294,459.238,241.294
		s-103.782,234.808-463.13,241.294C236.62,836.854,130.243,579.992,130.243,579.992z"/>
	<circle fill="#FC523A" cx="603.033" cy="594.027" r="116.896"/>
	<g>
		<path fill="#FCD290" d="M620.621,696.379c-9.097,0-17.373-0.638-24.025-1.153c-14.763-1.144-25.813-14.038-24.67-28.809
			c1.142-14.753,13.957-25.699,28.807-24.67c20.689,1.607,43.631,2.427,54.168-8.163c6.835-6.861,9.908-20.636,8.888-39.842
			c-1.335-24.968-7.15-45.709-17.276-61.65c-10.808-16.979-27.141-28.423-43.711-30.605c-14.683-1.939-25.01-15.417-23.08-30.1
			c1.937-14.675,15.346-24.967,30.1-23.082c32.099,4.234,62.731,24.801,81.945,55.006c15.146,23.816,23.753,53.279,25.587,87.578
			c1.868,35.276-6.356,62.373-24.443,80.538C672.187,692.249,643.736,696.379,620.621,696.379z"/>
		<path fill="#FFFFFF" d="M707.307,830.668c-10.319,0-20.158-5.988-24.566-16.035c-5.963-13.558,0.201-29.385,13.758-35.338
			c99.388-43.675,192.036-101.073,275.388-170.606c11.985-9.986,23.212-20.576,24.286-30.344
			c1.126-10.249-8.765-23.588-16.291-32.736c-63.22-76.743-160.19-126.607-259.386-133.382
			c-14.779-1.013-25.935-13.811-24.931-28.582c1.013-14.779,13.801-25.874,28.581-24.932
			c113.635,7.761,224.711,64.879,297.133,152.796c14.867,18.045,31.497,42.61,28.214,72.675
			c-3.587,32.623-29.392,54.142-43.255,65.7c-87.209,72.745-184.163,132.806-288.16,178.505
			C714.571,829.934,710.903,830.668,707.307,830.668z"/>
		<g>
			<g>
				<path fill="#2A1540" d="M603.266,843.705c-188.134,0-365.312-92.02-473.955-246.144c-3.273-4.635-3.273-10.816,0-15.452
					c108.643-154.123,285.821-246.142,473.955-246.142c188.126,0,365.304,92.019,473.953,246.142c3.273,4.636,3.273,10.817,0,15.452
					C968.57,751.684,791.392,843.705,603.266,843.705z M156.776,589.836c104.041,142.356,270.228,227.051,446.49,227.051
					c176.253,0,342.44-84.695,446.49-227.051c-104.05-142.355-270.237-227.051-446.49-227.051
					C427.004,362.785,260.817,447.481,156.776,589.836z"/>
				<path fill="#2A1540" d="M603.266,728.979c-76.725,0-139.144-62.418-139.144-139.144c0-76.725,62.418-139.143,139.144-139.143
					c76.726,0,139.143,62.418,139.143,139.143C742.409,666.562,679.992,728.979,603.266,728.979z M603.266,477.51
					c-61.937,0-112.326,50.389-112.326,112.326c0,61.938,50.389,112.325,112.326,112.325c61.938,0,112.326-50.387,112.326-112.325
					C715.592,527.899,665.204,477.51,603.266,477.51z"/>
			</g>
			<g>
				<g>
					<line fill="#2A1540" x1="1037.665" y1="155.434" x2="168.861" y2="1024.236"/>
					<path fill="#2A1540" d="M168.858,1037.644c-3.431,0-6.862-1.31-9.481-3.929c-5.238-5.238-5.238-13.723,0-18.962
						l868.807-868.798c5.238-5.238,13.723-5.238,18.962,0c5.237,5.238,5.237,13.723,0,18.962l-868.809,868.798
						C175.72,1036.334,172.289,1037.644,168.858,1037.644z"/>
				</g>
				<g>
					<line fill="#2A1540" x1="168.861" y1="155.434" x2="1037.665" y2="1024.236"/>
					<path fill="#2A1540" d="M1037.665,1037.644c-3.431,0-6.862-1.31-9.481-3.929L159.378,164.917
						c-5.238-5.239-5.238-13.724,0-18.962c5.238-5.238,13.723-5.238,18.96,0l868.809,868.798c5.237,5.239,5.237,13.724,0,18.962
						C1044.527,1036.334,1041.096,1037.644,1037.665,1037.644z"/>
				</g>
			</g>
		</g>
	</g>
</g>
</svg>
