<?xml version="1.0" encoding="utf-8"?>
<!-- Generator: Adobe Illustrator 19.1.0, SVG Export Plug-In . SVG Version: 6.00 Build 0)  -->
<svg version="1.1" id="Layer_1" xmlns="http://www.w3.org/2000/svg" xmlns:xlink="http://www.w3.org/1999/xlink" x="0px" y="0px"
	 viewBox="0 0 1200 1200" enable-background="new 0 0 1200 1200" xml:space="preserve">
<g>
	<circle fill="#7FE2FF" cx="600" cy="613.477" r="536.523"/>
	<polygon opacity="0.59" fill="#FFFFFF" points="701.369,509.406 1067.95,289.742 693.896,61.777 329.807,283.904 324.797,723.149 
		695.566,951.957 1062.245,729.069 	"/>
	<polygon fill="#FC523A" points="708.05,509.406 1068.925,729.069 1074.63,289.742 	"/>
	<path fill="#FCD290" d="M195.264,374.256l1.07-52.419c0,0-10.698-27.814,51.35-32.094c62.048-4.279,300.611,1.07,300.611,1.07
		s51.35,9.628,44.931,47.07c-6.419,37.443-6.419,37.443-6.419,37.443L195.264,374.256z"/>
	<rect x="201.682" y="375.326" opacity="0.49" fill="#004FB3" width="385.124" height="564.849"/>
	<path fill="#FCD290" d="M196.333,942.314l3.209,98.42c0,0-5.348,44.931,53.49,41.722c58.839-3.209,297.402,0,297.402,0
		s35.303-2.139,36.373-41.722c1.07-39.582,0-95.211,0-95.211L196.333,942.314z"/>
	<path fill="#63EFFF" d="M480.359,1082.541c-12.213,0-22.744-9.178-24.149-21.602c-1.514-13.352,8.087-25.404,21.443-26.919
		l56.339-6.385c8.488-228.638-0.313-420.206,1.215-702.845l-190.668-0.787c-13.396-1.113-23.35-12.877-22.237-26.268
		c1.112-13.392,12.897-23.35,26.268-22.236l203.428,16.925c12.058,1.001,21.543,10.706,22.275,22.778
		c14.783,243.805,17.321,491.174,7.546,735.236c-0.48,12.002-9.644,21.856-21.578,23.207l-77.113,8.738
		C482.201,1082.489,481.273,1082.541,480.359,1082.541z"/>
	<path fill="#FCAC6F" d="M1059.146,307.511c0,0-27.806-0.288-29.434,33.908c-1.628,34.196,0,322.424,0,322.424
		s-19.541,40.711,39.082,60.251c0-63.508,3.257-425.013,3.257-425.013L1059.146,307.511z"/>
	<g>
		<path fill="#2A1540" d="M1083.924,282.343c-0.066-0.269-0.162-0.523-0.245-0.786c-0.217-0.696-0.486-1.361-0.816-1.997
			c-0.133-0.261-0.263-0.514-0.415-0.764c-0.433-0.712-0.928-1.377-1.49-1.988c-0.096-0.104-0.169-0.223-0.268-0.325
			c-0.684-0.695-1.458-1.29-2.288-1.811c-0.075-0.049-0.131-0.119-0.208-0.165L706.713,51.791c-3.98-2.388-8.955-2.388-12.936,0
			L392.773,232.258c-5.962,3.573-7.898,11.304-4.325,17.26c3.573,5.962,11.299,7.898,17.26,4.325l294.537-176.59l347.012,208.044
			L700.521,493.179l-101.084-65.835v-4.763c-16.839,10.17-17.634,37.573,0,44.49v-9.701l77.079,50.199l-49.959,29.955
			c-5.962,3.573-7.898,11.304-4.326,17.26c3.577,5.961,11.304,7.898,17.26,4.325l60.755-36.428l347.012,208.044L700.29,938.75
			l-100.853-61.312v-0.575c-11.546,9.568-10.561,31.604-1.653,40.512c0.485,0.485,1.048,0.82,1.653,1.074v-11.557l94.273,57.306
			c2.01,1.219,4.271,1.828,6.536,1.828c2.241,0,4.477-0.595,6.468-1.788l371.482-222.719c0.077-0.047,0.133-0.117,0.208-0.164
			c0.83-0.522,1.604-1.117,2.288-1.812c0.099-0.102,0.172-0.221,0.268-0.325c0.562-0.611,1.057-1.275,1.49-1.988
			c0.152-0.25,0.282-0.504,0.416-0.764c0.329-0.637,0.597-1.301,0.814-1.997c0.083-0.263,0.179-0.517,0.245-0.788
			c0.229-0.951,0.385-1.931,0.385-2.954V285.298C1084.309,284.275,1084.153,283.296,1083.924,282.343z M1059.146,708.512
			l-334.431-200.5l334.431-200.501V708.512z"/>
		<g>
			<path fill="#2A1540" d="M599.436,876.863V467.072v-44.49V321.175c0-23.679-19.196-42.876-42.876-42.876H225.359
				c-23.68,0-42.878,19.197-42.878,42.878v721.162c0,23.681,19.198,42.878,42.878,42.878h331.197
				c23.682,0,42.881-19.198,42.881-42.88V876.863z M574.273,1042.342c0,9.765-7.947,17.713-17.717,17.713H225.359
				c-9.768,0-17.715-7.948-17.715-17.713v-88.755h366.629V1042.342z M574.273,928.424H207.644V387.666h366.629V928.424z
				 M574.273,362.503H207.644v-41.328c0-9.765,7.947-17.712,17.715-17.712h331.197c9.77,0,17.717,7.947,17.717,17.712V362.503z"/>
			<path fill="#2A1540" d="M446.928,990.61H334.991c-6.949,0-12.581,5.632-12.581,12.581c0,6.949,5.632,12.581,12.581,12.581
				h111.938c6.948,0,12.582-5.632,12.582-12.581C459.51,996.242,453.877,990.61,446.928,990.61z"/>
			<path fill="#2A1540" d="M316.253,735.05c0.029,0.751,0.125,1.494,0.291,2.237c0.063,0.281,0.121,0.559,0.203,0.835
				c0.219,0.734,0.518,1.449,0.879,2.152c0.098,0.192,0.166,0.396,0.275,0.583c0.03,0.052,0.044,0.108,0.075,0.159
				c0.217,0.363,0.52,0.631,0.765,0.963c0.375,0.506,0.723,1.025,1.172,1.471c0.423,0.422,0.907,0.74,1.378,1.092
				c0.346,0.259,0.635,0.575,1.009,0.8l209.867,125.82c2.025,1.215,4.256,1.79,6.458,1.79c4.27,0,8.443-2.178,10.802-6.114
				c3.573-5.956,1.637-13.687-4.326-17.26L353.238,734.55l191.865-115.029c5.962-3.573,7.898-11.304,4.326-17.26
				c-3.573-5.961-11.304-7.898-17.26-4.324L341.351,712.337V424.836c0-6.95-5.633-12.582-12.582-12.582
				c-6.95,0-12.581,5.632-12.581,12.582V734.55C316.188,734.721,316.247,734.881,316.253,735.05z"/>
		</g>
	</g>
</g>
</svg>
