<?xml version="1.0" encoding="utf-8"?>
<!-- Generator: Adobe Illustrator 19.1.0, SVG Export Plug-In . SVG Version: 6.00 Build 0)  -->
<svg version="1.1" id="Layer_1" xmlns="http://www.w3.org/2000/svg" xmlns:xlink="http://www.w3.org/1999/xlink" x="0px" y="0px"
	 viewBox="0 0 1200 1200" enable-background="new 0 0 1200 1200" xml:space="preserve">
<g>
	<circle fill="#2A1540" cx="600" cy="600" r="550"/>
	<g>
		<g>
			<path fill="#C4E9FB" d="M1013.8,611.969c-0.002-9.623-4.884-18.684-14.515-26.936c-3.545-3.03-8.907-2.648-11.972,0.871
				c-3.064,3.521-2.67,8.841,0.878,11.881c5.73,4.908,8.635,9.683,8.633,14.187v0.001v0.002c0,20.196-54.012,42.36-132.334,49.317
				c-9.091-81.824,0.202-163.896,27.925-245.209c0.951-2.79,0.365-5.87-1.549-8.123c-1.911-2.254-4.864-3.363-7.803-2.896
				c-183.317,28.438-369.219,28.438-552.536,0c-2.938-0.467-5.894,0.645-7.804,2.896c-1.914,2.253-2.5,5.333-1.549,8.123
				c27.722,81.313,37.015,163.385,27.925,245.209c-78.323-6.957-132.335-29.121-132.335-49.317v-0.001v-0.002
				c-0.001-4.504,2.904-9.279,8.633-14.187c3.548-3.04,3.941-8.36,0.877-11.881c-3.064-3.517-8.426-3.905-11.972-0.871
				c-9.632,8.251-14.514,17.313-14.515,26.936l-0.001,0.004l0.001,0.003l-0.001,0.002l0.001,0.009
				c0.014,36.317,68.99,58.952,147.197,65.999c-5.079,35.829-13.665,71.598-25.81,107.219c-0.951,2.79-0.365,5.87,1.549,8.123
				c1.911,2.254,4.879,3.359,7.804,2.895c183.313-28.445,369.215-28.445,552.536,0c0.438,0.069,0.877,0.103,1.313,0.103
				c2.481,0,4.865-1.082,6.491-2.997c1.914-2.254,2.501-5.333,1.549-8.123c-12.145-35.621-20.731-71.39-25.811-107.219
				c78.209-7.048,147.183-29.682,147.197-65.999l0.001-0.005v-0.004v-0.002L1013.8,611.969z M827.81,652.642
				c-0.042-2.816-1.5-5.429-3.888-6.954c-2.386-1.524-5.389-1.773-7.987-0.641l-52.952,22.868c-3.278,1.415-5.312,4.718-5.085,8.256
				c0.227,3.54,2.665,6.559,6.098,7.553l53.528,15.476c0.779,0.223,1.578,0.335,2.375,0.335c1.837,0,3.649-0.592,5.145-1.724
				c2.142-1.618,3.384-4.152,3.343-6.823l-0.163-10.821c7.142-0.175,14.285-0.465,21.39-0.895
				c4.595,32.819,12.06,65.588,22.413,98.246c-88.036-12.983-176.635-19.47-265.232-19.47c-88.597,0-177.197,6.487-265.233,19.47
				c10.354-32.658,17.818-65.427,22.413-98.246c7.105,0.43,14.248,0.72,21.39,0.895l-0.162,10.821
				c-0.042,2.671,1.199,5.205,3.341,6.823c1.496,1.132,3.308,1.724,5.145,1.724c0.794,0,1.596-0.112,2.375-0.335l53.529-15.476
				c3.433-0.994,5.87-4.014,6.098-7.553c0.225-3.537-1.807-6.84-5.085-8.256l-52.952-22.868c-2.605-1.132-5.606-0.883-7.987,0.641
				c-2.388,1.526-3.846,4.138-3.888,6.954l-0.161,10.686c-6.649-0.159-13.174-0.426-19.565-0.797
				c8.773-79.653,0.628-159.535-24.49-238.759c176.069,25.958,354.391,25.958,530.465,0
				c-25.117,79.225-33.262,159.106-24.49,238.759c-6.391,0.37-12.916,0.637-19.565,0.797L827.81,652.642z"/>
			<path fill="#C4E9FB" d="M870.005,554.577c-0.529,4.622,2.82,8.795,7.478,9.318c10.275,1.154,20.263,2.596,29.687,4.286
				c0.51,0.092,1.019,0.135,1.52,0.135c4.027,0,7.602-2.852,8.343-6.922c0.834-4.579-2.228-8.962-6.842-9.788
				c-9.789-1.757-20.151-3.253-30.797-4.452C874.699,546.629,870.532,549.955,870.005,554.577z"/>
			<path fill="#C4E9FB" d="M930.314,564.283c-1.225,4.488,1.449,9.114,5.974,10.331c10.361,2.786,19.732,5.925,27.847,9.334
				c1.079,0.45,2.2,0.668,3.304,0.668c3.309,0,6.452-1.931,7.821-5.142c1.827-4.284-0.192-9.228-4.509-11.041
				c-8.818-3.701-18.921-7.093-30.023-10.078C936.203,557.141,931.541,559.792,930.314,564.283z"/>
			<path fill="#C4E9FB" d="M246.145,584.615c1.104,0,2.226-0.217,3.304-0.668c8.116-3.409,17.485-6.548,27.847-9.334
				c4.525-1.217,7.199-5.843,5.974-10.331c-1.225-4.491-5.888-7.142-10.415-5.929c-11.101,2.984-21.203,6.376-30.023,10.078
				c-4.317,1.813-6.337,6.757-4.509,11.041C239.693,582.684,242.837,584.615,246.145,584.615z"/>
			<path fill="#C4E9FB" d="M304.893,568.317c0.501,0,1.01-0.043,1.521-0.135c9.424-1.691,19.412-3.132,29.686-4.286
				c4.659-0.523,8.008-4.695,7.479-9.318c-0.528-4.619-4.716-7.925-9.389-7.423c-10.647,1.198-21.008,2.695-30.797,4.452
				c-4.614,0.826-7.677,5.209-6.843,9.788C297.292,565.464,300.866,568.317,304.893,568.317z"/>
			<path fill="#C4E9FB" d="M691.618,581.01c-3.257-2.807-8.116-2.748-11.298,0.138l-54.303,49.245l-53.535-47.156
				c-3.224-2.846-8.081-2.84-11.295,0.019l-96.844,85.968c-3.493,3.103-3.791,8.426-0.667,11.893
				c3.125,3.464,8.492,3.76,11.987,0.661l91.204-80.964l91.943,80.983c1.616,1.425,3.627,2.125,5.632,2.125
				c2.342,0,4.674-0.957,6.352-2.829c3.112-3.481,2.794-8.803-0.714-11.89l-31.296-27.567l47.404-42.99l55.481,47.869
				c1.609,1.385,3.592,2.067,5.568,2.067c2.37,0,4.73-0.981,6.409-2.895c3.075-3.51,2.701-8.831-0.835-11.885L691.618,581.01z"/>
			<path fill="#C4E9FB" d="M687.533,558.22c21.367,0,38.751-17.246,38.751-38.447c0-21.201-17.384-38.446-38.751-38.446
				s-38.75,17.246-38.75,38.446C648.783,540.974,666.167,558.22,687.533,558.22z M687.533,498.171
				c12.006,0,21.773,9.69,21.773,21.602c0,11.913-9.767,21.602-21.773,21.602c-12.006,0-21.772-9.69-21.772-21.602
				C665.761,507.861,675.528,498.171,687.533,498.171z"/>
		</g>
	</g>
</g>
</svg>
