<?xml version="1.0" encoding="utf-8"?>
<!-- Generator: Adobe Illustrator 19.1.0, SVG Export Plug-In . SVG Version: 6.00 Build 0)  -->
<svg version="1.1" id="Layer_1" xmlns="http://www.w3.org/2000/svg" xmlns:xlink="http://www.w3.org/1999/xlink" x="0px" y="0px"
	 viewBox="0 0 1200 1200" enable-background="new 0 0 1200 1200" xml:space="preserve">
<g>
	<circle fill="#2A1540" cx="600" cy="600" r="550"/>
	<g>
		<g>
			<path fill="#C4E9FB" d="M588.388,383.779c-0.124,0-0.238,0.032-0.36,0.036c-0.122-0.005-0.236-0.036-0.359-0.036
				c-205.945,0-367.271,67.033-367.271,152.607v108.247c0,1.318,0.331,2.548,0.875,3.657
				c2.569,43.937,51.271,85.172,131.682,113.564v29.262c0,14.611,11.387,27.425,25.964,29.179
				c66.121,7.666,132.709,11.499,199.297,11.499c66.591,0,133.18-3.833,199.3-11.499c0.013-0.003,0.023-0.003,0.036-0.006
				c14.538-1.747,25.928-14.562,25.931-29.172V768.33c92.058-28.378,148.535-72.64,151.303-120.046
				c0.54-1.108,0.87-2.337,0.87-3.651V536.386C955.654,450.812,794.332,383.779,588.388,383.779z M238.098,644.633
				c0-1.205-0.264-2.345-0.723-3.38v-57.84c20.953,27.939,60.688,52.446,115.578,71.014v89.345
				C282.306,717.458,238.098,680.501,238.098,644.633z M587.668,508.871c0.123,0,0.238-0.032,0.359-0.036
				c0.122,0.005,0.237,0.036,0.36,0.036c138.525,0,262.851,31.827,319.997,81.468c-23.398,20.314-59.442,38.552-104.904,52.587
				v-4.202v-32.18c0-14.61-11.39-27.429-25.967-29.18c-132.238-15.332-266.349-15.332-398.634,0.003
				c-14.54,1.75-25.927,14.566-25.927,29.177v29.865c-36.265-12.972-65.345-28.764-85.271-46.058
				C324.28,541.358,450.759,508.871,587.668,508.871z M775.517,803.565c-130.934,15.177-263.699,15.18-394.594,0.003
				c-5.856-0.704-10.992-6.524-10.992-12.453v-32.179V638.725c0-5.929,5.137-11.748,10.956-12.449
				c65.478-7.59,131.406-11.387,197.337-11.387c65.919,0,131.839,3.797,197.284,11.38c5.856,0.708,10.996,6.527,10.996,12.456
				v120.208v32.181C786.5,797.143,781.47,802.844,775.517,803.565z M786.504,612.202c-2.793-1.341-5.808-2.277-8.99-2.659
				c-132.238-15.325-266.349-15.331-398.634,0.006c-3.165,0.381-6.168,1.312-8.95,2.646v-5.65c0-5.929,5.137-11.749,10.956-12.449
				c65.478-7.592,131.406-11.387,197.337-11.387c65.919,0,131.839,3.795,197.284,11.38c5.856,0.707,10.996,6.527,10.996,12.456
				V612.202z M938.676,641.258c-0.456,1.035-0.719,2.173-0.719,3.375c0,39.081-52.494,79.446-134.477,105.935v-89.95
				c65.085-19.142,111.824-46.038,135.195-77.205V641.258z M920.43,578.439c-59.895-52.635-189.041-86.414-332.042-86.414
				c-0.124,0-0.238,0.031-0.36,0.037c-0.122-0.006-0.236-0.037-0.359-0.037c-143.546,0-272.127,33.704-332.048,86.409
				c-11.847-13.523-18.244-27.725-18.244-42.048c0-73.591,160.413-135.762,350.293-135.762c0.123,0,0.238-0.031,0.359-0.037
				c0.122,0.006,0.237,0.037,0.36,0.037c189.875,0,350.289,62.171,350.289,135.762C938.676,550.711,932.278,564.915,920.43,578.439z
				"/>
			<path fill="#C4E9FB" d="M750.522,661.705c1.684,0,3.388-0.496,4.871-1.529c5.988-4.172,11.941-8.206,17.697-11.99
				c3.909-2.569,4.977-7.797,2.388-11.673c-2.594-3.885-7.862-4.935-11.766-2.369c-5.883,3.869-11.964,7.988-18.075,12.245
				c-3.837,2.672-4.765,7.926-2.07,11.733C745.219,660.459,747.849,661.705,750.522,661.705z"/>
			<path fill="#C4E9FB" d="M773.091,781.654c-5.757-3.783-11.709-7.816-17.697-11.988c-3.841-2.672-9.132-1.754-11.825,2.052
				c-2.695,3.806-1.768,9.061,2.07,11.732c6.111,4.257,12.192,8.376,18.075,12.245c1.443,0.948,3.071,1.401,4.682,1.401
				c2.749,0,5.448-1.322,7.083-3.77C778.068,789.452,777,784.224,773.091,781.654z"/>
			<path fill="#C4E9FB" d="M383.344,648.186c5.777,3.797,11.729,7.831,17.691,11.99c1.485,1.033,3.187,1.529,4.874,1.529
				c2.67,0,5.303-1.246,6.953-3.579c2.696-3.806,1.768-9.061-2.066-11.736c-6.092-4.244-12.173-8.363-18.075-12.245
				c-3.903-2.566-9.172-1.517-11.765,2.369C378.367,640.389,379.435,645.617,383.344,648.186z"/>
			<path fill="#C4E9FB" d="M410.797,783.451c3.833-2.675,4.762-7.929,2.066-11.735c-2.695-3.807-7.991-4.715-11.827-2.05
				c-5.962,4.159-11.914,8.191-17.691,11.988c-3.909,2.57-4.978,7.798-2.387,11.673c1.635,2.448,4.333,3.77,7.082,3.77
				c1.612,0,3.24-0.453,4.683-1.401C398.624,791.814,404.705,787.695,410.797,783.451z"/>
			<path fill="#C4E9FB" d="M516.649,772.416c0.034,0.076,0.08,0.158,0.133,0.247c0.103,0.302,0.249,0.569,0.428,0.796
				c0.593,1.247,1.565,2.172,2.848,2.721c0.123,0.086,0.249,0.161,0.378,0.227l-0.007,0.013c0.809,0.398,1.688,0.431,2.67,0.431
				c0.749,0,1.422-0.171,2.012-0.362c0.199-0.023,0.395-0.072,0.584-0.141c2.089-0.763,3.588-2.689,3.986-5.076l46.231-108.329
				c0.673-1.606,0.663-3.478-0.03-5.136c-0.692-1.666-1.96-2.941-3.398-3.524c-1.662-0.828-3.609-0.894-5.339-0.183
				c-1.681,0.684-2.964,2.019-3.458,3.49l-40.585,95.619l-40.414-95.614c-0.693-1.639-2.076-2.941-3.805-3.572
				c-1.694-0.625-3.58-0.53-4.99,0.18c-1.591,0.652-2.894,1.968-3.577,3.606c-0.693,1.661-0.703,3.53-0.027,5.139L516.649,772.416z"
				/>
			<path fill="#C4E9FB" d="M610.071,776.851c3.76,0,6.821-2.964,6.821-6.606v-44.487h26.021c0.162,0.072,0.355,0.148,0.59,0.224
				c0.132,0.043,0.265,0.072,0.405,0.092c1.966,0.296,7.908,2.089,12.717,5.478c5.948,4.369,8.717,9.44,8.717,15.963
				c0,9.643,1.091,16.022,3.522,20.641c2.258,4.481,6.728,6.827,9.974,6.827h0.342c0.875,0,1.641-0.095,2.053-0.164
				c0.315,0,0.626-0.059,0.922-0.171c3.323-1.28,5.13-4.793,4.211-8.649c-0.872-2.382-3.183-4.066-5.789-4.359
				c-0.222-0.382-0.398-0.826-0.521-1.192c-0.643-1.905-1.409-5.695-1.409-12.933c0-14.914-9.242-23.402-15.134-27.307
				c10.465-6.639,17.014-18.259,17.014-30.751c0-20.108-16.414-36.466-36.589-36.466h-33.352l-1.061,0.006
				c-3.362,0.271-6.102,3.231-6.102,6.596v110.653C603.422,773.825,606.466,776.851,610.071,776.851z M616.892,712.565v-46.201
				h27.045c12.839,0,23.286,10.361,23.286,23.093c0,12.429-10.164,22.799-22.595,23.108H616.892z"/>
		</g>
	</g>
</g>
</svg>
