<?xml version="1.0" encoding="utf-8"?>
<!-- Generator: Adobe Illustrator 19.1.0, SVG Export Plug-In . SVG Version: 6.00 Build 0)  -->
<svg version="1.1" id="Layer_1" xmlns="http://www.w3.org/2000/svg" xmlns:xlink="http://www.w3.org/1999/xlink" x="0px" y="0px"
	 viewBox="0 0 1200 1200" enable-background="new 0 0 1200 1200" xml:space="preserve">
<g>
	<circle fill="#2A1540" cx="600" cy="620.002" r="529.998"/>
	<g>
		<polygon fill="#278EB3" points="293.273,404.466 292.794,624.751 305.465,645.898 327.11,645.898 559.084,665.575 
			836.185,654.302 888.788,643.97 898.181,627.062 896.302,391.29 881.273,378.139 854.032,373.443 507.42,355.596 321.432,380.019 
					"/>
		<path fill="#FCAC6F" d="M465.606,807.271c0,0-27.642,136.082-95.682,180.734c-60.6,38.273-60.6,38.273-60.6,38.273
			s146.713,108.441,300.869,96.746c154.155-11.695,273.226-88.241,273.226-88.241l-12.757-13.82c0,0-154.156-93.557-152.029-231.765
			C673.981,838.103,465.606,807.271,465.606,807.271z"/>
		<path fill="#FCD290" d="M318.667,366.653c0,0-8.577-284.48,274.474-301.635c283.05-17.155,281.62,303.065,281.62,303.065
			S593.141,329.485,318.667,366.653z"/>
		<path fill="#FCD290" d="M372.05,659.495c-3.799-0.515,61.662,129.703,187.113,222.196c32.958,19.136,76.546,5.316,99.935-12.758
			c23.389-18.073,140.334-131.829,173.292-211.564C832.389,657.369,599.561,690.326,372.05,659.495z"/>
		<g>
			<path fill="#FC523A" d="M599.548,895.305c-7.249,0-14.395-3.346-18.989-9.651c-7.628-10.481-5.32-25.156,5.156-32.786
				c106.752-77.728,175.165-150.943,215.303-230.409c41.7-82.548,38.164-180.359,31.575-265.558
				c-2.888-37.368-8.219-80.658-25.854-118.412c-36.1-77.305-125.081-129.787-226.688-133.705
				c-12.948-0.496-23.043-11.402-22.543-24.353c0.501-12.947,11.34-23.198,24.353-22.542
				c118.981,4.583,223.943,67.68,267.403,160.739c20.812,44.568,26.908,93.078,30.123,134.652
				c7.597,98.253,8.433,201.427-36.479,290.339c-57.313,113.466-158.467,195.419-229.564,247.191
				C609.174,893.846,604.338,895.305,599.548,895.305z"/>
			<path fill="#FC523A" d="M848.32,1059.247c-2.223,0-4.48-0.321-6.723-0.988c-48.998-14.629-93.136-52.177-124.272-105.729
				c-26.682-45.882-40.906-96.237-54.666-144.934c-3.522-12.471,3.731-25.438,16.205-28.963
				c12.451-3.522,25.437,3.728,28.963,16.206c12.963,45.89,26.373,93.346,50.069,134.103c25.116,43.19,59.609,73.144,97.13,84.348
				c12.417,3.704,19.48,16.778,15.771,29.198C867.761,1052.667,858.426,1059.247,848.32,1059.247z"/>
		</g>
		<g>
			<path fill="#63EFFF" d="M779.005,660.86h54.631c3.177-5.682,6.318-11.393,9.271-17.242
				c43.038-85.199,44.046-183.484,37.372-277.998h-47.044c6.12,83.113,8.071,177.082-32.218,256.839
				C794.474,635.414,787.095,648.19,779.005,660.86z"/>
		</g>
		<g>
			<g>
				<path fill="#2A1540" d="M280.239,568.577v52.974c-0.002,20.869,16.137,39.175,36.798,41.679
					c13.822,1.614,27.66,3.07,41.506,4.445c24.448,48.094,57.405,94.217,99.592,139.953c-3.77,24.931-10.791,49.337-21.097,72.224
					c-27.338,60.701-77.733,111.4-138.269,139.098c-4.573,2.094-7.423,6.747-7.208,11.772c0.214,5.025,3.453,9.42,8.187,11.112
					c27.8,9.943,52.724,22.217,79.112,35.21c60.644,29.862,123.234,60.694,220.027,59.868c1.348,0.011,2.681,0.017,4.016,0.017
					c94.619,0,156.435-30.436,216.233-59.885c26.389-12.993,51.315-25.267,79.115-35.21c4.735-1.692,7.973-6.087,8.188-11.112
					c0.215-5.025-2.634-9.678-7.207-11.772c-60.535-27.695-110.932-78.394-138.27-139.098
					c-10.986-24.398-18.228-50.521-21.78-77.167c40.024-44.116,71.455-88.648,95.021-135.009
					c13.847-1.375,27.686-2.831,41.506-4.445c0.016,0,0.034-0.003,0.053-0.005c20.604-2.497,36.745-20.8,36.745-41.672v-52.976
					c18.185-17.732,29.528-42.449,29.528-69.792c0-27.345-11.344-52.06-29.528-69.793v-22.676c0-15.774-9.23-30.072-22.657-37.199
					v-25.639C889.85,181.654,758.197,50,596.372,50C434.55,50,302.896,181.654,302.896,343.477v25.63
					c-13.416,7.121-22.657,21.425-22.657,37.208v22.676c-18.184,17.733-29.528,42.449-29.528,69.793
					C250.711,526.128,262.055,550.845,280.239,568.577z M865.125,343.477v20.003c-178.383-20.041-359.076-20.043-537.504-0.001
					v-20.002c0-148.19,120.562-268.751,268.753-268.751C744.563,74.726,865.125,195.287,865.125,343.477z M319.907,389.195
					c91.736-10.718,184.104-16.076,276.48-16.076c92.354,0,184.712,5.358,276.4,16.071c7.988,0.968,14.995,8.97,14.995,17.124
					v215.238c0,8.147-6.993,16.144-14.971,17.122c-183.442,21.429-369.465,21.431-552.851,0.002
					c-7.99-0.968-14.998-8.97-14.994-17.124V406.315C304.965,398.16,311.972,390.159,319.907,389.195z M808.215,1054.862
					c-59.861,29.478-116.442,57.339-205.45,57.339c-1.284,0-2.582-0.005-3.878-0.016c-91.153,0.826-148.379-27.421-209.104-57.325
					c-18.054-8.889-36.536-17.992-55.966-26.221c54.793-31.682,99.819-81.02,125.764-138.636
					c8.677-19.266,15.234-39.52,19.664-60.261c16.954,17.124,35.204,34.23,54.846,51.403c17.753,15.523,40.018,23.284,62.28,23.284
					c22.265,0,44.53-7.76,62.283-23.282c21.354-18.668,41.049-37.26,59.231-55.881c4.419,22.3,11.235,44.089,20.533,64.736
					c25.944,57.614,70.977,106.954,125.765,138.636C844.753,1036.868,826.27,1045.972,808.215,1054.862z M642.38,862.531
					c-26.228,22.935-65.786,22.931-92.014,0C477.667,798.973,424.396,736.47,388.2,670.459c69.213,6.002,138.69,9.013,208.172,9.013
					c69.482,0,138.962-3.011,208.174-9.013C768.35,736.47,715.08,798.973,642.38,862.531z"/>
				<path fill="#2A1540" d="M829.199,417.303c-5.591,3.921-6.94,11.632-3.018,17.22c2.405,3.43,6.237,5.262,10.129,5.262
					c2.453,0,4.93-0.727,7.092-2.243c8.376-5.877,16.666-11.537,24.633-16.818c5.692-3.771,7.249-11.442,3.477-17.133
					c-3.772-5.695-11.444-7.253-17.134-3.477C846.225,405.515,837.754,411.301,829.199,417.303z"/>
				<path fill="#2A1540" d="M868.037,607.148c-8.052-5.338-16.34-11-24.634-16.821c-5.582-3.923-13.296-2.57-17.22,3.015
					c-3.924,5.587-2.574,13.299,3.013,17.22c8.474,5.949,16.947,11.733,25.181,17.193c2.1,1.395,4.474,2.062,6.818,2.062
					c4.005,0,7.937-1.946,10.315-5.534C875.283,618.59,873.728,610.919,868.037,607.148z"/>
				<path fill="#2A1540" d="M324.712,420.725c7.968,5.281,16.257,10.941,24.633,16.818c2.162,1.517,4.638,2.243,7.092,2.243
					c3.892,0,7.723-1.833,10.129-5.262c3.92-5.588,2.572-13.299-3.019-17.22c-8.555-6.003-17.028-11.788-25.18-17.189
					c-5.698-3.776-13.367-2.217-17.134,3.477C317.464,409.283,319.02,416.954,324.712,420.725z"/>
				<path fill="#2A1540" d="M366.564,593.341c-3.924-5.588-11.637-6.94-17.22-3.015c-8.295,5.821-16.583,11.483-24.635,16.821
					c-5.691,3.771-7.245,11.442-3.472,17.134c2.378,3.59,6.309,5.534,10.315,5.534c2.345,0,4.719-0.669,6.819-2.062
					c8.235-5.46,16.707-11.243,25.18-17.193C369.139,606.64,370.487,598.928,366.564,593.341z"/>
				<path fill="#2A1540" d="M533.249,436.044h126.248c6.828,0,12.362-5.535,12.362-12.363c0-6.828-5.534-12.363-12.362-12.363
					H533.249c-6.829,0-12.362,5.535-12.362,12.363C520.886,430.509,526.42,436.044,533.249,436.044z"/>
			</g>
		</g>
	</g>
</g>
</svg>
