<?xml version="1.0" encoding="utf-8"?>
<!-- Generator: Adobe Illustrator 19.1.0, SVG Export Plug-In . SVG Version: 6.00 Build 0)  -->
<svg version="1.1" id="Layer_1" xmlns="http://www.w3.org/2000/svg" xmlns:xlink="http://www.w3.org/1999/xlink" x="0px" y="0px"
	 viewBox="0 0 1200 1200" enable-background="new 0 0 1200 1200" xml:space="preserve">
<g>
	<circle fill="#2A1540" cx="600" cy="600" r="519.74"/>
	<path fill="#FCD290" d="M266.705,639.272L264.918,887.6l21.438,21.438c0,0,141.137,19.652,351.948,17.865
		c210.812-1.786,264.408-17.865,264.408-17.865l12.506-32.157l-8.933-251.902l-159.002-21.438l-353.735,3.573l-116.125,23.225
		L266.705,639.272z"/>
	<path fill="#FCAC6F" d="M915.218,682.149c5.36,0,184.013-71.461,221.53-157.215c-7.146,150.07-16.078,167.935-16.078,167.935
		s-30.371,112.552-205.452,144.709C899.138,746.464,915.218,682.149,915.218,682.149z"/>
	<path fill="#FCAC6F" d="M266.705,666.07l-3.574,160.788c0,0-182.227-64.316-196.519-148.283
		c-14.292-83.967-3.573-155.429-3.573-155.429S86.264,630.339,266.705,666.07z"/>
	<path fill="#FC523A" d="M111.275,567.81c0,0,100.046-128.631,498.444-117.912s484.152,119.698,484.152,119.698
		s96.473-82.18,5.36-166.148c-91.114-83.967-318.004-126.844-521.669-121.484c-203.665,5.359-468.073,53.596-507.376,191.159
		C70.185,473.124,54.106,517.787,111.275,567.81z"/>
	<path opacity="0.62" fill="#FFFFFF" d="M635.98,936.006c-244.902,0.006-347.846-27.384-352.359-28.617
		c-9.973-2.736-16.83-11.875-16.666-22.22l3.565-218.308c0.208-12.508,10.288-22.461,23.023-22.278
		c12.507,0.208,22.48,10.51,22.278,23.023l-3.267,199.796c40.795,7.989,156.922,25.849,369.27,22.986
		c12.394-0.019,22.777,9.833,22.954,22.347c0.164,12.507-9.833,22.783-22.347,22.954C666.429,935.905,650.92,936.006,635.98,936.006
		z"/>
	<g>
		<path fill="#FC523A" d="M869.01,906.415c-0.157,0-0.314,0-0.47-0.005c-13.275-0.254-23.835-11.224-23.576-24.499l5.032-264.073
			c-187.975,2.974-378.244,0.983-565.93-5.925c-13.275-0.489-23.631-11.643-23.146-24.914c0.487-13.268,11.484-23.538,24.915-23.146
			c195.13,7.185,393.054,9.028,588.238,5.478c6.527-0.019,12.829,2.427,17.447,7.046c4.618,4.621,7.154,10.922,7.029,17.454
			l-5.51,288.996C892.789,895.95,882.074,906.415,869.01,906.415z"/>
		<path fill="#FC523A" d="M1011.445,804.271c-8.509,0-16.743-4.52-21.118-12.504c-6.372-11.652-2.098-26.262,9.549-32.641
			c64.255-35.167,106.077-110.796,101.702-183.913c-0.791-13.256,9.315-24.645,22.575-25.438
			c13.017-0.924,24.64,9.306,25.438,22.566c5.526,92.477-45.36,184.496-126.623,228.975
			C1019.304,803.321,1015.344,804.271,1011.445,804.271z"/>
		<path fill="#FCD290" d="M1112.357,574.177c-1.989,0-4.009-0.247-6.02-0.767c-12.861-3.315-20.593-16.43-17.282-29.286
			c5.767-22.359-2.075-50.265-20.469-72.826c-19.483-23.893-47.811-40.676-72.952-53.938
			c-128.315-67.711-278.39-96.105-422.61-79.937c-13.236,1.491-25.094-8.027-26.573-21.22c-1.48-13.197,8.023-25.095,21.22-26.574
			c153.659-17.232,313.635,13.029,450.412,85.198c29.416,15.517,62.847,35.508,87.777,66.082
			c28.296,34.711,39.419,77.785,29.767,115.223C1132.825,566.976,1123.063,574.177,1112.357,574.177z"/>
		<g>
			<g>
				<path fill="#2A1540" d="M599.157,269.541c-0.184,0-0.355,0.047-0.537,0.054c-0.182-0.007-0.353-0.054-0.536-0.054
					C290.748,269.541,50,370.367,50,499.079v162.814c0,1.982,0.494,3.832,1.305,5.501c3.834,66.086,76.513,128.106,196.511,170.813
					v44.012c0,21.976,16.993,41.251,38.746,43.888c98.672,11.53,198.043,17.295,297.413,17.295
					c99.375,0,198.745-5.766,297.418-17.295c0.02-0.006,0.034-0.006,0.054-0.01c21.695-2.627,38.692-21.902,38.697-43.878v-34.273
					c137.379-42.684,221.66-109.259,225.791-180.562c0.807-1.667,1.299-3.515,1.299-5.492V499.079
					C1147.235,370.367,906.492,269.541,599.157,269.541z M76.416,661.893c0-1.812-0.393-3.526-1.079-5.085V569.81
					c31.268,42.024,90.566,78.886,172.479,106.813v134.383C142.389,771.429,76.416,715.842,76.416,661.893z M598.083,457.692
					c0.184,0,0.355-0.047,0.536-0.054c0.182,0.007,0.353,0.054,0.537,0.054c206.723,0,392.258,47.871,477.536,122.537
					c-34.917,30.555-88.706,57.986-156.548,79.096v-6.32v-48.401c0-21.975-16.998-41.255-38.751-43.889
					c-197.34-23.061-397.476-23.061-594.886,0.005c-21.698,2.633-38.691,21.909-38.691,43.885v44.92
					c-54.119-19.511-97.515-43.264-127.25-69.275C205.027,506.557,393.772,457.692,598.083,457.692z M878.413,900.943
					c-195.394,22.828-393.522,22.832-588.858,0.006c-8.739-1.059-16.404-9.813-16.404-18.731v-48.401V653.005
					c0-8.917,7.666-17.67,16.35-18.725c97.713-11.416,196.098-17.127,294.489-17.127c98.371,0,196.746,5.711,294.409,17.117
					c8.74,1.065,16.409,9.818,16.409,18.734v180.807v48.402C894.803,891.284,887.297,899.859,878.413,900.943z M894.808,613.113
					c-4.167-2.016-8.667-3.424-13.415-3.999c-197.34-23.05-397.476-23.061-594.886,0.009c-4.724,0.573-9.204,1.973-13.356,3.981
					v-8.499c0-8.917,7.666-17.671,16.35-18.725c97.713-11.419,196.098-17.126,294.489-17.126c98.371,0,196.746,5.707,294.409,17.116
					c8.74,1.063,16.409,9.817,16.409,18.734V613.113z M1121.898,656.817c-0.681,1.556-1.072,3.268-1.072,5.076
					c0,58.781-78.338,119.496-200.681,159.337V685.936c97.126-28.791,166.876-69.246,201.753-116.124V656.817z M1094.668,562.33
					c-89.382-79.168-282.109-129.975-495.512-129.975c-0.184,0-0.355,0.047-0.537,0.054c-0.182-0.008-0.353-0.054-0.536-0.054
					c-214.216,0-406.098,50.694-495.52,129.968c-17.679-20.339-27.226-41.701-27.226-63.245
					c0-110.688,239.387-204.202,522.746-204.202c0.184,0,0.355-0.046,0.536-0.054c0.182,0.008,0.353,0.054,0.537,0.054
					c283.354,0,522.741,93.513,522.741,204.202C1121.898,520.624,1112.349,541.989,1094.668,562.33z"/>
				<path fill="#2A1540" d="M841.113,687.57c2.513,0,5.057-0.746,7.27-2.299c8.936-6.275,17.819-12.343,26.41-18.034
					c5.833-3.864,7.428-11.728,3.563-17.557c-3.871-5.844-11.732-7.422-17.557-3.563c-8.779,5.819-17.854,12.015-26.974,18.418
					c-5.726,4.019-7.111,11.922-3.088,17.647C833.2,685.696,837.124,687.57,841.113,687.57z"/>
				<path fill="#2A1540" d="M874.792,867.986c-8.59-5.691-17.474-11.757-26.41-18.031c-5.732-4.019-13.629-2.638-17.647,3.087
					c-4.023,5.725-2.638,13.628,3.088,17.647c9.12,6.404,18.195,12.598,26.974,18.418c2.153,1.425,4.582,2.108,6.987,2.108
					c4.103,0,8.131-1.989,10.571-5.67C882.22,879.715,880.626,871.852,874.792,867.986z"/>
				<path fill="#2A1540" d="M293.169,667.237c8.62,5.711,17.503,11.778,26.4,18.034c2.216,1.553,4.756,2.299,7.274,2.299
					c3.984,0,7.913-1.874,10.376-5.383c4.023-5.725,2.638-13.629-3.083-17.652c-9.091-6.383-18.166-12.579-26.973-18.418
					c-5.824-3.859-13.687-2.281-17.557,3.563C285.741,655.509,287.334,663.373,293.169,667.237z"/>
				<path fill="#2A1540" d="M334.136,870.689c5.721-4.023,7.106-11.926,3.083-17.651c-4.023-5.725-11.924-7.091-17.651-3.082
					c-8.897,6.255-17.78,12.321-26.4,18.031c-5.835,3.865-7.428,11.729-3.563,17.558c2.44,3.682,6.467,5.67,10.569,5.67
					c2.405,0,4.834-0.683,6.987-2.108C315.971,883.268,325.046,877.073,334.136,870.689z"/>
				<path fill="#2A1540" d="M492.102,854.091c0.05,0.114,0.12,0.238,0.198,0.371c0.153,0.455,0.371,0.856,0.639,1.197
					c0.886,1.875,2.336,3.267,4.25,4.093c0.183,0.129,0.371,0.241,0.564,0.34l-0.01,0.02c1.208,0.598,2.519,0.648,3.984,0.648
					c1.118,0,2.123-0.258,3.003-0.545c0.298-0.034,0.589-0.109,0.871-0.212c3.118-1.149,5.354-4.044,5.948-7.636l68.992-162.938
					c1.004-2.415,0.989-5.23-0.045-7.724c-1.034-2.505-2.925-4.424-5.072-5.3c-2.48-1.246-5.384-1.345-7.968-0.276
					c-2.508,1.029-4.424,3.037-5.161,5.25l-60.565,143.822L441.42,681.39c-1.035-2.464-3.099-4.424-5.677-5.373
					c-2.528-0.94-5.344-0.797-7.447,0.272c-2.374,0.98-4.319,2.959-5.339,5.423c-1.035,2.499-1.049,5.31-0.04,7.73L492.102,854.091z
					"/>
				<path fill="#2A1540" d="M631.515,860.762c5.611,0,10.179-4.458,10.179-9.936v-66.913h38.831c0.242,0.109,0.53,0.223,0.881,0.336
					c0.198,0.065,0.395,0.109,0.604,0.139c2.934,0.445,11.802,3.142,18.977,8.239c8.877,6.572,13.01,14.198,13.01,24.01
					c0,14.505,1.627,24.099,5.255,31.047c3.37,6.74,10.04,10.268,14.885,10.268h0.51c1.306,0,2.449-0.142,3.062-0.247
					c0.471,0,0.936-0.089,1.377-0.257c4.958-1.925,7.655-7.21,6.284-13.01c-1.301-3.583-4.751-6.116-8.64-6.556
					c-0.332-0.573-0.594-1.242-0.777-1.792c-0.96-2.865-2.103-8.565-2.103-19.452c0-22.432-13.792-35.199-22.585-41.072
					c15.617-9.986,25.391-27.464,25.391-46.253c0-30.245-24.494-54.848-54.601-54.848h-49.771l-1.584,0.009
					c-5.018,0.406-9.105,4.86-9.105,9.922v166.433C621.594,856.21,626.136,860.762,631.515,860.762z M641.694,764.069v-69.492h40.36
					c19.16,0,34.749,15.583,34.749,34.733c0,18.695-15.168,34.293-33.72,34.758H641.694z"/>
			</g>
		</g>
	</g>
</g>
</svg>
