<?xml version="1.0" encoding="utf-8"?>
<!-- Generator: Adobe Illustrator 19.1.0, SVG Export Plug-In . SVG Version: 6.00 Build 0)  -->
<svg version="1.1" id="Layer_1" xmlns="http://www.w3.org/2000/svg" xmlns:xlink="http://www.w3.org/1999/xlink" x="0px" y="0px"
	 viewBox="0 0 1200 1200" enable-background="new 0 0 1200 1200" xml:space="preserve">
<g>
	<circle fill="#7FE2FF" cx="600" cy="600" r="550"/>
	<path fill="#FC523A" d="M133.392,589.991c0,0,143.999-216.646,469.616-232.213c325.618-15.567,459.238,241.294,459.238,241.294
		S958.463,833.88,599.116,840.366C239.769,846.853,133.392,589.991,133.392,589.991z"/>
	<circle fill="#2A1540" cx="595.28" cy="598.608" r="139.274"/>
	<g>
		<path fill="#63EFFF" d="M605.133,737.745c-30.315,0-61.235-8.039-88.967-23.8c-12.391-7.047-16.726-22.799-9.683-35.191
			c7.033-12.4,22.784-16.727,35.189-9.687c32.617,18.541,72.564,22.153,104.261,9.434c32.567-13.08,56.88-44.87,59.118-77.281
			c2.272-32.966-17.84-67.712-48.911-84.489c-30.529-16.476-70.439-16.476-104.156,0.016c-12.821,6.276-28.262,0.966-34.525-11.837
			c-6.263-12.803-0.962-28.26,11.842-34.52c48.415-23.69,106.407-23.355,151.362,0.924c49.066,26.497,79.557,80.129,75.878,133.451
			c-3.6,52.245-40.32,101.124-91.369,121.639C646.247,733.999,625.829,737.745,605.133,737.745z"/>
		<path fill="#FCD290" d="M612.013,849.555c-13.176,0-24.423-10.039-25.67-23.414c-1.319-14.19,9.111-26.766,23.305-28.093
			c143.977-13.408,282.868-81.995,381.052-188.168c4.074-4.401,12.546-13.567,12.967-19.557c0.26-3.739-4.526-9.799-24.804-27.447
			c-120.142-104.56-227.567-140.368-362.276-168.65c-13.949-2.928-21.759-18.055-17.931-31.791
			c3.822-13.727,18.071-21.774,31.785-17.928c134.913,37.595,261.936,96.73,377.548,175.759
			c13.656,9.334,49.935,34.134,47.167,73.669c-1.487,21.179-13.643,37.023-26.56,50.995
			c-106.714,115.388-257.673,189.932-414.16,204.515C613.623,849.522,612.812,849.555,612.013,849.555z"/>
		<g>
			<path fill="#2A1540" d="M600,856.271c-190.188,0-369.307-93.025-479.146-248.84c-3.142-4.46-3.142-10.409,0-14.869
				C230.689,436.755,409.808,343.731,600,343.731c190.191,0,369.311,93.024,479.146,248.831c3.141,4.46,3.141,10.409,0,14.869
				C969.306,763.246,790.188,856.271,600,856.271z M147.279,599.996C252.696,744.486,421.232,830.463,600,830.463
				c178.766,0,347.304-85.977,452.721-230.467C947.308,455.506,778.771,369.538,600,369.538
				C421.23,369.538,252.691,455.506,147.279,599.996z"/>
			<path fill="#2A1540" d="M600,755.139c-85.544,0-155.139-69.594-155.139-155.143c0-85.539,69.595-155.134,155.139-155.134
				s155.138,69.595,155.138,155.134C755.138,685.545,685.544,755.139,600,755.139z M600,470.67
				c-71.312,0-129.331,58.018-129.331,129.326c0,71.317,58.018,129.335,129.331,129.335s129.329-58.018,129.329-129.335
				C729.329,528.688,671.312,470.67,600,470.67z"/>
			<g>
				<circle fill="#FCD290" cx="600.001" cy="599.998" r="92.9"/>
				<path fill="#2A1540" d="M600,705.799c-58.342,0-105.803-47.465-105.803-105.803c0-58.337,47.462-105.803,105.803-105.803
					c58.342,0,105.803,47.467,105.803,105.803C705.803,658.333,658.342,705.799,600,705.799z M600,520
					c-44.11,0-79.995,35.89-79.995,79.995c0,44.106,35.885,79.995,79.995,79.995s79.995-35.889,79.995-79.995
					C679.995,555.891,644.11,520,600,520z"/>
			</g>
			<g>
				<g>
					<path fill="#2A1540" d="M1021.498,368.622c-7.128,0-12.904-5.78-12.904-12.904V191.409H847.155
						c-7.128,0-12.904-5.779-12.904-12.904c0-7.123,5.776-12.904,12.904-12.904h174.343c7.128,0,12.904,5.781,12.904,12.904v177.212
						C1034.402,362.842,1028.626,368.622,1021.498,368.622z"/>
					<path fill="#2A1540" d="M178.506,368.622c-7.128,0-12.905-5.78-12.905-12.904V178.506c0-7.123,5.777-12.904,12.905-12.904
						h174.342c7.128,0,12.904,5.781,12.904,12.904c0,7.125-5.776,12.904-12.904,12.904H191.409v164.309
						C191.409,362.842,185.633,368.622,178.506,368.622z"/>
				</g>
				<g>
					<path fill="#2A1540" d="M352.848,1034.398H178.506c-7.128,0-12.905-5.779-12.905-12.904v-177.22
						c0-7.124,5.777-12.904,12.905-12.904c7.127,0,12.903,5.779,12.903,12.904v164.316h161.439c7.128,0,12.904,5.78,12.904,12.904
						C365.753,1028.619,359.977,1034.398,352.848,1034.398z"/>
					<path fill="#2A1540" d="M1021.498,1034.398H847.155c-7.128,0-12.904-5.779-12.904-12.904c0-7.124,5.776-12.904,12.904-12.904
						h161.439V844.274c0-7.124,5.776-12.904,12.904-12.904c7.128,0,12.904,5.779,12.904,12.904v177.22
						C1034.402,1028.619,1028.626,1034.398,1021.498,1034.398z"/>
				</g>
			</g>
			<g>
				<path fill="#2A1540" d="M600,977.237c-7.128,0-12.905-5.78-12.905-12.904V798.48c0-7.124,5.777-12.904,12.905-12.904
					s12.904,5.78,12.904,12.904v165.854C612.904,971.457,607.128,977.237,600,977.237z"/>
				<path fill="#2A1540" d="M600,414.416c-7.128,0-12.905-5.78-12.905-12.904V235.659c0-7.124,5.777-12.904,12.905-12.904
					s12.904,5.78,12.904,12.904v165.854C612.904,408.636,607.128,414.416,600,414.416z"/>
			</g>
			<g>
				<path fill="#2A1540" d="M401.52,612.9H235.663c-7.13,0-12.905-5.779-12.905-12.904s5.775-12.904,12.905-12.904H401.52
					c7.13,0,12.905,5.78,12.905,12.904S408.649,612.9,401.52,612.9z"/>
				<path fill="#2A1540" d="M964.342,612.9H798.484c-7.128,0-12.904-5.779-12.904-12.904s5.776-12.904,12.904-12.904h165.858
					c7.128,0,12.904,5.78,12.904,12.904S971.47,612.9,964.342,612.9z"/>
			</g>
		</g>
	</g>
</g>
</svg>
