<?xml version="1.0" encoding="utf-8"?>
<!-- Generator: Adobe Illustrator 19.1.0, SVG Export Plug-In . SVG Version: 6.00 Build 0)  -->
<svg version="1.1" id="Layer_1" xmlns="http://www.w3.org/2000/svg" xmlns:xlink="http://www.w3.org/1999/xlink" x="0px" y="0px"
	 viewBox="0 0 1200 1200" enable-background="new 0 0 1200 1200" xml:space="preserve">
<g>
	<circle fill="#FC523A" cx="608.764" cy="600" r="424.891"/>
	<path fill="#63EFFF" d="M222.854,348.904c-2.334-3.958,336.958,67.391,745.902,1.532c-42.886,119.467-65.86,407.412,7.658,510.031
		c-283.351-38.29-589.676-33.695-744.37,1.532C287.183,762.443,293.309,468.371,222.854,348.904z"/>
	<circle fill="#FCD290" cx="713.671" cy="517.121" r="44.495"/>
	<path fill="#278EB3" d="M417.969,708.454c0,0,34.551,38.616,95.523-9.146c60.972-47.761,97.555-40.648,97.555-40.648
		l-64.021-66.053L417.969,708.454z"/>
	<path fill="#FCD290" d="M631.371,661.709l81.296-71.134l47.761,39.632c0,0-44.712,0-58.94,11.178
		C687.262,652.563,676.084,681.016,631.371,661.709z"/>
	<g>
		<path fill="#FFFFFF" d="M936.68,859.024c-1.088,0-2.186-0.085-3.281-0.248c-172.414-26.296-347.853-31.009-521.453-14.069
			c-11.965,1.169-22.621-7.577-23.791-19.549c-1.169-11.972,7.584-22.617,19.552-23.788
			c166.831-16.323,335.346-12.984,501.362,9.874c-28.21-148.102-22.83-302.362,15.856-448.111
			c3.087-11.624,15.019-18.557,26.629-15.459c11.624,3.083,18.546,15.005,15.459,26.629
			c-39.586,149.151-42.726,307.593-9.083,458.197c1.567,7.017-0.428,14.353-5.333,19.613
			C948.446,856.557,942.667,859.024,936.68,859.024z"/>
		<g>
			<g>
				<path fill="#2A1540" d="M1149.999,622.248c-0.002-13.107-6.599-25.448-19.614-36.687c-4.791-4.127-12.037-3.606-16.179,1.187
					c-4.141,4.795-3.609,12.041,1.185,16.181c7.743,6.685,11.669,13.188,11.666,19.322v0.002v0.003
					c0,27.508-72.987,57.694-178.826,67.17c-12.285-111.445,0.273-223.227,37.735-333.975c1.286-3.8,0.493-7.994-2.093-11.063
					c-2.583-3.07-6.573-4.58-10.545-3.944c-247.721,38.733-498.934,38.733-746.654,0c-3.97-0.636-7.965,0.879-10.546,3.944
					c-2.587,3.069-3.379,7.263-2.093,11.063c37.462,110.748,50.02,222.531,37.735,333.975
					c-105.84-9.475-178.827-39.662-178.827-67.17v-0.002v-0.003c-0.002-6.134,3.923-12.637,11.666-19.322
					c4.796-4.141,5.326-11.386,1.186-16.181c-4.141-4.79-11.386-5.319-16.178-1.187c-13.016,11.239-19.613,23.58-19.615,36.687
					L50,622.253l0.001,0.004L50,622.26l0.002,0.011c0.019,49.464,93.227,80.291,198.91,89.892
					c-6.864,48.799-18.466,97.516-34.878,146.033c-1.285,3.8-0.493,7.994,2.093,11.064c2.583,3.07,6.593,4.575,10.546,3.943
					c247.716-38.742,498.929-38.742,746.654,0c0.592,0.094,1.186,0.14,1.774,0.14c3.353,0,6.574-1.474,8.771-4.083
					c2.587-3.07,3.379-7.264,2.093-11.064c-16.412-48.517-28.014-97.234-34.878-146.033c105.685-9.6,198.891-40.428,198.911-89.892
					l0.002-0.007v-0.005v-0.003L1149.999,622.248z M898.665,677.645c-0.057-3.836-2.027-7.394-5.253-9.472
					c-3.225-2.076-7.282-2.415-10.793-0.874l-71.555,31.146c-4.43,1.928-7.179,6.427-6.872,11.244
					c0.307,4.821,3.601,8.934,8.24,10.288l72.334,21.078c1.053,0.304,2.133,0.457,3.209,0.457c2.482,0,4.93-0.807,6.951-2.349
					c2.895-2.203,4.573-5.654,4.518-9.293l-0.22-14.738c9.651-0.239,19.303-0.634,28.904-1.219
					c6.21,44.699,16.296,89.331,30.287,133.81C839.45,830.042,719.723,821.206,600,821.206c-119.724,0-239.45,8.836-358.416,26.518
					c13.991-44.48,24.077-89.112,30.287-133.81c9.601,0.585,19.253,0.98,28.904,1.219l-0.219,14.738
					c-0.057,3.639,1.621,7.089,4.516,9.293c2.021,1.542,4.47,2.349,6.951,2.349c1.073,0,2.156-0.153,3.209-0.457l72.335-21.078
					c4.639-1.354,7.933-5.467,8.24-10.288c0.304-4.817-2.441-9.316-6.872-11.244l-71.556-31.146
					c-3.52-1.542-7.576-1.202-10.793,0.874c-3.227,2.078-5.197,5.636-5.254,9.472l-0.217,14.554
					c-8.985-0.218-17.802-0.582-26.439-1.085c11.854-108.488,0.848-217.287-33.093-325.191c237.926,35.355,478.896,35.355,716.83,0
					c-33.94,107.904-44.948,216.702-33.093,325.191c-8.637,0.503-17.454,0.867-26.439,1.085L898.665,677.645z"/>
				<path fill="#2A1540" d="M955.685,544.081c-0.714,6.296,3.81,11.978,10.106,12.69c13.885,1.572,27.381,3.535,40.116,5.839
					c0.69,0.125,1.377,0.184,2.055,0.184c5.442,0,10.272-3.885,11.273-9.428c1.128-6.238-3.011-12.207-9.246-13.332
					c-13.228-2.393-27.231-4.431-41.617-6.063C962.028,533.256,956.398,537.786,955.685,544.081z"/>
				<path fill="#2A1540" d="M1037.182,557.3c-1.655,6.112,1.958,12.413,8.074,14.07c14.001,3.795,26.664,8.07,37.63,12.712
					c1.459,0.614,2.974,0.91,4.465,0.91c4.471,0,8.718-2.63,10.569-7.003c2.468-5.835-0.26-12.569-6.094-15.038
					c-11.917-5.042-25.568-9.661-40.57-13.726C1045.14,547.572,1038.841,551.183,1037.182,557.3z"/>
				<path fill="#2A1540" d="M112.648,584.992c1.493,0,3.007-0.295,4.465-0.91c10.967-4.642,23.629-8.917,37.63-12.712
					c6.115-1.658,9.729-7.958,8.073-14.07c-1.655-6.117-7.956-9.728-14.073-8.075c-15.001,4.065-28.652,8.685-40.57,13.726
					c-5.834,2.468-8.563,9.203-6.094,15.038C103.931,582.362,108.178,584.992,112.648,584.992z"/>
				<path fill="#2A1540" d="M192.036,562.794c0.677,0,1.365-0.059,2.055-0.184c12.735-2.304,26.231-4.267,40.116-5.839
					c6.296-0.712,10.822-6.394,10.107-12.69c-0.713-6.291-6.372-10.794-12.688-10.11c-14.387,1.632-28.389,3.67-41.617,6.063
					c-6.235,1.125-10.373,7.094-9.246,13.332C181.765,558.909,186.595,562.794,192.036,562.794z"/>
				<path fill="#2A1540" d="M714.626,580.081c-4.401-3.823-10.967-3.742-15.267,0.188l-73.381,67.072l-72.344-64.226
					c-4.358-3.876-10.92-3.867-15.264,0.027L407.503,700.229c-4.72,4.226-5.124,11.476-0.901,16.198
					c4.223,4.719,11.476,5.122,16.198,0.901l123.246-110.272l124.245,110.299c2.184,1.941,4.901,2.894,7.61,2.894
					c3.165,0,6.316-1.303,8.583-3.854c4.205-4.74,3.775-11.99-0.964-16.194l-42.291-37.546l64.058-58.553l74.972,65.197
					c2.174,1.887,4.853,2.815,7.524,2.815c3.204,0,6.392-1.336,8.662-3.943c4.156-4.781,3.65-12.028-1.129-16.187L714.626,580.081z"
					/>
				<path fill="#2A1540" d="M709.107,549.041c28.873,0,52.364-23.489,52.364-52.364c0-28.876-23.491-52.364-52.364-52.364
					c-28.873,0-52.364,23.488-52.364,52.364C656.743,525.553,680.234,549.041,709.107,549.041z M709.107,467.255
					c16.224,0,29.422,13.197,29.422,29.422c0,16.225-13.199,29.422-29.422,29.422c-16.223,0-29.421-13.198-29.421-29.422
					C679.686,480.452,692.884,467.255,709.107,467.255z"/>
			</g>
		</g>
	</g>
</g>
</svg>
