<?xml version="1.0" encoding="utf-8"?>
<!-- Generator: Adobe Illustrator 19.1.0, SVG Export Plug-In . SVG Version: 6.00 Build 0)  -->
<svg version="1.1" id="Layer_1" xmlns="http://www.w3.org/2000/svg" xmlns:xlink="http://www.w3.org/1999/xlink" x="0px" y="0px"
	 viewBox="0 0 1200 1200" enable-background="new 0 0 1200 1200" xml:space="preserve">
<g>
	<circle fill="#2A1540" cx="600" cy="600" r="550"/>
	<path fill="#C4E9FB" d="M921.894,452.027c-0.03-0.091-0.038-0.183-0.071-0.274c-3.584-9.694-7.647-19.333-12.07-28.651
		c-1.997-4.207-7.047-6.017-11.297-4.031c-4.242,1.982-6.059,6.999-4.062,11.208c4.211,8.871,8.078,18.05,11.493,27.28
		c0.033,0.089,0.081,0.166,0.117,0.253c0.027,0.08,0.033,0.162,0.063,0.243c6.451,17.534,11.34,35.511,14.747,53.794
		c-17.983-23.338-46.325-44.577-83.935-62.38c-27.538-13.035-58.829-23.611-92.645-31.59c-8.041-33.551-18.7-64.598-31.837-91.919
		c-17.97-37.373-39.416-65.521-62.981-83.357c27.112,4.955,53.472,13.191,78.827,24.686c9.006,4.082,17.933,8.613,26.528,13.465
		c1.327,0.747,2.769,1.102,4.192,1.102c2.951,0,5.823-1.531,7.384-4.261c2.318-4.043,0.895-9.185-3.18-11.485
		c-9.033-5.094-18.407-9.854-27.868-14.144c-46.529-21.092-96.255-31.788-147.802-31.788
		c-196.299,0-355.999,158.449-355.999,353.209c0,194.758,159.7,353.207,355.999,353.207s355.999-158.449,355.999-353.207
		c0-41.616-7.229-82.365-21.481-121.111C921.983,452.187,921.93,452.115,921.894,452.027z M697.073,333.212
		c11.602,24.128,21.234,51.284,28.74,80.617c-43.193-8.743-90.016-13.364-138.316-13.364s-95.124,4.621-138.317,13.364
		c7.505-29.333,17.138-56.49,28.74-80.617c29.828-62.028,68.744-96.189,109.577-96.189S667.243,271.184,697.073,333.212z
		 M525.469,242.685c-23.521,17.841-44.928,45.96-62.872,83.274c-13.139,27.322-23.798,58.369-31.839,91.92
		c-33.814,7.978-65.105,18.554-92.642,31.589c-37.612,17.803-65.952,39.041-83.934,62.377
		C279.673,375.623,388.168,267.977,525.469,242.685z M254.149,634.761c2.955,3.844,6.145,7.64,9.643,11.35
		c1.671,1.773,3.932,2.669,6.201,2.669c2.077,0,4.16-0.754,5.798-2.27c3.424-3.179,3.603-8.509,0.4-11.906
		c-6.916-7.337-12.63-14.953-16.98-22.639c-1.829-3.234-5.49-4.768-8.969-4.117c-0.562-5.451-0.985-10.942-1.279-16.467
		c0.731-1.534,1.018-3.293,0.689-5.09c-0.781-4.262-1.177-8.604-1.177-12.902c0-40.512,34.432-79.122,96.949-108.717
		c24.318-11.51,51.688-21.067,81.253-28.514c-8.812,42.854-13.468,89.31-13.468,137.231c0,47.906,4.652,94.348,13.459,137.192
		c-17.494-4.419-34.301-9.572-50.237-15.477l-0.007-0.001c-9.578-3.548-18.863-7.386-27.602-11.405
		c-4.264-1.961-9.298-0.122-11.271,4.096c-1.973,4.221-0.126,9.229,4.128,11.183c9.131,4.202,18.819,8.208,28.798,11.901
		c0,0,0.007,0.003,0.011,0.005c19.009,7.045,39.188,13.064,60.278,18.052c8.039,33.537,18.696,64.571,31.83,91.883
		c17.944,37.314,39.351,65.432,62.872,83.273C388.113,878.786,279.583,771.063,254.149,634.761z M649.524,904.087
		c23.522-17.841,44.928-45.961,62.872-83.276l0.002-0.008c1.152-2.405,2.293-4.839,3.413-7.306c1.926-4.237,0.023-9.225-4.251-11.14
		c-4.261-1.911-9.302-0.026-11.228,4.218c-1.071,2.356-2.156,4.679-3.258,6.976l-0.003,0.005
		c-29.828,62.034-68.742,96.193-109.575,96.193s-79.749-34.159-109.577-96.188c-11.599-24.122-21.23-51.273-28.735-80.598
		c43.268,8.78,89.966,13.343,138.312,13.343c35.862,0,71.244-2.546,105.16-7.57c4.635-0.688,7.835-4.974,7.142-9.574
		c-0.693-4.599-5.027-7.764-9.649-7.087c-33.09,4.903-67.626,7.387-102.652,7.387c-50.106,0-98.329-5.008-142.581-14.613
		c-9.627-43.786-14.729-91.775-14.729-141.462c0-49.687,5.102-97.677,14.729-141.463c44.132-9.551,92.502-14.614,142.581-14.614
		s98.449,5.063,142.58,14.614c9.628,43.787,14.729,91.776,14.729,141.463c0,10.003-0.209,20.084-0.622,29.964
		c-0.193,4.645,3.445,8.57,8.131,8.764c0.119,0.003,0.238,0.006,0.358,0.006c4.526,0,8.286-3.543,8.475-8.074
		c0.421-10.11,0.637-20.426,0.637-30.661c0-47.921-4.656-94.377-13.469-137.231c29.564,7.447,56.934,17.003,81.251,28.514
		c62.523,29.595,96.952,68.205,96.952,108.717c0,51.928-56.805,100.468-151.954,129.844c-4.477,1.382-6.974,6.103-5.581,10.545
		c1.131,3.606,4.483,5.922,8.101,5.922c0.836,0,1.684-0.124,2.528-0.385c65.927-20.354,114.748-50.157,141.258-84.687
		C895.484,770.991,786.926,878.777,649.524,904.087z"/>
	<path fill="#C4E9FB" d="M866.417,367.517c-3.827,2.689-4.732,7.945-2.023,11.741c5.733,8.033,11.158,16.394,16.129,24.854
		c1.578,2.685,4.42,4.181,7.342,4.181c1.452,0,2.924-0.37,4.268-1.148c4.052-2.342,5.421-7.5,3.061-11.518
		c-5.223-8.887-10.923-17.669-16.944-26.104C875.536,365.727,870.236,364.833,866.417,367.517z"/>
	<path fill="#C4E9FB" d="M825.793,322.292c-3.296,3.308-3.266,8.641,0.066,11.912c7.043,6.907,13.857,14.206,20.257,21.692
		c1.678,1.965,4.069,2.975,6.475,2.975c1.94,0,3.894-0.656,5.488-1.999c3.575-3.009,4.015-8.324,0.982-11.873
		c-6.719-7.859-13.875-15.522-21.266-22.774C834.464,318.953,829.086,318.987,825.793,322.292z"/>
	<path fill="#C4E9FB" d="M777.86,284.766c-2.666,3.826-1.701,9.072,2.156,11.717c8.144,5.585,16.136,11.595,23.756,17.865
		c1.585,1.304,3.504,1.939,5.414,1.939c2.438,0,4.858-1.038,6.536-3.045c2.995-3.581,2.497-8.891-1.114-11.86
		c-7.995-6.579-16.388-12.892-24.937-18.756C785.809,279.981,780.526,280.938,777.86,284.766z"/>
	<path fill="#C4E9FB" d="M322.434,670.071c-8.877-5.149-17.139-10.604-24.563-16.213c-3.732-2.823-9.06-2.109-11.896,1.593
		c-2.842,3.701-2.123,8.984,1.607,11.804c7.97,6.027,16.815,11.866,26.291,17.358c1.346,0.782,2.819,1.151,4.274,1.151
		c2.918,0,5.757-1.494,7.335-4.175C327.849,677.576,326.484,672.417,322.434,670.071z"/>
	<path fill="#C4E9FB" d="M751.458,625.568c-4.645-0.387-8.776,3.05-9.171,7.685c-0.848,9.966-1.926,19.981-3.21,29.771
		c-0.604,4.612,2.676,8.841,7.325,9.44c0.371,0.046,0.739,0.069,1.104,0.069c4.201,0,7.852-3.093,8.409-7.337
		c1.314-10.041,2.421-20.313,3.29-30.528C759.598,630.032,756.13,625.959,751.458,625.568z"/>
	<path fill="#C4E9FB" d="M731.39,745.03c-4.491-1.302-9.212,1.26-10.525,5.725c-2.865,9.738-5.998,19.259-9.308,28.303
		c-1.602,4.372,0.673,9.205,5.081,10.791c0.958,0.346,1.935,0.51,2.898,0.51c3.468,0,6.724-2.129,7.978-5.55
		c3.435-9.383,6.681-19.253,9.646-29.337C738.477,751.008,735.893,746.333,731.39,745.03z"/>
	<path fill="#C4E9FB" d="M744.342,685.787c-4.618-0.803-9.022,2.237-9.845,6.813c-1.774,9.88-3.807,19.73-6.035,29.281
		c-1.059,4.534,1.787,9.058,6.353,10.107c0.646,0.148,1.29,0.221,1.923,0.221c3.863,0,7.355-2.632,8.263-6.525
		c2.295-9.831,4.385-19.966,6.208-30.129C752.032,690.976,748.959,686.604,744.342,685.787z"/>
	<path fill="#C4E9FB" d="M527.902,537.428c0.394-0.707,0.61-1.558,0.61-2.436c0-3.114-2.458-5.554-5.598-5.554H483.03
		c-3.139,0-5.597,2.44-5.597,5.554c0,3.113,2.458,5.553,5.597,5.553h26.661l-17.004,17.353c-2.192,2.188-2.192,5.743,0.007,7.924
		l0.868,0.742h0.037c1.001,0.789,2.199,1.213,3.459,1.213c5.484,0,10.554,2.093,14.327,5.942c3.827,3.693,5.935,8.722,5.935,14.162
		c0,5.412-2.119,10.495-5.938,14.288c-3.886,3.75-9.017,5.817-14.448,5.817c-5.349,0-10.436-2.067-14.295-5.791
		c-1.098-1.092-2.62-1.792-4.132-1.652c-1.492,0.04-2.855,0.659-3.743,1.649c-1.094,1.086-1.702,2.58-1.659,4.093
		c0.037,1.48,0.664,2.83,1.638,3.695c5.873,5.955,13.755,9.235,22.191,9.235c8.264,0,16.391-3.36,22.277-9.196
		c5.998-5.823,9.302-13.687,9.302-22.138c0-8.402-3.254-16.258-9.159-22.117c-3.273-3.247-7.236-5.71-11.627-7.249l19.078-19.454
		C527.265,538.6,527.654,538.02,527.902,537.428z"/>
	<path fill="#C4E9FB" d="M567.551,558.242c-5.929,0-11.675,1.73-16.583,4.892c1.051-3.159,2.307-5.982,3.76-8.44
		c5.621-9.253,12.87-13.751,22.896-14.155c2.962-0.225,5.283-2.714,5.276-5.864c-0.116-1.482-0.836-2.887-1.973-3.851
		c-1.078-0.914-2.442-1.377-3.704-1.259c-13.685,0.466-25.055,7.45-32.012,19.667c-6.95,11.933-8.529,25.551-8.629,34.901
		c0,2.013,0,3.916,0.242,5.647c0.54,16.506,14.037,29.436,30.726,29.436c17.011,0,30.849-13.677,30.849-30.485
		C598.4,571.918,584.562,558.242,567.551,558.242z M548.063,590.167c-0.109-0.434-0.166-0.675-0.166-0.954v-0.484
		c0-10.754,8.817-19.502,19.654-19.502c10.976,0,19.903,8.748,19.903,19.502c0,10.751-8.927,19.499-19.903,19.499
		c-9.663,0-17.946-7.027-19.478-16.426c0.069-0.386,0.069-0.728,0.069-1.014L548.063,590.167z"/>
	<path fill="#C4E9FB" d="M637.316,529.438c-8.9,0-17.227,4.899-23.478,13.843c-5.541,8.318-8.595,19.343-8.595,31.048
		c0,11.748,3.058,22.735,8.619,30.954c6.181,8.985,14.51,13.934,23.453,13.934c8.936,0,17.266-4.949,23.474-13.973
		c5.617-8.495,8.712-19.474,8.712-30.914c0-11.392-3.091-22.41-8.748-31.093C654.537,534.337,646.209,529.438,637.316,529.438z
		 M658.433,574.328c0,9.284-2.514,18.343-6.865,24.811c-4.121,5.863-9.185,9.09-14.252,9.09c-5.11,0-10.299-3.302-14.229-9.044
		c-4.304-6.396-6.771-15.457-6.771-24.858c0-9.4,2.467-18.461,6.784-24.882c3.837-5.817,8.887-9.022,14.216-9.022
		c5.296,0,10.213,3.129,14.222,9.04C655.918,555.983,658.433,565.046,658.433,574.328z"/>
	<path fill="#C4E9FB" d="M725.11,548.911c0-10.76-9.796-20.197-20.964-20.197c-11.168,0-20.967,9.437-20.967,20.197v0.242
		c0,10.759,9.799,20.196,20.967,20.196C715.314,569.349,725.11,559.912,725.11,548.911z M713.922,548.911v0.242
		c0,4.741-3.93,9.817-9.775,9.817c-5.847,0-9.773-5.076-9.773-10.059c0-4.74,3.926-9.817,9.773-9.817
		C709.992,539.094,713.922,544.171,713.922,548.911z"/>
</g>
</svg>
