<?xml version="1.0" encoding="utf-8"?>
<!-- Generator: Adobe Illustrator 19.1.0, SVG Export Plug-In . SVG Version: 6.00 Build 0)  -->
<svg version="1.1" id="Layer_1" xmlns="http://www.w3.org/2000/svg" xmlns:xlink="http://www.w3.org/1999/xlink" x="0px" y="0px"
	 viewBox="0 0 1200 1200" enable-background="new 0 0 1200 1200" xml:space="preserve">
<g>
	<circle fill="#FC523A" cx="600" cy="551.749" r="501.749"/>
	<g>
		<path fill="#2A4978" d="M129.154,296.184c0,0,15.411-89.311,442.83-89.311s459.047,49.44,478.185,73.363
			c19.138,23.922-213.844,368.409-213.844,368.409s-300.956-31.897-479.578,4.785C232.349,532.222,129.154,318.512,129.154,318.512
			V296.184z"/>
		<path fill="#7FE2FF" d="M362.018,807.021c0,0-190.867-22.85-236.568-69.895c-5.376-88.713-4.032-436.843-4.032-436.843
			s56.453,69.895,235.223,69.895C366.05,456.202,362.018,807.021,362.018,807.021z"/>
		<path fill="#7FE2FF" d="M816.338,807.021c0,0,190.867-22.85,236.567-69.895c5.377-88.713,4.033-436.843,4.033-436.843
			s-56.454,69.895-235.224,69.895C812.306,456.202,816.338,807.021,816.338,807.021z"/>
		<path fill="#FCD290" d="M562.294,600.025c0,0-53.765-25.539-38.98-71.239c14.785-45.701,29.571-57.798,71.239-57.798
			c41.669,0,68.551,43.012,68.551,69.895c0,26.883-30.07,57.755-47.045,64.518c51.077,4.033,95.433,22.85,98.121,86.025
			c2.688,63.174-2.688,176.081-2.688,176.081s-13.441,33.604-52.421,43.012c-12.097,21.506-2.688,224.47-2.688,224.47
			l-129.037-2.688l2.688-219.094c0,0-63.174-14.785-67.207-67.207c-4.032-52.421,8.065-176.081,8.065-176.081
			S465.516,605.401,562.294,600.025z"/>
		<g>
			<path fill="#FC523A" d="M645.307,1140.551c-11.307,0-20.994-8.569-22.151-20.055c-6.853-68.094-14.62-145.272,13.151-216.413
				c3.457-8.866,7.371-17.348,11.159-25.554c4.676-10.151,9.094-19.728,12.454-29.466c13.215-38.309,10.796-81.37,8.459-123.01
				c-1.737-30.982-6.693-67.934-29.802-78.796c-3.403-1.596-7.749-2.851-12.353-4.18c-6.614-1.915-14.112-4.078-21.6-7.995
				c-19.191-10.035-34.467-33.289-24.985-56.623c5.797-14.25,18.114-20.99,26.262-25.454c1.912-1.051,3.835-2.068,5.594-3.236
				c6.545-4.339,7.313-14.003,5.986-20.954c-1.331-6.958-5.608-15.65-13.293-17.269c-12.044-2.539-19.753-14.358-17.214-26.403
				c2.535-12.052,14.366-19.75,26.406-17.218c23.952,5.05,42.746,25.655,47.883,52.509c5.138,26.86-4.726,52.952-25.129,66.483
				c-2.783,1.851-5.793,3.527-8.823,5.189c-1.164,0.638-2.612,1.429-3.914,2.191c0.555,0.472,1.19,0.921,1.887,1.284
				c3.504,1.836,8.268,3.207,13.307,4.665c5.79,1.669,12.353,3.563,18.952,6.669c44.43,20.874,52.915,73.303,55.342,116.641
				c2.46,43.802,5.249,93.444-10.825,140.047c-4.085,11.841-9.186,22.898-14.116,33.594c-3.671,7.959-23.474,14.42-26.445,22.038
				c-23.867,61.143-12.454,135.324-6.105,198.412c1.233,12.255,4.416,21.561-7.831,22.795
				C646.806,1140.514,646.051,1140.551,645.307,1140.551z"/>
			<path fill="#FFFFFF" d="M1041.205,762.192c-11.96,0-21.853-9.491-22.259-21.535l-13.415-397.411
				c-0.414-12.306,9.225-22.617,21.527-23.03c12.327-0.152,22.613,9.222,23.03,21.52l13.412,397.411
				c0.414,12.306-9.222,22.615-21.527,23.03C1041.718,762.184,1041.46,762.192,1041.205,762.192z"/>
			<path fill="#FC523A" d="M806.621,664.282c-11.837-0.16-21.567-9.609-21.956-21.558l-8.125-249.015
				c-0.403-12.305,9.246-22.602,21.55-23.008c12.281-0.197,22.602,9.253,23.002,21.55l8.124,249.016
				c0.402,12.305-9.246,22.601-21.55,23.008C807.317,664.284,806.968,664.286,806.621,664.282z"/>
			<path fill="#7FE2FF" d="M1035.166,327.487c-4.183,0-8.413-1.176-12.179-3.635c-8.873-5.805-12.247-16.863-8.706-26.396
				c-3.284-2.184-9.316-3.62-13.848-4.701c-136.536-32.549-276.82-48.576-417.252-47.126c-12.335-0.246-22.376-9.773-22.493-22.086
				c-0.112-12.306,9.778-22.376,22.087-22.492c143.82-1.357,287.943,14.953,427.991,48.344c9.058,2.155,22.761,5.42,33.873,15.179
				c15.839,13.916,19.797,36.626,9.204,52.821C1049.565,323.938,1042.437,327.487,1035.166,327.487z"/>
			<path fill="#FFFFFF" d="M351.382,795.568c-11.885,0-21.756-9.374-22.257-21.36l-15.936-382.429
				c-0.512-12.299,9.045-22.688,21.343-23.197c12.32-0.602,22.685,9.041,23.2,21.34l15.937,382.429
				c0.512,12.298-9.044,22.688-21.343,23.196C352.01,795.56,351.694,795.568,351.382,795.568z"/>
			<g>
				<path fill="#2A1540" d="M546.036,1150c-7.701,0-16.362-1.278-22.648-7.379c-7.51-7.285-8.286-18.016-8.122-26.542
					c0.66-34.711,0.599-70.082,0.536-104.285c-0.043-26.744-0.094-54.402,0.204-81.64c0.098-8.968-1.197-10.926-9.233-13.938
					c-35.513-13.307-52.727-39.398-51.17-77.548c1.31-32.127,1.008-65.003,0.718-96.796c-0.131-14.237-0.261-28.464-0.254-42.693
					c0.026-62.058,26.157-95.434,81.868-103.807c-26.316-25.46-33.81-52.617-23.609-83.984
					c10.623-32.665,42.906-56.107,77.04-56.107c0.373,0,0.744,0,1.117,0.007c34.867,0.529,67.191,24.886,76.862,57.914
					c9.016,30.8,1.321,57.254-24.197,81.64c23.251,3.62,41.96,14.496,56.688,32.831c15.073,18.757,22.314,38.6,22.137,60.657
					c-0.261,31.816-0.217,63.639-0.178,95.456c0.026,19.539,0.051,39.078,0.007,58.611c-0.084,37.853-17.754,63.101-52.52,75.052
					c-7.708,2.641-8.855,4.441-8.764,13.735c0.291,30.444,0.268,60.896,0.242,91.348c-0.021,31.032-0.046,63.13,0.28,94.664
					c0.09,8.823-0.787,18.785-8.014,25.728c-7.274,6.987-17.439,7.335-24.462,6.972c-26.425-1.321-53.456-1.336-80.36-0.007
					C548.861,1149.956,547.466,1150,546.036,1150z M591.384,477.571c-24.353,0-48.275,17.378-55.865,40.711
					c-6.624,20.381-7.393,45.442,37.167,76.735c3.875,2.721,5.609,7.604,4.317,12.161c-1.295,4.555-5.329,7.799-10.056,8.082
					l-9.934,0.595c-55.85,3.018-78.636,27.166-78.657,83.338c-0.007,14.148,0.123,28.311,0.254,42.474
					c0.293,32.062,0.595,65.228-0.74,97.914c-1.166,28.609,10.16,45.806,36.724,55.767c16.808,6.297,23.896,16.781,23.701,35.045
					c-0.294,27.099-0.247,54.685-0.204,81.364c0.063,34.311,0.124,69.799-0.544,104.742c-0.161,8.547,1.353,10.114,1.368,10.129
					c0.014,0.021,1.571,1.407,10.205,1.001c27.63-1.35,55.411-1.358,82.562,0.007c6.32,0.283,7.902-0.776,7.912-0.798
					c0.029-0.036,1.24-1.559,1.157-9.41c-0.326-31.656-0.3-63.82-0.28-94.918c0.026-30.372,0.048-60.745-0.242-91.109
					c-0.127-13.242,2.605-27.76,23.817-35.037c25.848-8.88,37.402-25.54,37.467-54.01c0.044-19.511,0.019-39.029-0.007-58.539
					c-0.039-31.889-0.083-63.777,0.178-95.665c0.137-16.941-5.337-31.721-17.221-46.515c-16.195-20.156-38.306-28.181-69.548-25.3
					c-5.044,0.529-9.842-2.569-11.54-7.394c-1.694-4.818,0.101-10.172,4.365-12.995c46.211-30.575,46.261-55.817,40.217-76.48
					c-6.882-23.502-30.876-41.509-55.807-41.887C591.895,477.571,591.638,477.571,591.384,477.571z"/>
				<g>
					<path fill="#2A1540" d="M590.206,193.172c-0.161,0-0.31,0.041-0.469,0.047c-0.159-0.006-0.307-0.047-0.467-0.047
						c-191.965,0-477.558,26.64-477.558,100.037v436.865c0,2.14,0.624,4.12,1.646,5.833
						c10.971,49.361,159.839,73.218,249.976,83.179c0.414,0.044,0.831,0.066,1.242,0.068l0.016,0.001l0.003-0.001l0.007,0.001
						c0.757,0,1.493-0.082,2.211-0.224c0.254-0.049,0.488-0.143,0.735-0.21c0.452-0.12,0.905-0.239,1.335-0.414
						c0.286-0.116,0.549-0.269,0.823-0.407c0.365-0.182,0.728-0.36,1.069-0.58c0.266-0.171,0.507-0.37,0.756-0.561
						c0.318-0.242,0.63-0.484,0.921-0.759c0.225-0.214,0.427-0.445,0.635-0.676c0.27-0.3,0.531-0.604,0.768-0.931
						c0.183-0.252,0.344-0.515,0.507-0.782c0.209-0.346,0.404-0.695,0.577-1.063c0.136-0.291,0.256-0.59,0.369-0.894
						c0.138-0.375,0.256-0.755,0.355-1.148c0.082-0.327,0.151-0.653,0.206-0.99c0.03-0.189,0.094-0.368,0.115-0.563
						c0.025-0.222-0.006-0.432,0.007-0.652c0.01-0.206,0.061-0.399,0.061-0.606V662.948c31.223-3.094,64.283-5.479,98.359-7.153
						c3.297-9.027,7.933-17.336,14.942-23.612c-39.312,1.655-77.474,4.231-113.301,7.736V370.826c0-0.19-0.047-0.369-0.057-0.557
						c-0.019-0.394-0.057-0.78-0.116-1.166c-0.057-0.376-0.129-0.745-0.222-1.111c-0.089-0.35-0.197-0.692-0.319-1.03
						c-0.134-0.37-0.279-0.73-0.449-1.083c-0.149-0.307-0.311-0.602-0.485-0.892c-0.206-0.344-0.419-0.675-0.658-0.993
						c-0.201-0.267-0.414-0.52-0.635-0.77c-0.266-0.297-0.539-0.578-0.833-0.848c-0.247-0.227-0.507-0.435-0.775-0.64
						c-0.319-0.242-0.645-0.469-0.988-0.679c-0.283-0.171-0.573-0.326-0.873-0.472c-0.375-0.187-0.756-0.351-1.154-0.496
						c-0.303-0.109-0.61-0.202-0.924-0.287c-0.425-0.114-0.857-0.204-1.299-0.269c-0.162-0.025-0.312-0.082-0.479-0.099
						c-168.397-17.642-231.153-49.984-231.153-66.225c0-10.104,26.789-32.291,127.197-51.373
						c87.351-16.6,203.637-25.742,327.439-25.742c0.16,0,0.308-0.04,0.467-0.047c0.159,0.007,0.308,0.047,0.469,0.047
						c123.802,0,240.087,9.142,327.438,25.742c100.406,19.082,127.196,41.269,127.196,51.373c0,16.241-62.754,48.586-231.152,66.225
						c-0.166,0.017-0.315,0.074-0.479,0.099c-0.443,0.066-0.873,0.155-1.298,0.269c-0.315,0.085-0.623,0.177-0.925,0.287
						c-0.396,0.145-0.778,0.309-1.152,0.496c-0.3,0.146-0.591,0.301-0.874,0.472c-0.344,0.21-0.669,0.437-0.988,0.679
						c-0.269,0.204-0.527,0.413-0.775,0.64c-0.294,0.27-0.568,0.551-0.833,0.848c-0.222,0.251-0.435,0.503-0.635,0.77
						c-0.237,0.319-0.452,0.65-0.657,0.993c-0.174,0.29-0.337,0.585-0.485,0.893c-0.168,0.352-0.314,0.71-0.447,1.081
						c-0.123,0.339-0.23,0.68-0.32,1.031c-0.093,0.365-0.164,0.734-0.222,1.11c-0.059,0.385-0.098,0.772-0.117,1.166
						c-0.009,0.188-0.056,0.367-0.056,0.557v269.09c-34.24-3.348-70.603-5.86-108.072-7.521c3.017,7.872,6.471,15.557,9.532,23.39
						c34.141,1.675,67.263,4.063,98.54,7.163v144.747c0,0.207,0.05,0.4,0.061,0.606c0.011,0.22-0.019,0.43,0.006,0.652
						c0.022,0.195,0.085,0.374,0.116,0.563c0.055,0.337,0.122,0.663,0.204,0.989c0.1,0.395,0.218,0.777,0.358,1.152
						c0.112,0.302,0.23,0.6,0.367,0.89c0.172,0.369,0.368,0.719,0.578,1.065c0.162,0.267,0.323,0.529,0.505,0.782
						c0.237,0.327,0.499,0.631,0.768,0.931c0.208,0.231,0.41,0.462,0.635,0.676c0.292,0.275,0.604,0.517,0.921,0.759
						c0.25,0.191,0.49,0.39,0.756,0.561c0.342,0.22,0.707,0.399,1.072,0.581c0.273,0.138,0.535,0.291,0.821,0.406
						c0.43,0.175,0.883,0.294,1.335,0.415c0.247,0.066,0.48,0.159,0.733,0.209c0.718,0.142,1.456,0.224,2.21,0.224l0.008-0.001
						l0.005,0.001c0.004,0,0.01-0.001,0.01-0.001c0.417-0.002,0.833-0.024,1.248-0.068c90.135-9.961,239.003-33.817,249.976-83.179
						c1.02-1.713,1.645-3.693,1.645-5.833V293.209C1067.763,219.812,782.171,193.172,590.206,193.172z M353.131,381.119v413.718
						c-149.915-17.807-217.56-48.292-217.56-64.764c0-1.609-0.337-3.137-0.937-4.526V326.598
						C179.576,356.912,281.25,373.13,353.131,381.119z M1044.841,725.548c-0.599,1.389-0.935,2.916-0.935,4.526
						c0,16.472-67.645,46.956-217.56,64.764V381.119c71.88-7.989,173.554-24.206,218.495-54.519V725.548z"/>
				</g>
				<path fill="#2A1540" d="M653.107,545.375H526.37c-6.156,0-11.145-4.992-11.145-11.144c0-6.153,4.989-11.145,11.145-11.145
					h126.737c6.157,0,11.145,4.992,11.145,11.145C664.252,540.383,659.264,545.375,653.107,545.375z"/>
				<path fill="#2A1540" d="M909.325,1150H270.152c-6.157,0-11.144-4.992-11.144-11.145c0-6.153,4.987-11.144,11.144-11.144h639.173
					c6.156,0,11.144,4.992,11.144,11.144C920.469,1145.008,915.481,1150,909.325,1150z"/>
			</g>
		</g>
	</g>
</g>
</svg>
