<?xml version="1.0" encoding="utf-8"?>
<!-- Generator: Adobe Illustrator 19.1.0, SVG Export Plug-In . SVG Version: 6.00 Build 0)  -->
<svg version="1.1" id="Layer_1" xmlns="http://www.w3.org/2000/svg" xmlns:xlink="http://www.w3.org/1999/xlink" x="0px" y="0px"
	 viewBox="0 0 1200 1200" enable-background="new 0 0 1200 1200" xml:space="preserve">
<g>
	<circle fill="#2A1540" cx="600" cy="600" r="550"/>
	<g>
		<g>
			<path fill="#C4E9FB" d="M643.931,402.268c-2.062,0-4.122-0.78-5.696-2.342l-50.739-50.344l-50.739,50.344
				c-3.147,3.123-8.245,3.123-11.392,0c-3.147-3.122-3.147-8.18,0-11.303l56.435-55.995c3.021-2.998,8.371-2.998,11.393,0
				l56.435,55.995c3.147,3.123,3.147,8.181,0,11.303C648.054,401.488,645.992,402.268,643.931,402.268z"/>
			<path fill="#C4E9FB" d="M587.496,872.547c-2.137,0-4.186-0.843-5.696-2.342l-56.435-55.995c-3.147-3.122-3.147-8.181,0-11.303
				c3.148-3.122,8.246-3.122,11.392,0l50.739,50.344l50.739-50.344c3.147-3.122,8.245-3.122,11.393,0
				c3.147,3.122,3.147,8.181,0,11.303l-56.435,55.995C591.681,871.704,589.633,872.547,587.496,872.547z"/>
		</g>
		<g>
			<path fill="#C4E9FB" d="M877.249,665.405c-2.061,0-4.123-0.781-5.697-2.342c-3.146-3.122-3.146-8.18,0-11.303l50.74-50.343
				l-50.74-50.339c-3.146-3.122-3.146-8.181,0-11.303c3.148-3.123,8.246-3.123,11.393,0l56.435,55.99
				c1.511,1.499,2.361,3.533,2.361,5.652c0,2.118-0.849,4.152-2.361,5.651l-56.435,55.996
				C881.371,664.624,879.31,665.405,877.249,665.405z"/>
			<path fill="#C4E9FB" d="M297.746,665.405c-2.062,0-4.123-0.781-5.696-2.342l-56.435-55.996c-1.511-1.498-2.361-3.533-2.361-5.651
				c0-2.119,0.849-4.153,2.361-5.652l56.435-55.99c3.147-3.123,8.245-3.123,11.393,0c3.146,3.122,3.146,8.18,0,11.303l-50.74,50.339
				l50.74,50.343c3.146,3.123,3.146,8.181,0,11.303C301.868,664.624,299.807,665.405,297.746,665.405z"/>
		</g>
		<g>
			<path fill="#C4E9FB" d="M848.181,684.696c-0.302-1.979-3.371-26.153-3.549-27.914c-8.121-80.072,1.359-160.363,28.486-239.926
				c0.951-2.79,0.365-5.869-1.549-8.123c-1.911-2.254-4.864-3.362-7.803-2.896c-183.317,28.439-369.219,28.439-552.536,0
				c-2.937-0.467-5.894,0.646-7.804,2.896c-1.913,2.254-2.5,5.333-1.549,8.123c27.088,79.452,36.581,159.629,28.52,239.592
				c-0.189,1.872-3.281,26.269-3.583,28.248c-5.165,33.842-13.463,67.628-24.937,101.281c-0.951,2.791-0.365,5.87,1.549,8.124
				c1.911,2.252,4.88,3.359,7.804,2.894c183.313-28.445,369.215-28.445,552.536,0c0.437,0.069,0.876,0.101,1.313,0.101
				c2.48,0,4.864-1.082,6.49-2.996c1.914-2.254,2.501-5.334,1.549-8.124C861.643,752.324,853.346,718.539,848.181,684.696z
				 M587.497,758.82c-88.597,0-177.197,6.488-265.233,19.47c9.864-31.115,17.105-62.331,21.742-93.595
				c0.23-1.55,3.095-24.602,3.258-26.207c7.927-78.057-0.39-156.316-25-233.943c176.069,25.958,354.389,25.958,530.464,0
				c-24.466,77.171-32.829,154.965-25.138,232.565c0.205,2.064,3.336,27.209,3.66,29.345c4.645,30.676,11.8,61.304,21.478,91.835
				C764.693,765.307,676.094,758.82,587.497,758.82z"/>
			<path fill="#C4E9FB" d="M672.322,581.783c-3.256-2.807-8.116-2.748-11.297,0.138l-54.303,49.244l-53.536-47.156
				c-3.225-2.845-8.081-2.839-11.296,0.02l-96.843,85.968c-3.493,3.102-3.792,8.425-0.667,11.893
				c3.125,3.464,8.492,3.76,11.987,0.661l91.204-80.963l91.942,80.982c1.617,1.424,3.628,2.126,5.633,2.126
				c2.342,0,4.673-0.958,6.351-2.83c3.112-3.481,2.794-8.804-0.714-11.89l-31.296-27.566l47.403-42.991l55.481,47.87
				c1.608,1.385,3.591,2.066,5.568,2.066c2.371,0,4.73-0.98,6.409-2.895c3.075-3.51,2.701-8.83-0.836-11.884L672.322,581.783z"/>
			<path fill="#C4E9FB" d="M668.239,558.993c21.366,0,38.751-17.246,38.751-38.446c0-21.201-17.384-38.447-38.751-38.447
				s-38.751,17.246-38.751,38.447C629.488,541.747,646.873,558.993,668.239,558.993z M668.239,498.944
				c12.005,0,21.772,9.689,21.772,21.602c0,11.913-9.767,21.602-21.772,21.602c-12.006,0-21.773-9.689-21.773-21.602
				C646.466,508.633,656.233,498.944,668.239,498.944z"/>
		</g>
	</g>
</g>
</svg>
