<?xml version="1.0" encoding="utf-8"?>
<!-- Generator: Adobe Illustrator 19.1.0, SVG Export Plug-In . SVG Version: 6.00 Build 0)  -->
<svg version="1.1" id="Layer_1" xmlns="http://www.w3.org/2000/svg" xmlns:xlink="http://www.w3.org/1999/xlink" x="0px" y="0px"
	 viewBox="0 0 1200 1200" enable-background="new 0 0 1200 1200" xml:space="preserve">
<g>
	<circle fill="#2A1540" cx="600" cy="600" r="550"/>
	<g>
		<g>
			<path fill="#C4E9FB" d="M588.027,752.755c-113.038,0-219.493-54.856-284.77-146.733c-1.967-2.763-1.967-6.448,0-9.211
				c65.277-91.877,171.732-146.732,284.77-146.732c113.034,0,219.489,54.855,284.77,146.732c1.967,2.764,1.967,6.448,0,9.211
				C807.516,697.899,701.061,752.755,588.027,752.755z M319.759,601.417c62.512,84.861,162.363,135.351,268.268,135.351
				c105.9,0,205.752-50.49,268.269-135.351c-62.517-84.862-162.368-135.352-268.269-135.352
				C482.122,466.065,382.271,516.555,319.759,601.417z"/>
			<path fill="#C4E9FB" d="M588.027,684.364c-46.099,0-83.602-37.209-83.602-82.947s37.503-82.948,83.602-82.948
				c46.1,0,83.603,37.209,83.603,82.948S634.127,684.364,588.027,684.364z M588.027,534.456c-37.214,0-67.49,30.038-67.49,66.961
				c0,36.923,30.276,66.959,67.49,66.959c37.215,0,67.49-30.037,67.49-66.959C655.517,564.495,625.242,534.456,588.027,534.456z"/>
		</g>
		<g>
			<g>
				<line fill="#C4E9FB" x1="849.031" y1="342.458" x2="327.02" y2="860.375"/>
				<path fill="#C4E9FB" d="M327.018,868.368c-2.062,0-4.123-0.781-5.696-2.342c-3.147-3.122-3.147-8.18,0-11.303l522.013-517.916
					c3.147-3.122,8.245-3.122,11.392,0c3.147,3.122,3.147,8.18,0,11.303L332.714,866.025
					C331.141,867.587,329.08,868.368,327.018,868.368z"/>
			</g>
			<g>
				<line fill="#C4E9FB" x1="327.02" y1="342.458" x2="849.031" y2="860.375"/>
				<path fill="#C4E9FB" d="M849.031,868.368c-2.061,0-4.123-0.781-5.696-2.342L321.322,348.11c-3.147-3.123-3.147-8.182,0-11.303
					c3.147-3.122,8.245-3.122,11.392,0l522.014,517.916c3.147,3.122,3.147,8.181,0,11.303
					C853.154,867.587,851.093,868.368,849.031,868.368z"/>
			</g>
		</g>
	</g>
</g>
</svg>
