<?xml version="1.0" encoding="utf-8"?>
<!-- Generator: Adobe Illustrator 19.1.0, SVG Export Plug-In . SVG Version: 6.00 Build 0)  -->
<svg version="1.1" id="Layer_1" xmlns="http://www.w3.org/2000/svg" xmlns:xlink="http://www.w3.org/1999/xlink" x="0px" y="0px"
	 viewBox="0 0 1200 1200" enable-background="new 0 0 1200 1200" xml:space="preserve">
<g>
	<circle fill="#2A1540" cx="600" cy="600" r="550"/>
	<g>
		<g>
			<path fill="#C4E9FB" d="M910.602,382.062c-0.147-0.466-0.328-0.911-0.55-1.338c-0.091-0.174-0.178-0.344-0.28-0.511
				c-0.293-0.477-0.626-0.922-1.006-1.331c-0.064-0.07-0.114-0.15-0.181-0.217c-0.461-0.465-0.984-0.864-1.544-1.213
				c-0.051-0.032-0.088-0.079-0.14-0.11L656.261,228.253c-2.686-1.599-6.042-1.599-8.728,0L444.442,349.062
				c-4.021,2.392-5.328,7.567-2.917,11.554c2.411,3.991,7.623,5.287,11.646,2.896l198.726-118.213l234.131,139.269L652.082,523.726
				l-68.203-44.07v-71.071c0-15.825-12.978-28.702-28.932-28.702h-223.46c-15.952,0-28.93,12.877-28.93,28.702v482.761
				c0,15.824,12.978,28.701,28.93,28.701h223.46c15.953,0,28.932-12.877,28.932-28.701v-90.673l63.608,38.363
				c1.356,0.815,2.881,1.224,4.41,1.224c1.512,0,3.021-0.399,4.364-1.198l250.641-149.092c0.052-0.032,0.089-0.079,0.14-0.111
				c0.56-0.35,1.083-0.748,1.544-1.213c0.066-0.068,0.116-0.148,0.181-0.217c0.379-0.409,0.713-0.854,1.006-1.331
				c0.102-0.167,0.19-0.338,0.28-0.511c0.222-0.426,0.402-0.872,0.55-1.337c0.056-0.177,0.12-0.346,0.165-0.527
				c0.155-0.638,0.26-1.294,0.26-1.978V384.567c0-0.685-0.105-1.341-0.26-1.978C910.722,382.408,910.658,382.239,910.602,382.062z
				 M894.049,399.437v268.438L668.407,533.655L894.049,399.437z M554.948,903.203h-223.46c-6.591,0-11.952-5.32-11.952-11.857
				v-59.414h247.367v59.414C566.902,897.883,561.54,903.203,554.948,903.203z M331.488,396.727h223.46
				c6.592,0,11.955,5.32,11.955,11.857v27.665H319.535v-27.665C319.535,402.047,324.897,396.727,331.488,396.727z M566.902,815.087
				H319.535V453.093h247.367V815.087z M651.927,821.999l-68.047-41.043V499.756l52.006,33.603l-33.709,20.052
				c-4.022,2.392-5.328,7.568-2.918,11.555c2.414,3.991,7.627,5.288,11.646,2.896l40.992-24.385l234.131,139.268L651.927,821.999z"
				/>
			<path fill="#C4E9FB" d="M480.982,856.715h-75.525c-4.689,0-8.489,3.77-8.489,8.422c0,4.651,3.8,8.422,8.489,8.422h75.525
				c4.688,0,8.489-3.771,8.489-8.422C489.471,860.485,485.671,856.715,480.982,856.715z"/>
			<path fill="#C4E9FB" d="M392.814,685.639c0.02,0.503,0.085,0.999,0.197,1.497c0.043,0.189,0.082,0.375,0.138,0.559
				c0.147,0.491,0.349,0.97,0.593,1.441c0.067,0.128,0.112,0.265,0.186,0.39c0.02,0.034,0.03,0.072,0.05,0.107
				c0.147,0.242,0.351,0.422,0.517,0.644c0.253,0.338,0.488,0.686,0.79,0.985c0.286,0.281,0.612,0.495,0.93,0.73
				c0.233,0.173,0.428,0.385,0.681,0.536l141.598,84.226c1.367,0.813,2.873,1.197,4.358,1.197c2.881,0,5.696-1.457,7.288-4.092
				c2.411-3.988,1.104-9.162-2.918-11.555l-129.454-77.002l129.454-77.003c4.022-2.392,5.328-7.566,2.918-11.554
				c-2.411-3.99-7.627-5.287-11.646-2.895l-128.745,76.581V477.976c0-4.653-3.801-8.423-8.489-8.423
				c-4.689,0-8.489,3.77-8.489,8.423v207.327C392.77,685.418,392.81,685.525,392.814,685.639z"/>
		</g>
	</g>
</g>
</svg>
