<?xml version="1.0" encoding="utf-8"?>
<!-- Generator: Adobe Illustrator 19.1.0, SVG Export Plug-In . SVG Version: 6.00 Build 0)  -->
<svg version="1.1" id="Layer_1" xmlns="http://www.w3.org/2000/svg" xmlns:xlink="http://www.w3.org/1999/xlink" x="0px" y="0px"
	 viewBox="0 0 1200 1200" enable-background="new 0 0 1200 1200" xml:space="preserve">
<g>
	<circle fill="#2A1540" cx="600" cy="600" r="550"/>
	<g>
		<g>
			<g>
				<g>
					<path fill="#C4E9FB" d="M945.439,906.458H242.365c-14.791,0-24.967-4.486-28.651-12.635
						c-1.335-2.951-3.556-10.799,4.605-19.895l105.598-117.716c6.924-7.717,24.099-11.756,37.49-11.756h142.374
						c4.45,0,8.056,3.58,8.056,7.994c0,4.413-3.606,7.994-8.056,7.994H361.407c-11.851,0-23.168,3.85-25.453,6.396L230.357,884.553
						c-1.77,1.972-1.875,3.003-1.875,3.003c0.335,0.364,3.936,2.914,13.883,2.914h703.073c9.694,0,13.36-2.42,13.929-3.175
						c-0.103-0.031-0.386-1.03-1.92-2.743L851.847,766.839c-2.285-2.545-13.601-6.396-25.454-6.396H721.308
						c-4.45,0-8.056-3.58-8.056-7.994c0-4.414,3.606-7.994,8.056-7.994h105.085c13.39,0,30.568,4.038,37.491,11.756l105.602,117.716
						c8.161,9.096,5.937,16.939,4.605,19.89C970.404,901.972,960.23,906.458,945.439,906.458z"/>
					<path fill="#C4E9FB" d="M339.632,903.835c-1.388,0-2.796-0.354-4.078-1.104c-3.834-2.243-5.114-7.14-2.856-10.944
						l84.384-142.236c2.255-3.804,7.194-5.074,11.028-2.836c3.834,2.243,5.114,7.14,2.857,10.945l-84.385,142.236
						C345.081,902.429,342.394,903.835,339.632,903.835z"/>
					<path fill="#C4E9FB" d="M894.38,903.835c-2.55,0-5.057-1.197-6.623-3.43l-99.722-142.236c-2.542-3.622-1.64-8.608,2.013-11.126
						c3.65-2.524,8.67-1.624,11.214,1.998l99.724,142.237c2.541,3.622,1.639,8.608-2.015,11.126
						C897.572,903.372,895.967,903.835,894.38,903.835z"/>
					<path fill="#C4E9FB" d="M315.378,847.885c-1.668,0-3.352-0.51-4.794-1.571c-3.575-2.633-4.322-7.64-1.673-11.183l40.629-54.357
						c2.654-3.539,7.702-4.288,11.272-1.66c3.575,2.633,4.321,7.639,1.673,11.183l-40.629,54.357
						C320.274,846.767,317.841,847.885,315.378,847.885z"/>
				</g>
				<path fill="#C4E9FB" d="M945.124,945.081H242.677c-16.713,0-30.308-13.488-30.308-30.073v-24.991
					c0-4.413,3.606-7.993,8.056-7.993c4.45,0,8.057,3.58,8.057,7.993v24.991c0,7.77,6.366,14.087,14.195,14.087h702.447
					c7.829,0,14.199-6.317,14.199-14.087v-24.991c0-4.413,3.606-7.993,8.057-7.993c4.451,0,8.057,3.58,8.057,7.993v24.991
					C975.436,931.593,961.838,945.081,945.124,945.081z"/>
			</g>
			<path fill="#C4E9FB" d="M602.039,821.241c-0.104,0-0.213,0-0.317-0.005c-3.074-0.12-5.812-1.967-7.052-4.762l-28.201-63.39
				c-124.89-19.338-218.513-127.53-218.513-253.499c0-141.508,116.035-256.637,258.664-256.637s258.665,115.129,258.665,256.637
				c0,127.468-94.985,235.914-221.621,253.947l-34.535,63.51C607.72,819.639,604.992,821.241,602.039,821.241z M606.62,258.935
				c-133.743,0-242.551,107.958-242.551,240.65c0,119.532,89.884,221.984,209.075,238.314c2.769,0.38,5.14,2.154,6.268,4.694
				l23.351,52.488l28.667-52.717c1.236-2.269,3.496-3.81,6.074-4.138c120.67-15.221,211.668-117.819,211.668-238.641
				C849.172,366.893,740.364,258.935,606.62,258.935z"/>
			<path fill="#C4E9FB" d="M601.805,853.214c-42.391,0-114.135-7.41-114.135-35.174c0-24.282,55.769-31.681,79.748-33.738
				c4.363-0.365,8.334,2.878,8.72,7.275c0.383,4.397-2.9,8.269-7.335,8.649c-46.646,4.002-63.997,14.581-65.038,17.98
				c1.686,5.173,33.328,19.02,98.04,19.02c64.712,0,96.354-13.848,98.04-19.354c-0.975-2.851-17.178-12.947-60.697-17.251
				c-4.427-0.437-7.658-4.351-7.217-8.743c0.443-4.398,4.385-7.681,8.817-7.161c28.079,2.773,75.191,10.793,75.191,33.321
				C715.94,845.804,644.197,853.214,601.805,853.214z"/>
		</g>
		<g>
			<path fill="#C4E9FB" d="M505.122,453.909c0.499-0.855,0.771-1.913,0.771-3.008c0-3.842-3.031-6.85-6.905-6.85h-60.363
				c-3.872,0-6.904,3.008-6.904,6.85s3.032,6.851,6.904,6.851h44.06l-28.327,28.909c-2.72,2.706-2.72,7.103,0.002,9.802l0.706,0.548
				c1.343,1.266,3.011,1.953,4.787,1.953c8.726,0,16.801,3.333,22.779,9.431c6.1,5.886,9.459,13.894,9.459,22.547
				c0,8.605-3.368,16.686-9.459,22.736c-6.184,5.959-14.338,9.242-22.963,9.242c-8.504,0-16.59-3.283-22.746-9.216
				c-1.353-1.347-3.253-2.127-5.094-2.044c-1.825,0.048-3.491,0.804-4.604,2.042c-1.356,1.342-2.103,3.185-2.052,5.052
				c0.047,1.806,0.807,3.457,2.034,4.545c8.593,8.709,20.119,13.505,32.462,13.505c12.096,0,23.991-4.917,32.616-13.469
				c8.775-8.523,13.609-20.027,13.609-32.393c0-12.299-4.76-23.796-13.406-32.373c-5.363-5.322-11.997-9.203-19.362-11.364
				l30.635-31.235C504.341,455.389,504.827,454.652,505.122,453.909z"/>
			<path fill="#C4E9FB" d="M581.664,457.745c3.669-0.279,6.547-3.366,6.54-7.2c-0.143-1.835-1.033-3.574-2.439-4.768
				c-1.317-1.119-2.955-1.66-4.539-1.535c-20.144,0.687-36.882,10.978-47.137,28.979c-8.077,13.864-12.64,32.339-12.851,52.047
				c0,2.996,0,5.825,0.366,8.499c0.789,24.133,20.524,43.038,44.93,43.038c24.879,0,45.12-19.997,45.12-44.578
				c0-24.585-20.241-44.585-45.12-44.585c-10.202,0-20.036,3.505-27.929,9.801c1.859-6.707,4.265-12.586,7.187-17.528
				C554.593,465.424,565.967,458.38,581.664,457.745z M535.528,534.794c-0.161-0.638-0.297-1.19-0.297-1.837v-0.73
				c0-17.131,14.043-31.068,31.303-31.068c17.47,0,31.687,13.937,31.687,31.068c0,17.131-14.216,31.067-31.687,31.067
				c-15.488,0-28.751-11.339-31.068-26.461c0.131-0.535,0.131-1.035,0.131-1.491L535.528,534.794z"/>
			<path fill="#C4E9FB" d="M672.113,576.805c12.998,0,25.141-7.248,34.219-20.442c8.337-12.608,12.927-28.92,12.927-45.933
				c0-16.937-4.587-33.311-12.959-46.167c-9.111-13.035-21.254-20.213-34.187-20.213c-12.935,0-25.078,7.178-34.219,20.255
				c-8.217,12.331-12.744,28.713-12.744,46.125c0,17.481,4.53,33.802,12.766,45.968
				C646.968,569.557,659.115,576.805,672.113,576.805z M638.766,510.43c0-14.515,3.83-28.544,10.523-38.505
				c6.109-9.258,14.216-14.357,22.824-14.357c8.56,0,16.456,4.974,22.833,14.374c6.794,10.116,10.693,24.145,10.693,38.488
				c0,14.347-3.896,28.374-10.666,38.443c-6.544,9.3-14.663,14.421-22.86,14.421c-8.375,0-16.488-5.114-22.835-14.38
				C642.596,538.976,638.766,524.95,638.766,510.43z"/>
			<path fill="#C4E9FB" d="M773.254,442.956c-16.069,0-30.165,13.556-30.165,29.011v0.365c0,15.455,14.096,29.011,30.165,29.011
				c16.066,0,30.159-13.556,30.159-29.011v-0.365C803.413,456.513,789.32,442.956,773.254,442.956z M773.254,488.745
				c-9.784,0-16.357-8.487-16.357-16.412v-0.365c0-7.926,6.573-16.413,16.357-16.413c9.784,0,16.357,8.487,16.357,16.413v0.365
				C789.612,480.258,783.038,488.745,773.254,488.745z"/>
		</g>
	</g>
</g>
</svg>
