<?xml version="1.0" encoding="utf-8"?>
<!-- Generator: Adobe Illustrator 19.1.0, SVG Export Plug-In . SVG Version: 6.00 Build 0)  -->
<svg version="1.1" id="Layer_1" xmlns="http://www.w3.org/2000/svg" xmlns:xlink="http://www.w3.org/1999/xlink" x="0px" y="0px"
	 viewBox="0 0 1200 1200" enable-background="new 0 0 1200 1200" xml:space="preserve">
<g>
	<circle fill="#FCD290" cx="600" cy="600" r="550"/>
	<g>
		<path fill="#FC523A" d="M349.583,182.555v-74.141c0,0,6.662-26.416,61.39-24.706c54.729,1.711,373.741,1.711,373.741,1.711
			s38.076,15.393,38.076,37.626s7.066,839.746,7.066,839.746s6.954,73.541-52.906,75.252c-59.859,1.71-386.466-1.711-386.466-1.711
			s-53.08-5.13-54.79-44.467C333.983,952.528,349.583,182.555,349.583,182.555z"/>
		<rect x="351.203" y="189.745" fill="#7FE2FF" width="472.036" height="692.662"/>
		<path fill="#FCAC6F" d="M771.425,882.125v90.498c-47.005-2.176-93.811,0.536-139.583,7.994
			c-15.771,2.57-26.467,17.438-23.897,33.2c2.317,14.19,14.585,24.285,28.512,24.275c1.545,0,3.117-0.123,4.69-0.377
			c51.223-8.343,103.904-10.131,156.578-5.33c8.05,0.764,16.13-1.958,22.128-7.438c6.006-5.48,9.425-13.239,9.425-21.365V882.125
			H771.425z"/>
		<path fill="#FFFFFF" d="M671.879,134.571c20.112,5.866,40.282,11.539,60.461,17.211c13.032,3.663,26.063,7.331,39.086,11.046
			v714.745h57.852V141.067c0-12.857-8.484-24.17-20.829-27.768c-20.112-5.866-40.281-11.539-60.46-17.212
			c-19.989-5.621-39.98-11.238-59.913-17.053c-15.368-4.501-31.393,4.341-35.867,19.67
			C647.737,114.039,656.541,130.097,671.879,134.571z"/>
		<path fill="#FCAC6F" d="M671.879,134.571c20.112,5.866,40.282,11.539,60.461,17.211c13.032,3.663,26.063,7.331,39.086,11.046
			V191.4h57.852v-50.333c0-12.857-8.484-24.17-20.829-27.768c-20.112-5.866-40.281-11.539-60.46-17.212
			c-19.989-5.621-39.98-11.238-59.913-17.053c-15.368-4.501-31.393,4.341-35.867,19.67
			C647.737,114.039,656.541,130.097,671.879,134.571z"/>
		<path fill="#2A1540" d="M653.092,937.21H517.506c-8.417,0-15.239,6.822-15.239,15.24c0,8.418,6.822,15.239,15.239,15.239h135.586
			c8.417,0,15.239-6.822,15.239-15.239C668.331,944.032,661.509,937.21,653.092,937.21z"/>
		<path fill="#2A1540" d="M837.812,266.479V126.38c0-28.639-23.298-51.938-51.937-51.938H384.724
			c-28.639,0-51.937,23.299-51.937,51.938V356.48C157.475,437.919,59.033,554.406,81.514,654.907
			c0.742,3.321,2.541,6.115,4.937,8.18c-0.874,3.034-0.862,6.35,0.331,9.536c6.858,18.323,17.859,35.484,32.681,50.997
			c2.994,3.131,7.008,4.708,11.019,4.708c3.786,0,7.577-1.398,10.531-4.22c6.083-5.817,6.303-15.466,0.487-21.549
			c-11.965-12.513-20.768-26.18-26.18-40.628c-0.931-2.483-2.484-4.524-4.361-6.14c0.691-2.383,0.875-4.946,0.295-7.538
			C92.545,564.589,178.998,464.705,332.787,390.2v390.854c-0.387-0.052-0.783-0.092-1.167-0.144
			c-18.229-2.519-35.885-5.799-52.475-9.745c-8.233-1.977-16.412,3.107-18.353,11.292c-1.952,8.191,3.108,16.405,11.294,18.352
			c17.543,4.18,36.163,7.638,55.354,10.293c1.76,0.243,3.577,0.408,5.347,0.638v188.125c0,28.639,23.297,51.937,51.937,51.937
			h401.151c28.639,0,51.937-23.298,51.937-51.937v-254.01l25.788-19.485c5.239-3.958,7.351-10.822,5.256-17.036
			c-2.096-6.197-7.906-10.365-14.441-10.365h-0.06l-16.544,0.069V297.135c134.778,14.407,223.92,64.314,239.737,135.014
			c16.489,73.754-48.741,160.944-174.5,233.241c-7.298,4.19-9.811,13.506-5.612,20.805c2.815,4.906,7.946,7.643,13.219,7.643
			c2.579,0,5.193-0.649,7.585-2.03c137.936-79.291,208.609-178.845,189.047-266.314C1088.363,340.85,988.047,281.92,837.812,266.479
			z M785.875,1021.323H384.724c-11.835,0-21.46-9.626-21.46-21.459V892.363h444.071v107.501
			C807.335,1011.697,797.708,1021.323,785.875,1021.323z M363.264,861.885v-46.887c22.294,1.927,45.15,2.991,68.582,2.991
			c69.708,0,143.867-8.5,219.02-25.311c23.395-5.231,46.421-11.288,69.066-17.939l8.171,28.107c1.399,4.81,5.079,8.631,9.835,10.208
			c1.565,0.519,3.184,0.775,4.798,0.775c3.273,0,6.506-1.055,9.185-3.077l55.414-41.869v93.003H363.264z M718.306,699.522
			c-4.787,0.018-9.281,2.286-12.144,6.114c-2.869,3.834-3.769,8.787-2.429,13.382l7.691,26.457
			c-22.03,6.474-44.438,12.368-67.213,17.463c-98.4,22.005-194.778,29.319-280.947,21.533V206.908h444.071v492.254L718.306,699.522z
			 M384.724,104.919h401.151c11.833,0,21.46,9.626,21.46,21.46v50.051H363.264V126.38
			C363.264,114.545,372.889,104.919,384.724,104.919z"/>
		<path fill="#2A1540" d="M228.477,755.878c-17.342-6.506-33.182-13.995-47.081-22.262c-7.238-4.299-16.592-1.936-20.888,5.303
			c-4.304,7.238-1.929,16.59,5.304,20.888c15.448,9.19,32.93,17.465,51.962,24.608c1.762,0.662,3.571,0.975,5.351,0.975
			c6.168,0,11.972-3.774,14.269-9.892C240.351,767.623,236.358,758.836,228.477,755.878z"/>
	</g>
</g>
</svg>
