<?xml version="1.0" encoding="utf-8"?>
<!-- Generator: Adobe Illustrator 19.1.0, SVG Export Plug-In . SVG Version: 6.00 Build 0)  -->
<svg version="1.1" id="Layer_1" xmlns="http://www.w3.org/2000/svg" xmlns:xlink="http://www.w3.org/1999/xlink" x="0px" y="0px"
	 viewBox="0 0 1200 1200" enable-background="new 0 0 1200 1200" xml:space="preserve">
<g>
	<circle fill="#2A1540" cx="600" cy="600" r="550"/>
	<g>
		<g>
			<path fill="#C4E9FB" d="M298.373,969.803c-3.474,0-6.823-1.887-8.513-5.173c-2.392-4.655-0.522-10.358,4.176-12.739
				c14.946-7.559,30.041-15.42,44.861-23.374c7.128-3.828,14.76-5.29,23.193-4.421c10.148,1.005,20.315,1.93,30.493,2.682
				c33.745,2.485,61.784-2.854,85.696-16.339c7.191-4.051,14.412-8.052,21.626-12.053c11.672-6.468,23.341-12.936,34.888-19.626
				c12.062-6.979,24.136-14.551,35.813-21.876l4.997-3.132c2.678-1.678,6.027-4.495,6.742-8.361
				c0.703-3.767-1.329-7.435-3.163-9.853c-2.939-3.885-6.102-7.608-9.266-11.338c-1.541-1.819-3.082-3.631-4.604-5.468
				c-2.567-3.101-2.883-7.479-0.789-10.914c21.657-35.532,10.899-48.455-7.979-64.115c-3.207-2.658-4.295-7.072-2.691-10.902
				l2.449-5.802c5.661-13.465,4.66-23.62-3.245-32.924c-3.728-4.397-7.475-8.768-11.422-13.368l-6.338-7.398
				c-1.821-2.128-2.604-4.944-2.138-7.701c0.466-2.749,2.131-5.16,4.555-6.578l2.897-1.733c2.137-1.295,4.15-2.503,6.232-3.588
				l24.659-12.887c25.51-13.33,42.283-22.092,74.877-38.986c8.309-4.309,11.646-9.84,11.156-18.491
				c-0.411-7.386-8.08-17.393-15.188-19.822c-7.737-2.658-15.293-1.56-25.287,3.65c-46.364,24.2-76.933,40.138-116.295,60.652
				l-39.057,20.328c-1.293,0.653-2.592,1.313-3.866,2.004c-5.033,2.725-12.703,4.328-20.737-3.508
				c-6.178-6.036-12.249-11.807-18.755-16.191c-11.639-7.836-22.34-9.426-32.718-4.895c-7.781,3.396-15.554,7.935-23.117,13.49
				c-21.415,15.74-41.252,35.675-62.43,62.735c-11.347,14.508-23.87,31.685-28.698,51.945c-2.038,8.558-6.818,15.082-14.604,19.94
				c-14.697,9.151-30.32,18.904-45.557,28.733c-4.413,2.849-10.335,1.609-13.206-2.78c-2.871-4.384-1.616-10.253,2.803-13.103
				c15.356-9.902,31.047-19.699,45.806-28.886c3.605-2.25,5.283-4.488,6.177-8.262c5.718-23.96,19.619-43.122,32.204-59.202
				c22.272-28.462,43.288-49.541,66.144-66.336c8.701-6.395,17.712-11.647,26.785-15.611c16.418-7.164,34.086-4.908,51.132,6.56
				c7.687,5.18,14.355,11.457,21.042,17.991c1-0.524,1.964-1.011,2.927-1.498l2.461-1.258l36.385-18.958
				c39.363-20.52,69.931-36.452,116.29-60.646c9.253-4.834,23.522-10.592,40.4-4.797c14.597,4.994,27.169,21.443,28.027,36.672
				c0.901,16.049-6.494,28.616-21.384,36.334c-32.568,16.876-49.323,25.637-74.821,38.954l-23.149,12.098
				c3.574,4.174,7.005,8.176,10.416,12.196c12.454,14.662,14.629,32.135,6.457,51.933c21.365,19.545,30.332,41.322,10.166,77.916
				c0.075,0.093,0.155,0.191,0.237,0.283c3.306,3.897,6.724,7.922,9.93,12.165c5.91,7.805,8.216,16.332,6.674,24.65
				c-1.56,8.397-6.86,15.636-15.33,20.95l-4.983,3.127c-11.82,7.41-24.044,15.081-36.398,22.227
				c-11.646,6.744-23.422,13.268-35.198,19.798c-7.178,3.982-14.355,7.959-21.501,11.992c-27.319,15.396-58.85,21.536-96.547,18.755
				c-10.341-0.764-20.67-1.701-30.985-2.731c-4.692-0.462-8.445,0.222-12.199,2.238c-14.958,8.028-30.196,15.963-45.284,23.596
				C301.312,969.47,299.833,969.803,298.373,969.803z"/>
			<path fill="#C4E9FB" d="M499.402,699.161c-3.431,0-6.749-1.843-8.458-5.068c-2.449-4.625-0.653-10.351,4.014-12.787
				l43.178-22.511c4.642-2.442,10.427-0.654,12.888,3.983c2.449,4.623,0.652,10.351-4.015,12.787l-43.176,22.511
				C502.422,698.816,500.899,699.161,499.402,699.161z"/>
			<path fill="#C4E9FB" d="M409.678,673.087c-3.43,0-6.749-1.844-8.458-5.068c-2.448-4.631-0.653-10.353,4.014-12.787l43.178-22.505
				c4.654-2.441,10.433-0.653,12.889,3.983c2.448,4.63,0.652,10.351-4.015,12.787l-43.178,22.504
				C412.693,672.742,411.176,673.087,409.678,673.087z"/>
			<path fill="#C4E9FB" d="M514.285,771.41c-3.43,0-6.749-1.842-8.458-5.068c-2.448-4.624-0.653-10.352,4.015-12.787l49.696-25.908
				c4.654-2.435,10.434-0.648,12.889,3.983c2.447,4.624,0.652,10.351-4.015,12.788l-49.696,25.907
				C517.299,771.066,515.782,771.41,514.285,771.41z"/>
			<path fill="#C4E9FB" d="M528.994,846.366c-3.431,0-6.749-1.844-8.457-5.069c-2.449-4.629-0.653-10.352,4.014-12.787
				l43.177-22.505c4.654-2.441,10.434-0.653,12.889,3.984c2.447,4.63,0.652,10.352-4.015,12.787l-43.178,22.504
				C532.008,846.02,530.492,846.366,528.994,846.366z"/>
		</g>
		<path fill="#C4E9FB" d="M547.805,567.315"/>
		<path fill="#C4E9FB" d="M627.094,673.741c-5.867,0-11.74-0.561-17.537-1.702c-5.17-1.024-8.532-6.005-7.508-11.135
			c1.032-5.13,6.115-8.434,11.224-7.449c16.207,3.188,32.519,0.845,47.185-6.8c16.915-8.817,29.356-23.646,35.037-41.748
			c5.674-18.108,3.909-37.321-4.985-54.11c-8.887-16.782-23.831-29.126-42.084-34.761c-18.252-5.63-37.615-3.885-54.537,4.945
			c-14.647,7.639-25.852,19.625-32.396,34.676c-2.087,4.803-7.712,7.016-12.54,4.944c-4.841-2.07-7.073-7.638-4.984-12.442
			c8.172-18.805,22.751-34.411,41.046-43.948c21.42-11.172,45.967-13.398,69.085-6.259c23.117,7.133,42.052,22.776,53.313,44.042
			c11.26,21.26,13.497,45.601,6.307,68.537c-7.19,22.937-22.956,41.724-44.389,52.895
			C656.27,670.233,641.716,673.741,627.094,673.741z"/>
		<path fill="#C4E9FB" d="M627.858,933.524c-18.792,0-37.683-1.498-56.564-4.526c-5.201-0.832-8.742-5.691-7.897-10.858
			c0.833-5.154,5.73-8.693,10.943-7.836c71.577,11.455,143.453-0.216,207.852-33.788c162.667-84.802,225.469-285.1,139.99-446.498
			c-85.478-161.392-287.345-223.708-450.018-138.893c-122.653,63.944-191.819,193.496-176.202,330.059
			c0.597,5.197-3.169,9.89-8.407,10.475c-5.245,0.605-9.962-3.145-10.558-8.342c-16.513-144.38,56.613-281.357,186.295-348.964
			c171.981-89.654,385.426-23.774,475.796,146.859c90.369,170.635,23.968,382.406-148.019,472.074
			C739.971,919.923,684.403,933.524,627.858,933.524z"/>
		<path fill="#C4E9FB" d="M372.823,579.889"/>
		<path fill="#C4E9FB" d="M632.028,845.639c-5.189,0-9.439-4.124-9.539-9.298c-0.093-5.228,4.102-9.544,9.371-9.643
			c38.293-0.696,75.026-10.074,109.18-27.881c57.88-30.174,100.455-80.906,119.875-142.852
			c19.427-61.946,13.374-127.684-17.046-185.117c-30.413-57.426-81.545-99.667-143.981-118.935
			c-62.442-19.286-128.699-13.269-186.58,16.912C434.02,410.16,383.845,491.096,382.366,580.041
			c-0.087,5.179-4.344,9.316-9.539,9.316c-0.056,0-0.111,0-0.162,0c-5.275-0.087-9.476-4.396-9.39-9.624
			c1.597-95.882,55.687-183.12,141.16-227.68c62.392-32.523,133.832-38.997,201.121-18.231
			c67.308,20.772,122.429,66.311,155.217,128.22c32.786,61.903,39.311,132.771,18.374,199.546
			c-20.936,66.779-66.836,121.469-129.234,153.999c-36.807,19.188-76.412,29.299-117.706,30.051
			C632.152,845.639,632.09,845.639,632.028,845.639z"/>
		<path fill="#C4E9FB" d="M465.651,597.329"/>
		<path fill="#C4E9FB" d="M627.318,754.11c-5.798,0-11.602-0.296-17.419-0.881c-5.245-0.53-9.061-5.179-8.526-10.384
			c0.535-5.204,5.226-8.915,10.465-8.459c29.792,3.034,59.64-2.731,86.28-16.615c74.441-38.814,103.184-130.479,64.064-204.337
			c-39.107-73.846-131.472-102.374-205.951-63.561c-54.382,28.349-86.2,85.918-81.066,146.668c0.441,5.21-3.462,9.791-8.718,10.229
			c-5.141,0.345-9.863-3.441-10.31-8.65c-5.773-68.346,30.034-133.123,91.22-165.018c83.757-43.666,187.71-11.579,231.726,71.528
			c44.011,83.1,11.671,186.239-72.086,229.911C682.222,747.45,654.971,754.11,627.318,754.11z"/>
	</g>
</g>
</svg>
