<?xml version="1.0" encoding="utf-8"?>
<!-- Generator: Adobe Illustrator 19.1.0, SVG Export Plug-In . SVG Version: 6.00 Build 0)  -->
<svg version="1.1" id="Layer_1" xmlns="http://www.w3.org/2000/svg" xmlns:xlink="http://www.w3.org/1999/xlink" x="0px" y="0px"
	 viewBox="0 0 1200 1200" enable-background="new 0 0 1200 1200" xml:space="preserve">
<g>
	<circle fill="#2A1540" cx="664.597" cy="606.888" r="485.403"/>
	<path fill="#278EB3" d="M567.825,796.531c0,0,7.836,111.658-143,176.302c99.904,54.849,156.713,90.109,266.411,82.274
		c109.699-7.836,258.575-86.192,258.575-86.192s-188.055-74.438-150.835-289.918C701.031,745.599,634.428,778.901,567.825,796.531z"
		/>
	<path fill="#7FE2FF" d="M898.88,457.641c1.959-5.877,48.973-331.055-240.945-342.808c-250.74-9.795-280.123,266.411-268.37,307.548
		C448.332,432.175,898.88,457.641,898.88,457.641z"/>
	<path fill="#7FE2FF" d="M385.648,512.49c0,0,1.959,215.48,33.301,250.74s27.425,70.521,148.876,33.301
		c121.452-37.219,262.493-137.123,286-199.808c43.096-31.342,74.438-101.863,39.178-129.288
		c-172.383-15.671-311.466-23.507-311.466-23.507l-84.233,52.89L385.648,512.49z"/>
	<path fill="#FCD290" d="M363.422,440.627c0,0,8.842,111.359,94.727,105.894c85.885-5.466,108-60.41,108-60.41h44.269
		c0,0,56.45-3.522,36.931-37.877C502.907,441.207,363.422,440.627,363.422,440.627z"/>
	<path fill="#FFFFFF" d="M867.875,457.108c-1.881,0-3.797-0.255-5.698-0.783c-11.258-3.138-17.844-14.809-14.703-26.071
		c14.193-50.946,9.736-107.763-12.229-155.88c-21.957-48.111-61.967-88.696-109.76-111.342
		c-10.57-5.006-15.074-17.624-10.066-28.189c5.009-10.566,17.659-15.062,28.186-10.063
		c56.675,26.853,104.112,74.971,130.155,132.018c26.043,57.051,31.32,124.412,14.489,184.818
		C885.644,450.976,877.134,457.108,867.875,457.108z"/>
	<path fill="#FFFFFF" d="M810.607,678.627c-2.059,0-4.161-0.302-6.235-0.944c-11.169-3.437-17.438-15.281-14-26.457
		c1.792-5.821,1.688-13.427,1.585-21.482c-0.048-3.645-0.089-7.282,0-10.899c0.565-22.875,7.716-39.919,21.242-50.661
		c8.068-6.4,16.948-9.232,24.087-11.505c2.514-0.8,5.05-1.579,7.461-2.598c11.5-4.857,19.649-17.92,18.96-30.383
		c-0.688-12.471-10.231-24.562-22.191-28.124c-11.21-3.334-17.583-15.116-14.249-26.319c3.335-11.203,15.123-17.586,26.319-14.252
		c29.164,8.684,50.708,35.968,52.382,66.359c1.689,30.369-16.707,59.858-44.743,71.708c-3.892,1.653-7.723,2.873-11.099,3.947
		c-4.437,1.412-8.625,2.742-10.609,4.32c-3.053,2.425-5.017,9.37-5.244,18.568c-0.076,3.087-0.034,6.181,0.007,9.273
		c0.145,10.459,0.296,22.316-3.453,34.505C828.031,672.778,819.653,678.627,810.607,678.627z"/>
	<path fill="#63EFFF" d="M890.472,990.285c-3.829,0-7.709-1.034-11.195-3.217c-53.424-33.388-81.065-88.114-94.845-128.143
		c-16.929-49.193-22.315-100.5-27.517-150.114c-1.22-11.63,7.213-22.041,18.836-23.26c11.671-1.255,22.048,7.213,23.26,18.836
		c4.962,47.263,10.086,96.133,25.451,140.759c11.554,33.566,34.331,79.204,77.247,106.026c9.915,6.194,12.925,19.25,6.731,29.164
		C904.425,986.758,897.527,990.285,890.472,990.285z"/>
	<path fill="#2A1540" d="M949.519,964.698c-54.598-24.976-100.054-70.706-124.712-125.457
		c-22.117-49.119-27.679-105.946-15.976-158.589c24.862-24,45.8-52.519,62.243-87.384c1.957-1.144,3.881-2.366,5.765-3.669
		c19.331-13.377,32.294-33.478,36.505-56.602c2.801-15.386,1.464-31.24-3.868-45.858c-1.231-3.372-2.678-6.605-4.309-9.696
		l11.479-59.912c26.953-140.706-67.74-277.518-211.086-304.98C562.238,85.094,423.657,177.216,396.7,317.918l-13.142,68.589
		c-0.052,0.261-0.091,0.518-0.121,0.779c-1.419,11.902-2.546,24.05-3.463,36.329l-12.824-0.438c-0.131-0.009-0.26-0.009-0.391-0.009
		c-5.941,0-10.872,4.682-11.134,10.663c-0.091,2.147-1.712,46.938,21.683,82.761c1.64,125.428,22.684,245.83,43.91,280.69
		c0.243,0.401,0.513,0.785,0.805,1.15c13.598,17.074,29.563,26.657,46.157,27.724c1.773,0.114,3.597,0.166,5.484,0.166
		c23.308,0,55.207-8.423,86.687-18.968c-2.253,13.956-5.959,26.792-11.194,38.42c-25.463,56.542-90.855,95.882-141.225,118.924
		c-4.124,1.886-6.694,6.085-6.502,10.619c0.196,4.53,3.114,8.494,7.387,10.019c25.075,8.968,47.555,20.04,71.354,31.762
		c53.937,26.556,109.677,54.01,194.826,54.01c1.202,0,2.413-0.008,3.628-0.017c1.22,0.009,2.426,0.017,3.637,0.017
		c85.332,0,141.086-27.454,195.018-54.01c23.799-11.722,46.28-22.794,71.354-31.762c4.273-1.524,7.191-5.489,7.387-10.019
		C956.214,970.782,953.644,966.584,949.519,964.698z M867.428,997.087c-53.989,26.587-105.02,51.719-185.291,51.719
		c-1.163,0-2.335-0.004-3.512-0.018c-1.18,0.014-2.338,0.018-3.506,0.018c-80.066,0-131.11-25.132-185.095-51.719
		c-16.055-7.906-32.488-16-49.746-23.338c49.337-25.538,104.811-64.639,129.212-118.819c7.498-16.652,12.263-35.31,14.393-55.831
		c18.97-6.938,36.932-14.09,51.717-19.988c6.734-2.683,12.737-5.079,17.775-7.026c48.782-18.854,92.248-40.26,129.028-68.642
		c-5.683,49.121,1.83,100.008,22.071,144.953c23.403,51.968,64.02,96.47,113.431,125.039
		C900.383,980.862,883.713,989.068,867.428,997.087z M439.917,785.1c-16.307-27.77-35.981-129.77-39.833-244.19
		c16.996,12.698,38.13,19.232,63.179,19.232c51.68,0,94.771-45.356,107.438-60.135l41.548,1.417
		c0.128,0.008,0.258,0.008,0.388,0.008c5.981,0,10.929-4.743,11.138-10.771c0.208-6.155-4.613-11.313-10.767-11.526l-47.037-1.602
		c-3.546-0.157-6.995,1.485-9.191,4.308c-0.436,0.561-44.097,56.001-93.517,56.001c-24.6,0-44.249-7.469-58.401-22.2
		c-20.454-21.304-25.455-53.118-26.63-69.77l411.149,14.066c-4.12,4.335-7.784,9.22-10.827,14.663
		c-11.557,20.677-13.869,45.835-6.887,74.779c1.446,5.985,7.47,9.644,13.459,8.223c5.985-1.446,9.666-7.47,8.224-13.459
		c-5.629-23.307-4.056-43.048,4.673-58.663c9.579-17.143,26.818-26.464,46.193-24.896c20.228,1.62,37.206,14.721,44.311,34.196
		c3.972,10.897,4.969,22.733,2.874,34.222c-3.141,17.262-12.819,32.271-27.249,42.254c-14.426,9.984-31.88,13.769-49.154,10.607
		c-6.063-1.101-11.866,2.913-12.972,8.972c-1.102,6.059,2.914,11.866,8.972,12.971c5.322,0.967,10.658,1.447,15.955,1.447
		c4.55,0,9.069-0.366,13.528-1.066c-41.884,73.666-108.434,113.582-195.147,147.094c-5.101,1.972-11.181,4.395-17.998,7.117
		c-41.971,16.738-120.077,47.965-157.728,45.499C456.477,803.059,445.532,792.012,439.917,785.1z M701.362,134.452
		c131.273,25.149,218.023,150.253,193.384,278.881l-7.952,41.502c-11.337-9.366-25.392-15.25-40.801-16.483
		c-5.685-0.455-11.278-0.203-16.711,0.64l-427.034-14.614c0.878-11.452,1.952-22.832,3.285-34.065l13.067-68.197
		C443.245,193.493,570.091,109.316,701.362,134.452z"/>
	<g>
		<path fill="#FC523A" d="M61.151,163.353c-6.16,0-11.151,4.991-11.151,11.149v612.341c0,6.158,4.991,11.15,11.151,11.15
			c6.159,0,11.15-4.992,11.15-11.15V174.502C72.301,168.343,67.31,163.353,61.151,163.353z"/>
		<path fill="#FC523A" d="M309.391,400.854c-6.16,0-11.151,4.992-11.151,11.15v137.335c0,6.159,4.991,11.151,11.151,11.151
			c6.159,0,11.15-4.992,11.15-11.151V412.004C320.541,405.846,315.549,400.854,309.391,400.854z"/>
		<path fill="#FC523A" d="M226.645,340.128c-6.159,0-11.15,4.991-11.15,11.15v258.789c0,6.158,4.991,11.151,11.15,11.151
			c6.159,0,11.151-4.992,11.151-11.151V351.278C237.796,345.119,232.804,340.128,226.645,340.128z"/>
		<path fill="#FC523A" d="M143.895,270.484c-6.159,0-11.15,4.992-11.15,11.151v398.08c0,6.159,4.991,11.151,11.15,11.151
			c6.159,0,11.151-4.991,11.151-11.151v-398.08C155.046,275.476,150.055,270.484,143.895,270.484z"/>
	</g>
</g>
</svg>
