<?xml version="1.0" encoding="utf-8"?>
<!-- Generator: Adobe Illustrator 19.1.0, SVG Export Plug-In . SVG Version: 6.00 Build 0)  -->
<svg version="1.1" id="Layer_1" xmlns="http://www.w3.org/2000/svg" xmlns:xlink="http://www.w3.org/1999/xlink" x="0px" y="0px"
	 viewBox="0 0 1200 1200" enable-background="new 0 0 1200 1200" xml:space="preserve">
<g>
	<circle fill="#FC523A" cx="595.968" cy="600" r="509.442"/>
	<path fill="#278EB3" d="M110.55,790.739L66.397,556.984c0,0-16.449-37.228,46.751-41.556c63.2-4.329,309.075-5.195,309.075-5.195
		s67.529,18.181,91.771,33.764c24.241,15.584,67.529,31.167,67.529,31.167l91.77-18.181c0,0,51.945-34.631,86.576-39.825
		c34.63-5.195,232.023-7.792,232.023-7.792s120.341-1.732,131.595,16.45c11.255,18.181,0,74.455,0,74.455
		s-32.033,190.467-32.033,193.93c0,3.463-4.329,28.57-48.483,31.167c-44.153,2.597-306.478-3.463-306.478-3.463
		s-27.704-5.195-45.019-39.825c-17.315-34.63-36.362-167.957-36.362-167.957l-24.242-3.463l-89.173,1.732l-17.315,31.167
		l-23.376,166.226c0,0-25.107,10.389-64.066,13.852c-38.959,3.463-290.03-4.329-290.03-4.329S127,814.114,110.55,790.739z"/>
	<path fill="#63EFFF" d="M98.165,641.848c7.545,0,173.55,2.156,173.55,2.156s92.705,17.247,91.626-43.118
		c-1.078-60.366-7.545-80.847-7.545-80.847l-233.916,2.156l-40.963,7.545l-4.312,53.898L98.165,641.848z"/>
	<path fill="#63EFFF" d="M882.158,830.418c-12.224,0-22.662-9.306-23.832-21.718c-1.24-13.176,8.432-24.862,21.609-26.103
		l142.522-13.426c2.765-0.265,9.198-0.866,10.86-1.871c1.119-1.179,2.562-5.954,4.123-14.066l41.109-213.986
		c2.499-12.996,15.072-21.445,28.057-19.011c12.997,2.496,21.512,15.057,19.016,28.06l-41.112,213.986
		c-2.235,11.616-5.975,31.056-22.561,43.461c-12.041,8.994-25.86,10.289-35.003,11.148l-142.508,13.418
		C883.672,830.386,882.911,830.418,882.158,830.418z"/>
	<path fill="#63EFFF" d="M300.019,817.255c-11.695-1.346-20.906-11.138-21.189-23.248c-0.307-13.228,10.168-24.21,23.4-24.518
		l116.568-2.728c9.286-0.212,21.995-0.507,27.635-5.034c6.57-5.267,8.424-19.761,9.643-32.94l16.182-175.042
		c1.219-13.178,12.889-22.877,26.07-21.657c12.97,0.872,22.876,12.881,21.653,26.066l-16.183,175.042
		c-1.64,17.763-4.39,47.49-27.385,65.928c-18.295,14.667-41.287,15.201-56.499,15.556l-116.565,2.73
		C302.22,817.437,301.108,817.38,300.019,817.255z"/>
	<path fill="#FFFFFF" d="M139.95,633.812c-7.732,0-15.303-0.008-22.689-0.029c-12.619-0.03-22.823-10.288-22.79-22.91
		c0.034-12.599,10.66-13.403,23.252-13.403c0.018,0-0.023,1.543,0,1.543c46.571,0.126,100.467-2.084,153.477-4.627
		c16.144-0.775,36.662,0.154,46.275-6.942c3.392-2.507,5.041-22.028,5.399-26.222c0.111-1.346-0.056-2.537-0.41-2.909
		c-8.747-9.096-12.759-19.929-3.663-28.676c9.089-8.733,23.564-8.457,32.307,0.639c9.635,10.019,14.251,23.667,13.001,38.432
		c-1.454,17.182,0.409,53.218-13.471,63.468c-19.882,14.682-54.895-2.031-77.387-0.961
		C227.654,633.41,181.539,633.812,139.95,633.812z"/>
	<g>
		<path fill="#2A1540" d="M1095.307,492.859c-4.728-0.696-9.606-1.184-14.79-1.263c-4.071-0.06-8.14-0.249-12.209-0.398
			c-6.051-0.275-12.095-0.613-18.145-0.856c-16.551-0.977-33.098-2.277-49.65-3.259c-63.931,0-127.863,0-191.794,0
			c-3.824,0.517-7.644,1.05-11.469,1.561c-1.255,0.147-2.509,0.344-3.768,0.434c-16.397,1.155-32.406,3.337-47.84,7.145
			c-13.062,2.773-25.49,7.358-37.351,13.519c-4.929,2.401-9.767,5.071-14.514,8.005c-14.448,8.334-29.054,16.417-43.098,25.38
			c-15.567,9.938-31.267,15.044-47.107,15.91c-1.19,0.032-2.383,0.152-3.571,0.135c-1.189,0.016-2.381-0.103-3.571-0.135
			c-15.84-0.865-31.541-5.972-47.107-15.91c-14.045-8.964-28.652-17.048-43.101-25.382c-4.745-2.935-9.582-5.604-14.512-8.003
			c-11.861-6.161-24.289-10.746-37.351-13.519c-15.434-3.808-31.443-5.989-47.84-7.145c-1.26-0.09-2.513-0.287-3.768-0.434
			c-3.824-0.511-7.646-1.044-11.468-1.561c-63.932,0-127.864,0-191.796,0c-16.552,0.982-33.099,2.282-49.65,3.259
			c-6.05,0.244-12.095,0.581-18.144,0.856c-4.071,0.15-8.14,0.338-12.21,0.398c-5.184,0.079-10.062,0.567-14.79,1.263
			C77.573,496.017,59.223,511.091,50,537.851c0,10.342,0,20.684,0,31.025c0,0.941,0,1.882,0,2.823
			c0.337,1.222,0.727,2.436,1.093,3.654c3.174,18.687,6.312,37.377,9.467,56.067c8.489,52.049,17.008,104.091,25.326,156.165
			c0.065,0.409,0.199,0.756,0.269,1.162c0.169,0.993,0.317,1.991,0.488,2.985c5.777,33.561,29.692,54.335,63.898,56.602
			c17.237,1.141,34.511,1.746,51.768,2.594c63.931,0,127.862,0,191.795,0c14.884-1.576,29.771-3.121,44.651-4.742
			c12.129-1.323,24.308-2.357,36.362-4.19c0.791-0.12,1.489-0.343,2.263-0.485c0.169-0.02,0.339-0.034,0.508-0.055
			c11.229-1.328,20.065-5.72,27.064-12.343c7.097-6.159,12.188-14.406,15.175-24.704c1.326-3.85,2.414-7.809,3.094-11.803
			c2.724-15.99,5.461-31.981,8.192-47.971c4.322-24.708,8.557-49.435,12.862-74.146c0.887-5.083,2.136-10.216,2.121-15.324
			c-0.003-0.974,0.03-1.734,0.04-2.615c0.08-0.53,0.176-1.059,0.256-1.59c1.538-10.247,5.354-14.927,14.902-16.934
			c4.038-0.85,8.089-1.363,12.137-1.923c3.271-0.423,6.541-0.843,9.823-1.12c2.101-0.175,4.202-0.275,6.305-0.379
			c3.378-0.182,6.758-0.296,10.14-0.306c3.382,0.01,6.763,0.124,10.14,0.306c2.103,0.104,4.205,0.204,6.307,0.379
			c3.28,0.277,6.551,0.697,9.822,1.12c4.048,0.559,8.1,1.073,12.138,1.923c9.547,2.007,13.364,6.687,14.901,16.934
			c0.08,0.531,0.176,1.059,0.256,1.59c0.01,0.88,0.043,1.64,0.04,2.615c-0.015,5.108,1.234,10.241,2.12,15.324
			c4.307,24.712,8.54,49.438,12.864,74.146c2.733,15.99,5.469,31.981,8.192,47.971c0.68,3.994,1.767,7.953,3.094,11.803
			c2.988,10.301,8.08,18.547,15.176,24.705c7,6.622,15.835,11.014,27.064,12.342c0.169,0.021,0.338,0.036,0.507,0.055
			c0.775,0.143,1.472,0.365,2.264,0.485c12.054,1.833,24.233,2.867,36.362,4.19c14.88,1.621,29.767,3.166,44.65,4.742
			c63.932,0,127.863,0,191.796,0c17.257-0.848,34.531-1.453,51.768-2.594c34.206-2.267,58.121-23.042,63.898-56.602
			c0.171-0.995,0.317-1.992,0.488-2.985c0.07-0.406,0.204-0.753,0.268-1.162c8.319-52.074,16.84-104.116,25.327-156.165
			c3.155-18.689,6.294-37.38,9.467-56.067c0.366-1.218,0.757-2.432,1.093-3.654c0-0.941,0-1.881,0-2.823c0-10.34,0-20.682,0-31.025
			C1140.777,511.091,1122.427,496.017,1095.307,492.859z M1061.217,801.865c-0.122,0.074-0.269,0.117-0.391,0.188
			c-2.519,1.369-5.58,2.299-9.298,2.906c-1.283,0.176-2.564,0.353-4.001,0.424c-61.712,3.052-123.434,5.762-185.181,4.677
			c-38.293-0.941-76.528-3.321-114.689-7.489c-2.464-0.279-4.933-0.53-7.398-0.812c-12.617-1.521-17.527-3.232-20.408-11.18
			c-0.802-2.454-1.471-5.453-2.187-9.306c-0.553-2.969-1.097-5.939-1.651-8.905c-7.387-42.987-14.815-85.979-21.066-129.136
			c-0.44-3.034-0.703-6.105-0.958-9.179c-0.154-2.048-0.289-4.098-0.402-6.152c-0.516-10.798-0.183-21.718,0.558-32.458
			c0.157-2.287,0.46-4.499,0.845-6.668c0.402-2.018,0.858-4,1.415-5.91c0.122-0.426,0.194-0.88,0.326-1.3
			c0.74-2.36,1.664-4.589,2.646-6.777c4.818-10.225,12.772-18.665,23.527-25.187c3.449-2.09,7.01-3.85,10.61-5.481
			c9.661-3.75,19.832-6.908,30.091-8.833c3.031-0.495,6.067-0.969,9.131-1.288c0.444-0.048,0.886-0.119,1.329-0.162
			c2.327-0.228,4.659-0.376,6.987-0.594c35.896-2.382,71.843-4.021,107.792-5.614c15.945-0.072,31.9,0.123,47.871,0.878
			c11.255,0.532,22.526,0.714,33.783,1.206c39.381,1.724,78.776,3.218,118.132,5.41c3.974,0.221,7.252,0.841,9.997,1.815
			c0.354,0.148,0.77,0.263,1.103,0.423c0.214,0.089,0.379,0.212,0.584,0.307c7.248,3.748,9.394,10.319,7.612,21.514
			c-7.079,44.486-14.161,88.971-21.299,133.448c-4.685,29.2-9.361,58.399-14.248,87.565c-1.745,10.425-4.726,16.928-9.944,20.753
			C1062.016,801.241,1061.67,801.607,1061.217,801.865z M506.012,634.054c-0.256,3.073-0.519,6.145-0.958,9.179
			c-6.251,43.161-13.679,86.153-21.067,129.144c-0.552,2.965-1.097,5.932-1.649,8.898c-0.716,3.852-1.385,6.851-2.187,9.306
			c-2.881,7.948-7.792,9.659-20.407,11.18c-2.465,0.282-4.934,0.533-7.399,0.812c-38.16,4.168-76.395,6.548-114.689,7.489
			c-61.748,1.085-123.47-1.625-185.182-4.677c-1.436-0.07-2.716-0.248-4.001-0.424c-3.716-0.607-6.777-1.537-9.296-2.906
			c-0.124-0.072-0.272-0.114-0.393-0.188c-0.453-0.258-0.797-0.624-1.217-0.911c-5.221-3.825-8.201-10.33-9.948-20.756
			c-4.886-29.167-9.562-58.366-14.247-87.565c-7.138-44.477-14.22-88.961-21.299-133.448c-1.782-11.195,0.364-17.766,7.612-21.514
			c0.206-0.095,0.37-0.218,0.584-0.307c0.333-0.16,0.749-0.275,1.102-0.423c2.745-0.975,6.024-1.595,9.998-1.815
			c39.356-2.192,78.751-3.687,118.132-5.41c11.257-0.492,22.528-0.674,33.783-1.206c15.971-0.755,31.925-0.95,47.871-0.878
			c35.95,1.593,71.896,3.233,107.791,5.614c2.329,0.218,4.661,0.365,6.988,0.594c0.443,0.042,0.886,0.114,1.33,0.162
			c3.065,0.319,6.1,0.792,9.131,1.288c10.258,1.925,20.431,5.083,30.091,8.833c3.6,1.631,7.161,3.391,10.61,5.481
			c10.755,6.522,18.709,14.962,23.527,25.187c0.983,2.187,1.907,4.417,2.646,6.777c0.132,0.42,0.204,0.874,0.326,1.3
			c0.557,1.91,1.013,3.892,1.415,5.91c0.386,2.169,0.688,4.381,0.845,6.668c0.74,10.74,1.075,21.659,0.558,32.458
			C506.301,629.956,506.165,632.006,506.012,634.054z"/>
		<path fill="#2A1540" d="M319.57,655.572H91.478c-6.62,0-11.983-5.367-11.983-11.983c0-6.615,5.363-11.983,11.983-11.983H319.57
			c15.596,0,28.284-12.692,28.284-28.286v-88.59c0-6.615,5.363-11.983,11.982-11.983c6.62,0,11.983,5.368,11.983,11.983v88.59
			C371.819,632.13,348.381,655.572,319.57,655.572z"/>
		<path fill="#2A1540" d="M290.039,601.877c-12.527,0-22.72-10.188-22.72-22.717c0-12.527,10.192-22.724,22.72-22.724
			c12.529,0,22.722,10.196,22.722,22.724C312.761,591.689,302.568,601.877,290.039,601.877z M290.039,577.912
			c-0.686,0-1.243,0.562-1.243,1.248c0,1.373,2.488,1.373,2.488,0C291.284,578.474,290.727,577.912,290.039,577.912z"/>
		<path fill="#2A1540" d="M208.163,591.143h-49.666c-6.619,0-11.982-5.367-11.982-11.983c0-6.615,5.363-11.982,11.982-11.982h49.666
			c6.619,0,11.983,5.367,11.983,11.982C220.145,585.776,214.782,591.143,208.163,591.143z"/>
		<path fill="#2A1540" d="M1102.052,537.853c-5.211,0-10.461-1.692-14.864-5.179L816.078,317.9
			c-8.995-7.129-17.974-4.032-21.414-2.364c-3.441,1.662-11.445,6.771-11.445,18.247c0,13.238-10.73,23.965-23.965,23.965
			c-13.234,0-23.965-10.727-23.965-23.965c0-26.383,14.756-49.912,38.51-61.395c23.751-11.499,51.359-8.44,72.04,7.941
			l271.109,214.774c10.375,8.224,12.123,23.295,3.905,33.67C1116.122,534.74,1109.12,537.853,1102.052,537.853z"/>
		<path fill="#2A1540" d="M99.442,537.853c-7.068,0-14.069-3.112-18.801-9.08c-8.218-10.375-6.471-25.446,3.904-33.67
			l271.11-214.774c20.681-16.382,48.292-19.432,72.039-7.941c23.754,11.483,38.51,35.012,38.51,61.395
			c0,13.238-10.73,23.965-23.965,23.965c-13.235,0-23.964-10.727-23.964-23.965c0-11.476-8.004-16.585-11.444-18.247
			c-3.445-1.669-12.428-4.766-21.415,2.364L114.307,532.673C109.903,536.16,104.653,537.853,99.442,537.853z"/>
	</g>
</g>
</svg>
