<?xml version="1.0" encoding="utf-8"?>
<!-- Generator: Adobe Illustrator 19.1.0, SVG Export Plug-In . SVG Version: 6.00 Build 0)  -->
<svg version="1.1" id="Layer_1" xmlns="http://www.w3.org/2000/svg" xmlns:xlink="http://www.w3.org/1999/xlink" x="0px" y="0px"
	 viewBox="0 0 1200 1200" enable-background="new 0 0 1200 1200" xml:space="preserve">
<g>
	<circle fill="#2A1540" cx="600" cy="600" r="550"/>
	<path fill="#C4E9FB" d="M656.833,969.132l0.754,11.878c0.176,2.764,1.711,5.267,4.104,6.692c1.341,0.796,2.853,1.201,4.368,1.201
		c1.197,0,2.394-0.25,3.515-0.757l60.98-27.527c3.326-1.501,5.312-4.949,4.927-8.554c-0.384-3.606-3.054-6.561-6.625-7.34
		l-63.607-13.841c-2.6-0.549-5.319,0.112-7.345,1.836c-2.022,1.72-3.11,4.283-2.944,6.921l0.805,12.677
		c-16.588,1.271-33.424,1.932-50.392,1.932c-70.508,0-136.977-10.821-192.217-31.291c-9.62-3.566-18.868-7.428-27.493-11.485
		c-4.252-2.001-9.298-0.201-11.308,4.001c-2.01,4.204-0.202,9.228,4.033,11.218c9.059,4.26,18.759,8.314,28.826,12.045
		c57.124,21.168,125.646,32.357,198.16,32.357C622.698,971.094,639.889,970.424,656.833,969.132z"/>
	<path fill="#C4E9FB" d="M296.952,812.659c0-36.361,30.801-71.065,86.71-97.84l217.348,129.286c0.038,0.023,0.081,0.029,0.119,0.052
		c0.456,0.261,0.946,0.437,1.439,0.609c0.216,0.076,0.419,0.194,0.637,0.252c0.614,0.16,1.249,0.227,1.887,0.249
		c0.092,0.003,0.183,0.037,0.274,0.037l0.007-0.001l0.006,0.001c0.093,0,0.185-0.033,0.277-0.037
		c0.636-0.021,1.269-0.088,1.882-0.248c0.225-0.06,0.434-0.182,0.656-0.26c0.486-0.171,0.969-0.343,1.419-0.601
		c0.04-0.022,0.083-0.028,0.123-0.052l26.21-15.591c4.022-2.392,5.328-7.567,2.918-11.555l-0.002-0.002
		c-2.411-3.992-7.626-5.281-11.644-2.893l-21.845,12.996L340.046,669.232l265.328-157.827l265.324,157.827l-120.303,71.561
		c-4.023,2.392-5.329,7.567-2.918,11.554l0.001,0.002c2.412,3.989,7.626,5.285,11.644,2.894l67.961-40.425
		c55.911,26.775,86.709,61.48,86.709,97.841c0,47.014-51.607,91.011-138.047,117.699c-4.477,1.382-6.974,6.103-5.581,10.545
		c1.131,3.605,4.484,5.922,8.101,5.922c0.836,0,1.684-0.125,2.527-0.385c93.911-28.991,149.978-79.002,149.978-133.78
		c0-40.841-30.58-78.925-86.44-108.101l47.242-28.101c0.052-0.031,0.09-0.078,0.14-0.111c0.559-0.35,1.082-0.747,1.543-1.212
		c0.068-0.068,0.117-0.148,0.181-0.218c0.38-0.409,0.713-0.853,1.006-1.331c0.102-0.167,0.19-0.338,0.28-0.512
		c0.222-0.427,0.403-0.871,0.549-1.337c0.057-0.177,0.121-0.346,0.165-0.527c0.157-0.637,0.261-1.294,0.261-1.978V333.939
		c0-0.685-0.104-1.341-0.261-1.978c-0.044-0.179-0.108-0.348-0.163-0.523c-0.147-0.467-0.329-0.914-0.553-1.342
		c-0.089-0.173-0.176-0.341-0.277-0.506c-0.295-0.482-0.632-0.931-1.016-1.344c-0.061-0.065-0.107-0.14-0.17-0.205
		c-0.464-0.468-0.989-0.868-1.552-1.218c-0.049-0.03-0.085-0.076-0.135-0.105L609.738,159.069c-2.686-1.6-6.042-1.6-8.727,0
		L319.173,326.716c-0.06,0.036-0.107,0.085-0.166,0.122c-0.111,0.07-0.224,0.136-0.332,0.211c-0.187,0.13-0.358,0.284-0.535,0.43
		c-0.159,0.13-0.322,0.252-0.469,0.391c-0.083,0.079-0.164,0.159-0.245,0.242c-0.151,0.156-0.283,0.331-0.423,0.5
		c-0.138,0.165-0.283,0.323-0.406,0.497c-0.074,0.105-0.141,0.214-0.211,0.323c-0.041,0.063-0.093,0.111-0.132,0.175
		c-0.074,0.123-0.113,0.254-0.181,0.379c-0.094,0.176-0.197,0.344-0.278,0.526c-0.06,0.131-0.108,0.266-0.161,0.401
		c-0.081,0.209-0.145,0.418-0.208,0.631c-0.052,0.173-0.11,0.343-0.151,0.52c-0.032,0.139-0.055,0.28-0.08,0.421
		c-0.038,0.218-0.062,0.434-0.084,0.653c-0.018,0.199-0.038,0.395-0.043,0.595c-0.002,0.069-0.021,0.135-0.021,0.205v335.293
		c0,0.685,0.104,1.341,0.26,1.977c0.044,0.182,0.109,0.352,0.165,0.529c0.147,0.464,0.328,0.908,0.55,1.335
		c0.09,0.174,0.177,0.345,0.28,0.513c0.293,0.477,0.626,0.921,1.006,1.33c0.065,0.07,0.113,0.15,0.181,0.218
		c0.461,0.465,0.984,0.863,1.542,1.212c0.052,0.032,0.089,0.08,0.141,0.111l47.243,28.102c-55.862,29.175-86.442,67.26-86.442,108.1
		c0,4.652,3.8,8.422,8.489,8.422C293.152,821.081,296.952,817.311,296.952,812.659z M332.025,348.808l13.356,7.945
		c1.368,0.814,2.873,1.201,4.358,1.201c2.882,0,5.697-1.459,7.289-4.093l0.001-0.001c2.41-3.988,1.103-9.162-2.918-11.553
		l-14.066-8.368l265.331-157.827l265.324,157.827L605.374,491.764l-112.823-67.108c0,0-0.009-0.007-0.014-0.01l-7.372-4.386
		c-4.025-2.387-9.238-1.1-11.648,2.892l-0.001,0.001c-2.409,3.989-1.103,9.161,2.916,11.553l7.372,4.386
		c0.003,0.002,0.007,0.003,0.007,0.003l105.056,62.491L332.025,654.363V348.808z M878.72,654.363L621.881,501.585L878.72,348.808
		V654.363z"/>
	<path fill="#C4E9FB" d="M301.472,836.547c-1.668-4.352-6.569-6.531-10.949-4.889c-4.384,1.651-6.589,6.514-4.928,10.863
		c3.708,9.693,9.276,19.234,16.55,28.353c1.675,2.099,4.155,3.195,6.662,3.195c1.844,0,3.7-0.593,5.262-1.82
		c3.675-2.886,4.298-8.182,1.387-11.831C309.264,852.658,304.559,844.625,301.472,836.547z"/>
	<path fill="#C4E9FB" d="M359.571,897.537c-8.794-5.349-16.832-11.018-23.888-16.847c-3.605-2.971-8.954-2.491-11.958,1.086
		c-2.998,3.576-2.507,8.886,1.095,11.863c7.686,6.343,16.391,12.485,25.877,18.256c1.383,0.842,2.915,1.243,4.43,1.243
		c2.855,0,5.64-1.428,7.242-4.021C364.82,905.154,363.566,899.968,359.571,897.537z"/>
	<path fill="#C4E9FB" d="M458.951,404.671l-26.21-15.592c-4.015-2.392-9.232-1.098-11.646,2.891v0.001
		c-2.411,3.988-1.104,9.163,2.918,11.554l26.21,15.592c1.366,0.814,2.872,1.2,4.357,1.2c2.882,0,5.697-1.459,7.289-4.092
		l0.001-0.001C464.279,412.235,462.973,407.062,458.951,404.671z"/>
	<path fill="#C4E9FB" d="M406.531,373.488l-26.208-15.591c-4.017-2.397-9.235-1.099-11.646,2.891v0.001
		c-2.41,3.988-1.105,9.162,2.918,11.553l26.21,15.591c1.366,0.814,2.871,1.201,4.357,1.201c2.882,0,5.696-1.46,7.288-4.092l0,0
		C411.86,381.054,410.554,375.88,406.531,373.488z"/>
	<path fill="#C4E9FB" d="M732.061,751.699l-26.21,15.591c-4.022,2.392-5.328,7.567-2.918,11.555l0.001,0.001
		c1.59,2.635,4.402,4.092,7.287,4.092c1.486,0,2.991-0.385,4.357-1.198l26.21-15.591c4.022-2.391,5.329-7.567,2.919-11.554
		l-0.001-0.002C741.294,750.603,736.079,749.307,732.061,751.699z"/>
	<path fill="#C4E9FB" d="M679.642,782.881l-26.213,15.592c-4.022,2.391-5.329,7.567-2.918,11.554l0.001,0.001
		c1.592,2.635,4.403,4.092,7.288,4.092c1.486,0,2.99-0.385,4.356-1.197l26.213-15.591c4.022-2.392,5.328-7.567,2.918-11.555
		l-0.002-0.002C688.874,781.785,683.66,780.49,679.642,782.881z"/>
</g>
</svg>
