<?xml version="1.0" encoding="utf-8"?>
<!-- Generator: Adobe Illustrator 19.1.0, SVG Export Plug-In . SVG Version: 6.00 Build 0)  -->
<svg version="1.1" id="Layer_1" xmlns="http://www.w3.org/2000/svg" xmlns:xlink="http://www.w3.org/1999/xlink" x="0px" y="0px"
	 viewBox="0 0 1200 1200" enable-background="new 0 0 1200 1200" xml:space="preserve">
<g>
	<circle fill="#50BAC9" cx="600" cy="539.321" r="489.321"/>
	<polygon fill="#FCAC6F" points="254.043,349.239 593.299,551.675 251.251,758.301 	"/>
	<polygon fill="#7FE2FF" points="943.889,349.239 604.632,551.675 946.68,758.301 	"/>
	<polyline fill="#278EB3" points="252.626,750.081 256.598,747.841 598.392,555.112 933.495,754.651 595.345,964.852 	"/>
	<polygon fill="#FC523A" points="603.528,142.376 258.496,342.06 606.245,553.969 941.766,342.06 	"/>
	<path fill="#7FE2FF" d="M891.833,731.803c-1.803-1.185-3.452-2.532-4.969-3.99c-8.686,10.584-21.862,19.03-33.859,26.615
		l-261.248,165.16c-9.168,5.791-11.897,17.916-6.108,27.079c3.738,5.906,10.102,9.143,16.613,9.143
		c3.585,0,7.214-0.984,10.466-3.042l261.254-165.156c15.561-9.836,34.337-21.784,47.263-40.056
		C911.114,743.353,901.373,738.071,891.833,731.803z"/>
	<path fill="#FFFFFF" d="M892.454,719.692c-1.864,3.584-4.302,6.929-7.124,10.082c11.501,6.669,23.279,12.79,35.127,18.813
		c2.473-3.389,4.816-6.921,6.825-10.784c12.115-23.29,11.252-49.288,10.556-70.186l-10.486-313.726
		c-0.358-10.84-8.199,6.566-18.934,6.901c-10.83,0.364-17.904,1.225-17.541,12.059l7.728,296.073
		C899.175,686.083,899.821,705.53,892.454,719.692z"/>
	<path fill="#FC523A" d="M598.392,555.112"/>
	<g>
		<g>
			<path fill="#2A1540" d="M660.902,1125.724l0.919,14.585c0.214,3.393,2.084,6.467,5,8.216c1.633,0.977,3.475,1.474,5.321,1.474
				c1.458,0,2.917-0.307,4.282-0.929l74.284-33.797c4.052-1.843,6.472-6.076,6.003-10.503c-0.469-4.428-3.72-8.055-8.071-9.012
				l-77.484-16.993c-3.167-0.674-6.48,0.137-8.948,2.254c-2.463,2.112-3.789,5.259-3.586,8.498l0.981,15.564
				c-20.207,1.56-40.716,2.372-61.386,2.372c-85.891,0-166.861-13.286-234.153-38.419c-11.719-4.378-22.985-9.121-33.491-14.102
				c-5.179-2.456-11.327-0.246-13.775,4.913c-2.448,5.162-0.245,11.33,4.913,13.773c11.035,5.231,22.851,10.208,35.114,14.788
				c69.588,25.99,153.058,39.728,241.393,39.728C619.318,1128.134,640.261,1127.311,660.902,1125.724z"/>
			<path fill="#2A1540" d="M222.505,933.608c0-44.643,37.521-87.253,105.628-120.128L592.9,972.217
				c0.046,0.028,0.099,0.035,0.145,0.063c0.556,0.32,1.152,0.537,1.753,0.748c0.263,0.093,0.511,0.239,0.777,0.31
				c0.748,0.197,1.521,0.279,2.298,0.305c0.112,0.005,0.223,0.046,0.334,0.046l0.009-0.002l0.007,0.002
				c0.113,0,0.225-0.041,0.339-0.046c0.774-0.026,1.546-0.107,2.292-0.304c0.274-0.073,0.529-0.223,0.8-0.319
				c0.592-0.21,1.18-0.422,1.727-0.738c0.048-0.027,0.102-0.034,0.15-0.063l31.927-19.142c4.9-2.937,6.491-9.291,3.555-14.187
				l-0.002-0.002c-2.937-4.901-9.29-6.484-14.184-3.552l-26.612,15.956L275.002,757.509L598.216,563.73l323.21,193.779
				l-146.55,87.862c-4.9,2.936-6.491,9.291-3.555,14.186l0.001,0.002c2.938,4.898,9.29,6.489,14.185,3.553l82.789-49.634
				c68.108,32.875,105.626,75.485,105.626,120.13c0,57.724-62.866,111.742-168.165,144.51c-5.453,1.697-8.495,7.494-6.799,12.947
				c1.378,4.426,5.462,7.271,9.869,7.271c1.018,0,2.051-0.154,3.078-0.473c114.4-35.595,182.698-96.998,182.698-164.255
				c0-50.145-37.251-96.905-105.299-132.725l57.548-34.503c0.064-0.038,0.109-0.096,0.171-0.136c0.681-0.429,1.318-0.917,1.88-1.488
				c0.083-0.083,0.143-0.181,0.221-0.267c0.463-0.503,0.868-1.048,1.225-1.634c0.125-0.206,0.232-0.415,0.341-0.629
				c0.271-0.524,0.492-1.069,0.67-1.641c0.069-0.217,0.147-0.425,0.201-0.647c0.19-0.782,0.317-1.588,0.317-2.429V345.838
				c0-0.841-0.127-1.647-0.317-2.429c-0.054-0.22-0.132-0.427-0.2-0.642c-0.179-0.574-0.4-1.122-0.673-1.648
				c-0.109-0.212-0.214-0.419-0.337-0.621c-0.36-0.592-0.77-1.144-1.237-1.651c-0.074-0.08-0.13-0.172-0.207-0.251
				c-0.565-0.575-1.205-1.066-1.891-1.496c-0.059-0.038-0.103-0.093-0.164-0.13L603.531,131.133c-3.272-1.964-7.359-1.964-10.631,0
				L249.573,336.969c-0.073,0.044-0.13,0.105-0.202,0.15c-0.136,0.086-0.273,0.167-0.405,0.26c-0.228,0.16-0.436,0.349-0.651,0.528
				c-0.192,0.16-0.392,0.31-0.571,0.48c-0.101,0.097-0.2,0.196-0.299,0.297c-0.183,0.192-0.345,0.407-0.515,0.615
				c-0.168,0.202-0.345,0.396-0.494,0.61c-0.091,0.129-0.172,0.263-0.257,0.397c-0.049,0.076-0.114,0.136-0.161,0.215
				c-0.09,0.15-0.138,0.313-0.22,0.466c-0.115,0.216-0.241,0.423-0.339,0.645c-0.073,0.161-0.131,0.327-0.196,0.492
				c-0.099,0.257-0.177,0.514-0.254,0.774c-0.064,0.213-0.134,0.422-0.184,0.639c-0.04,0.171-0.068,0.343-0.098,0.517
				c-0.047,0.268-0.076,0.533-0.102,0.801c-0.022,0.244-0.046,0.485-0.052,0.731c-0.002,0.085-0.026,0.166-0.026,0.251v411.671
				c0,0.841,0.127,1.647,0.317,2.428c0.053,0.223,0.133,0.432,0.201,0.649c0.179,0.57,0.399,1.115,0.67,1.638
				c0.11,0.214,0.216,0.423,0.341,0.63c0.357,0.586,0.762,1.131,1.225,1.633c0.079,0.086,0.139,0.184,0.221,0.267
				c0.562,0.571,1.198,1.06,1.879,1.488c0.063,0.04,0.107,0.098,0.172,0.136l57.55,34.503
				c-68.049,35.821-105.3,82.581-105.3,132.725c0,5.712,4.629,10.341,10.341,10.341S222.505,939.32,222.505,933.608z
				 M265.23,364.094l16.27,9.755c1.665,0.999,3.499,1.474,5.308,1.474c3.511,0,6.94-1.791,8.879-5.025l0.001-0.002
				c2.936-4.897,1.344-11.248-3.555-14.185l-17.135-10.274l323.219-193.779l323.21,193.779l-323.21,193.777l-137.437-82.395
				c-0.006-0.004-0.01-0.009-0.017-0.013l-8.98-5.385c-4.903-2.93-11.253-1.351-14.189,3.551l-0.002,0.002
				c-2.936,4.897-1.344,11.248,3.552,14.185l8.98,5.384c0.004,0.003,0.009,0.004,0.009,0.004l127.976,76.726L265.23,739.252V364.094
				z M931.197,739.252L618.324,551.673l312.873-187.579V739.252z"/>
			<path fill="#2A1540" d="M228.01,962.939c-2.031-5.345-8.002-8.019-13.338-6.003c-5.34,2.027-8.026,7.998-6.003,13.338
				c4.517,11.9,11.299,23.615,20.16,34.812c2.04,2.577,5.062,3.922,8.116,3.922c2.245,0,4.507-0.727,6.41-2.234
				c4.476-3.543,5.235-10.046,1.689-14.526C237.503,982.719,231.772,972.855,228.01,962.939z"/>
			<path fill="#2A1540" d="M298.785,1037.821c-10.712-6.567-20.504-13.528-29.1-20.686c-4.391-3.648-10.907-3.059-14.567,1.333
				c-3.651,4.39-3.054,10.91,1.334,14.566c9.363,7.788,19.967,15.329,31.523,22.415c1.685,1.034,3.551,1.527,5.397,1.527
				c3.478,0,6.871-1.753,8.822-4.936C305.18,1047.172,303.652,1040.806,298.785,1037.821z"/>
			<path fill="#2A1540" d="M419.847,432.682l-31.928-19.143c-4.891-2.937-11.245-1.348-14.186,3.55v0.001
				c-2.937,4.897-1.345,11.25,3.555,14.186l31.927,19.143c1.665,1,3.499,1.474,5.308,1.474c3.51,0,6.94-1.791,8.879-5.025
				l0.001-0.001C426.338,441.969,424.747,435.618,419.847,432.682z"/>
			<path fill="#2A1540" d="M355.991,394.396l-31.927-19.142c-4.892-2.943-11.25-1.35-14.186,3.55v0.001
				c-2.936,4.897-1.345,11.249,3.555,14.185l31.927,19.143c1.665,0.999,3.498,1.474,5.308,1.474c3.511,0,6.938-1.792,8.878-5.025
				l0,0C362.483,403.685,360.892,397.333,355.991,394.396z"/>
			<path fill="#2A1540" d="M752.542,858.762l-31.929,19.142c-4.899,2.937-6.491,9.291-3.555,14.187l0.002,0.001
				c1.938,3.235,5.363,5.025,8.877,5.025c1.81,0,3.643-0.473,5.307-1.471l31.927-19.142c4.9-2.937,6.491-9.292,3.556-14.186
				l-0.001-0.002C763.789,857.416,757.436,855.825,752.542,858.762z"/>
			<path fill="#2A1540" d="M688.687,897.047l-31.932,19.143c-4.9,2.936-6.492,9.29-3.555,14.186l0.001,0.001
				c1.939,3.235,5.364,5.024,8.878,5.024c1.81,0,3.643-0.472,5.307-1.47l31.932-19.143c4.9-2.937,6.491-9.291,3.555-14.186
				l-0.002-0.003C699.933,895.701,693.581,894.111,688.687,897.047z"/>
		</g>
	</g>
</g>
</svg>
