<?xml version="1.0" encoding="utf-8"?>
<!-- Generator: Adobe Illustrator 19.1.0, SVG Export Plug-In . SVG Version: 6.00 Build 0)  -->
<svg version="1.1" id="Layer_1" xmlns="http://www.w3.org/2000/svg" xmlns:xlink="http://www.w3.org/1999/xlink" x="0px" y="0px"
	 viewBox="0 0 1200 1200" enable-background="new 0 0 1200 1200" xml:space="preserve">
<g>
	<circle fill="#2A1540" cx="600" cy="600" r="550"/>
	<path fill="#FCAC6F" d="M487.698,789.107c0,0-6.325,156.554-53.766,195.298c-63.255,45.069-86.975,64.045-86.975,64.045
		l120.973,56.929l120.974,25.302l71.951-3.163l95.672-33.999l83.812-41.906l-64.045-39.534c0,0-63.254-59.301-77.486-91.718
		c-14.232-32.418-3.953-86.975-3.953-86.975S562.022,823.107,538.302,815.2C514.582,807.293,487.698,789.107,487.698,789.107z"/>
	<path fill="#FCD290" d="M369.909,641.179c0,0-89.618-106.078-31.091-239.591c58.526-133.512,268.854-173.749,367.617-84.131
		c51.21,51.21,65.841,78.644,65.841,78.644L887.5,637.522l29.263,117.052c0,0,12.802,47.552-67.671,60.355
		s-164.604,20.118-164.604,20.118s-140.828-9.145-208.499-65.842c-27.434-3.657-80.473-29.263-84.131-84.131
		C380.883,670.442,369.909,641.179,369.909,641.179z"/>
	<path fill="#278EB3" d="M628.9,567.527l47.657-112.872c0,0,12.541-19.23,61.871-35.952c49.329-16.722,77.756-33.443,77.756-33.443
		s20.067,10.87,43.477,25.919c23.411,15.05,59.363,101.167,59.363,101.167l2.508,68.559c0,0-51.838,40.132-60.198,43.477
		c-8.361,3.344-69.395,25.083-69.395,25.083l-138.791-26.755C653.147,622.709,618.031,595.118,628.9,567.527z"/>
	<path fill="#FC523A" d="M740.735,422.697c-6.58,0-13.091-2.937-17.434-8.545c-57.195-73.876-160.889-111.425-252.102-91.353
		c-11.887,2.607-23.641-4.891-26.251-16.777c-2.617-11.884,4.895-23.637,16.777-26.251
		c108.983-24.003,228.103,19.165,296.415,107.41c7.446,9.62,5.686,23.457-3.935,30.904
		C750.195,421.194,745.447,422.697,740.735,422.697z"/>
	<path fill="#FC523A" d="M753.031,813.784c-31.443,0-62.363-2.84-91.239-5.493c-12.115-1.112-21.034-11.833-19.922-23.953
		c1.108-12.113,11.761-21.098,23.952-19.922c53.52,4.92,108.887,9.989,160.6-2.252c10.47-2.48,23.511-6.332,31.482-14.177
		c9.589-9.438,13.128-27.043,9.015-44.849c-4.483-19.399-16.315-37.972-27.761-55.936c-6.536-10.263-3.517-23.881,6.745-30.421
		c10.266-6.541,23.881-3.514,30.418,6.741c12.816,20.123,27.345,42.928,33.526,69.699c7.601,32.895-0.459,65.919-21.037,86.17
		c-15.748,15.498-36.186,21.844-52.233,25.645C809.025,811.561,780.82,813.784,753.031,813.784z"/>
	<path fill="#FC523A" d="M806.629,1073.273c-1.596,0-3.212-0.179-4.833-0.538c-53.265-11.919-101.388-47.238-128.73-94.475
		c-27.337-47.238-33.992-106.559-17.792-158.689c3.612-11.609,15.96-18.086,27.574-14.5c11.621,3.615,18.111,15.957,14.501,27.581
		c-12.611,40.576-7.431,86.759,13.855,123.534c21.284,36.776,58.747,64.27,100.216,73.55c11.872,2.661,19.344,14.436,16.687,26.312
		C825.813,1066.303,816.713,1073.273,806.629,1073.273z"/>
	<path fill="#63EFFF" d="M896.838,598.069c-0.326,0-0.652-0.007-0.979-0.022c-12.156-0.53-21.579-10.814-21.048-22.97
		c2.552-58.461-27.607-116.667-76.842-148.293c-10.237-6.572-13.202-20.204-6.626-30.442c6.568-10.233,20.201-13.21,30.442-6.626
		C883.966,429.652,922.057,503.17,918.83,577C918.313,588.825,908.56,598.069,896.838,598.069z"/>
	<path fill="#2A1540" d="M340.857,1060.446c23.386,8.36,44.379,18.696,66.603,29.641c51.265,25.244,104.23,51.231,186.06,50.606
		c1.139,0.01,2.267,0.013,3.395,0.013c80.063,0,132.321-25.728,182.871-50.619c22.226-10.945,43.218-21.281,66.603-29.641
		c4.446-1.591,7.485-5.718,7.688-10.432c0.204-4.72-2.474-9.091-6.766-11.054c-46.918-21.467-107.81-58.086-131.462-110.609
		c-10.686-23.732-14.635-52.816-11.931-86.891c5.3-0.316,10.628-0.671,16.011-1.095c5.028-0.395,11.044-0.807,17.79-1.265
		c46.979-3.2,125.608-8.555,160.677-28.249c13.858-7.78,23.631-22.583,28.262-42.811c0.108-0.472,0.186-0.953,0.236-1.438
		c2.492-24.998-10.035-81.1-32.893-146.819l8.48-4.071c17.542-8.425,28.705-25.575,29.134-44.761
		c1.856-83.49-51.658-149.216-83.722-180.963v-0.002c-15.294-15.143-38.686-19.01-58.208-9.639l-11.233,5.393l-25.108-33.941
		c-80.044-108.213-234.853-129.903-345.096-48.361c-53.368,39.477-88.465,96.989-98.833,161.942
		c-10.222,64.06,4.862,127.769,42.392,179.795c-0.564,1.109-1.014,2.279-1.291,3.511c-1.045,4.638,0.183,9.548,3.278,13.13
		l33.556,38.922c0.048,0.676,0.062,1.348,0.129,2.026c1.439,14.686,6.804,28.794,15.517,40.804
		c13.093,18.039,32.429,29.904,54.447,33.404c2.021,0.321,4.042,0.546,6.061,0.72c3.102,2.517,6.223,4.935,9.355,7.279
		c8.052,46.028,2.245,94.756-16.898,137.271c-22.938,50.932-65.229,93.477-116.025,116.721c-4.293,1.963-6.971,6.334-6.767,11.054
		C333.372,1054.728,336.412,1058.855,340.857,1060.446z M498.479,802.074c51.277,30.306,106.646,40.595,167.57,40.595
		c4.816,0,9.675-0.078,14.563-0.201c-2.564,36.898,2.098,68.83,14.073,95.413c22.578,50.143,73.388,86.513,119.137,110.51
		c-15.331,6.609-29.97,13.818-44.291,20.874c-51.078,25.148-99.297,48.842-176.011,48.215c-1.089,0.01-2.167,0.014-3.243,0.014
		c-74.605,0-122.208-23.439-172.562-48.229c-14.574-7.177-29.48-14.518-45.108-21.228c45.498-26.881,82.858-68.168,104.521-116.267
		C495.252,891.52,502.468,846.201,498.479,802.074z M332.338,469.037c9.403-58.916,41.264-111.099,89.716-146.94
		c40.885-30.243,88.509-44.848,135.479-44.848c67.856,0,134.346,30.488,177.151,88.353l22.463,30.366l-67.607,32.458
		c-11.775,5.654-20.876,15.47-25.628,27.642L639.445,518.8l-267.91,114.088C336.94,585.644,323.008,527.506,332.338,469.037z
		 M799.731,401.274c3.907-1.878,8.092-2.789,12.238-2.789c7.209,0,14.3,2.757,19.593,7.998v-0.003
		c29.412,29.124,78.51,89.149,76.844,163.953c-0.229,10.242-6.499,19.802-15.972,24.351l-88.059,42.277
		c-5.76,2.768-12.37,3.487-18.595,2.034l-122.647-28.683c-7.954-1.861-14.698-7.075-18.504-14.304
		c-3.804-7.226-4.284-15.737-1.316-23.347l42.224-108.255c2.602-6.672,7.592-12.055,14.048-15.153L799.731,401.274z
		 M421.784,729.932c-6.29-8.673-10.164-18.852-11.2-29.438c-1.851-18.824,6.936-36.302,22.927-45.618
		c15.276-8.897,33.12-8.059,47.739,2.235c13.425,9.453,22.578,25.213,27.205,46.843c1.342,6.27,7.521,10.273,13.778,8.918
		c6.268-1.337,10.262-7.508,8.923-13.778c-0.955-4.463-2.14-8.673-3.431-12.764l161.828-45.903l90.942,21.268
		c3.838,0.898,7.755,1.342,11.666,1.342c7.665,0,15.3-1.705,22.265-5.051l58.573-28.123
		c21.285,61.858,32.556,113.005,30.861,133.727c-1.901,7.916-6.523,21.235-16.829,27.02
		c-30.504,17.129-108.815,22.465-150.889,25.33c-6.839,0.462-12.941,0.88-18.039,1.283c-85.441,6.742-156.826,0.263-221.208-43.471
		c8.005-2.672,15.647-6.565,22.671-11.663c5.189-3.768,6.343-11.022,2.578-16.213c-3.767-5.19-11.023-6.329-16.21-2.574
		c-13.023,9.452-28.948,13.26-44.845,10.739C445.195,751.518,431.235,742.954,421.784,729.932z"/>
	<path fill="#2A1540" d="M803.986,427.39l-26.892-4.946c-6.283-1.144-12.355,3.01-13.515,9.316
		c-1.159,6.304,3.013,12.354,9.317,13.515l26.892,4.947c0.709,0.129,1.415,0.193,2.113,0.193c5.49,0,10.374-3.916,11.402-9.51
		C814.462,434.6,810.291,428.551,803.986,427.39z"/>
	<path fill="#2A1540" d="M870.158,559.33c-5.637-3.032-12.681-0.927-15.72,4.722l-12.957,24.078
		c-3.037,5.644-0.922,12.684,4.722,15.722c1.751,0.94,3.632,1.386,5.49,1.386c4.132,0,8.134-2.215,10.23-6.109l12.958-24.079
		C877.917,569.407,875.802,562.368,870.158,559.33z"/>
	<g>
		<path fill="#63EFFF" d="M386.31,204.66c1.913,0,3.851-0.474,5.642-1.471c11.684-6.518,23.807-12.561,36.034-17.968
			c5.864-2.593,8.514-9.446,5.923-15.308c-2.588-5.857-9.435-8.51-15.308-5.923c-12.88,5.694-25.65,12.062-37.957,18.924
			c-5.597,3.124-7.606,10.192-4.485,15.792C378.285,202.513,382.236,204.66,386.31,204.66z"/>
		<g>
			<path fill="#63EFFF" d="M341.736,948.934c3.889-5.096,2.91-12.378-2.182-16.268c-5.375-4.098-10.715-8.378-15.882-12.716
				c-4.91-4.112-12.227-3.482-16.351,1.428c-4.121,4.91-3.485,12.227,1.425,16.353c5.439,4.565,11.065,9.068,16.72,13.387
				c2.104,1.605,4.58,2.38,7.035,2.38C335.997,953.499,339.452,951.927,341.736,948.934z"/>
			<path fill="#63EFFF" d="M461.828,171.28c1.225,0,2.467-0.196,3.692-0.603c12.664-4.246,25.694-7.95,38.726-11.011
				c6.241-1.464,10.113-7.712,8.646-13.951c-1.465-6.241-7.712-10.121-13.95-8.645c-13.732,3.223-27.457,7.125-40.799,11.595
				c-6.078,2.038-9.353,8.617-7.318,14.694C452.452,168.215,456.977,171.28,461.828,171.28z"/>
			<path fill="#63EFFF" d="M1003.278,791.056c-5.624-3.096-12.679-1.052-15.766,4.565c-6.455,11.711-13.534,23.267-21.043,34.353
				c-3.599,5.305-2.211,12.523,3.096,16.117c1.994,1.351,4.259,1.999,6.499,1.999c3.72,0,7.376-1.781,9.618-5.095
				c7.909-11.671,15.364-23.844,22.158-36.175C1010.934,801.207,1008.89,794.149,1003.278,791.056z"/>
			<path fill="#63EFFF" d="M325.581,248.677c10.306-8.555,21.122-16.722,32.139-24.272c5.288-3.624,6.638-10.849,3.015-16.136
				c-3.627-5.29-10.849-6.637-16.135-3.014c-11.605,7.952-22.991,16.55-33.844,25.558c-4.933,4.094-5.613,11.411-1.519,16.344
				c2.296,2.766,5.604,4.195,8.938,4.195C320.786,251.352,323.414,250.475,325.581,248.677z"/>
			<path fill="#63EFFF" d="M1040.91,562.928c0.367,7.343,0.553,14.808,0.553,22.184c0,6.024-0.125,12.119-0.37,18.117
				c-0.26,6.406,4.72,11.807,11.123,12.071c0.161,0.007,0.322,0.008,0.484,0.008c6.191,0,11.332-4.89,11.589-11.132
				c0.256-6.313,0.387-12.726,0.387-19.065c0-7.762-0.195-15.614-0.581-23.339c-0.32-6.402-5.739-11.314-12.17-11.015
				C1045.523,551.077,1040.59,556.527,1040.91,562.928z"/>
			<path fill="#63EFFF" d="M1038.135,469.307c-6.234,1.487-10.083,7.749-8.594,13.984c3.104,13.001,5.633,26.307,7.52,39.553
				c0.825,5.792,5.791,9.972,11.477,9.972c0.544,0,1.094-0.038,1.65-0.118c6.347-0.905,10.759-6.782,9.854-13.127
				c-1.988-13.952-4.654-27.974-7.923-41.67C1050.632,471.666,1044.385,467.828,1038.135,469.307z"/>
			<path fill="#63EFFF" d="M1003.695,407.128c5.456,12.219,10.4,24.829,14.689,37.476c1.641,4.835,6.155,7.879,10.993,7.879
				c1.236,0,2.493-0.197,3.728-0.616c6.071-2.061,9.321-8.65,7.264-14.721c-4.523-13.325-9.73-26.61-15.478-39.485
				c-2.614-5.853-9.474-8.478-15.331-5.864C1003.706,394.412,1001.081,401.275,1003.695,407.128z"/>
			<path fill="#63EFFF" d="M958.69,860.648c-4.948-4.071-12.264-3.349-16.335,1.6c-7.05,8.588-14.567,16.906-22.276,24.959
				l-15.342-14.005c-2.711-2.47-6.433-3.505-10.042-2.82c-3.606,0.704-6.666,3.069-8.251,6.384l-38.732,80.917
				c-2.101,4.389-1.242,9.622,2.152,13.107c2.232,2.295,5.25,3.51,8.32,3.51c1.595,0,3.204-0.326,4.724-1.006l85.578-38.156
				c3.576-1.596,6.108-4.883,6.73-8.75c0.626-3.863-0.741-7.785-3.632-10.424l-14.362-13.11c7.98-8.357,15.766-16.974,23.074-25.871
				C964.362,872.029,963.646,864.716,958.69,860.648z"/>
			<path fill="#63EFFF" d="M985.596,371.163c2.131,3.786,6.069,5.916,10.127,5.916c1.926,0,3.88-0.48,5.68-1.493
				c5.586-3.144,7.567-10.22,4.422-15.807c-6.9-12.262-14.463-24.362-22.476-35.964c-3.643-5.276-10.867-6.597-16.147-2.953
				c-5.274,3.645-6.596,10.874-2.953,16.146C971.861,348.028,979.042,359.518,985.596,371.163z"/>
			<path fill="#63EFFF" d="M1053.078,688.214c3.14-13.719,5.677-27.77,7.542-41.762c0.849-6.353-3.618-12.192-9.972-13.037
				c-6.341-0.845-12.189,3.618-13.037,9.971c-1.769,13.287-4.18,26.624-7.16,39.65c-1.431,6.248,2.474,12.473,8.725,13.901
				c0.87,0.2,1.742,0.3,2.6,0.3C1047.066,697.236,1051.847,693.59,1053.078,688.214z"/>
			<path fill="#63EFFF" d="M1034.301,714.445c-6.098-1.99-12.649,1.307-14.652,7.399c-4.181,12.695-9.012,25.357-14.357,37.635
				c-2.559,5.875,0.129,12.712,6.008,15.274c1.507,0.657,3.081,0.97,4.626,0.97c4.48,0,8.745-2.608,10.647-6.978
				c5.631-12.93,10.72-26.269,15.122-39.648C1043.699,723.01,1040.39,716.449,1034.301,714.445z"/>
			<path fill="#63EFFF" d="M182.672,769.431c1.907,4.361,6.167,6.958,10.638,6.958c1.553,0,3.133-0.317,4.648-0.979
				c5.871-2.571,8.547-9.412,5.977-15.283c-5.361-12.255-10.21-24.904-14.413-37.603c-2.014-6.084-8.579-9.389-14.666-7.367
				c-6.085,2.012-9.385,8.577-7.371,14.666C171.914,743.198,177.024,756.522,182.672,769.431z"/>
			<path fill="#63EFFF" d="M233.283,848.685c2.246,0,4.518-0.648,6.515-2.008c5.301-3.604,6.675-10.827,3.072-16.127
				c-7.534-11.075-14.63-22.619-21.096-34.315c-3.099-5.604-10.158-7.644-15.772-4.538c-5.611,3.101-7.644,10.16-4.543,15.772
				c6.809,12.314,14.283,24.474,22.215,36.138C225.919,846.908,229.568,848.685,233.283,848.685z"/>
			<path fill="#63EFFF" d="M664.329,152.193c0.535,0.072,1.068,0.108,1.591,0.108c5.711,0,10.689-4.216,11.486-10.031
				c0.871-6.352-3.571-12.205-9.923-13.077c-13.904-1.907-28.111-3.191-42.229-3.819c-6.499-0.29-11.828,4.674-12.112,11.077
				c-0.285,6.404,4.674,11.827,11.079,12.112C637.632,149.159,651.127,150.381,664.329,152.193z"/>
			<path fill="#63EFFF" d="M178.66,683.757c-3.001-13.021-5.433-26.346-7.224-39.611c-0.86-6.353-6.692-10.789-13.055-9.95
				c-6.354,0.859-10.805,6.703-9.949,13.055c1.888,13.973,4.446,28.01,7.61,41.719c1.237,5.373,6.013,9.004,11.298,9.004
				c0.863,0,1.742-0.1,2.62-0.3C176.205,696.233,180.102,689.999,178.66,683.757z"/>
			<path fill="#63EFFF" d="M277.555,909.01c2.269,2.291,5.256,3.437,8.244,3.437c2.953,0,5.905-1.12,8.17-3.36
				c4.551-4.511,4.586-11.86,0.074-16.417c-9.418-9.508-18.509-19.563-27.014-29.891c-4.081-4.941-11.391-5.658-16.338-1.577
				c-4.948,4.076-5.655,11.388-1.58,16.339C258.069,888.414,267.637,899,277.555,909.01z"/>
			<path fill="#63EFFF" d="M207.182,376.274c1.795,1.004,3.742,1.482,5.662,1.482c4.065,0,8.009-2.138,10.138-5.934
				c6.542-11.677,13.706-23.182,21.288-34.194c3.636-5.279,2.303-12.506-2.977-16.142c-5.283-3.641-12.508-2.305-16.142,2.976
				c-7.987,11.598-15.53,23.714-22.422,36.012C199.597,366.066,201.589,373.139,207.182,376.274z"/>
			<path fill="#63EFFF" d="M816.329,202.821c1.783,0.991,3.717,1.462,5.624,1.462c4.08,0,8.035-2.154,10.157-5.973
				c3.113-5.604,1.093-12.67-4.511-15.782c-12.324-6.846-25.11-13.194-38.002-18.863c-5.857-2.577-12.715,0.087-15.297,5.953
				c-2.579,5.866,0.084,12.714,5.953,15.296C792.488,190.296,804.627,196.322,816.329,202.821z"/>
			<path fill="#63EFFF" d="M542.22,152.405c0.53,0,1.068-0.036,1.61-0.112c13.2-1.832,26.692-3.077,40.105-3.702
				c6.402-0.298,11.352-5.729,11.053-12.133c-0.298-6.404-5.697-11.429-12.133-11.053c-14.115,0.655-28.319,1.966-42.218,3.898
				c-6.349,0.881-10.781,6.741-9.899,13.09C531.543,148.201,536.517,152.405,542.22,152.405z"/>
			<path fill="#63EFFF" d="M850.606,223.979c11.037,7.538,21.866,15.687,32.185,24.221c2.166,1.789,4.785,2.663,7.391,2.663
				c3.34,0,6.655-1.435,8.952-4.21c4.084-4.939,3.39-12.257-1.549-16.342c-10.865-8.983-22.267-17.564-33.89-25.5
				c-5.288-3.615-12.515-2.25-16.128,3.04C843.95,213.145,845.311,220.364,850.606,223.979z"/>
			<path fill="#63EFFF" d="M156.279,616.114c0.168,0,0.336-0.003,0.504-0.012c6.403-0.272,11.374-5.686,11.1-12.089
				c-0.267-6.271-0.401-12.629-0.398-18.902c0-7.109,0.172-14.306,0.512-21.388c0.308-6.403-4.634-11.842-11.035-12.15
				c-6.463-0.313-11.848,4.635-12.151,11.035c-0.358,7.453-0.54,15.022-0.54,22.499c-0.003,6.599,0.139,13.292,0.421,19.894
				C144.958,611.237,150.098,616.114,156.279,616.114z"/>
			<path fill="#63EFFF" d="M259.687,309.708c3.325,0,6.629-1.421,8.923-4.176c8.562-10.273,17.707-20.277,27.18-29.732
				c4.536-4.529,4.542-11.879,0.015-16.415c-4.527-4.536-11.878-4.537-16.414-0.016c-9.974,9.956-19.599,20.485-28.612,31.301
				c-4.103,4.923-3.439,12.244,1.484,16.346C254.432,308.827,257.068,309.708,259.687,309.708z"/>
			<path fill="#63EFFF" d="M912.582,258.858c-4.52,4.545-4.502,11.894,0.043,16.414c9.492,9.441,18.654,19.429,27.235,29.686
				c2.294,2.746,5.59,4.16,8.909,4.16c2.625,0,5.266-0.886,7.439-2.702c4.917-4.114,5.57-11.434,1.458-16.351
				c-9.033-10.796-18.678-21.312-28.669-31.249C924.454,254.292,917.102,254.313,912.582,258.858z"/>
			<path fill="#63EFFF" d="M175.599,452.642c1.228,0.415,2.48,0.613,3.711,0.613c4.842,0,9.363-3.057,10.994-7.901
				c4.272-12.663,9.194-25.287,14.632-37.524c2.602-5.857-0.036-12.717-5.893-15.319c-5.859-2.604-12.715,0.038-15.32,5.894
				c-5.728,12.889-10.912,26.188-15.412,39.531C166.262,444.01,169.525,450.595,175.599,452.642z"/>
			<path fill="#63EFFF" d="M158.662,533.507c0.548,0.077,1.094,0.115,1.632,0.115c5.691,0,10.662-4.19,11.479-9.989
				c1.865-13.258,4.372-26.57,7.449-39.571c1.478-6.235-2.383-12.49-8.621-13.966c-6.245-1.485-12.492,2.382-13.966,8.621
				c-3.242,13.694-5.882,27.716-7.848,41.678C147.894,526.743,152.314,532.614,158.662,533.507z"/>
			<path fill="#63EFFF" d="M742.677,170.425c1.214,0.405,2.449,0.596,3.667,0.596c4.86,0,9.389-3.079,11.01-7.943
				c2.025-6.082-1.265-12.654-7.346-14.677c-13.369-4.451-27.103-8.327-40.818-11.521c-6.25-1.464-12.481,2.43-13.937,8.673
				c-1.453,6.244,2.43,12.484,8.673,13.937C716.947,162.521,729.984,166.2,742.677,170.425z"/>
		</g>
	</g>
</g>
</svg>
