<?xml version="1.0" encoding="utf-8"?>
<!-- Generator: Adobe Illustrator 19.1.0, SVG Export Plug-In . SVG Version: 6.00 Build 0)  -->
<svg version="1.1" id="Layer_1" xmlns="http://www.w3.org/2000/svg" xmlns:xlink="http://www.w3.org/1999/xlink" x="0px" y="0px"
	 viewBox="0 0 1200 1200" enable-background="new 0 0 1200 1200" xml:space="preserve">
<g>
	<circle fill="#2A1540" cx="600" cy="600" r="550"/>
	<g>
		<g>
			<g>
				<path fill="#C4E9FB" d="M939.563,861.311H236.492c-14.791,0-24.967-4.486-28.654-12.635c-1.332-2.951-3.556-10.793,4.605-19.89
					l105.602-117.715c6.929-7.723,24.101-11.761,37.487-11.761h95.97c4.449,0,8.057,3.58,8.057,7.994
					c0,4.413-3.608,7.993-8.057,7.993h-95.97c-11.849,0-23.168,3.857-25.455,6.401l-105.6,117.714
					c-1.768,1.973-1.872,3.003-1.872,3.003c0.34,0.365,3.939,2.909,13.889,2.909h703.071c9.688,0,13.354-2.415,13.926-3.169
					c-0.099-0.031-0.388-1.036-1.915-2.743l-105.6-117.714c-2.287-2.545-13.606-6.401-25.455-6.401H720.053
					c-4.448,0-8.057-3.58-8.057-7.993c0-4.413,3.609-7.994,8.057-7.994h100.466c13.385,0,30.558,4.038,37.487,11.761
					l105.601,117.715c8.162,9.096,5.938,16.939,4.606,19.89C964.529,856.825,954.354,861.311,939.563,861.311z"/>
				<path fill="#C4E9FB" d="M333.758,858.688c-1.389,0-2.795-0.354-4.081-1.103c-3.834-2.243-5.114-7.14-2.858-10.944
					l84.384-142.231c2.266-3.81,7.196-5.069,11.031-2.837c3.834,2.244,5.114,7.14,2.858,10.944l-84.383,142.232
					C339.202,857.283,336.517,858.688,333.758,858.688z"/>
				<path fill="#C4E9FB" d="M888.501,858.688c-2.549,0-5.051-1.197-6.619-3.429l-99.721-142.232
					c-2.538-3.621-1.641-8.607,2.014-11.125c3.646-2.525,8.671-1.624,11.215,1.998l99.721,142.231
					c2.539,3.622,1.641,8.607-2.015,11.126C891.696,858.225,890.09,858.688,888.501,858.688z"/>
				<path fill="#C4E9FB" d="M309.499,802.739c-1.668,0-3.352-0.51-4.794-1.572c-3.572-2.633-4.321-7.639-1.672-11.183l40.634-54.357
					c2.654-3.544,7.694-4.288,11.271-1.66c3.572,2.633,4.323,7.639,1.673,11.184l-40.633,54.356
					C314.393,801.621,311.964,802.739,309.499,802.739z"/>
			</g>
			<path fill="#C4E9FB" d="M939.248,899.94H236.801c-16.716,0-30.312-13.489-30.312-30.074v-24.995c0-4.413,3.609-7.993,8.057-7.993
				c4.448,0,8.057,3.58,8.057,7.993v24.995c0,7.77,6.368,14.087,14.198,14.087h702.446c7.832,0,14.199-6.317,14.199-14.087v-24.995
				c0-4.413,3.609-7.993,8.057-7.993c4.448,0,8.056,3.58,8.056,7.993v24.995C969.559,886.452,955.964,899.94,939.248,899.94z"/>
		</g>
		<path fill="#C4E9FB" d="M588.027,758.297c-1.39,0-2.779-0.359-4.028-1.072l-215.717-123.57c-2.491-1.427-4.028-4.065-4.028-6.921
			v-247.14c0-2.857,1.537-5.495,4.028-6.921l215.717-123.57c2.497-1.425,5.559-1.425,8.057,0l215.717,123.57
			c2.491,1.426,4.029,4.064,4.029,6.921v247.14c0,2.857-1.538,5.495-4.029,6.921l-215.717,123.57
			C590.807,757.938,589.418,758.297,588.027,758.297z M380.367,622.118l207.66,118.953l207.661-118.953V384.21L588.027,265.257
			L380.367,384.21V622.118z"/>
		<path fill="#C4E9FB" d="M372.315,634.728c-2.78,0-5.492-1.432-6.981-3.997c-2.224-3.825-0.908-8.712,2.947-10.918l431.435-247.14
			c3.845-2.207,8.785-0.905,11.004,2.924c2.224,3.825,0.907,8.712-2.948,10.919L376.338,633.655
			C375.069,634.384,373.685,634.728,372.315,634.728z"/>
		<path fill="#C4E9FB" d="M803.739,634.728c-1.369,0-2.753-0.344-4.023-1.072L368.282,386.516
			c-3.855-2.207-5.171-7.094-2.947-10.919c2.223-3.829,7.154-5.131,11.004-2.924l431.435,247.14
			c3.855,2.206,5.172,7.093,2.948,10.918C809.231,633.295,806.52,634.728,803.739,634.728z"/>
	</g>
</g>
</svg>
