<?xml version="1.0" encoding="utf-8"?>
<!-- Generator: Adobe Illustrator 19.1.0, SVG Export Plug-In . SVG Version: 6.00 Build 0)  -->
<svg version="1.1" id="Layer_1" xmlns="http://www.w3.org/2000/svg" xmlns:xlink="http://www.w3.org/1999/xlink" x="0px" y="0px"
	 viewBox="0 0 1200 1200" enable-background="new 0 0 1200 1200" xml:space="preserve">
<g>
	<circle fill="#FC523A" cx="600" cy="600" r="550"/>
	<path fill="#FFFFFF" d="M350.052,832.35l-90.844,3.643c0,0-21.713-0.755-49.545,31.2
		c-27.832,31.954-121.668,135.102-121.668,135.102l-3.126,26.868h94.336l877.71,4.264c0,0,43.388-0.957,42.262-12.369
		c-1.126-11.411-158.743-182.452-158.743-182.452s-24.74-5.154-73.187-7.215C818.8,829.328,350.052,832.35,350.052,832.35z"/>
	<polygon fill="#FCD290" points="354.964,845.926 243.799,1027 995.595,1033.875 858.071,829.882 365.278,831.029 	"/>
	<ellipse fill="#7FE2FF" cx="599.492" cy="920.508" rx="146.525" ry="42.497"/>
	<path fill="#7FE2FF" d="M601.222,912.385l-39.315-88.687c0,0-216.687-21.029-283.431-245.945
		c-66.744-224.916,107.887-430.632,336.46-432.461S966.94,359.237,951.397,498.21c-15.543,138.973-100.573,281.602-311.774,329.145
		C624.994,856.613,601.222,912.385,601.222,912.385z"/>
	<path fill="#278EB3" d="M80.466,1029.162c0,0-13.27,54.088,56.398,54.088c69.667,0,896.833,4.375,896.833,4.375
		s55.292,5.504,59.715-18.824c4.423-24.329,5.765-47.732,5.765-47.732s-118.56,8.001-275.589,10.213
		c-157.029,2.211-713.264-2.12-713.264-2.12H80.466z"/>
	<path fill="none" stroke="#FFFFFF" stroke-width="5" stroke-linecap="round" stroke-linejoin="round" stroke-miterlimit="10" d="
		M656.183,172.774c0,0,202.607,17.062,253.792,232.465c40.709,171.317-53.318,345.498-251.66,388.153"/>
	<g>
		<g>
			<g>
				<g>
					<path fill="#2A1540" d="M1068.185,1043.168h-957.08c-20.135,0-33.987-6.155-39.003-17.336
						c-1.818-4.049-4.841-14.816,6.269-27.297l143.748-161.51c9.425-10.589,32.805-16.129,51.034-16.129h193.811
						c6.059,0,10.968,4.912,10.968,10.967c0,6.055-4.909,10.968-10.968,10.968H273.154c-16.133,0-31.538,5.283-34.647,8.775
						l-143.749,161.51c-2.41,2.706-2.553,4.12-2.553,4.134c0.457,0.486,5.359,3.984,18.9,3.984h957.08
						c13.195,0,18.186-3.32,18.961-4.356c-0.14-0.042-0.525-1.414-2.613-3.763l-143.752-161.51
						c-3.11-3.491-18.514-8.775-34.651-8.775H763.081c-6.059,0-10.968-4.913-10.968-10.968c0-6.055,4.909-10.967,10.968-10.967
						H906.13c18.228,0,41.612,5.54,51.037,16.129l143.752,161.51c11.111,12.481,8.083,23.241,6.27,27.289
						C1102.168,1037.013,1088.32,1043.168,1068.185,1043.168z"/>
					<path fill="#2A1540" d="M243.511,1039.569c-1.888,0-3.806-0.485-5.551-1.513c-5.22-3.078-6.961-9.797-3.888-15.016
						l114.871-195.154c3.07-5.22,9.793-6.962,15.012-3.892c5.219,3.078,6.961,9.797,3.888,15.016l-114.871,195.154
						C250.93,1037.642,247.27,1039.569,243.511,1039.569z"/>
					<path fill="#2A1540" d="M998.68,1039.569c-3.47,0-6.883-1.642-9.014-4.705L853.914,839.71
						c-3.459-4.969-2.231-11.81,2.741-15.266c4.97-3.463,11.803-2.228,15.266,2.742l135.751,195.154
						c3.46,4.969,2.231,11.809-2.741,15.265C1003.024,1038.934,1000.84,1039.569,998.68,1039.569z"/>
					<path fill="#2A1540" d="M210.496,962.806c-2.27,0-4.562-0.7-6.526-2.157c-4.867-3.613-5.884-10.481-2.278-15.344l55.307-74.578
						c3.613-4.855,10.485-5.883,15.344-2.278c4.866,3.613,5.883,10.482,2.278,15.344l-55.308,74.578
						C217.161,961.271,213.848,962.806,210.496,962.806z"/>
				</g>
				<path fill="#2A1540" d="M1067.757,1096.162H111.53c-22.752,0-41.258-18.508-41.258-41.263v-34.287
					c0-6.055,4.908-10.967,10.967-10.967c6.058,0,10.967,4.912,10.967,10.967v34.287c0,10.66,8.668,19.329,19.325,19.329h956.228
					c10.657,0,19.328-8.669,19.328-19.329v-34.287c0-6.055,4.909-10.967,10.967-10.967c6.059,0,10.968,4.912,10.968,10.967v34.287
					C1109.02,1077.655,1090.509,1096.162,1067.757,1096.162z"/>
			</g>
			<path fill="#2A1540" d="M600.721,926.248c-0.143,0-0.289,0-0.432-0.007c-4.184-0.164-7.911-2.699-9.599-6.533l-38.389-86.974
				c-170.01-26.533-297.458-174.976-297.458-347.81c0-194.154,157.958-352.115,352.115-352.115S959.073,290.77,959.073,484.925
				c0,174.89-129.301,323.683-301.688,348.424l-47.011,87.138C608.454,924.049,604.741,926.248,600.721,926.248z M606.958,154.744
				c-182.062,0-330.181,148.122-330.181,330.181c0,164.002,122.357,304.569,284.609,326.975c3.77,0.521,6.997,2.956,8.532,6.44
				l31.788,72.015l39.024-72.329c1.682-3.113,4.76-5.227,8.269-5.677c164.266-20.885,288.14-161.652,288.14-327.424
				C937.139,302.866,789.021,154.744,606.958,154.744z"/>
			<path fill="#2A1540" d="M600.403,970.118c-57.707,0-155.369-10.168-155.369-48.26c0-33.316,75.917-43.469,108.558-46.289
				c5.94-0.5,11.346,3.949,11.87,9.981c0.521,6.034-3.948,11.346-9.986,11.867c-63.497,5.49-87.116,20.007-88.534,24.669
				c2.296,7.097,45.369,26.097,133.46,26.097c88.091,0,131.164-19,133.46-26.554c-1.328-3.913-23.383-17.765-82.625-23.67
				c-6.027-0.599-10.424-5.969-9.825-11.995c0.603-6.034,5.97-10.54,12.003-9.825c38.225,3.806,102.357,14.809,102.357,45.718
				C755.773,959.95,658.11,970.118,600.403,970.118z"/>
		</g>
		<g>
			<path fill="#2A1540" d="M468.789,422.256c0.681-1.174,1.05-2.624,1.05-4.128c0-5.27-4.128-9.398-9.399-9.398h-82.171
				c-5.272,0-9.399,4.127-9.399,9.398c0,5.271,4.127,9.401,9.399,9.401h59.977l-38.562,39.665
				c-3.701,3.712-3.701,9.745,0.004,13.449l0.961,0.752c1.829,1.737,4.099,2.68,6.516,2.68c11.879,0,22.871,4.574,31.009,12.94
				c8.304,8.075,12.877,19.062,12.877,30.936c0,11.805-4.586,22.894-12.877,31.196c-8.417,8.176-19.518,12.68-31.26,12.68
				c-11.576,0-22.584-4.505-30.964-12.646c-1.841-1.847-4.427-2.917-6.934-2.804c-2.485,0.065-4.751,1.103-6.267,2.8
				c-1.845,1.843-2.863,4.371-2.794,6.933c0.064,2.478,1.098,4.742,2.769,6.236c11.698,11.949,27.388,18.53,44.19,18.53
				c16.465,0,32.659-6.745,44.4-18.48c11.945-11.694,18.525-27.478,18.525-44.444c0-16.875-6.479-32.649-18.249-44.417
				c-7.302-7.302-16.331-12.628-26.358-15.591l41.704-42.856C467.727,424.286,468.387,423.275,468.789,422.256z"/>
			<path fill="#2A1540" d="M572.986,427.519c4.995-0.383,8.912-4.618,8.903-9.879c-0.195-2.518-1.407-4.904-3.321-6.542
				c-1.792-1.535-4.022-2.277-6.179-2.107c-27.42,0.942-50.207,15.062-64.166,39.76c-10.996,19.022-17.207,44.37-17.495,71.412
				c0,4.109,0,7.991,0.499,11.661c1.075,33.111,27.94,59.05,61.162,59.05c33.867,0,61.421-27.437,61.421-61.162
				c0-33.731-27.554-61.172-61.421-61.172c-13.886,0-27.274,4.809-38.019,13.447c2.53-9.202,5.806-17.269,9.784-24.049
				C536.134,438.053,551.618,428.39,572.986,427.519z M510.181,533.233c-0.219-0.877-0.405-1.633-0.405-2.52v-1.002
				c0-23.503,19.117-42.625,42.612-42.625c23.784,0,43.136,19.121,43.136,42.625s-19.352,42.625-43.136,42.625
				c-21.083,0-39.138-15.557-42.293-36.306c0.179-0.733,0.179-1.419,0.179-2.045L510.181,533.233z"/>
			<path fill="#2A1540" d="M696.112,590.873c17.693,0,34.224-9.944,46.582-28.047c11.349-17.298,17.597-39.679,17.597-63.02
				c0-23.238-6.244-45.704-17.641-63.343c-12.403-17.885-28.932-27.733-46.537-27.733c-17.609,0-34.138,9.848-46.582,27.789
				c-11.186,16.919-17.349,39.396-17.349,63.287c0,23.984,6.167,46.377,17.378,63.069
				C661.884,580.929,678.418,590.873,696.112,590.873z M650.717,499.805c0-19.916,5.214-39.164,14.325-52.83
				c8.316-12.703,19.352-19.699,31.07-19.699c11.652,0,22.401,6.824,31.081,19.721c9.249,13.88,14.556,33.127,14.556,52.808
				c0,19.684-5.304,38.929-14.519,52.744c-8.908,12.759-19.96,19.786-31.118,19.786c-11.401,0-22.446-7.016-31.086-19.731
				C655.932,538.972,650.717,519.727,650.717,499.805z"/>
			<path fill="#2A1540" d="M833.793,407.228c-21.874,0-41.063,18.599-41.063,39.805v0.501c0,21.205,19.19,39.805,41.063,39.805
				c21.87,0,41.056-18.6,41.056-39.805v-0.501C874.849,425.827,855.663,407.228,833.793,407.228z M833.793,470.051
				c-13.319,0-22.267-11.644-22.267-22.519v-0.501c0-10.874,8.949-22.519,22.267-22.519c13.319,0,22.267,11.644,22.267,22.519v0.501
				C856.061,458.407,847.113,470.051,833.793,470.051z"/>
		</g>
	</g>
</g>
</svg>
