<?xml version="1.0" encoding="utf-8"?>
<!-- Generator: Adobe Illustrator 19.1.0, SVG Export Plug-In . SVG Version: 6.00 Build 0)  -->
<svg version="1.1" id="Layer_1" xmlns="http://www.w3.org/2000/svg" xmlns:xlink="http://www.w3.org/1999/xlink" x="0px" y="0px"
	 viewBox="0 0 1200 1200" enable-background="new 0 0 1200 1200" xml:space="preserve">
<g>
	<circle fill="#2A1540" cx="600" cy="600" r="550"/>
	<rect x="131.836" y="422.964" fill="#7FE2FF" width="941.175" height="347.554"/>
	<path fill="#278EB3" d="M522.572,777.879c-128.708,0-257.961-2.762-383.706-10.355c-11.383-0.685-20.051-10.469-19.359-21.845
		c0.685-11.377,10.429-19.992,21.846-19.36c296.774,17.908,614.492,8.716,896.839,0.021c3.602-91.213-0.262-183.198-11.517-273.732
		c-1.404-11.316,6.632-21.624,17.941-23.035c11.37-1.418,21.624,6.632,23.035,17.941c12.324,99.196,15.993,200.105,10.912,299.919
		c-0.544,10.738-9.239,19.251-19.977,19.587C889.197,772.24,706.463,777.879,522.572,777.879z"/>
	<g>
		<path fill="#FC523A" d="M599.996,1053.979c-116.311,0-232.614-44.269-321.16-132.815c-42.897-42.891-76.24-92.933-99.108-148.712
			c-1.303-3.185-0.94-6.807,0.975-9.669c1.922-2.856,5.133-4.57,8.574-4.57h821.438c3.441,0,6.652,1.714,8.575,4.57
			c1.915,2.856,2.278,6.485,0.974,9.662c-22.86,55.787-56.202,105.822-99.101,148.719
			C832.617,1009.71,716.307,1053.979,599.996,1053.979z M204.96,778.855c21.497,47.542,51.203,90.447,88.471,127.714
			c169.034,169.033,444.09,169.033,613.137,0c37.267-37.267,66.982-80.172,88.464-127.714H204.96z"/>
		<path fill="#FC523A" d="M1007.685,434.809H192.313c-3.473,0-6.712-1.747-8.62-4.644c-1.909-2.902-2.231-6.565-0.86-9.757
			c22.819-53.058,55.121-100.688,96.003-141.569c177.091-177.09,465.237-177.09,642.327,0
			c40.869,40.869,73.171,88.504,96.003,141.569c1.37,3.192,1.049,6.855-0.86,9.757
			C1014.398,433.062,1011.16,434.809,1007.685,434.809z M208.301,414.166h783.399c-21.268-44.9-49.854-85.454-85.132-120.732
			c-169.039-169.04-444.097-169.04-613.137,0C258.14,328.725,229.554,369.278,208.301,414.166z"/>
		<path fill="#FCD290" d="M925.14,434.809H531.052c-4.3,0-8.15-2.667-9.663-6.692c-1.511-4.032-0.369-8.575,2.877-11.405
			C689.664,272.26,856.594,214.269,921.163,278.838c30.144,30.151,34.922,81.584,13.823,148.739
			C933.634,431.879,929.65,434.809,925.14,434.809z M559.127,414.166h358.346c15.907-55.014,12.103-97.717-10.905-120.732
			C853.361,240.254,706.644,292.124,559.127,414.166z"/>
		<path fill="#FCD290" d="M353.485,947.681c-31.139,0-56.721-8.589-74.65-26.517c-31.273-31.272-35.237-85.184-11.457-155.915
			c1.412-4.208,5.349-7.037,9.784-7.037h399.739c4.282,0,8.126,2.648,9.644,6.646c1.525,4.005,0.423,8.534-2.775,11.383
			C560.948,885.631,437.172,947.681,353.485,947.681z M284.662,778.855c-18.318,58.488-15.266,103.678,8.769,127.714
			c54.712,54.685,205.092-0.181,355.841-127.714H284.662z"/>
		<path fill="#FCD290" d="M846.514,947.681c-83.687,0-207.457-62.037-330.286-171.44c-3.198-2.849-4.301-7.378-2.775-11.383
			c1.519-3.998,5.362-6.646,9.643-6.646h399.732c4.435,0,8.373,2.829,9.783,7.029c23.782,70.732,19.824,124.65-11.449,155.922
			C903.235,939.093,877.647,947.681,846.514,947.681z M550.728,778.855c150.756,127.533,301.142,182.398,355.84,127.714
			c24.036-24.036,27.086-69.226,8.762-127.714H550.728z"/>
		<path fill="#FCD290" d="M668.939,434.809H274.858c-4.509,0-8.493-2.923-9.844-7.224c-21.107-67.157-16.329-118.589,13.821-148.746
			c64.55-64.549,231.48-6.585,396.891,137.873c3.246,2.83,4.388,7.372,2.876,11.405C677.091,432.141,673.24,434.809,668.939,434.809
			z M282.526,414.166h358.339C493.355,292.13,346.611,240.241,293.431,293.434C270.417,316.455,266.613,359.152,282.526,414.166z"/>
	</g>
	<path fill="#2A1540" d="M1073.161,778.855H126.838c-5.698,0-10.321-4.623-10.321-10.321V424.487
		c0-5.698,4.623-10.322,10.321-10.322h946.323c5.698,0,10.322,4.623,10.322,10.322v344.047
		C1083.483,774.232,1078.859,778.855,1073.161,778.855z M137.159,758.212h925.68l2.831-320.573H139.99L137.159,758.212z"/>
	<g>
		<path fill="#2A1540" d="M960.265,660.091c-2.641,0-5.282-1.007-7.298-3.023c-4.032-4.032-4.032-10.564,0-14.596l45.962-45.963
			l-45.962-45.969c-4.032-4.032-4.032-10.563,0-14.594c4.032-4.032,10.563-4.032,14.594,0l53.26,53.267
			c4.032,4.032,4.032,10.563,0,14.596l-53.26,53.26C965.546,659.084,962.906,660.091,960.265,660.091z"/>
		<path fill="#2A1540" d="M239.734,660.098c-2.641,0-5.281-1.008-7.298-3.023l-53.266-53.266c-1.935-1.937-3.024-4.563-3.024-7.299
			c0-2.735,1.089-5.362,3.024-7.297l53.266-53.261c4.032-4.032,10.563-4.032,14.595,0c4.032,4.032,4.032,10.564,0,14.595
			l-45.969,45.963l45.969,45.97c4.032,4.032,4.032,10.563,0,14.595C245.017,659.09,242.376,660.098,239.734,660.098z"/>
	</g>
	<path fill="#FC523A" d="M432.421,691.673c0,0,31.537,35.246,87.189-8.348c55.652-43.594,89.043-37.102,89.043-37.102l-58.435-60.29
		L432.421,691.673z"/>
	<path fill="#FC523A" d="M620.355,649.007l74.203-64.928l43.594,36.174c0,0-40.811,0-53.797,10.203
		C671.37,640.659,661.167,666.63,620.355,649.007z"/>
	<g>
		<path fill="#2A1540" d="M692.655,583.703c-3.798-3.299-9.465-3.23-13.176,0.162l-63.329,57.884l-62.434-55.429
			c-3.761-3.345-9.425-3.336-13.173,0.024l-112.94,101.049c-4.074,3.647-4.423,9.904-0.778,13.98
			c3.645,4.072,9.904,4.42,13.979,0.777l106.364-95.167l107.225,95.19c1.885,1.674,4.23,2.498,6.568,2.498
			c2.732,0,5.45-1.125,7.407-3.326c3.63-4.091,3.258-10.349-0.831-13.976l-36.498-32.402l55.283-50.533l64.702,56.267
			c1.876,1.628,4.188,2.429,6.493,2.429c2.765,0,5.517-1.152,7.475-3.403c3.587-4.127,3.15-10.38-0.974-13.969L692.655,583.703z"/>
		<path fill="#2A1540" d="M687.892,556.915c24.919,0,45.192-20.272,45.192-45.191c0-24.92-20.273-45.191-45.192-45.191
			c-24.918,0-45.191,20.271-45.191,45.191C642.7,536.643,662.974,556.915,687.892,556.915z M687.892,486.331
			c14.001,0,25.392,11.389,25.392,25.392c0,14.002-11.391,25.391-25.392,25.391c-14,0-25.391-11.389-25.391-25.391
			C662.501,497.72,673.891,486.331,687.892,486.331z"/>
	</g>
</g>
</svg>
