<?xml version="1.0" encoding="utf-8"?>
<!-- Generator: Adobe Illustrator 19.1.0, SVG Export Plug-In . SVG Version: 6.00 Build 0)  -->
<svg version="1.1" id="Layer_1" xmlns="http://www.w3.org/2000/svg" xmlns:xlink="http://www.w3.org/1999/xlink" x="0px" y="0px"
	 viewBox="0 0 1200 1200" enable-background="new 0 0 1200 1200" xml:space="preserve">
<g>
	<circle fill="#2A1540" cx="606.494" cy="600" r="521.516"/>
	<polygon fill="#63EFFF" points="910.164,312.608 915.777,653.56 600.08,483.785 294.205,656.366 288.592,305.592 601.483,472.56 	
		"/>
	<polygon fill="#278EB3" points="353.882,781.003 234.124,983.901 1028.857,983.901 893.148,780.211 	"/>
	<path fill="#FCAC6F" d="M292.908,665.711c-3.862,5.791,305.203,171,305.203,171l311.696-183.987L593.781,483.889L292.908,665.711z"
		/>
	<path fill="#FC523A" d="M292.908,291.243c-3.862-5.79,305.203-171,305.203-171L909.807,304.23L593.781,473.066L292.908,291.243z"/>
	<path fill="#FC523A" d="M353.882,781.003l-102.101-4.899c0,0-34.633,10.823-49.784,32.468
		C186.844,830.218,61.3,962.256,61.3,962.256s-6.494,23.81,45.456,23.81s127.368-2.164,127.368-2.164L353.882,781.003z"/>
	<path fill="#FC523A" d="M911.971,782.597h51.949l168.836,189.399c0,0-6.494,18.398-43.292,18.398c-36.797,0-73.595,0-73.595,0
		L911.971,782.597z"/>
	<path fill="#FCAC6F" d="M946.645,800.885c58.802,52.316,103.982,117.292,143.099,185.181h35.45
		c-43.437-81.736-100.339-154.436-169.582-216.046c-9.572-8.52-24.264-7.674-32.793,1.914
		C914.29,781.521,937.056,792.357,946.645,800.885z"/>
	<path fill="#FC523A" d="M1122.851,981.736h-35.668c0.848,1.458,1.736,2.896,2.577,4.357
		c-324.024,12.612-669.838,13.898-993.742,4.523c-12.854-0.651-23.523,9.723-23.893,22.547c-0.37,12.823,9.724,23.523,22.547,23.893
		c138.225,3.992,277.199,5.989,416.324,5.989c200.483,0,401.253-4.144,600.315-12.424c7.908-0.324,15.106-4.657,19.092-11.5
		c3.992-6.835,4.227-15.236,0.62-22.282C1128.409,991.731,1125.569,986.775,1122.851,981.736z"/>
	<path fill="#FC523A" d="M863.649,634.357c-5.298-1.416-9.705-4.164-13.326-7.636c-0.909,1.699-1.768,3.432-2.859,5.014
		c-9.489,13.761-26.282,23.568-42.524,33.049l-202.494,118.18c-11.083,6.466-14.82,20.688-8.354,31.765
		c4.316,7.402,12.089,11.523,20.082,11.523c3.977,0,8.007-1.021,11.681-3.168l202.502-118.181
		c18.707-10.919,41.987-24.506,57.352-46.796c2.996-4.347,5.481-8.833,7.704-13.393C883.58,641.011,873.827,637.078,863.649,634.357
		z"/>
	<path fill="#FFFFFF" d="M849.296,628.607c13.071,0.403,24.993,5.318,36.122,14.622c2.268,1.896,4.081,4.044,5.522,6.348
		c14.783-26.674,16.237-57.014,16.319-88.335c0.207-79.822-1.71-160.807-5.627-240.82c-15.132,5.733-30.42,10.958-45.797,16.043
		c3.436,74.739,5.164,150.193,4.969,224.656C860.732,587.698,859.669,611.157,849.296,628.607z"/>
	<path fill="#63EFFF" d="M1002.883,951.433H269.098c-10.761,0-19.481,8.72-19.481,19.481c0,10.761,8.72,19.481,19.481,19.481
		h733.785c10.761,0,19.481-8.72,19.481-19.481C1022.364,960.153,1013.644,951.433,1002.883,951.433z"/>
	<g>
		<g>
			<g>
				<path fill="#2A1540" d="M1106.759,1000.713H93.25c-21.322,0-35.992-6.517-41.306-18.358c-1.92-4.287-5.126-15.682,6.638-28.899
					l152.229-171.032c9.989-11.221,34.743-17.089,54.039-17.089h138.345c6.413,0,11.615,5.202,11.615,11.614
					c0,6.413-5.201,11.613-11.615,11.613H264.85c-17.08,0-33.397,5.604-36.694,9.301L75.928,968.895
					c-2.548,2.866-2.699,4.364-2.699,4.364c0.491,0.529,5.678,4.227,20.022,4.227h1013.508c13.965,0,19.251-3.509,20.074-4.605
					c-0.143-0.045-0.56-1.504-2.76-3.985L971.845,797.863c-3.297-3.697-19.613-9.301-36.694-9.301H790.325
					c-6.411,0-11.613-5.201-11.613-11.613c0-6.412,5.202-11.614,11.613-11.614h144.827c19.295,0,44.05,5.868,54.039,17.089
					l152.227,171.032c11.766,13.217,8.56,24.612,6.64,28.899C1142.749,994.196,1128.081,1000.713,1106.759,1000.713z"/>
				<path fill="#2A1540" d="M233.464,996.902c-2.003,0-4.029-0.514-5.882-1.603c-5.527-3.259-7.372-10.373-4.121-15.9
					l121.643-206.653c3.267-5.536,10.374-7.365,15.902-4.122c5.527,3.26,7.372,10.374,4.12,15.902L243.483,991.179
					C241.312,994.861,237.441,996.902,233.464,996.902z"/>
				<path fill="#2A1540" d="M1033.15,996.902c-3.674,0-7.281-1.738-9.542-4.983L879.857,785.266
					c-3.659-5.262-2.367-12.506,2.903-16.165c5.256-3.668,12.5-2.36,16.167,2.903l143.752,206.653
					c3.661,5.263,2.367,12.506-2.904,16.165C1037.756,996.23,1035.441,996.902,1033.15,996.902z"/>
				<path fill="#2A1540" d="M198.494,915.613c-2.405,0-4.832-0.74-6.911-2.283c-5.149-3.826-6.231-11.1-2.411-16.248l58.576-78.977
					c3.826-5.149,11.092-6.23,16.248-2.412c5.151,3.826,6.231,11.1,2.412,16.249l-58.576,78.976
					C205.549,913.987,202.047,915.613,198.494,915.613z"/>
			</g>
			<path fill="#2A1540" d="M1106.305,1056.839H93.697c-24.097,0-43.697-19.599-43.697-43.695v-36.317
				c0-6.412,5.203-11.613,11.615-11.613c6.412,0,11.614,5.201,11.614,11.613v36.317c0,11.288,9.179,20.467,20.468,20.467h1012.608
				c11.289,0,20.467-9.179,20.467-20.467v-36.317c0-6.412,5.202-11.613,11.615-11.613c6.412,0,11.613,5.201,11.613,11.613v36.317
				C1150,1037.241,1130.403,1056.839,1106.305,1056.839z"/>
		</g>
		<path fill="#2A1540" d="M600.004,851.041c-2.004,0-4.007-0.521-5.807-1.558L283.231,669.945
			c-3.591-2.073-5.806-5.905-5.806-10.057V300.81c0-4.151,2.215-7.984,5.806-10.055l310.967-179.54
			c3.599-2.071,8.015-2.071,11.614,0l310.966,179.54c3.591,2.071,5.807,5.905,5.807,10.055v359.078
			c0,4.151-2.216,7.984-5.807,10.057L605.812,849.483C604.012,850.519,602.008,851.041,600.004,851.041z M300.652,653.182
			l299.352,172.831l299.353-172.831V307.517L600.004,134.685L300.652,307.517V653.182z"/>
		<path fill="#2A1540" d="M289.046,671.502c-4.007,0-7.916-2.081-10.063-5.807c-3.206-5.558-1.308-12.657,4.248-15.863
			l621.933-359.078c5.543-3.207,12.665-1.316,15.863,4.248c3.206,5.558,1.308,12.657-4.249,15.865L294.845,669.945
			C293.016,671.002,291.02,671.502,289.046,671.502z"/>
		<path fill="#2A1540" d="M910.963,671.502c-1.973,0-3.969-0.5-5.799-1.558L283.231,310.867c-5.557-3.207-7.454-10.307-4.248-15.865
			c3.205-5.564,10.313-7.455,15.863-4.248l621.933,359.078c5.557,3.205,7.455,10.305,4.249,15.863
			C918.879,669.422,914.971,671.502,910.963,671.502z"/>
	</g>
</g>
</svg>
