<?xml version="1.0" encoding="utf-8"?>
<!-- Generator: Adobe Illustrator 19.1.0, SVG Export Plug-In . SVG Version: 6.00 Build 0)  -->
<svg version="1.1" id="Layer_1" xmlns="http://www.w3.org/2000/svg" xmlns:xlink="http://www.w3.org/1999/xlink" x="0px" y="0px"
	 viewBox="0 0 1200 1200" enable-background="new 0 0 1200 1200" xml:space="preserve">
<g>
	<circle fill="#2A1540" cx="600" cy="600" r="550"/>
	<g>
		<path fill="#C4E9FB" d="M507.997,892.951c-4.112,0-7.622-3.106-8.009-7.254c-1.48-15.768-2.712-31.401-3.95-47.367
			c-0.294-3.784-1.443-6.146-4.091-8.436c-16.481-14.228-25.838-32.832-33.311-49.147c-13.261-28.929-21.228-53.851-25.067-78.43
			c-1.458-9.33-1.894-18.453-1.286-27.103c1.075-15.54,10.055-28.216,25.963-36.647c7.244-3.84,15.018-6.448,23.005-8.987
			c0-1.067,0.011-2.066,0.022-3.065l0.021-2.493l0.005-35.346c0.006-39.264,0.01-69.588-0.016-115.733
			c-0.006-9.091,1.306-22.404,12.698-33.025c9.825-9.164,27.768-12.136,39.979-6.608c12.882,5.838,19.664,16.616,19.622,31.172
			c-0.078,32.124-0.057,48.709-0.031,73.866l0.021,23.517c4.92-1.098,9.62-2.144,14.329-3.169
			c16.586-3.642,31.183,1.884,43.357,16.388c24.143-8.581,44.962-6.672,65.496,24.095c0.163-0.037,0.331-0.073,0.499-0.109
			c4.442-0.969,9.037-1.968,13.711-2.712c8.465-1.358,16.029,0.328,21.861,4.876c5.89,4.59,9.374,11.579,10.066,20.223l0.383,4.757
			c0.996,12.339,2.029,25.088,2.591,37.724c0.53,11.766,0.833,23.549,1.143,35.325c0.189,7.229,0.373,14.457,0.613,21.685
			c0.908,27.43-7.207,54.372-24.809,82.355c-4.847,7.707-9.824,15.325-14.875,22.902c-2.329,3.503-3.352,6.765-3.305,10.58
			c0.184,14.79,0.179,29.855-0.01,44.781c-0.058,4.382-3.65,7.894-8.057,7.894c-0.031,0-0.068,0-0.1,0
			c-4.453-0.057-8.015-3.679-7.957-8.092c0.189-14.795,0.194-29.731,0.01-44.39c-0.084-7.015,1.872-13.421,5.98-19.589
			c4.967-7.462,9.871-14.966,14.645-22.548c15.85-25.208,23.173-49.204,22.375-73.367c-0.241-7.265-0.43-14.53-0.619-21.799
			c-0.304-11.678-0.608-23.355-1.128-35.029c-0.555-12.349-1.573-24.959-2.56-37.152l-0.383-4.767
			c-0.231-2.842-1.102-6.698-3.955-8.92c-2.78-2.17-6.625-2.098-9.347-1.67c-4.227,0.676-8.403,1.587-12.824,2.55
			c-2.041,0.443-4.081,0.884-6.122,1.306c-3.363,0.708-6.766-0.791-8.534-3.695c-19.25-31.635-33.968-28.576-54.234-20.29
			c-3.258,1.332-7.019,0.406-9.279-2.295l-3.551-4.268c-8.387-10.044-16.91-13.473-27.626-11.137
			c-5.156,1.124-10.312,2.274-15.746,3.486l-7.904,1.765c-2.334,0.515-4.746-0.01-6.64-1.437c-1.887-1.431-3.047-3.611-3.168-5.964
			l-0.173-2.951c-0.142-2.191-0.268-4.246-0.268-6.303l-0.021-24.542c-0.026-25.176-0.047-41.772,0.031-73.923
			c0.021-8.264-3.121-13.379-10.196-16.585c-6.211-2.811-17.235-0.978-22.255,3.711c-5.345,4.985-7.627,11.376-7.622,21.367
			c0.026,46.15,0.021,76.479,0.016,115.743l-0.026,38.031c-0.015,1.254-0.032,2.503-0.01,3.763
			c0.078,4.885-1.763,11.334-11.026,14.279c-7.605,2.409-14.387,4.673-20.508,7.915c-11.067,5.871-16.79,13.609-17.487,23.658
			c-0.52,7.462-0.142,15.384,1.138,23.543c3.609,23.101,11.173,46.696,23.808,74.262c8.408,18.349,16.595,32.8,29.221,43.703
			c5.837,5.038,8.968,11.345,9.582,19.276c1.233,15.893,2.46,31.464,3.924,47.113c0.414,4.397-2.843,8.289-7.275,8.696
			C508.5,892.941,508.248,892.951,507.997,892.951z"/>
		<path fill="#C4E9FB" d="M545.945,622.467c-4.448,0-8.057-3.581-8.057-7.994v-42.714c0-4.413,3.609-7.993,8.057-7.993
			c4.448,0,8.057,3.58,8.057,7.993v42.714C554.002,618.886,550.393,622.467,545.945,622.467z"/>
		<path fill="#C4E9FB" d="M488.569,681.324c-4.449,0-8.057-3.58-8.057-7.994v-42.714c0-4.413,3.608-7.993,8.057-7.993
			c4.447,0,8.056,3.58,8.056,7.993v42.714C496.625,677.744,493.016,681.324,488.569,681.324z"/>
		<path fill="#C4E9FB" d="M608.966,640.597c-4.448,0-8.057-3.58-8.057-7.994v-49.173c0-4.413,3.61-7.994,8.057-7.994
			s8.056,3.581,8.056,7.994v49.173C617.022,637.017,613.413,640.597,608.966,640.597z"/>
		<path fill="#C4E9FB" d="M674.042,659.967c-4.448,0-8.057-3.58-8.057-7.994v-42.714c0-4.413,3.609-7.993,8.057-7.993
			c4.448,0,8.056,3.58,8.056,7.993v42.714C682.099,656.387,678.49,659.967,674.042,659.967z"/>
	</g>
	<path fill="#C4E9FB" d="M656.539,513.354h-81.725c-4.448,0-8.057-3.581-8.057-7.994s3.609-7.993,8.057-7.993h73.667V383.685H382.6
		v113.682h79.485c4.448,0,8.056,3.58,8.056,7.993s-3.608,7.994-8.056,7.994h-87.541c-4.448,0-8.057-3.581-8.057-7.994V375.691
		c0-4.413,3.609-7.993,8.057-7.993h281.995c4.448,0,8.056,3.58,8.056,7.993V505.36C664.595,509.773,660.987,513.354,656.539,513.354
		z"/>
	<path fill="#C4E9FB" d="M839.715,383.685H656.539c-4.448,0-8.057-3.58-8.057-7.994v-84.232c0-4.414,3.609-7.994,8.057-7.994
		h183.176c4.448,0,8.056,3.58,8.056,7.994v84.232C847.772,380.104,844.164,383.685,839.715,383.685z M664.595,367.698h167.063
		v-68.246H664.595V367.698z"/>
	<g>
		<path fill="#C4E9FB" d="M839.715,513.354H701.632c-4.448,0-8.057-3.581-8.057-7.994s3.609-7.993,8.057-7.993h138.083
			c4.448,0,8.056,3.58,8.056,7.993S844.164,513.354,839.715,513.354z"/>
		<path fill="#C4E9FB" d="M839.715,472.939H701.632c-4.448,0-8.057-3.58-8.057-7.993s3.609-7.994,8.057-7.994h138.083
			c4.448,0,8.056,3.58,8.056,7.994S844.164,472.939,839.715,472.939z"/>
		<path fill="#C4E9FB" d="M839.715,432.519H701.632c-4.448,0-8.057-3.58-8.057-7.993c0-4.414,3.609-7.994,8.057-7.994h138.083
			c4.448,0,8.056,3.58,8.056,7.994C847.772,428.939,844.164,432.519,839.715,432.519z"/>
	</g>
	<g>
		<path fill="#C4E9FB" d="M608.966,341.568H371.03c-4.448,0-8.057-3.58-8.057-7.993s3.608-7.994,8.057-7.994h237.936
			c4.448,0,8.056,3.581,8.056,7.994S613.413,341.568,608.966,341.568z"/>
		<path fill="#C4E9FB" d="M608.966,301.154H371.03c-4.448,0-8.057-3.58-8.057-7.993c0-4.413,3.608-7.994,8.057-7.994h237.936
			c4.448,0,8.056,3.58,8.056,7.994C617.022,297.573,613.413,301.154,608.966,301.154z"/>
	</g>
</g>
</svg>
